<svg xmlns="http://www.w3.org/2000/svg" xmlns:xlink="http://www.w3.org/1999/xlink" contentStyleType="text/css" data-diagram-type="DESCRIPTION" height="1452px" preserveAspectRatio="none" style="width:1864px;height:1452px;background:#FFFFFF;" version="1.1" viewBox="0 0 1864 1452" width="1864px" zoomAndPan="magnify"><title>&#1040;&#1088;&#1093;&#1080;&#1090;&#1077;&#1082;&#1090;&#1091;&#1088;&#1072; AI Assistants Proxy &#8212; Deployment</title><defs/><g><text fill="#000000" font-family="Verdana" font-size="22" font-weight="bold" lengthAdjust="spacing" textLength="596.2236" x="629.389" y="37.1182">&#1040;&#1088;&#1093;&#1080;&#1090;&#1077;&#1082;&#1090;&#1091;&#1088;&#1072; AI Assistants Proxy &#8212; Deployment</text><!--cluster inet--><g class="cluster" data-entity="inet" data-source-line="30" data-uid="ent0002" id="cluster_inet"><path d="M1298.5979,1169.113 C1310.8803,1149.7465 1323.5167,1150.3841 1335.6706,1169.2377 C1343.545,1152.1879 1356.721,1149.6919 1368.3728,1165.4754 C1379.824,1145.5801 1396.5239,1145.8452 1409.0038,1164.388 C1418.1115,1149.1568 1430.6197,1147.1046 1442.2353,1161.5828 C1455.3799,1143.7593 1471.9325,1146.1389 1483.2649,1163.685 C1492.9424,1145.0986 1504.9488,1144.6179 1517.2252,1161.1735 C1529.6866,1140.291 1542.3378,1140.5614 1556.0439,1159.9744 C1571.8191,1141.1878 1582.6884,1147.0327 1593.9495,1164.6719 C1605.2937,1146.4277 1620.8894,1148.6209 1629.9246,1166.9435 C1641.4232,1147.5989 1652.5377,1149.9056 1665.5904,1165.3501 C1677.1483,1145.8098 1692.9993,1151.1959 1703.3168,1166.6859 C1713.9619,1150.4016 1732.0355,1145.6806 1742.349,1167.0298 C1753.3869,1149.5803 1769.791,1145.5496 1781.492,1166.3512 C1794.6042,1151.5476 1812.6163,1151.3917 1819,1173.2373 C1821.4831,1170.3058 1824.0501,1171.3938 1825.3558,1174.4807 C1857.0016,1191.453 1856.2036,1219.2266 1827.8635,1238.5469 C1849.6916,1261.4043 1848.4833,1292.3745 1812,1300.2373 C1815.689,1301.3756 1815.8815,1303.9406 1813.7685,1306.6732 C1802.2582,1321.2658 1788.7886,1320.3425 1778.3664,1305.3702 C1765.9011,1323.4865 1751.1536,1322.0139 1738.2947,1305.8301 C1728.7,1325.3325 1715.2556,1325.7515 1702.7394,1308.6695 C1689.6757,1323.9673 1672.8305,1325.0311 1664.7907,1303.4937 C1655.7869,1321.7227 1641.0068,1322.1787 1630.959,1304.4767 C1622.6802,1324.9629 1606.7858,1327.3759 1594.0814,1308.6375 C1579.8227,1322.8034 1568.0359,1324.3182 1556.3652,1305.6635 C1546.2771,1322.4283 1530.4256,1323.5191 1518.0632,1308.3953 C1508.3851,1326.3323 1495.2786,1328.3504 1483.7501,1310.1525 C1468.1966,1327.0492 1455.9721,1323.2681 1445.8688,1304.3825 C1433.0073,1321.5496 1421.5593,1319.8278 1408.3074,1304.8385 C1398.5704,1325.8405 1382.0402,1329.3702 1368.41,1308.5528 C1355.8724,1326.8811 1342.2594,1324.1563 1332.1456,1306.1348 C1309.9129,1327.3449 1294.2254,1319.5738 1285,1293.2373 C1289.0356,1293.7299 1290.6818,1295.4239 1288.4558,1299.4177 C1259.3328,1285.3594 1249.7964,1259.175 1279.3084,1236.5811 C1249.3737,1212.801 1259.3475,1178.7253 1292,1166.2373 C1295.74,1163.6492 1297.7892,1164.9756 1298.5979,1169.113" fill="#FFFFFF" style="stroke:#000000;stroke-width:1;"/><text fill="#000000" font-family="Verdana" font-size="14" font-weight="bold" lengthAdjust="spacing" textLength="65.8984" x="1519.0508" y="1185.3125">Internet</text></g><!--cluster access_zone--><g class="cluster" data-entity="access_zone" data-source-line="39" data-uid="ent0008" id="cluster_access_zone"><rect fill="#F0F8FF" height="677.5" rx="2.5" ry="2.5" style="stroke:#191970;stroke-width:1;stroke-dasharray:7.0,7.0;" width="1150" x="12" y="231.7373"/><text fill="#000000" font-family="Verdana" font-size="14" font-weight="bold" lengthAdjust="spacing" textLength="106.8936" x="533.5532" y="247.8125">Access Nodes</text></g><!--cluster access01--><g class="cluster" data-entity="access01" data-source-line="40" data-uid="ent0009" id="cluster_access01"><polygon fill="#F5F5F5" points="36,285.7373,46,275.7373,484,275.7373,484,875.2373,474,885.2373,36,885.2373,36,285.7373" style="stroke:#333333;stroke-width:1;"/><line style="stroke:#333333;stroke-width:1;" x1="474" x2="484" y1="285.7373" y2="275.7373"/><line style="stroke:#333333;stroke-width:1;" x1="36" x2="474" y1="285.7373" y2="285.7373"/><line style="stroke:#333333;stroke-width:1;" x1="474" x2="474" y1="285.7373" y2="885.2373"/><text fill="#000000" font-family="Verdana" font-size="14" font-weight="bold" lengthAdjust="spacing" textLength="173.4619" x="169.269" y="302.8125">access01.example.com</text><text fill="#000000" font-family="Verdana" font-size="14" font-weight="bold" lengthAdjust="spacing" textLength="104.7539" x="203.623" y="319.8271">203.0.113.1</text></g><!--cluster access02--><g class="cluster" data-entity="access02" data-source-line="49" data-uid="ent0015" id="cluster_access02"><polygon fill="#F5F5F5" points="508,502.7373,518,492.7373,1138,492.7373,1138,620.7373,1128,630.7373,508,630.7373,508,502.7373" style="stroke:#333333;stroke-width:1;"/><line style="stroke:#333333;stroke-width:1;" x1="1128" x2="1138" y1="502.7373" y2="492.7373"/><line style="stroke:#333333;stroke-width:1;" x1="508" x2="1128" y1="502.7373" y2="502.7373"/><line style="stroke:#333333;stroke-width:1;" x1="1128" x2="1128" y1="502.7373" y2="630.7373"/><text fill="#000000" font-family="Verdana" font-size="14" font-weight="bold" lengthAdjust="spacing" textLength="173.4619" x="732.269" y="519.8125">access02.example.com</text><text fill="#000000" font-family="Verdana" font-size="14" font-weight="bold" lengthAdjust="spacing" textLength="104.7539" x="766.623" y="536.8271">203.0.113.2</text></g><!--cluster upstream_zone--><g class="cluster" data-entity="upstream_zone" data-source-line="57" data-uid="ent0020" id="cluster_upstream_zone"><rect fill="#F5FFF0" height="397.5" rx="2.5" ry="2.5" style="stroke:#191970;stroke-width:1;stroke-dasharray:7.0,7.0;" width="517" x="1186" y="711.7373"/><text fill="#000000" font-family="Verdana" font-size="14" font-weight="bold" lengthAdjust="spacing" textLength="129.9033" x="1379.5483" y="727.8125">Upstream Nodes</text></g><!--cluster upstream01--><g class="cluster" data-entity="upstream01" data-source-line="58" data-uid="ent0021" id="cluster_upstream01"><polygon fill="#F5F5F5" points="1210,765.7373,1220,755.7373,1679,755.7373,1679,1075.2373,1669,1085.2373,1210,1085.2373,1210,765.7373" style="stroke:#333333;stroke-width:1;"/><line style="stroke:#333333;stroke-width:1;" x1="1669" x2="1679" y1="765.7373" y2="755.7373"/><line style="stroke:#333333;stroke-width:1;" x1="1210" x2="1669" y1="765.7373" y2="765.7373"/><line style="stroke:#333333;stroke-width:1;" x1="1669" x2="1669" y1="765.7373" y2="1085.2373"/><text fill="#000000" font-family="Verdana" font-size="14" font-weight="bold" lengthAdjust="spacing" textLength="196.5947" x="1342.2026" y="782.8125">upstream01.example.com</text><text fill="#000000" font-family="Verdana" font-size="14" font-weight="bold" lengthAdjust="spacing" textLength="124.6602" x="1378.1699" y="799.8271">198.51.100.11</text></g><!--entity aiapi--><g class="entity" data-entity="aiapi" data-source-line="31" data-uid="ent0003" id="entity_aiapi"><rect fill="#E8E8E8" height="64.0293" rx="2.5" ry="2.5" style="stroke:#555555;stroke-width:1;" width="222.7861" x="1587.5" y="1211.2373"/><rect fill="#E8E8E8" height="10" style="stroke:#555555;stroke-width:1;" width="15" x="1790.2861" y="1216.2373"/><rect fill="#E8E8E8" height="2" style="stroke:#555555;stroke-width:1;" width="4" x="1788.2861" y="1218.2373"/><rect fill="#E8E8E8" height="2" style="stroke:#555555;stroke-width:1;" width="4" x="1788.2861" y="1222.2373"/><text fill="#000000" font-family="Verdana" font-size="14" lengthAdjust="spacing" textLength="44.29" x="1602.5" y="1245.3125">AI API</text><text fill="#000000" font-family="Verdana" font-size="14" lengthAdjust="spacing" textLength="182.7861" x="1602.5" y="1262.3271">(chatgpt.com, gemini, ...)</text></g><!--entity tgsrv--><g class="entity" data-entity="tgsrv" data-source-line="32" data-uid="ent0004" id="entity_tgsrv"><rect fill="#E8E8E8" height="64.0293" rx="2.5" ry="2.5" style="stroke:#555555;stroke-width:1;" width="105.8711" x="1446" y="1211.2373"/><rect fill="#E8E8E8" height="10" style="stroke:#555555;stroke-width:1;" width="15" x="1531.8711" y="1216.2373"/><rect fill="#E8E8E8" height="2" style="stroke:#555555;stroke-width:1;" width="4" x="1529.8711" y="1218.2373"/><rect fill="#E8E8E8" height="2" style="stroke:#555555;stroke-width:1;" width="4" x="1529.8711" y="1222.2373"/><text fill="#000000" font-family="Verdana" font-size="14" lengthAdjust="spacing" textLength="65.8711" x="1461" y="1245.3125">Telegram</text><text fill="#000000" font-family="Verdana" font-size="14" lengthAdjust="spacing" textLength="51.502" x="1461" y="1262.3271">servers</text></g><!--entity pubdns--><g class="entity" data-entity="pubdns" data-source-line="33" data-uid="ent0005" id="entity_pubdns"><rect fill="#E8E8E8" height="98.0586" rx="2.5" ry="2.5" style="stroke:#555555;stroke-width:1;" width="116.7539" x="1293.5" y="1194.2373"/><rect fill="#E8E8E8" height="10" style="stroke:#555555;stroke-width:1;" width="15" x="1390.2539" y="1199.2373"/><rect fill="#E8E8E8" height="2" style="stroke:#555555;stroke-width:1;" width="4" x="1388.2539" y="1201.2373"/><rect fill="#E8E8E8" height="2" style="stroke:#555555;stroke-width:1;" width="4" x="1388.2539" y="1205.2373"/><text fill="#000000" font-family="Verdana" font-size="14" lengthAdjust="spacing" textLength="76.7539" x="1308.5" y="1228.3125">Public DNS</text><text fill="#000000" font-family="Verdana" font-size="14" lengthAdjust="spacing" textLength="50.8799" x="1308.5" y="1245.3271">9.9.9.9</text><text fill="#000000" font-family="Verdana" font-size="14" lengthAdjust="spacing" textLength="50.8799" x="1308.5" y="1262.3418">8.8.8.8</text><text fill="#000000" font-family="Verdana" font-size="14" lengthAdjust="spacing" textLength="50.8799" x="1308.5" y="1279.3564">1.1.1.1</text></g><!--entity acc_squid--><g class="entity" data-entity="acc_squid" data-source-line="43" data-uid="ent0011" id="entity_acc_squid"><rect fill="#DDEEFF" height="47.0146" rx="2.5" ry="2.5" style="stroke:#555555;stroke-width:1;" width="126.5977" x="339.5" y="559.2373"/><rect fill="#DDEEFF" height="10" style="stroke:#555555;stroke-width:1;" width="15" x="446.0977" y="564.2373"/><rect fill="#DDEEFF" height="2" style="stroke:#555555;stroke-width:1;" width="4" x="444.0977" y="566.2373"/><rect fill="#DDEEFF" height="2" style="stroke:#555555;stroke-width:1;" width="4" x="444.0977" y="570.2373"/><text fill="#000000" font-family="Verdana" font-size="14" lengthAdjust="spacing" textLength="86.5977" x="354.5" y="593.3125">Squid :3128</text></g><!--entity acc_dns--><g class="entity" data-entity="acc_dns" data-source-line="44" data-uid="ent0012" id="entity_acc_dns"><rect fill="#FFF8DC" height="47.0146" rx="2.5" ry="2.5" style="stroke:#555555;stroke-width:1;" width="130.46" x="338" y="822.2373"/><rect fill="#FFF8DC" height="10" style="stroke:#555555;stroke-width:1;" width="15" x="448.46" y="827.2373"/><rect fill="#FFF8DC" height="2" style="stroke:#555555;stroke-width:1;" width="4" x="446.46" y="829.2373"/><rect fill="#FFF8DC" height="2" style="stroke:#555555;stroke-width:1;" width="4" x="446.46" y="833.2373"/><text fill="#000000" font-family="Verdana" font-size="14" lengthAdjust="spacing" textLength="90.46" x="353" y="856.3125">unbound :53</text></g><!--entity acc_ka--><g class="entity" data-entity="acc_ka" data-source-line="45" data-uid="ent0013" id="entity_acc_ka"><rect fill="#FFE0E0" height="64.0293" rx="2.5" ry="2.5" style="stroke:#555555;stroke-width:1;" width="116.542" x="350.5" y="333.7373"/><rect fill="#FFE0E0" height="10" style="stroke:#555555;stroke-width:1;" width="15" x="447.042" y="338.7373"/><rect fill="#FFE0E0" height="2" style="stroke:#555555;stroke-width:1;" width="4" x="445.042" y="340.7373"/><rect fill="#FFE0E0" height="2" style="stroke:#555555;stroke-width:1;" width="4" x="445.042" y="344.7373"/><text fill="#000000" font-family="Verdana" font-size="14" lengthAdjust="spacing" textLength="76.542" x="365.5" y="367.8125">Keepalived</text><text fill="#000000" font-family="Verdana" font-size="14" lengthAdjust="spacing" textLength="37.4814" x="365.5" y="384.8271">VRRP</text></g><!--entity acc_cs--><g class="entity" data-entity="acc_cs" data-source-line="46" data-uid="ent0014" id="entity_acc_cs"><rect fill="#FFE0E0" height="47.0146" rx="2.5" ry="2.5" style="stroke:#555555;stroke-width:1;" width="109.6309" x="205" y="342.2373"/><rect fill="#FFE0E0" height="10" style="stroke:#555555;stroke-width:1;" width="15" x="294.6309" y="347.2373"/><rect fill="#FFE0E0" height="2" style="stroke:#555555;stroke-width:1;" width="4" x="292.6309" y="349.2373"/><rect fill="#FFE0E0" height="2" style="stroke:#555555;stroke-width:1;" width="4" x="292.6309" y="353.2373"/><text fill="#000000" font-family="Verdana" font-size="14" lengthAdjust="spacing" textLength="69.6309" x="220" y="376.3125">CrowdSec</text></g><!--entity acc_nginx--><g class="entity" data-entity="acc_nginx" data-source-line="41" data-uid="ent0010" id="entity_acc_nginx"><rect fill="#DDEEFF" height="47.0146" rx="2.5" ry="2.5" style="stroke:#555555;stroke-width:1;" width="116.5488" x="52.5" y="342.2373"/><rect fill="#DDEEFF" height="10" style="stroke:#555555;stroke-width:1;" width="15" x="149.0488" y="347.2373"/><rect fill="#DDEEFF" height="2" style="stroke:#555555;stroke-width:1;" width="4" x="147.0488" y="349.2373"/><rect fill="#DDEEFF" height="2" style="stroke:#555555;stroke-width:1;" width="4" x="147.0488" y="353.2373"/><text fill="#000000" font-family="Verdana" font-size="14" lengthAdjust="spacing" textLength="76.5488" x="67.5" y="376.3125">nginx :443</text></g><!--entity acc2_nginx--><g class="entity" data-entity="acc2_nginx" data-source-line="50" data-uid="ent0016" id="entity_acc2_nginx"><rect fill="#DDEEFF" height="47.0146" rx="2.5" ry="2.5" style="stroke:#555555;stroke-width:1;" width="116.5488" x="1004.5" y="559.2373"/><rect fill="#DDEEFF" height="10" style="stroke:#555555;stroke-width:1;" width="15" x="1101.0488" y="564.2373"/><rect fill="#DDEEFF" height="2" style="stroke:#555555;stroke-width:1;" width="4" x="1099.0488" y="566.2373"/><rect fill="#DDEEFF" height="2" style="stroke:#555555;stroke-width:1;" width="4" x="1099.0488" y="570.2373"/><text fill="#000000" font-family="Verdana" font-size="14" lengthAdjust="spacing" textLength="76.5488" x="1019.5" y="593.3125">nginx :443</text></g><!--entity acc2_squid--><g class="entity" data-entity="acc2_squid" data-source-line="51" data-uid="ent0017" id="entity_acc2_squid"><rect fill="#DDEEFF" height="47.0146" rx="2.5" ry="2.5" style="stroke:#555555;stroke-width:1;" width="126.5977" x="842.5" y="559.2373"/><rect fill="#DDEEFF" height="10" style="stroke:#555555;stroke-width:1;" width="15" x="949.0977" y="564.2373"/><rect fill="#DDEEFF" height="2" style="stroke:#555555;stroke-width:1;" width="4" x="947.0977" y="566.2373"/><rect fill="#DDEEFF" height="2" style="stroke:#555555;stroke-width:1;" width="4" x="947.0977" y="570.2373"/><text fill="#000000" font-family="Verdana" font-size="14" lengthAdjust="spacing" textLength="86.5977" x="857.5" y="593.3125">Squid :3128</text></g><!--entity acc2_dns--><g class="entity" data-entity="acc2_dns" data-source-line="52" data-uid="ent0018" id="entity_acc2_dns"><rect fill="#FFF8DC" height="47.0146" rx="2.5" ry="2.5" style="stroke:#555555;stroke-width:1;" width="130.46" x="677" y="559.2373"/><rect fill="#FFF8DC" height="10" style="stroke:#555555;stroke-width:1;" width="15" x="787.46" y="564.2373"/><rect fill="#FFF8DC" height="2" style="stroke:#555555;stroke-width:1;" width="4" x="785.46" y="566.2373"/><rect fill="#FFF8DC" height="2" style="stroke:#555555;stroke-width:1;" width="4" x="785.46" y="570.2373"/><text fill="#000000" font-family="Verdana" font-size="14" lengthAdjust="spacing" textLength="90.46" x="692" y="593.3125">unbound :53</text></g><!--entity acc2_ka--><g class="entity" data-entity="acc2_ka" data-source-line="53" data-uid="ent0019" id="entity_acc2_ka"><rect fill="#FFE0E0" height="64.0293" rx="2.5" ry="2.5" style="stroke:#555555;stroke-width:1;" width="116.542" x="524.5" y="550.7373"/><rect fill="#FFE0E0" height="10" style="stroke:#555555;stroke-width:1;" width="15" x="621.042" y="555.7373"/><rect fill="#FFE0E0" height="2" style="stroke:#555555;stroke-width:1;" width="4" x="619.042" y="557.7373"/><rect fill="#FFE0E0" height="2" style="stroke:#555555;stroke-width:1;" width="4" x="619.042" y="561.7373"/><text fill="#000000" font-family="Verdana" font-size="14" lengthAdjust="spacing" textLength="76.542" x="539.5" y="584.8125">Keepalived</text><text fill="#000000" font-family="Verdana" font-size="14" lengthAdjust="spacing" textLength="37.4814" x="539.5" y="601.8271">VRRP</text></g><!--entity up_nginx--><g class="entity" data-entity="up_nginx" data-source-line="59" data-uid="ent0022" id="entity_up_nginx"><rect fill="#D4EDDA" height="64.0293" rx="2.5" ry="2.5" style="stroke:#555555;stroke-width:1;" width="147.0303" x="1515.5" y="813.7373"/><rect fill="#D4EDDA" height="10" style="stroke:#555555;stroke-width:1;" width="15" x="1642.5303" y="818.7373"/><rect fill="#D4EDDA" height="2" style="stroke:#555555;stroke-width:1;" width="4" x="1640.5303" y="820.7373"/><rect fill="#D4EDDA" height="2" style="stroke:#555555;stroke-width:1;" width="4" x="1640.5303" y="824.7373"/><text fill="#000000" font-family="Verdana" font-size="14" lengthAdjust="spacing" textLength="76.5488" x="1530.5" y="847.8125">nginx :443</text><text fill="#000000" font-family="Verdana" font-size="14" lengthAdjust="spacing" textLength="107.0303" x="1530.5" y="864.8271">(MTProxy only)</text></g><!--entity up_squid--><g class="entity" data-entity="up_squid" data-source-line="60" data-uid="ent0023" id="entity_up_squid"><rect fill="#D4EDDA" height="47.0146" rx="2.5" ry="2.5" style="stroke:#555555;stroke-width:1;" width="108.7969" x="1371.5" y="822.2373"/><rect fill="#D4EDDA" height="10" style="stroke:#555555;stroke-width:1;" width="15" x="1460.2969" y="827.2373"/><rect fill="#D4EDDA" height="2" style="stroke:#555555;stroke-width:1;" width="4" x="1458.2969" y="829.2373"/><rect fill="#D4EDDA" height="2" style="stroke:#555555;stroke-width:1;" width="4" x="1458.2969" y="833.2373"/><text fill="#000000" font-family="Verdana" font-size="14" lengthAdjust="spacing" textLength="68.7969" x="1386.5" y="856.3125">Squid :80</text></g><!--entity up_mtg--><g class="entity" data-entity="up_mtg" data-source-line="61" data-uid="ent0024" id="entity_up_mtg"><rect fill="#D4EDDA" height="47.0146" rx="2.5" ry="2.5" style="stroke:#555555;stroke-width:1;" width="114.7373" x="1483.5" y="1005.2373"/><rect fill="#D4EDDA" height="10" style="stroke:#555555;stroke-width:1;" width="15" x="1578.2373" y="1010.2373"/><rect fill="#D4EDDA" height="2" style="stroke:#555555;stroke-width:1;" width="4" x="1576.2373" y="1012.2373"/><rect fill="#D4EDDA" height="2" style="stroke:#555555;stroke-width:1;" width="4" x="1576.2373" y="1016.2373"/><text fill="#000000" font-family="Verdana" font-size="14" lengthAdjust="spacing" textLength="74.7373" x="1498.5" y="1039.3125">mtg :2083</text></g><!--entity up_dns--><g class="entity" data-entity="up_dns" data-source-line="62" data-uid="ent0025" id="entity_up_dns"><rect fill="#FFF8DC" height="81.0439" rx="2.5" ry="2.5" style="stroke:#555555;stroke-width:1;" width="132.8389" x="1285.5" y="988.2373"/><rect fill="#FFF8DC" height="10" style="stroke:#555555;stroke-width:1;" width="15" x="1398.3389" y="993.2373"/><rect fill="#FFF8DC" height="2" style="stroke:#555555;stroke-width:1;" width="4" x="1396.3389" y="995.2373"/><rect fill="#FFF8DC" height="2" style="stroke:#555555;stroke-width:1;" width="4" x="1396.3389" y="999.2373"/><text fill="#000000" font-family="Verdana" font-size="14" lengthAdjust="spacing" textLength="61.3799" x="1300.5" y="1022.3125">unbound</text><text fill="#000000" font-family="Verdana" font-size="14" lengthAdjust="spacing" textLength="92.8389" x="1300.5" y="1039.3271">127.0.0.1:53</text><text fill="#000000" font-family="Verdana" font-size="14" lengthAdjust="spacing" textLength="62.6787" x="1300.5" y="1056.3418">+ ext:53</text></g><!--entity up_cs--><g class="entity" data-entity="up_cs" data-source-line="63" data-uid="ent0026" id="entity_up_cs"><rect fill="#FFE0E0" height="47.0146" rx="2.5" ry="2.5" style="stroke:#555555;stroke-width:1;" width="109.6309" x="1226" y="822.2373"/><rect fill="#FFE0E0" height="10" style="stroke:#555555;stroke-width:1;" width="15" x="1315.6309" y="827.2373"/><rect fill="#FFE0E0" height="2" style="stroke:#555555;stroke-width:1;" width="4" x="1313.6309" y="829.2373"/><rect fill="#FFE0E0" height="2" style="stroke:#555555;stroke-width:1;" width="4" x="1313.6309" y="833.2373"/><text fill="#000000" font-family="Verdana" font-size="14" lengthAdjust="spacing" textLength="69.6309" x="1241" y="856.3125">CrowdSec</text></g><!--entity user--><g class="entity" data-entity="user" data-source-line="36" data-uid="ent0006" id="entity_user"><ellipse cx="960.1177" cy="66.7373" fill="#FFFFFF" rx="8" ry="8" style="stroke:#000000;stroke-width:1;"/><path d="M960.1177,74.7373 L960.1177,101.7373 M947.1177,82.7373 L973.1177,82.7373 M960.1177,101.7373 L947.1177,116.7373 M960.1177,101.7373 L973.1177,116.7373" fill="none" style="stroke:#000000;stroke-width:1;"/><text fill="#000000" font-family="Verdana" font-size="14" lengthAdjust="spacing" textLength="100.2354" x="910" y="132.8125">&#1055;&#1086;&#1083;&#1100;&#1079;&#1086;&#1074;&#1072;&#1090;&#1077;&#1083;&#1100;</text><text fill="#000000" font-family="Verdana" font-size="14" lengthAdjust="spacing" textLength="71.1348" x="910" y="149.8271">(&#1073;&#1088;&#1072;&#1091;&#1079;&#1077;&#1088;)</text></g><!--entity tguser--><g class="entity" data-entity="tguser" data-source-line="37" data-uid="ent0007" id="entity_tguser"><ellipse cx="110.9355" cy="66.7373" fill="#FFFFFF" rx="8" ry="8" style="stroke:#000000;stroke-width:1;"/><path d="M110.9355,74.7373 L110.9355,101.7373 M97.9355,82.7373 L123.9355,82.7373 M110.9355,101.7373 L97.9355,116.7373 M110.9355,101.7373 L123.9355,116.7373" fill="none" style="stroke:#000000;stroke-width:1;"/><text fill="#000000" font-family="Verdana" font-size="14" lengthAdjust="spacing" textLength="65.8711" x="78" y="132.8125">Telegram</text><text fill="#000000" font-family="Verdana" font-size="14" lengthAdjust="spacing" textLength="50.1416" x="78" y="149.8271">&#1082;&#1083;&#1080;&#1077;&#1085;&#1090;</text></g><!--link user to acc_nginx--><g class="link" data-entity-1="user" data-entity-2="acc_nginx" data-source-line="68" data-uid="lnk27" id="link_user_acc_nginx"><path d="M909.82,112.6273 C743.3,134.0073 217.88,202.8073 188,223.7373 C146.99,252.4573 127.2847,304.4571 118.1747,336.4171" fill="none" id="user-to-acc_nginx" style="stroke:#4169E1;stroke-width:2;"/><polygon fill="#4169E1" points="116.53,342.1873,122.8439,334.6286,117.9006,337.3788,115.1503,332.4356,116.53,342.1873" style="stroke:#4169E1;stroke-width:2;"/><text fill="#000000" font-family="Verdana" font-size="13" lengthAdjust="spacing" textLength="42.5166" x="407.6785" y="196.8071">HTTPS</text><text fill="#000000" font-family="Verdana" font-size="13" lengthAdjust="spacing" textLength="75.8735" x="391" y="212.6064">(CONNECT)</text></g><!--link acc_nginx to acc_squid--><g class="link" data-entity-1="acc_nginx" data-entity-2="acc_squid" data-source-line="69" data-uid="lnk28" id="link_acc_nginx_acc_squid"><path d="M141.7,389.3373 C197.78,430.6273 311.3486,514.2496 367.4486,555.5596" fill="none" id="acc_nginx-to-acc_squid" style="stroke:#4169E1;stroke-width:1;"/><polygon fill="#4169E1" points="372.28,559.1173,367.4046,550.5598,368.2538,556.1526,362.661,557.0017,372.28,559.1173" style="stroke:#4169E1;stroke-width:1;"/><text fill="#000000" font-family="Verdana" font-size="13" lengthAdjust="spacing" textLength="44.0146" x="272.8884" y="441.8071">PROXY</text><text fill="#000000" font-family="Verdana" font-size="13" lengthAdjust="spacing" textLength="52.7808" x="268.5054" y="457.6064">protocol</text><text fill="#000000" font-family="Verdana" font-size="13" lengthAdjust="spacing" textLength="73.7915" x="258" y="473.4058">default SNI</text></g><!--link acc_squid to up_squid--><g class="link" data-entity-1="acc_squid" data-entity-2="up_squid" data-source-line="70" data-uid="lnk29" id="link_acc_squid_up_squid"><path d="M438.58,606.3173 C458.3,617.8073 483.7,630.9573 508,638.7373 C684.04,695.1273 735.71,681.3373 920,695.7373 C932.02,696.6773 1343.77,697.3473 1354,703.7373 C1396.07,730.0273 1413.3078,783.4803 1420.5778,816.1803" fill="none" id="acc_squid-to-up_squid" style="stroke:#4169E1;stroke-width:2;"/><polygon fill="#4169E1" points="1421.88,822.0373,1423.8314,812.3837,1420.7949,817.1565,1416.0221,814.1199,1421.88,822.0373" style="stroke:#4169E1;stroke-width:2;"/><text fill="#000000" font-family="Verdana" font-size="13" lengthAdjust="spacing" textLength="69.4688" x="923.6279" y="660.8071">plain HTTP</text><text fill="#000000" font-family="Verdana" font-size="13" lengthAdjust="spacing" textLength="47.7598" x="934.4824" y="676.6064">port 80</text><text fill="#000000" font-family="Verdana" font-size="13" lengthAdjust="spacing" textLength="74.7246" x="921" y="692.4058">cache_peer</text></g><!--link up_squid to aiapi--><g class="link" data-entity-1="up_squid" data-entity-2="aiapi" data-source-line="71" data-uid="lnk30" id="link_up_squid_aiapi"><path d="M1441.76,869.2773 C1454.74,885.8173 1474.75,907.0873 1498,917.2373 C1514.72,924.5373 1648.67,912.7773 1662,925.2373 C1741.54,999.5873 1722.0419,1140.7037 1708.0919,1205.0137" fill="none" id="up_squid-to-aiapi" style="stroke:#4169E1;stroke-width:1;"/><polygon fill="#4169E1" points="1706.82,1210.8773,1712.637,1202.9298,1707.8799,1205.9909,1704.8188,1201.2339,1706.82,1210.8773" style="stroke:#4169E1;stroke-width:1;"/><text fill="#000000" font-family="Verdana" font-size="13" lengthAdjust="spacing" textLength="64.0669" x="1721" y="1026.3071">CONNECT</text><text fill="#000000" font-family="Verdana" font-size="13" lengthAdjust="spacing" textLength="48.6611" x="1728.7029" y="1042.1064">(direct)</text></g><!--link tguser to acc_nginx--><g class="link" data-entity-1="tguser" data-entity-2="acc_nginx" data-source-line="74" data-uid="lnk31" id="link_tguser_acc_nginx"><path d="M111,152.7473 C111,208.5673 111,293.8973 111,336.0773" fill="none" id="tguser-to-acc_nginx" style="stroke:#228B22;stroke-width:2;"/><polygon fill="#228B22" points="111,342.0773,115,333.0773,111,337.0773,107,333.0773,111,342.0773" style="stroke:#228B22;stroke-width:2;"/><text fill="#000000" font-family="Verdana" font-size="13" lengthAdjust="spacing" textLength="59.4014" x="128.1992" y="196.8071">TLS :443</text><text fill="#000000" font-family="Verdana" font-size="13" lengthAdjust="spacing" textLength="91.7998" x="112" y="212.6064">SNI=tgproxy.example.com</text></g><!--link acc_nginx to up_nginx--><g class="link" data-entity-1="acc_nginx" data-entity-2="up_nginx" data-source-line="75" data-uid="lnk32" id="link_acc_nginx_up_nginx"><path d="M160.83,389.2873 C169.73,392.5973 179.03,395.5973 188,397.7373 C340.74,434.1273 383.62,413.6173 540,427.7373 C805.9,451.7373 884.64,400.5573 1138,484.7373 C1315.73,543.7873 1363.82,573.0873 1498,703.7373 C1531.29,736.1573 1555.6911,777.5789 1571.4111,808.2189" fill="none" id="acc_nginx-to-up_nginx" style="stroke:#228B22;stroke-width:1;"/><polygon fill="#228B22" points="1574.15,813.5573,1573.6006,803.7238,1571.8676,809.1086,1566.4827,807.3756,1574.15,813.5573" style="stroke:#228B22;stroke-width:1;"/><text fill="#000000" font-family="Verdana" font-size="13" lengthAdjust="spacing" textLength="49.9624" x="1435.8328" y="580.3071">TLS 1.3</text><text fill="#000000" font-family="Verdana" font-size="13" lengthAdjust="spacing" textLength="67.6279" x="1427" y="596.1064">relay :443</text></g><!--link up_nginx to up_mtg--><g class="link" data-entity-1="up_nginx" data-entity-2="up_mtg" data-source-line="76" data-uid="lnk33" id="link_up_nginx_up_mtg"><path d="M1580.75,877.8573 C1571.15,914.0373 1557.0774,967.0976 1548.5574,999.2376" fill="none" id="up_nginx-to-up_mtg" style="stroke:#228B22;stroke-width:1;"/><polygon fill="#228B22" points="1547.02,1005.0373,1553.1926,997.3627,1548.3012,1000.2042,1545.4597,995.3128,1547.02,1005.0373" style="stroke:#228B22;stroke-width:1;"/><text fill="#000000" font-family="Verdana" font-size="13" lengthAdjust="spacing" textLength="59.7632" x="1583.5803" y="939.3071">TLS term</text><text fill="#000000" font-family="Verdana" font-size="13" lengthAdjust="spacing" textLength="90.9238" x="1568" y="955.1064">:4443&#8594;:2083</text></g><!--link up_mtg to tgsrv--><g class="link" data-entity-1="up_mtg" data-entity-2="tgsrv" data-source-line="77" data-uid="lnk34" id="link_up_mtg_tgsrv"><path d="M1536.51,1052.4773 C1528.95,1090.6973 1514.8641,1161.9913 1506.3141,1205.2213" fill="none" id="up_mtg-to-tgsrv" style="stroke:#228B22;stroke-width:1;"/><polygon fill="#228B22" points="1505.15,1211.1073,1510.8202,1203.0544,1506.1201,1206.2023,1502.9722,1201.5022,1505.15,1211.1073" style="stroke:#228B22;stroke-width:1;"/><text fill="#000000" font-family="Verdana" font-size="13" lengthAdjust="spacing" textLength="53.2568" x="1522" y="1139.3071">MTProto</text></g><!--link acc_squid to acc_dns--><g class="link" data-entity-1="acc_squid" data-entity-2="acc_dns" data-source-line="80" data-uid="lnk35" id="link_acc_squid_acc_dns"><path d="M403,606.4473 C403,655.8073 403,766.4173 403,815.8973" fill="none" id="acc_squid-to-acc_dns" style="stroke:#FF8C00;stroke-width:1;stroke-dasharray:7.0,7.0;"/><polygon fill="#FF8C00" points="403,821.8973,407,812.8973,403,816.8973,399,812.8973,403,821.8973" style="stroke:#FF8C00;stroke-width:1;"/><text fill="#000000" font-family="Verdana" font-size="13" lengthAdjust="spacing" textLength="63.7749" x="404" y="676.8071">127.0.0.1</text></g><!--link acc_dns to up_dns--><g class="link" data-entity-1="acc_dns" data-entity-2="up_dns" data-source-line="81" data-uid="lnk36" id="link_acc_dns_up_dns"><path d="M468.23,859.1773 C641.28,892.1873 1104.8262,980.5932 1279.4762,1013.9032" fill="none" id="acc_dns-to-up_dns" style="stroke:#FF8C00;stroke-width:1;stroke-dasharray:7.0,7.0;"/><polygon fill="#FF8C00" points="1285.37,1015.0273,1277.2787,1009.412,1280.4585,1014.0906,1275.78,1017.2704,1285.37,1015.0273" style="stroke:#FF8C00;stroke-width:1;"/><text fill="#000000" font-family="Verdana" font-size="13" lengthAdjust="spacing" textLength="50.1021" x="963" y="947.3071">forward</text></g><!--link up_squid to up_dns--><g class="link" data-entity-1="up_squid" data-entity-2="up_dns" data-source-line="82" data-uid="lnk37" id="link_up_squid_up_dns"><path d="M1416.78,869.2973 C1404.65,898.9573 1385.4111,946.0138 1370.5211,982.4238" fill="none" id="up_squid-to-up_dns" style="stroke:#FF8C00;stroke-width:1;stroke-dasharray:7.0,7.0;"/><polygon fill="#FF8C00" points="1368.25,987.9773,1375.3591,981.1611,1370.1426,983.3493,1367.9543,978.1329,1368.25,987.9773" style="stroke:#FF8C00;stroke-width:1;"/><text fill="#000000" font-family="Verdana" font-size="13" lengthAdjust="spacing" textLength="63.7749" x="1394" y="947.3071">127.0.0.1</text></g><!--link up_dns to pubdns--><g class="link" data-entity-1="up_dns" data-entity-2="pubdns" data-source-line="83" data-uid="lnk38" id="link_up_dns_pubdns"><path d="M1352,1069.7073 C1352,1104.9373 1352,1150.3473 1352,1187.8773" fill="none" id="up_dns-to-pubdns" style="stroke:#FF8C00;stroke-width:1;stroke-dasharray:7.0,7.0;"/><polygon fill="#FF8C00" points="1352,1193.8773,1356,1184.8773,1352,1188.8773,1348,1184.8773,1352,1193.8773" style="stroke:#FF8C00;stroke-width:1;"/><text fill="#000000" font-family="Verdana" font-size="13" lengthAdjust="spacing" textLength="64.4668" x="1353" y="1139.3071">plain DNS</text></g><!--link user to acc2_nginx--><g class="link" data-entity-1="user" data-entity-2="acc2_nginx" data-source-line="86" data-uid="lnk39" id="link_user_acc2_nginx"><path d="M970.16,153.1273 C991.88,253.4073 1040.8894,479.6734 1056.8094,553.1434" fill="none" id="user-to-acc2_nginx" style="stroke:#4169E1;stroke-width:1;stroke-dasharray:1.0,3.0;"/><polygon fill="#4169E1" points="1058.08,559.0073,1060.0833,549.3643,1057.0211,554.1207,1052.2648,551.0585,1058.08,559.0073" style="stroke:#4169E1;stroke-width:1;"/></g><!--link acc2_squid to up_squid--><g class="link" data-entity-1="acc2_squid" data-entity-2="up_squid" data-source-line="87" data-uid="lnk40" id="link_acc2_squid_up_squid"><path d="M934.76,606.2673 C949.71,617.1773 968.65,629.8173 987,638.7373 C1062.09,675.2373 1083.79,681.1673 1166,695.7373 C1186.59,699.3873 1336.4,692.4473 1354,703.7373 C1395.75,730.5373 1413.0925,783.786 1420.4725,816.316" fill="none" id="acc2_squid-to-up_squid" style="stroke:#4169E1;stroke-width:1;stroke-dasharray:1.0,3.0;"/><polygon fill="#4169E1" points="1421.8,822.1673,1423.7097,812.5054,1420.6938,817.2912,1415.9079,814.2753,1421.8,822.1673" style="stroke:#4169E1;stroke-width:1;"/></g><!--link acc_ka to acc2_ka--><g class="link" data-entity-1="acc_ka" data-entity-2="acc2_ka" data-source-line="90" data-uid="lnk41" id="link_acc_ka_acc2_ka"><path d="M434.3,397.9973 C467.29,438.7673 520.885,504.9937 553.895,545.7737" fill="none" id="acc_ka-to-acc2_ka" style="stroke:#8B0000;stroke-width:1;stroke-dasharray:7.0,7.0;"/><polygon fill="#8B0000" points="557.67,550.4373,555.1165,540.9252,554.5241,546.551,548.8984,545.9586,557.67,550.4373" style="stroke:#8B0000;stroke-width:1;"/><text fill="#000000" font-family="Verdana" font-size="13" lengthAdjust="spacing" textLength="34.8042" x="497" y="457.8071">VRRP</text></g><rect fill="none" height="99.0732" rx="7.5" ry="7.5" style="stroke:#000000;stroke-width:1;" width="194.167" x="1650.8346" y="1340.3702"/><text fill="#000000" font-family="Verdana" font-size="14" font-weight="bold" lengthAdjust="spacing" textLength="38.165" x="1660.6197" y="1361.4453">&#1062;&#1074;&#1077;&#1090;</text><text fill="#000000" font-family="Verdana" font-size="14" font-weight="bold" lengthAdjust="spacing" textLength="97.0635" x="1708.3551" y="1361.4453">&#1053;&#1072;&#1079;&#1085;&#1072;&#1095;&#1077;&#1085;&#1080;&#1077;</text><rect fill="#4169E1" height="17.0146" style="stroke:none;stroke-width:1;" width="47.7354" x="1655.8346" y="1364.3848"/><text fill="#000000" font-family="Verdana" font-size="14" lengthAdjust="spacing" textLength="4.9219" x="1655.8346" y="1378.46">&#160;</text><text fill="#000000" font-family="Verdana" font-size="14" lengthAdjust="spacing" textLength="126.5879" x="1708.4918" y="1378.46">Squid proxy chain</text><rect fill="#228B22" height="17.0146" style="stroke:none;stroke-width:1;" width="47.7354" x="1655.8346" y="1381.3994"/><text fill="#000000" font-family="Verdana" font-size="14" lengthAdjust="spacing" textLength="4.9219" x="1655.8346" y="1395.4746">&#160;</text><text fill="#000000" font-family="Verdana" font-size="14" lengthAdjust="spacing" textLength="102.0947" x="1708.4918" y="1395.4746">MTProxy chain</text><rect fill="#FF8C00" height="17.0146" style="stroke:none;stroke-width:1;" width="47.7354" x="1655.8346" y="1398.4141"/><text fill="#000000" font-family="Verdana" font-size="14" lengthAdjust="spacing" textLength="4.9219" x="1655.8346" y="1412.4893">&#160;</text><text fill="#000000" font-family="Verdana" font-size="14" lengthAdjust="spacing" textLength="73.0146" x="1708.4918" y="1412.4893">DNS chain</text><rect fill="#8B0000" height="17.0146" style="stroke:none;stroke-width:1;" width="47.7354" x="1655.8346" y="1415.4287"/><text fill="#000000" font-family="Verdana" font-size="14" lengthAdjust="spacing" textLength="4.9219" x="1655.8346" y="1429.5039">&#160;</text><text fill="#000000" font-family="Verdana" font-size="14" lengthAdjust="spacing" textLength="84.0137" x="1708.4918" y="1429.5039">Firewall/IPS</text><line style="stroke:#000000;stroke-width:1;" x1="1655.8346" x2="1840.0016" y1="1347.3702" y2="1347.3702"/><line style="stroke:#000000;stroke-width:1;" x1="1655.8346" x2="1840.0016" y1="1364.3848" y2="1364.3848"/><line style="stroke:#000000;stroke-width:1;" x1="1655.8346" x2="1840.0016" y1="1381.3994" y2="1381.3994"/><line style="stroke:#000000;stroke-width:1;" x1="1655.8346" x2="1840.0016" y1="1398.4141" y2="1398.4141"/><line style="stroke:#000000;stroke-width:1;" x1="1655.8346" x2="1840.0016" y1="1415.4287" y2="1415.4287"/><line style="stroke:#000000;stroke-width:1;" x1="1655.8346" x2="1840.0016" y1="1432.4434" y2="1432.4434"/><line style="stroke:#000000;stroke-width:1;" x1="1655.8346" x2="1655.8346" y1="1347.3702" y2="1432.4434"/><line style="stroke:#000000;stroke-width:1;" x1="1703.5699" x2="1703.5699" y1="1347.3702" y2="1432.4434"/><line style="stroke:#000000;stroke-width:1;" x1="1840.0016" x2="1840.0016" y1="1347.3702" y2="1432.4434"/><!--SRC=[dLPRR-D457xthnZI1nBH6jj9MYUYbTfSH0LqeoOWK5rLZZrDh3eptl6a5zXALLV02my8yOOGRpoNIyLgLxk_mVuB-qiuCxuaRjtTrNeKoPavtvbpllFD6N_0ftY6KU3R7b4u3H2dQ4mvfpFaUWmxtACmxt4Ve-Zd-2h-FdeMNqUtqVFuEduQNqKtQ7iNROUX5tARy10D63s_GA-lVaLT7FZqOeO9LvJmn2E1pUmP8jJ5w3i5mRDZEoSJHkV4xL2VChJIRugHh57cOfREr-MZN2wvSUWie0HyF-IhPufntrTJFWLV8akRJFmyhcLxlQMtDhIb-I6_04lN3gVOBRYn6QDdgOkxWIiVekWtOEqV-BsC_erk51zFC74HyoPJ3f0dcoZwC_exkeslvVllqKtq7vZUn3zAoBFe5ZqHTkYJbOQ-tkhfM_0-V3ptN1H8ofqfL32tCGnpnp24pHUZGSbwlszsD4siT_U6TzRC7KrBrlgWW3FRzp_U7GnX6G9EmbOKnwTp5rLs2SUCO5v1TeWyU4dpFn2Y6EnQf0gk-IJWAXHi5Ktmp2FUAb9LjNOe8BPd1rw2667m3JnQ9CJi5BDG6l19o4uJWy5yx7kEYDSYBLKEYvYg71RHLJaaA9YFNH8Ascs7GnqgqH_Hg-X5_1DG-Wf8lf4AXlyGN_IN477y59PkuwkQJ6GE4MJGHLZHy-Y5g4FqChwk9B59GsMXdygsu-0mH7iWyb3Qs7BYw5lGAkXRwvlzVagHF0YLP5tJrwOs6rEc-XkgSswHHbDTNrTrlQNgnf8VJK_1ubaSWGgPUEGSjHkDUcPyb4ojTBkzNhwbU2xBy8cEsdNTC7C7ePnB7PI1vcGipXjgDnUx0ksG9eYhsoc3V8PnOFlUANOjyjN-_Y37dTW2rjDwMXci0mVB7M8dDtV2WZaK-XwZneECrirbHertPTGeKlgED1hlnQFnlaGQTvcy5ATWIQ1V1Y5d6BhLGgBpT2eJQHEsrGeYpIpkoLHlRgY6eUec_5hrWhUtInKENzQRAF4lqgCNv3GtUjtkzXjeDhKCaL7y86B69wXjQ6OMuf6OU8DzMX98qDXGDHWw5CSY7o5yphCoWPUt5AaWMp2_frfvBsnkRfRqyUhOd-EQM5H4aq5h1sdRNnrJtprSsrewv6tqwMWqWAvOxJpQs-jrHZLbiPW3Cqn2LXiDzXzz_Or5O5DE7UfRnCN7zjpdQBYtgomCxs-S4zvElXhaxk28CevCpIAExKpnKO2XDUQcnIX4qmTq6Yt4dNnfr38wYbTMTS8m9WaNISiLxf8BhfIDqUV3L62GoYRSFebSYwGa-3IVPQIk0f1XtxwGJfHy-Iv8Yaf2u0w4-m6i6_NNF_mYXQQa1WMGlCm08_FZD4jtSGDNAODpcjQzK8FalbvDFZkoX8N-sYZNg9BDbTcdScsZOyhEREOMQlEmzS9vEbLcdTotkHuWdrpOsA7Gsf9UctIJQkZD0jyxzh1RgcyNFZxp5DEcgonrqZBBB1UnxQ8rAkdDeXwadpI7wbRU9Dj8z4tbVm00]--></g></svg>