<svg xmlns="http://www.w3.org/2000/svg" xmlns:xlink="http://www.w3.org/1999/xlink" contentStyleType="text/css" data-diagram-type="ACTIVITY" height="896px" preserveAspectRatio="none" style="width:1143px;height:896px;background:#FEFEFE;" version="1.1" viewBox="0 0 1143 896" width="1143px" zoomAndPan="magnify"><title>Ansible &#8212; &#1087;&#1086;&#1090;&#1086;&#1082; &#1074;&#1099;&#1087;&#1086;&#1083;&#1085;&#1077;&#1085;&#1080;&#1103; playbook</title><defs/><g><rect fill="#FEFEFE" height="896" style="stroke:none;stroke-width:1;" width="1143" x="0" y="0"/><text fill="#000000" font-family="Segoe UI" font-size="22" font-weight="bold" lengthAdjust="spacing" textLength="417.8389" x="361.5756" y="38.7402">Ansible &#8212; &#1087;&#1086;&#1090;&#1086;&#1082; &#1074;&#1099;&#1087;&#1086;&#1083;&#1085;&#1077;&#1085;&#1080;&#1103; playbook</text><rect fill="#FFFFFF" height="14.6309" style="stroke:#FFFFFF;stroke-width:1;" width="1120.99" x="10" y="56.5225"/><ellipse cx="97.5564" cy="86.1533" fill="#FFFFFF" rx="10" ry="10" style="stroke:#000000;stroke-width:1;"/><rect fill="#FFFFFF" height="49.2617" rx="12.5" ry="12.5" style="stroke:#000000;stroke-width:1;" width="163.1128" x="16" y="116.1533"/><text fill="#000000" font-family="Segoe UI" font-size="11" lengthAdjust="spacing" textLength="83.311" x="26" y="138.0234">ansible-playbook</text><text fill="#000000" font-family="Segoe UI" font-size="11" lengthAdjust="spacing" textLength="143.1128" x="26" y="152.6543">-i inventory.yml playbook.yml</text><line style="stroke:#000000;stroke-width:1;" x1="10" x2="10" y1="56.5225" y2="889.3477"/><rect fill="#FFFFFF" height="49.2617" rx="12.5" ry="12.5" style="stroke:#000000;stroke-width:1;" width="166.8779" x="201.1128" y="185.415"/><text fill="#000000" font-family="Segoe UI" font-size="11" lengthAdjust="spacing" textLength="104.3442" x="211.1128" y="207.2852">&#1063;&#1090;&#1077;&#1085;&#1080;&#1077; inventory.yml</text><text fill="#000000" font-family="Segoe UI" font-size="11" lengthAdjust="spacing" textLength="146.8779" x="211.1128" y="221.916">(&#1075;&#1088;&#1091;&#1087;&#1087;&#1099;, &#1093;&#1086;&#1089;&#1090;&#1099;, &#1087;&#1077;&#1088;&#1077;&#1084;&#1077;&#1085;&#1085;&#1099;&#1077;)</text><rect fill="#FFFFFF" height="49.2617" rx="12.5" ry="12.5" style="stroke:#000000;stroke-width:1;" width="164.332" x="202.3857" y="254.6768"/><text fill="#000000" font-family="Segoe UI" font-size="11" lengthAdjust="spacing" textLength="103.7642" x="212.3857" y="276.5469">&#1063;&#1090;&#1077;&#1085;&#1080;&#1077; playbook.yml</text><text fill="#000000" font-family="Segoe UI" font-size="11" lengthAdjust="spacing" textLength="144.332" x="212.3857" y="291.1777">(hosts: all, inline tasks + roles)</text><rect fill="#000000" height="6" rx="2.5" ry="2.5" style="stroke:#000000;stroke-width:1;" width="190.8779" x="189.1128" y="323.9385"/><rect fill="#FFFFFF" height="34.6309" rx="12.5" ry="12.5" style="stroke:#000000;stroke-width:1;" width="155.6523" x="206.7256" y="812.7168"/><text fill="#000000" font-family="Segoe UI" font-size="11" lengthAdjust="spacing" textLength="135.6523" x="216.7256" y="834.5869">&#1054;&#1090;&#1095;&#1105;&#1090;: ok / changed / failed</text><ellipse cx="284.5518" cy="878.3477" fill="none" rx="11" ry="11" style="stroke:#000000;stroke-width:1;"/><ellipse cx="284.5518" cy="878.3477" fill="#FFFFFF" rx="6" ry="6" style="stroke:#000000;stroke-width:1;"/><line style="stroke:#000000;stroke-width:1;" x1="183.1128" x2="183.1128" y1="56.5225" y2="889.3477"/><rect fill="#FFFFFF" height="34.6309" rx="12.5" ry="12.5" style="stroke:#000000;stroke-width:1;" width="150.5981" x="394.9241" y="349.9385"/><text fill="#000000" font-family="Segoe UI" font-size="11" lengthAdjust="spacing" textLength="130.5981" x="404.9241" y="371.8086">SSH &#1082; access-01, access-02</text><path d="M543.5652,409.5693 L543.5652,432.5156 L523.5652,436.5156 L543.5652,440.5156 L543.5652,463.4619 A0,0 0 0 0 543.5652,463.4619 L727.2288,463.4619 A0,0 0 0 0 727.2288,463.4619 L727.2288,419.5693 L717.2288,409.5693 L543.5652,409.5693 A0,0 0 0 0 543.5652,409.5693" fill="#FFFFFF" style="stroke:#000000;stroke-width:1;"/><path d="M717.2288,409.5693 L717.2288,419.5693 L727.2288,419.5693 L717.2288,409.5693" fill="#FFFFFF" style="stroke:#000000;stroke-width:1;"/><text fill="#000000" font-family="Segoe UI" font-size="11" lengthAdjust="spacing" textLength="152.7754" x="549.5652" y="426.4395">&#1056;&#1077;&#1085;&#1076;&#1077;&#1088;&#1080;&#1085;&#1075; squid-access.conf.j2</text><text fill="#000000" font-family="Segoe UI" font-size="11" lengthAdjust="spacing" textLength="162.6636" x="549.5652" y="441.0703">&#1050;&#1086;&#1087;&#1080;&#1088;&#1086;&#1074;&#1072;&#1085;&#1080;&#1077; passwd (htpasswd)</text><text fill="#000000" font-family="Segoe UI" font-size="11" lengthAdjust="spacing" textLength="122.6973" x="549.5652" y="455.7012">Reload &#1080;&#1083;&#1080; Restart Squid</text><rect fill="#FFFFFF" height="34.6309" rx="12.5" ry="12.5" style="stroke:#000000;stroke-width:1;" width="106.6841" x="416.8811" y="419.2002"/><text fill="#000000" font-family="Segoe UI" font-size="11" lengthAdjust="spacing" textLength="86.6841" x="426.8811" y="441.0703">Inline tasks: Squid</text><path d="M556.1094,495.7773 L556.1094,511.4082 L536.1094,515.4082 L556.1094,519.4082 L556.1094,535.0391 A0,0 0 0 0 556.1094,535.0391 L707.541,535.0391 A0,0 0 0 0 707.541,535.0391 L707.541,505.7773 L697.541,495.7773 L556.1094,495.7773 A0,0 0 0 0 556.1094,495.7773" fill="#FFFFFF" style="stroke:#000000;stroke-width:1;"/><path d="M697.541,495.7773 L697.541,505.7773 L707.541,505.7773 L697.541,495.7773" fill="#FFFFFF" style="stroke:#000000;stroke-width:1;"/><text fill="#000000" font-family="Segoe UI" font-size="11" lengthAdjust="spacing" textLength="130.4316" x="562.1094" y="512.6475">&#1064;&#1072;&#1073;&#1083;&#1086;&#1085; keepalived.conf.j2</text><text fill="#000000" font-family="Segoe UI" font-size="11" lengthAdjust="spacing" textLength="117.7451" x="562.1094" y="527.2783">(&#1087;&#1088;&#1080; enable_keepalived)</text><rect fill="#FFFFFF" height="34.6309" rx="12.5" ry="12.5" style="stroke:#000000;stroke-width:1;" width="131.7725" x="404.3369" y="498.0928"/><text fill="#000000" font-family="Segoe UI" font-size="11" lengthAdjust="spacing" textLength="111.7725" x="414.3369" y="519.9629">Inline tasks: Keepalived</text><rect fill="#FFFFFF" height="34.6309" rx="12.5" ry="12.5" style="stroke:#000000;stroke-width:1;" width="94.6206" x="422.9128" y="569.6699"/><text fill="#000000" font-family="Segoe UI" font-size="11" lengthAdjust="spacing" textLength="74.6206" x="432.9128" y="591.54">&#1056;&#1086;&#1083;&#1100;: crowdsec</text><path d="M528.2146,628.9316 L528.2146,659.1934 L508.2146,663.1934 L528.2146,667.1934 L528.2146,697.4551 A0,0 0 0 0 528.2146,697.4551 L756.3616,697.4551 A0,0 0 0 0 756.3616,697.4551 L756.3616,638.9316 L746.3616,628.9316 L528.2146,628.9316 A0,0 0 0 0 528.2146,628.9316" fill="#FFFFFF" style="stroke:#000000;stroke-width:1;"/><path d="M746.3616,628.9316 L746.3616,638.9316 L756.3616,638.9316 L746.3616,628.9316" fill="#FFFFFF" style="stroke:#000000;stroke-width:1;"/><text fill="#000000" font-family="Segoe UI" font-size="11" lengthAdjust="spacing" textLength="160.7891" x="534.2146" y="645.8018">SNI Router (00-sni-router.conf.j2)</text><text fill="#000000" font-family="Segoe UI" font-size="11" lengthAdjust="spacing" textLength="202.3721" x="534.2146" y="660.4326">Upstreams (10-aiproxy-upstreams.conf.j2)</text><text fill="#000000" font-family="Segoe UI" font-size="11" lengthAdjust="spacing" textLength="173.771" x="534.2146" y="675.0635">SNI map (sni-map.d/aiproxy.conf.j2)</text><text fill="#000000" font-family="Segoe UI" font-size="11" lengthAdjust="spacing" textLength="207.147" x="534.2146" y="689.6943">&#1044;&#1077;&#1087;&#1083;&#1086;&#1081; squid.conf (&#1087;&#1088;&#1080; mtproxy_enabled)</text><rect fill="#FFFFFF" height="34.6309" rx="12.5" ry="12.5" style="stroke:#000000;stroke-width:1;" width="75.9829" x="432.2317" y="645.8779"/><text fill="#000000" font-family="Segoe UI" font-size="11" lengthAdjust="spacing" textLength="55.9829" x="442.2317" y="667.748">&#1056;&#1086;&#1083;&#1100;: nginx</text><rect fill="#FFFFFF" height="49.2617" rx="12.5" ry="12.5" style="stroke:#000000;stroke-width:1;" width="160.4648" x="389.9907" y="717.4551"/><text fill="#000000" font-family="Segoe UI" font-size="11" lengthAdjust="spacing" textLength="140.4648" x="399.9907" y="739.3252">Handlers: Restart Keepalived,</text><text fill="#000000" font-family="Segoe UI" font-size="11" lengthAdjust="spacing" textLength="139.396" x="399.9907" y="753.9561">Restart nftables, Reload sshd</text><line style="stroke:#000000;stroke-width:1;" x1="383.9907" x2="383.9907" y1="56.5225" y2="889.3477"/><rect fill="#FFFFFF" height="49.2617" rx="12.5" ry="12.5" style="stroke:#000000;stroke-width:1;" width="141.666" x="781.6443" y="349.9385"/><text fill="#000000" font-family="Segoe UI" font-size="11" lengthAdjust="spacing" textLength="121.666" x="791.6443" y="371.8086">SSH &#1082; upstream-de-fn01,</text><text fill="#000000" font-family="Segoe UI" font-size="11" lengthAdjust="spacing" textLength="83.3647" x="791.6443" y="386.4395">upstream-fi-av01</text><path d="M925.8193,424.2002 L925.8193,447.1465 L905.8193,451.1465 L925.8193,455.1465 L925.8193,478.0928 A0,0 0 0 0 925.8193,478.0928 L1114.4834,478.0928 A0,0 0 0 0 1114.4834,478.0928 L1114.4834,434.2002 L1104.4834,424.2002 L925.8193,424.2002 A0,0 0 0 0 925.8193,424.2002" fill="#FFFFFF" style="stroke:#000000;stroke-width:1;"/><path d="M1104.4834,424.2002 L1104.4834,434.2002 L1114.4834,434.2002 L1104.4834,424.2002" fill="#FFFFFF" style="stroke:#000000;stroke-width:1;"/><text fill="#000000" font-family="Segoe UI" font-size="11" lengthAdjust="spacing" textLength="167.6641" x="931.8193" y="441.0703">&#1056;&#1077;&#1085;&#1076;&#1077;&#1088;&#1080;&#1085;&#1075; squid-upstream.conf.j2</text><text fill="#000000" font-family="Segoe UI" font-size="11" lengthAdjust="spacing" textLength="128.1167" x="931.8193" y="455.7012">ACL: access_proxies src IPs</text><text fill="#000000" font-family="Segoe UI" font-size="11" lengthAdjust="spacing" textLength="101.2075" x="931.8193" y="470.332">forwarded_for delete</text><rect fill="#FFFFFF" height="34.6309" rx="12.5" ry="12.5" style="stroke:#000000;stroke-width:1;" width="106.6841" x="799.1353" y="433.8311"/><text fill="#000000" font-family="Segoe UI" font-size="11" lengthAdjust="spacing" textLength="86.6841" x="809.1353" y="455.7012">Inline tasks: Squid</text><path d="M930.2183,510.4082 L930.2183,526.0391 L910.2183,530.0391 L930.2183,534.0391 L930.2183,549.6699 A0,0 0 0 0 930.2183,549.6699 L1107.8394,549.6699 A0,0 0 0 0 1107.8394,549.6699 L1107.8394,520.4082 L1097.8394,510.4082 L930.2183,510.4082 A0,0 0 0 0 930.2183,510.4082" fill="#FFFFFF" style="stroke:#000000;stroke-width:1;"/><path d="M1097.8394,510.4082 L1097.8394,520.4082 L1107.8394,520.4082 L1097.8394,510.4082" fill="#FFFFFF" style="stroke:#000000;stroke-width:1;"/><text fill="#000000" font-family="Segoe UI" font-size="11" lengthAdjust="spacing" textLength="156.6211" x="936.2183" y="527.2783">nftables (Debian) / ufw (Ubuntu)</text><text fill="#000000" font-family="Segoe UI" font-size="11" lengthAdjust="spacing" textLength="80.0884" x="936.2183" y="541.9092">/ iptables (RHEL)</text><rect fill="#FFFFFF" height="34.6309" rx="12.5" ry="12.5" style="stroke:#000000;stroke-width:1;" width="115.4819" x="794.7363" y="512.7236"/><text fill="#000000" font-family="Segoe UI" font-size="11" lengthAdjust="spacing" textLength="95.4819" x="804.7363" y="534.5938">Inline tasks: Firewall</text><rect fill="#FFFFFF" height="34.6309" rx="12.5" ry="12.5" style="stroke:#000000;stroke-width:1;" width="94.6206" x="805.167" y="584.3008"/><text fill="#000000" font-family="Segoe UI" font-size="11" lengthAdjust="spacing" textLength="74.6206" x="815.167" y="606.1709">&#1056;&#1086;&#1083;&#1100;: crowdsec</text><path d="M917.3035,643.5625 L917.3035,666.5088 L897.3035,670.5088 L917.3035,674.5088 L917.3035,697.4551 A0,0 0 0 0 917.3035,697.4551 L1088.2913,697.4551 A0,0 0 0 0 1088.2913,697.4551 L1088.2913,653.5625 L1078.2913,643.5625 L917.3035,643.5625 A0,0 0 0 0 917.3035,643.5625" fill="#FFFFFF" style="stroke:#000000;stroke-width:1;"/><path d="M1078.2913,643.5625 L1078.2913,653.5625 L1088.2913,653.5625 L1078.2913,643.5625" fill="#FFFFFF" style="stroke:#000000;stroke-width:1;"/><text fill="#000000" font-family="Segoe UI" font-size="11" lengthAdjust="spacing" textLength="115.8276" x="923.3035" y="660.4326">mtg.toml.j2, mtg.service</text><text fill="#000000" font-family="Segoe UI" font-size="11" lengthAdjust="spacing" textLength="105.7783" x="923.3035" y="675.0635">nginx TLS termination</text><text fill="#000000" font-family="Segoe UI" font-size="11" lengthAdjust="spacing" textLength="149.9878" x="923.3035" y="689.6943">(nginx-mtproxy-stream.conf.j2)</text><rect fill="#FFFFFF" height="34.6309" rx="12.5" ry="12.5" style="stroke:#000000;stroke-width:1;" width="89.6523" x="807.6511" y="653.1934"/><text fill="#000000" font-family="Segoe UI" font-size="11" lengthAdjust="spacing" textLength="69.6523" x="817.6511" y="675.0635">&#1056;&#1086;&#1083;&#1100;: mtproxy</text><rect fill="#FFFFFF" height="49.2617" rx="12.5" ry="12.5" style="stroke:#000000;stroke-width:1;" width="146.2314" x="779.3616" y="717.4551"/><text fill="#000000" font-family="Segoe UI" font-size="11" lengthAdjust="spacing" textLength="126.2314" x="789.3616" y="739.3252">Handlers: Restart nftables,</text><text fill="#000000" font-family="Segoe UI" font-size="11" lengthAdjust="spacing" textLength="125.1357" x="789.3616" y="753.9561">Reload nginx, Restart mtg</text><rect fill="#000000" height="6" rx="2.5" ry="2.5" style="stroke:#000000;stroke-width:1;" width="359.1218" x="767.3616" y="786.7168"/><line style="stroke:#000000;stroke-width:1;" x1="761.3616" x2="761.3616" y1="56.5225" y2="889.3477"/><line style="stroke:#000000;stroke-width:1;" x1="1130.4834" x2="1130.4834" y1="56.5225" y2="889.3477"/><line style="stroke:#000000;stroke-width:1;" x1="97.5564" x2="97.5564" y1="96.1533" y2="116.1533"/><polygon fill="#000000" points="93.5564,106.1533,97.5564,116.1533,101.5564,106.1533,97.5564,110.1533" style="stroke:#000000;stroke-width:1;"/><line style="stroke:#000000;stroke-width:1;" x1="284.5518" x2="284.5518" y1="234.6768" y2="254.6768"/><polygon fill="#000000" points="280.5518,244.6768,284.5518,254.6768,288.5518,244.6768,284.5518,248.6768" style="stroke:#000000;stroke-width:1;"/><line style="stroke:#000000;stroke-width:1;" x1="284.5518" x2="284.5518" y1="303.9385" y2="323.9385"/><polygon fill="#000000" points="280.5518,313.9385,284.5518,323.9385,288.5518,313.9385,284.5518,317.9385" style="stroke:#000000;stroke-width:1;"/><line style="stroke:#000000;stroke-width:1;" x1="284.5518" x2="284.5518" y1="847.3477" y2="867.3477"/><polygon fill="#000000" points="280.5518,857.3477,284.5518,867.3477,288.5518,857.3477,284.5518,861.3477" style="stroke:#000000;stroke-width:1;"/><line style="stroke:#000000;stroke-width:1;" x1="470.2231" x2="470.2231" y1="384.5693" y2="419.2002"/><polygon fill="#000000" points="466.2231,409.2002,470.2231,419.2002,474.2231,409.2002,470.2231,413.2002" style="stroke:#000000;stroke-width:1;"/><line style="stroke:#000000;stroke-width:1;" x1="470.2231" x2="470.2231" y1="453.8311" y2="498.0928"/><polygon fill="#000000" points="466.2231,488.0928,470.2231,498.0928,474.2231,488.0928,470.2231,492.0928" style="stroke:#000000;stroke-width:1;"/><line style="stroke:#000000;stroke-width:1;" x1="470.2231" x2="470.2231" y1="532.7236" y2="569.6699"/><polygon fill="#000000" points="466.2231,559.6699,470.2231,569.6699,474.2231,559.6699,470.2231,563.6699" style="stroke:#000000;stroke-width:1;"/><line style="stroke:#000000;stroke-width:1;" x1="470.2231" x2="470.2231" y1="604.3008" y2="645.8779"/><polygon fill="#000000" points="466.2231,635.8779,470.2231,645.8779,474.2231,635.8779,470.2231,639.8779" style="stroke:#000000;stroke-width:1;"/><line style="stroke:#000000;stroke-width:1;" x1="470.2231" x2="470.2231" y1="680.5088" y2="717.4551"/><polygon fill="#000000" points="466.2231,707.4551,470.2231,717.4551,474.2231,707.4551,470.2231,711.4551" style="stroke:#000000;stroke-width:1;"/><line style="stroke:#000000;stroke-width:1;" x1="852.4773" x2="852.4773" y1="399.2002" y2="433.8311"/><polygon fill="#000000" points="848.4773,423.8311,852.4773,433.8311,856.4773,423.8311,852.4773,427.8311" style="stroke:#000000;stroke-width:1;"/><line style="stroke:#000000;stroke-width:1;" x1="852.4773" x2="852.4773" y1="468.4619" y2="512.7236"/><polygon fill="#000000" points="848.4773,502.7236,852.4773,512.7236,856.4773,502.7236,852.4773,506.7236" style="stroke:#000000;stroke-width:1;"/><line style="stroke:#000000;stroke-width:1;" x1="852.4773" x2="852.4773" y1="547.3545" y2="584.3008"/><polygon fill="#000000" points="848.4773,574.3008,852.4773,584.3008,856.4773,574.3008,852.4773,578.3008" style="stroke:#000000;stroke-width:1;"/><line style="stroke:#000000;stroke-width:1;" x1="852.4773" x2="852.4773" y1="618.9316" y2="653.1934"/><polygon fill="#000000" points="848.4773,643.1934,852.4773,653.1934,856.4773,643.1934,852.4773,647.1934" style="stroke:#000000;stroke-width:1;"/><line style="stroke:#000000;stroke-width:1;" x1="852.4773" x2="852.4773" y1="687.8242" y2="717.4551"/><polygon fill="#000000" points="848.4773,707.4551,852.4773,717.4551,856.4773,707.4551,852.4773,711.4551" style="stroke:#000000;stroke-width:1;"/><line style="stroke:#000000;stroke-width:1;" x1="852.4773" x2="852.4773" y1="766.7168" y2="786.7168"/><polygon fill="#000000" points="848.4773,776.7168,852.4773,786.7168,856.4773,776.7168,852.4773,780.7168" style="stroke:#000000;stroke-width:1;"/><line style="stroke:#000000;stroke-width:1;" x1="97.5564" x2="97.5564" y1="165.415" y2="170.415"/><line style="stroke:#000000;stroke-width:1;" x1="97.5564" x2="284.5518" y1="170.415" y2="170.415"/><line style="stroke:#000000;stroke-width:1;" x1="284.5518" x2="284.5518" y1="170.415" y2="185.415"/><polygon fill="#000000" points="280.5518,175.415,284.5518,185.415,288.5518,175.415,284.5518,179.415" style="stroke:#000000;stroke-width:1;"/><line style="stroke:#000000;stroke-width:1;" x1="196.1128" x2="196.1128" y1="329.9385" y2="333.9385"/><line style="stroke:#000000;stroke-width:1;" x1="196.1128" x2="470.2231" y1="333.9385" y2="333.9385"/><line style="stroke:#000000;stroke-width:1;" x1="470.2231" x2="470.2231" y1="333.9385" y2="349.9385"/><polygon fill="#000000" points="466.2231,339.9385,470.2231,349.9385,474.2231,339.9385,470.2231,343.9385" style="stroke:#000000;stroke-width:1;"/><line style="stroke:#000000;stroke-width:1;" x1="372.9907" x2="372.9907" y1="329.9385" y2="333.9385"/><line style="stroke:#000000;stroke-width:1;" x1="372.9907" x2="852.4773" y1="333.9385" y2="333.9385"/><line style="stroke:#000000;stroke-width:1;" x1="852.4773" x2="852.4773" y1="333.9385" y2="349.9385"/><polygon fill="#000000" points="848.4773,339.9385,852.4773,349.9385,856.4773,339.9385,852.4773,343.9385" style="stroke:#000000;stroke-width:1;"/><line style="stroke:#000000;stroke-width:1;" x1="470.2231" x2="470.2231" y1="766.7168" y2="772.7168"/><line style="stroke:#000000;stroke-width:1;" x1="470.2231" x2="774.3616" y1="772.7168" y2="772.7168"/><line style="stroke:#000000;stroke-width:1;" x1="774.3616" x2="774.3616" y1="772.7168" y2="786.7168"/><polygon fill="#000000" points="770.3616,776.7168,774.3616,786.7168,778.3616,776.7168,774.3616,780.7168" style="stroke:#000000;stroke-width:1;"/><line style="stroke:#000000;stroke-width:1;" x1="774.3616" x2="774.3616" y1="792.7168" y2="797.7168"/><line style="stroke:#000000;stroke-width:1;" x1="774.3616" x2="284.5518" y1="797.7168" y2="797.7168"/><line style="stroke:#000000;stroke-width:1;" x1="284.5518" x2="284.5518" y1="797.7168" y2="812.7168"/><polygon fill="#000000" points="280.5518,802.7168,284.5518,812.7168,288.5518,802.7168,284.5518,806.7168" style="stroke:#000000;stroke-width:1;"/><text fill="#000000" font-family="Segoe UI" font-size="11" lengthAdjust="spacing" textLength="87.8281" x="52.6423" y="68.3926">DevOps-&#1080;&#1085;&#1078;&#1077;&#1085;&#1077;&#1088;</text><text fill="#000000" font-family="Segoe UI" font-size="11" lengthAdjust="spacing" textLength="86.9312" x="240.0862" y="68.3926">Ansible Controller</text><text fill="#000000" font-family="Segoe UI" font-size="11" lengthAdjust="spacing" textLength="70.2808" x="537.5358" y="68.3926">access_proxies</text><text fill="#000000" font-family="Segoe UI" font-size="11" lengthAdjust="spacing" textLength="50.4023" x="920.7213" y="68.3926">upstreams</text><!--SRC=[hLHFJnD15B_lftZYfSHkQJcs9yAVG2HegDoQDDFTQJjsTsQTcRPWUa2CyO29CU7amNZJeu8O586lCFiL_2I-cMKBXH9ZOffcPzwVt_pUUx-PUxfBOmf9H1ZtL8_nX4WIGui4lOuKVHukYaX8kB-oR7_N8aBQ9lr8hmYkDmWYpDHfHr3OMfkP7bHdpobKAfwdcOueB735MlZzlNi0viASftlctFm4SvZkswqvDMVc6FydwLjBRgSbHC_pHajqy2XHlZb1rtSNS9pkZZobYTHUbMIWVfxGu3u3nWUKQo5tIZjnDCQocne2vZmMaQ8KKKJboAkQJqZ7dMwE9_CRl62Eqjtq9PAyIFUBaBv2xY_IFRj66xB1n5yk-GnBEPwjtO2xJW3Hka9fLGKIHKKyAMASWYQgf-0181sgCDzh2zdp04Oa2AXIpKIARKRL24tLUdqLi6sPnozNYkFbVCtwrwv1Lg7-hCz2Q-T2Kv2iqzMu0J0V7RrlZhvjxH4e6-fdOAL0y7RfwNmM-nwdSu5psSNleVcIbqMK6ePGwEfiDUk2DsaaI0WOSMfESEVcbD50F-MXOtARw4DA4nAn0PtAzZEU-XKHpyqPzCQH4omBE1qi1OyWEDtcLTJiZNEnT1HR-gOAWHJ3KD6WDcdc7SQtfx2eRwp1fkXhAg5GBlkACr-wRSuZwy1MehIa95PGg9HzmkpmTln-RfqCjfWnIQ1WqN1H2kSkCoRZp07Ewy9ru4SsAUSVLnrhbzJCghzLyohX8GeT-vnFvAhVnGRFZRojRRegvcDKgXjUoX58npuOACfnATVrc1lzaFfjZh9iyB6fpNmoA5V-Xpnpp8dHBookLs7oge2I0QmzLiwFz8T4XZHiuWfVg8YwhjmjnXKcwH0lw1HcUOkWi4HRZF1Pc8D-UmY5hLQVwtushJbWIHwskRgy_iyIl1pdbFDZtIbf4KTOUz5j59K35j2Cd5KkF5cl0weoPfne9dXsEvpBlyJr9vluTxMCXM6rufJXy8hZ06I2Eh4WxkcwwvNzWC_cw_HTkbS5qSCs1Lt2EpJ4LPkmoDvzfKNY_G40]--></g></svg>