<svg xmlns="http://www.w3.org/2000/svg" xmlns:xlink="http://www.w3.org/1999/xlink" contentStyleType="text/css" data-diagram-type="ACTIVITY" height="1400px" preserveAspectRatio="none" style="width:1193px;height:1400px;background:#FEFEFE;" version="1.1" viewBox="0 0 1193 1400" width="1193px" zoomAndPan="magnify"><title>Keepalived VRRP &#8212; health-check &#1089; &#1072;&#1074;&#1090;&#1086;&#1087;&#1077;&#1088;&#1077;&#1079;&#1072;&#1087;&#1091;&#1089;&#1082;&#1086;&#1084; Squid</title><defs/><g><rect fill="#FEFEFE" height="1400" style="stroke:none;stroke-width:1;" width="1193" x="0" y="0"/><text fill="#000000" font-family="Segoe UI" font-size="22" font-weight="bold" lengthAdjust="spacing" textLength="631.0928" x="279.8933" y="38.7402">Keepalived VRRP &#8212; health-check &#1089; &#1072;&#1074;&#1090;&#1086;&#1087;&#1077;&#1088;&#1077;&#1079;&#1072;&#1087;&#1091;&#1089;&#1082;&#1086;&#1084; Squid</text><rect fill="#FFFFFF" height="14.6309" style="stroke:#FFFFFF;stroke-width:1;" width="1170.8794" x="10" y="56.5225"/><ellipse cx="359.007" cy="86.1533" fill="#FFFFFF" rx="10" ry="10" style="stroke:#000000;stroke-width:1;"/><rect fill="#FFFFFF" height="49.2617" rx="12.5" ry="12.5" style="stroke:#000000;stroke-width:1;" width="157.3711" x="280.3214" y="116.1533"/><text fill="#000000" font-family="Segoe UI" font-size="11" lengthAdjust="spacing" textLength="89.5469" x="290.3214" y="138.0234">&#1047;&#1072;&#1087;&#1091;&#1089;&#1082; Keepalived</text><text fill="#000000" font-family="Segoe UI" font-size="11" lengthAdjust="spacing" textLength="137.3711" x="290.3214" y="152.6543">state=MASTER, priority=100</text><rect fill="#000000" height="6" rx="2.5" ry="2.5" style="stroke:#000000;stroke-width:1;" width="654.0139" x="16" y="185.415"/><rect fill="#FFFFFF" height="49.2617" rx="12.5" ry="12.5" style="stroke:#000000;stroke-width:1;" width="132.0786" x="150.3602" y="211.415"/><text fill="#000000" font-family="Segoe UI" font-size="11" lengthAdjust="spacing" textLength="112.0786" x="160.3602" y="233.2852">vrrp_script check_squid</text><text fill="#000000" font-family="Segoe UI" font-size="11" lengthAdjust="spacing" textLength="55.9722" x="160.3602" y="247.916">(interval 2s)</text><rect fill="#FFFFFF" height="49.2617" rx="12.5" ry="12.5" style="stroke:#000000;stroke-width:1;" width="150.5122" x="141.1434" y="324.6768"/><text fill="#000000" font-family="Segoe UI" font-size="11" lengthAdjust="spacing" textLength="63.293" x="151.1434" y="346.5469">&#1042;&#1099;&#1087;&#1086;&#1083;&#1085;&#1077;&#1085;&#1080;&#1077;</text><text fill="#000000" font-family="Segoe UI" font-size="11" lengthAdjust="spacing" textLength="130.5122" x="151.1434" y="361.1777">check_and_restart_squid.sh</text><rect fill="#FFFFFF" height="63.8926" rx="12.5" ry="12.5" style="stroke:#000000;stroke-width:1;" width="133.4697" x="149.6646" y="393.9385"/><text fill="#000000" font-family="Segoe UI" font-size="11" lengthAdjust="spacing" textLength="67.2515" x="159.6646" y="415.8086">killall -0 squid</text><text fill="#000000" font-family="Segoe UI" font-size="11" lengthAdjust="spacing" textLength="113.4697" x="159.6646" y="430.4395">(&#1089;&#1080;&#1075;&#1085;&#1072;&#1083; 0 &#8212; &#1087;&#1088;&#1086;&#1074;&#1077;&#1088;&#1082;&#1072;,</text><text fill="#000000" font-family="Segoe UI" font-size="11" lengthAdjust="spacing" textLength="102.9961" x="159.6646" y="445.0703">&#1085;&#1077; &#1091;&#1073;&#1080;&#1074;&#1072;&#1077;&#1090; &#1087;&#1088;&#1086;&#1094;&#1077;&#1089;&#1089;)</text><polygon fill="#FFFFFF" points="188.3704,492.8311,244.4285,492.8311,256.4285,504.8311,244.4285,516.8311,188.3704,516.8311,176.3704,504.8311,188.3704,492.8311" style="stroke:#000000;stroke-width:1;"/><text fill="#000000" font-family="Segoe UI" font-size="11" lengthAdjust="spacing" textLength="56.0581" x="188.3704" y="509.3857">Squid &#1078;&#1080;&#1074;?</text><text fill="#000000" font-family="Segoe UI" font-size="11" lengthAdjust="spacing" textLength="11.6123" x="164.7581" y="502.0703">&#1076;&#1072;</text><text fill="#000000" font-family="Segoe UI" font-size="11" lengthAdjust="spacing" textLength="16.6128" x="256.4285" y="502.0703">&#1085;&#1077;&#1090;</text><rect fill="#FFFFFF" height="49.2617" rx="12.5" ry="12.5" style="stroke:#000000;stroke-width:1;" width="94.1426" x="43.364" y="526.8311"/><text fill="#000000" font-family="Segoe UI" font-size="11" lengthAdjust="spacing" textLength="72.252" x="53.364" y="548.7012">rise counter++</text><text fill="#000000" font-family="Segoe UI" font-size="11" lengthAdjust="spacing" textLength="74.1426" x="53.364" y="563.332">fall counter = 0</text><rect fill="#FFFFFF" height="49.2617" rx="12.5" ry="12.5" style="stroke:#000000;stroke-width:1;" width="124.8706" x="28" y="660.4082"/><text fill="#000000" font-family="Segoe UI" font-size="11" lengthAdjust="spacing" textLength="104.8706" x="38" y="682.2783">weight &#1074;&#1086;&#1089;&#1089;&#1090;&#1072;&#1085;&#1086;&#1074;&#1083;&#1077;&#1085;</text><text fill="#000000" font-family="Segoe UI" font-size="11" lengthAdjust="spacing" textLength="66.2793" x="38" y="696.9092">priority = 100</text><polygon fill="#FFFFFF" points="69.77,611.0928,111.1006,611.0928,123.1006,623.0928,111.1006,635.0928,69.77,635.0928,57.77,623.0928,69.77,611.0928" style="stroke:#000000;stroke-width:1;"/><text fill="#000000" font-family="Segoe UI" font-size="11" lengthAdjust="spacing" textLength="11.6123" x="94.4353" y="646.9629">&#1076;&#1072;</text><text fill="#000000" font-family="Segoe UI" font-size="11" lengthAdjust="spacing" textLength="41.3306" x="69.77" y="627.6475">rise &#8805; 2?</text><polygon fill="#FFFFFF" points="90.4353,734.9854,102.4353,746.9854,90.4353,758.9854,78.4353,746.9854,90.4353,734.9854" style="stroke:#000000;stroke-width:1;"/><polygon fill="#FFFFFF" points="300.0582,526.8311,384.6691,526.8311,396.6691,538.8311,384.6691,550.8311,300.0582,550.8311,288.0582,538.8311,300.0582,526.8311" style="stroke:#000000;stroke-width:1;"/><text fill="#000000" font-family="Segoe UI" font-size="11" lengthAdjust="spacing" textLength="84.6108" x="300.0582" y="543.3857">Cooldown &#1080;&#1089;&#1090;&#1105;&#1082;?</text><text fill="#000000" font-family="Segoe UI" font-size="11" lengthAdjust="spacing" textLength="11.6123" x="276.4459" y="536.0703">&#1076;&#1072;</text><text fill="#000000" font-family="Segoe UI" font-size="11" lengthAdjust="spacing" textLength="16.6128" x="396.6691" y="536.0703">&#1085;&#1077;&#1090;</text><rect fill="#FFFFFF" height="49.2617" rx="12.5" ry="12.5" style="stroke:#000000;stroke-width:1;" width="128.7432" x="204.8706" y="560.8311"/><text fill="#000000" font-family="Segoe UI" font-size="11" lengthAdjust="spacing" textLength="108.7432" x="214.8706" y="582.7012">systemctl restart squid</text><text fill="#000000" font-family="Segoe UI" font-size="11" lengthAdjust="spacing" textLength="77.4028" x="214.8706" y="597.332">logger &#8594; syslog</text><rect fill="#FFFFFF" height="34.6309" rx="12.5" ry="12.5" style="stroke:#000000;stroke-width:1;" width="123.7427" x="353.6138" y="560.8311"/><text fill="#000000" font-family="Segoe UI" font-size="11" lengthAdjust="spacing" textLength="103.7427" x="363.6138" y="582.7012">&#1054;&#1078;&#1080;&#1076;&#1072;&#1085;&#1080;&#1077; cooldown</text><polygon fill="#FFFFFF" points="342.3636,616.0928,354.3636,628.0928,342.3636,640.0928,330.3636,628.0928,342.3636,616.0928" style="stroke:#000000;stroke-width:1;"/><rect fill="#FFFFFF" height="49.2617" rx="12.5" ry="12.5" style="stroke:#000000;stroke-width:1;" width="96.6831" x="294.0221" y="675.0928"/><text fill="#000000" font-family="Segoe UI" font-size="11" lengthAdjust="spacing" textLength="69.7114" x="304.0221" y="696.9629">fall counter++</text><text fill="#000000" font-family="Segoe UI" font-size="11" lengthAdjust="spacing" textLength="76.6831" x="304.0221" y="711.5938">rise counter = 0</text><rect fill="#FFFFFF" height="49.2617" rx="12.5" ry="12.5" style="stroke:#000000;stroke-width:1;" width="126.2134" x="279.257" y="808.6699"/><text fill="#000000" font-family="Segoe UI" font-size="11" lengthAdjust="spacing" textLength="106.2134" x="289.257" y="830.54">weight -20 &#1087;&#1088;&#1080;&#1084;&#1077;&#1085;&#1105;&#1085;</text><text fill="#000000" font-family="Segoe UI" font-size="11" lengthAdjust="spacing" textLength="60.3496" x="289.257" y="845.1709">priority = 80</text><polygon fill="#FFFFFF" points="322.9686,759.3545,361.7587,759.3545,373.7587,771.3545,361.7587,783.3545,322.9686,783.3545,310.9686,771.3545,322.9686,759.3545" style="stroke:#000000;stroke-width:1;"/><text fill="#000000" font-family="Segoe UI" font-size="11" lengthAdjust="spacing" textLength="11.6123" x="346.3636" y="795.2246">&#1076;&#1072;</text><text fill="#000000" font-family="Segoe UI" font-size="11" lengthAdjust="spacing" textLength="38.79" x="322.9686" y="775.9092">fall &#8805; 3?</text><polygon fill="#FFFFFF" points="342.3636,877.9316,354.3636,889.9316,342.3636,901.9316,330.3636,889.9316,342.3636,877.9316" style="stroke:#000000;stroke-width:1;"/><polygon fill="#FFFFFF" points="216.3995,907.9316,228.3995,919.9316,216.3995,931.9316,204.3995,919.9316,216.3995,907.9316" style="stroke:#000000;stroke-width:1;"/><polygon fill="#FFFFFF" points="216.3995,280.6768,228.3995,292.6768,216.3995,304.6768,204.3995,292.6768,216.3995,280.6768" style="stroke:#000000;stroke-width:1;"/><polygon fill="#FFFFFF" points="171.994,951.9316,260.805,951.9316,272.805,963.9316,260.805,975.9316,171.994,975.9316,159.994,963.9316,171.994,951.9316" style="stroke:#000000;stroke-width:1;"/><text fill="#000000" font-family="Segoe UI" font-size="11" lengthAdjust="spacing" textLength="88.811" x="171.994" y="968.4863">Keepalived active?</text><rect fill="#FFFFFF" height="63.8926" rx="12.5" ry="12.5" style="stroke:#000000;stroke-width:1;" width="142.3804" x="505.3564" y="435.2539"/><text fill="#000000" font-family="Segoe UI" font-size="11" lengthAdjust="spacing" textLength="98.0762" x="515.3564" y="457.124">VRRP advertisement</text><text fill="#000000" font-family="Segoe UI" font-size="11" lengthAdjust="spacing" textLength="98.8228" x="515.3564" y="471.7549">(multicast 224.0.0.18</text><text fill="#000000" font-family="Segoe UI" font-size="11" lengthAdjust="spacing" textLength="122.3804" x="515.3564" y="486.3857">proto 112, advert_int=1s)</text><rect fill="#FFFFFF" height="49.2617" rx="12.5" ry="12.5" style="stroke:#000000;stroke-width:1;" width="130.9346" x="511.0793" y="606.1465"/><text fill="#000000" font-family="Segoe UI" font-size="11" lengthAdjust="spacing" textLength="110.9346" x="521.0793" y="628.0166">&#1054;&#1090;&#1087;&#1088;&#1072;&#1074;&#1082;&#1072; VRRP advert</text><text fill="#000000" font-family="Segoe UI" font-size="11" lengthAdjust="spacing" textLength="90.2827" x="521.0793" y="642.6475">&#1089; &#1090;&#1077;&#1082;&#1091;&#1097;&#1080;&#1084; priority</text><polygon fill="#FFFFFF" points="576.5466,534.1465,588.5466,546.1465,576.5466,558.1465,564.5466,546.1465,576.5466,534.1465" style="stroke:#000000;stroke-width:1;"/><polygon fill="#FFFFFF" points="535.208,703.4082,617.8853,703.4082,629.8853,715.4082,617.8853,727.4082,535.208,727.4082,523.208,715.4082,535.208,703.4082" style="stroke:#000000;stroke-width:1;"/><text fill="#000000" font-family="Segoe UI" font-size="11" lengthAdjust="spacing" textLength="82.6772" x="535.208" y="719.9629">state = MASTER?</text><rect fill="#000000" height="6" rx="2.5" ry="2.5" style="stroke:#000000;stroke-width:1;" width="654.0139" x="16" y="995.9316"/><line style="stroke:#000000;stroke-width:1;" x1="10" x2="10" y1="56.5225" y2="1393.4551"/><rect fill="#FFFFFF" height="34.6309" rx="12.5" ry="12.5" style="stroke:#000000;stroke-width:1;" width="151.0278" x="886.8066" y="1021.9316"/><text fill="#000000" font-family="Segoe UI" font-size="11" lengthAdjust="spacing" textLength="131.0278" x="896.8066" y="1043.8018">state=BACKUP, priority=90</text><rect fill="#FFFFFF" height="34.6309" rx="12.5" ry="12.5" style="stroke:#000000;stroke-width:1;" width="174.0859" x="875.2776" y="1120.5625"/><text fill="#000000" font-family="Segoe UI" font-size="11" lengthAdjust="spacing" textLength="154.0859" x="885.2776" y="1142.4326">&#1054;&#1078;&#1080;&#1076;&#1072;&#1085;&#1080;&#1077; VRRP advertisement</text><polygon fill="#FFFFFF" points="921.1646,1175.1934,1003.4766,1175.1934,1015.4766,1187.1934,1003.4766,1199.1934,921.1646,1199.1934,909.1646,1187.1934,921.1646,1175.1934" style="stroke:#000000;stroke-width:1;"/><text fill="#000000" font-family="Segoe UI" font-size="11" lengthAdjust="spacing" textLength="82.312" x="921.1646" y="1191.748">&#1055;&#1086;&#1083;&#1091;&#1095;&#1077;&#1085; advert?</text><text fill="#000000" font-family="Segoe UI" font-size="11" lengthAdjust="spacing" textLength="11.6123" x="897.5522" y="1184.4326">&#1076;&#1072;</text><text fill="#000000" font-family="Segoe UI" font-size="11" lengthAdjust="spacing" textLength="75.2759" x="1015.4766" y="1184.4326">&#1085;&#1077;&#1090;, &#1090;&#1072;&#1081;&#1084;&#1072;&#1091;&#1090; 3s</text><polygon fill="#FFFFFF" points="764.4814,1209.1934,914.9902,1209.1934,926.9902,1221.1934,914.9902,1233.1934,764.4814,1233.1934,752.4814,1221.1934,764.4814,1209.1934" style="stroke:#000000;stroke-width:1;"/><text fill="#000000" font-family="Segoe UI" font-size="11" lengthAdjust="spacing" textLength="150.5088" x="764.4814" y="1225.748">&#1057;&#1074;&#1086;&#1081; priority &gt; advert priority?</text><text fill="#000000" font-family="Segoe UI" font-size="11" lengthAdjust="spacing" textLength="11.6123" x="740.8691" y="1218.4326">&#1076;&#1072;</text><text fill="#000000" font-family="Segoe UI" font-size="11" lengthAdjust="spacing" textLength="16.6128" x="926.9902" y="1218.4326">&#1085;&#1077;&#1090;</text><rect fill="#FFFFFF" height="49.2617" rx="12.5" ry="12.5" style="stroke:#000000;stroke-width:1;" width="124.9351" x="680.0139" y="1243.1934"/><text fill="#000000" font-family="Segoe UI" font-size="11" lengthAdjust="spacing" textLength="95.9009" x="690.0139" y="1265.0635">&#1055;&#1077;&#1088;&#1077;&#1093;&#1086;&#1076; &#1074; MASTER</text><text fill="#000000" font-family="Segoe UI" font-size="11" lengthAdjust="spacing" textLength="104.9351" x="690.0139" y="1279.6943">Gratuitous ARP &#8594; VIP</text><ellipse cx="742.4814" cy="1338.4551" fill="none" rx="11" ry="11" style="stroke:#000000;stroke-width:1;"/><ellipse cx="742.4814" cy="1338.4551" fill="#FFFFFF" rx="6" ry="6" style="stroke:#000000;stroke-width:1;"/><rect fill="#FFFFFF" height="34.6309" rx="12.5" ry="12.5" style="stroke:#000000;stroke-width:1;" width="110.895" x="881.5427" y="1243.1934"/><text fill="#000000" font-family="Segoe UI" font-size="11" lengthAdjust="spacing" textLength="90.895" x="891.5427" y="1265.0635">&#1054;&#1089;&#1090;&#1072;&#1105;&#1084;&#1089;&#1103; BACKUP</text><rect fill="#FFFFFF" height="63.8926" rx="12.5" ry="12.5" style="stroke:#000000;stroke-width:1;" width="124.9351" x="1022.4377" y="1209.1934"/><text fill="#000000" font-family="Segoe UI" font-size="11" lengthAdjust="spacing" textLength="101.6641" x="1032.4377" y="1231.0635">MASTER &#1085;&#1077;&#1076;&#1086;&#1089;&#1090;&#1091;&#1087;&#1077;&#1085;</text><text fill="#000000" font-family="Segoe UI" font-size="11" lengthAdjust="spacing" textLength="95.9009" x="1032.4377" y="1245.6943">&#1055;&#1077;&#1088;&#1077;&#1093;&#1086;&#1076; &#1074; MASTER</text><text fill="#000000" font-family="Segoe UI" font-size="11" lengthAdjust="spacing" textLength="104.9351" x="1032.4377" y="1260.3252">Gratuitous ARP &#8594; VIP</text><ellipse cx="1084.9053" cy="1319.0859" fill="none" rx="11" ry="11" style="stroke:#000000;stroke-width:1;"/><ellipse cx="1084.9053" cy="1319.0859" fill="#FFFFFF" rx="6" ry="6" style="stroke:#000000;stroke-width:1;"/><polygon fill="#FFFFFF" points="962.3206,1076.5625,974.3206,1088.5625,962.3206,1100.5625,950.3206,1088.5625,962.3206,1076.5625" style="stroke:#000000;stroke-width:1;"/><polygon fill="#FFFFFF" points="921.1887,1369.4551,1003.4524,1369.4551,1015.4524,1381.4551,1003.4524,1393.4551,921.1887,1393.4551,909.1887,1381.4551,921.1887,1369.4551" style="stroke:#000000;stroke-width:1;"/><text fill="#000000" font-family="Segoe UI" font-size="11" lengthAdjust="spacing" textLength="82.2637" x="921.1887" y="1386.0098">state = BACKUP?</text><line style="stroke:#000000;stroke-width:1;" x1="674.0139" x2="674.0139" y1="56.5225" y2="1393.4551"/><line style="stroke:#000000;stroke-width:1;" x1="1180.3728" x2="1180.3728" y1="56.5225" y2="1393.4551"/><line style="stroke:#000000;stroke-width:1;" x1="359.007" x2="359.007" y1="96.1533" y2="116.1533"/><polygon fill="#000000" points="355.007,106.1533,359.007,116.1533,363.007,106.1533,359.007,110.1533" style="stroke:#000000;stroke-width:1;"/><line style="stroke:#000000;stroke-width:1;" x1="216.3995" x2="216.3995" y1="373.9385" y2="393.9385"/><polygon fill="#000000" points="212.3995,383.9385,216.3995,393.9385,220.3995,383.9385,216.3995,387.9385" style="stroke:#000000;stroke-width:1;"/><line style="stroke:#000000;stroke-width:1;" x1="90.4353" x2="90.4353" y1="635.0928" y2="660.4082"/><polygon fill="#000000" points="86.4353,650.4082,90.4353,660.4082,94.4353,650.4082,90.4353,654.4082" style="stroke:#000000;stroke-width:1;"/><line style="stroke:#000000;stroke-width:1;" x1="123.1006" x2="162.8706" y1="623.0928" y2="623.0928"/><polygon fill="#000000" points="158.8706,675.0391,162.8706,685.0391,166.8706,675.0391,162.8706,679.0391" style="stroke:#000000;stroke-width:1;"/><line style="stroke:#000000;stroke-width:1;" x1="162.8706" x2="162.8706" y1="623.0928" y2="746.9854"/><line style="stroke:#000000;stroke-width:1;" x1="162.8706" x2="102.4353" y1="746.9854" y2="746.9854"/><polygon fill="#000000" points="112.4353,742.9854,102.4353,746.9854,112.4353,750.9854,108.4353,746.9854" style="stroke:#000000;stroke-width:1;"/><line style="stroke:#000000;stroke-width:1;" x1="90.4353" x2="90.4353" y1="709.6699" y2="734.9854"/><polygon fill="#000000" points="86.4353,724.9854,90.4353,734.9854,94.4353,724.9854,90.4353,728.9854" style="stroke:#000000;stroke-width:1;"/><line style="stroke:#000000;stroke-width:1;" x1="90.4353" x2="90.4353" y1="576.0928" y2="611.0928"/><polygon fill="#000000" points="86.4353,601.0928,90.4353,611.0928,94.4353,601.0928,90.4353,605.0928" style="stroke:#000000;stroke-width:1;"/><line style="stroke:#000000;stroke-width:1;" x1="288.0582" x2="269.2422" y1="538.8311" y2="538.8311"/><line style="stroke:#000000;stroke-width:1;" x1="269.2422" x2="269.2422" y1="538.8311" y2="560.8311"/><polygon fill="#000000" points="265.2422,550.8311,269.2422,560.8311,273.2422,550.8311,269.2422,554.8311" style="stroke:#000000;stroke-width:1;"/><line style="stroke:#000000;stroke-width:1;" x1="396.6691" x2="415.4851" y1="538.8311" y2="538.8311"/><line style="stroke:#000000;stroke-width:1;" x1="415.4851" x2="415.4851" y1="538.8311" y2="560.8311"/><polygon fill="#000000" points="411.4851,550.8311,415.4851,560.8311,419.4851,550.8311,415.4851,554.8311" style="stroke:#000000;stroke-width:1;"/><line style="stroke:#000000;stroke-width:1;" x1="269.2422" x2="269.2422" y1="610.0928" y2="628.0928"/><line style="stroke:#000000;stroke-width:1;" x1="269.2422" x2="330.3636" y1="628.0928" y2="628.0928"/><polygon fill="#000000" points="320.3636,624.0928,330.3636,628.0928,320.3636,632.0928,324.3636,628.0928" style="stroke:#000000;stroke-width:1;"/><line style="stroke:#000000;stroke-width:1;" x1="415.4851" x2="415.4851" y1="595.4619" y2="628.0928"/><line style="stroke:#000000;stroke-width:1;" x1="415.4851" x2="354.3636" y1="628.0928" y2="628.0928"/><polygon fill="#000000" points="364.3636,624.0928,354.3636,628.0928,364.3636,632.0928,360.3636,628.0928" style="stroke:#000000;stroke-width:1;"/><line style="stroke:#000000;stroke-width:1;" x1="342.3636" x2="342.3636" y1="640.0928" y2="675.0928"/><polygon fill="#000000" points="338.3636,665.0928,342.3636,675.0928,346.3636,665.0928,342.3636,669.0928" style="stroke:#000000;stroke-width:1;"/><line style="stroke:#000000;stroke-width:1;" x1="342.3636" x2="342.3636" y1="783.3545" y2="808.6699"/><polygon fill="#000000" points="338.3636,798.6699,342.3636,808.6699,346.3636,798.6699,342.3636,802.6699" style="stroke:#000000;stroke-width:1;"/><line style="stroke:#000000;stroke-width:1;" x1="373.7587" x2="415.4703" y1="771.3545" y2="771.3545"/><polygon fill="#000000" points="411.4703,823.3008,415.4703,833.3008,419.4703,823.3008,415.4703,827.3008" style="stroke:#000000;stroke-width:1;"/><line style="stroke:#000000;stroke-width:1;" x1="415.4703" x2="415.4703" y1="771.3545" y2="889.9316"/><line style="stroke:#000000;stroke-width:1;" x1="415.4703" x2="354.3636" y1="889.9316" y2="889.9316"/><polygon fill="#000000" points="364.3636,885.9316,354.3636,889.9316,364.3636,893.9316,360.3636,889.9316" style="stroke:#000000;stroke-width:1;"/><line style="stroke:#000000;stroke-width:1;" x1="342.3636" x2="342.3636" y1="857.9316" y2="877.9316"/><polygon fill="#000000" points="338.3636,867.9316,342.3636,877.9316,346.3636,867.9316,342.3636,871.9316" style="stroke:#000000;stroke-width:1;"/><line style="stroke:#000000;stroke-width:1;" x1="342.3636" x2="342.3636" y1="724.3545" y2="759.3545"/><polygon fill="#000000" points="338.3636,749.3545,342.3636,759.3545,346.3636,749.3545,342.3636,753.3545" style="stroke:#000000;stroke-width:1;"/><line style="stroke:#000000;stroke-width:1;" x1="176.3704" x2="90.4353" y1="504.8311" y2="504.8311"/><line style="stroke:#000000;stroke-width:1;" x1="90.4353" x2="90.4353" y1="504.8311" y2="526.8311"/><polygon fill="#000000" points="86.4353,516.8311,90.4353,526.8311,94.4353,516.8311,90.4353,520.8311" style="stroke:#000000;stroke-width:1;"/><line style="stroke:#000000;stroke-width:1;" x1="256.4285" x2="342.3636" y1="504.8311" y2="504.8311"/><line style="stroke:#000000;stroke-width:1;" x1="342.3636" x2="342.3636" y1="504.8311" y2="526.8311"/><polygon fill="#000000" points="338.3636,516.8311,342.3636,526.8311,346.3636,516.8311,342.3636,520.8311" style="stroke:#000000;stroke-width:1;"/><line style="stroke:#000000;stroke-width:1;" x1="90.4353" x2="90.4353" y1="758.9854" y2="919.9316"/><line style="stroke:#000000;stroke-width:1;" x1="90.4353" x2="204.3995" y1="919.9316" y2="919.9316"/><polygon fill="#000000" points="194.3995,915.9316,204.3995,919.9316,194.3995,923.9316,198.3995,919.9316" style="stroke:#000000;stroke-width:1;"/><line style="stroke:#000000;stroke-width:1;" x1="342.3636" x2="342.3636" y1="901.9316" y2="919.9316"/><line style="stroke:#000000;stroke-width:1;" x1="342.3636" x2="228.3995" y1="919.9316" y2="919.9316"/><polygon fill="#000000" points="238.3995,915.9316,228.3995,919.9316,238.3995,923.9316,234.3995,919.9316" style="stroke:#000000;stroke-width:1;"/><line style="stroke:#000000;stroke-width:1;" x1="216.3995" x2="216.3995" y1="457.8311" y2="492.8311"/><polygon fill="#000000" points="212.3995,482.8311,216.3995,492.8311,220.3995,482.8311,216.3995,486.8311" style="stroke:#000000;stroke-width:1;"/><line style="stroke:#000000;stroke-width:1;" x1="216.3995" x2="216.3995" y1="304.6768" y2="324.6768"/><polygon fill="#000000" points="212.3995,314.6768,216.3995,324.6768,220.3995,314.6768,216.3995,318.6768" style="stroke:#000000;stroke-width:1;"/><line style="stroke:#000000;stroke-width:1;" x1="272.805" x2="491.3564" y1="963.9316" y2="963.9316"/><polygon fill="#000000" points="487.3564,633.4619,491.3564,623.4619,495.3564,633.4619,491.3564,629.4619" style="stroke:#000000;stroke-width:1;"/><line style="stroke:#000000;stroke-width:1;" x1="491.3564" x2="491.3564" y1="292.6768" y2="963.9316"/><line style="stroke:#000000;stroke-width:1;" x1="491.3564" x2="228.3995" y1="292.6768" y2="292.6768"/><polygon fill="#000000" points="238.3995,288.6768,228.3995,292.6768,238.3995,296.6768,234.3995,292.6768" style="stroke:#000000;stroke-width:1;"/><line style="stroke:#000000;stroke-width:1;" x1="216.3995" x2="216.3995" y1="931.9316" y2="951.9316"/><polygon fill="#000000" points="212.3995,941.9316,216.3995,951.9316,220.3995,941.9316,216.3995,945.9316" style="stroke:#000000;stroke-width:1;"/><line style="stroke:#000000;stroke-width:1;" x1="216.3995" x2="216.3995" y1="260.6768" y2="280.6768"/><polygon fill="#000000" points="212.3995,270.6768,216.3995,280.6768,220.3995,270.6768,216.3995,274.6768" style="stroke:#000000;stroke-width:1;"/><line style="stroke:#000000;stroke-width:1;" x1="576.5466" x2="576.5466" y1="558.1465" y2="606.1465"/><polygon fill="#000000" points="572.5466,596.1465,576.5466,606.1465,580.5466,596.1465,576.5466,600.1465" style="stroke:#000000;stroke-width:1;"/><line style="stroke:#000000;stroke-width:1;" x1="629.8853" x2="654.0139" y1="715.4082" y2="715.4082"/><polygon fill="#000000" points="650.0139,640.7773,654.0139,630.7773,658.0139,640.7773,654.0139,636.7773" style="stroke:#000000;stroke-width:1;"/><line style="stroke:#000000;stroke-width:1;" x1="654.0139" x2="654.0139" y1="546.1465" y2="715.4082"/><line style="stroke:#000000;stroke-width:1;" x1="654.0139" x2="588.5466" y1="546.1465" y2="546.1465"/><polygon fill="#000000" points="598.5466,542.1465,588.5466,546.1465,598.5466,550.1465,594.5466,546.1465" style="stroke:#000000;stroke-width:1;"/><line style="stroke:#000000;stroke-width:1;" x1="576.5466" x2="576.5466" y1="655.4082" y2="703.4082"/><polygon fill="#000000" points="572.5466,693.4082,576.5466,703.4082,580.5466,693.4082,576.5466,697.4082" style="stroke:#000000;stroke-width:1;"/><line style="stroke:#000000;stroke-width:1;" x1="576.5466" x2="576.5466" y1="499.1465" y2="534.1465"/><polygon fill="#000000" points="572.5466,524.1465,576.5466,534.1465,580.5466,524.1465,576.5466,528.1465" style="stroke:#000000;stroke-width:1;"/><line style="stroke:#000000;stroke-width:1;" x1="216.3995" x2="216.3995" y1="191.415" y2="211.415"/><polygon fill="#000000" points="212.3995,201.415,216.3995,211.415,220.3995,201.415,216.3995,205.415" style="stroke:#000000;stroke-width:1;"/><line style="stroke:#000000;stroke-width:1;" x1="576.5466" x2="576.5466" y1="191.415" y2="435.2539"/><polygon fill="#000000" points="572.5466,425.2539,576.5466,435.2539,580.5466,425.2539,576.5466,429.2539" style="stroke:#000000;stroke-width:1;"/><line style="stroke:#000000;stroke-width:1;" x1="216.3995" x2="216.3995" y1="975.9316" y2="995.9316"/><polygon fill="#000000" points="212.3995,985.9316,216.3995,995.9316,220.3995,985.9316,216.3995,989.9316" style="stroke:#000000;stroke-width:1;"/><line style="stroke:#000000;stroke-width:1;" x1="576.5466" x2="576.5466" y1="727.4082" y2="995.9316"/><polygon fill="#000000" points="572.5466,985.9316,576.5466,995.9316,580.5466,985.9316,576.5466,989.9316" style="stroke:#000000;stroke-width:1;"/><line style="stroke:#000000;stroke-width:1;" x1="359.007" x2="359.007" y1="165.415" y2="185.415"/><polygon fill="#000000" points="355.007,175.415,359.007,185.415,363.007,175.415,359.007,179.415" style="stroke:#000000;stroke-width:1;"/><line style="stroke:#000000;stroke-width:1;" x1="742.4814" x2="742.4814" y1="1292.4551" y2="1327.4551"/><polygon fill="#000000" points="738.4814,1317.4551,742.4814,1327.4551,746.4814,1317.4551,742.4814,1321.4551" style="stroke:#000000;stroke-width:1;"/><line style="stroke:#000000;stroke-width:1;" x1="752.4814" x2="742.4814" y1="1221.1934" y2="1221.1934"/><line style="stroke:#000000;stroke-width:1;" x1="742.4814" x2="742.4814" y1="1221.1934" y2="1243.1934"/><polygon fill="#000000" points="738.4814,1233.1934,742.4814,1243.1934,746.4814,1233.1934,742.4814,1237.1934" style="stroke:#000000;stroke-width:1;"/><line style="stroke:#000000;stroke-width:1;" x1="926.9902" x2="936.9902" y1="1221.1934" y2="1221.1934"/><line style="stroke:#000000;stroke-width:1;" x1="936.9902" x2="936.9902" y1="1221.1934" y2="1243.1934"/><polygon fill="#000000" points="932.9902,1233.1934,936.9902,1243.1934,940.9902,1233.1934,936.9902,1237.1934" style="stroke:#000000;stroke-width:1;"/><line style="stroke:#000000;stroke-width:1;" x1="936.9902" x2="936.9902" y1="1277.8242" y2="1354.4551"/><line style="stroke:#000000;stroke-width:1;" x1="936.9902" x2="962.3206" y1="1354.4551" y2="1354.4551"/><line style="stroke:#000000;stroke-width:1;" x1="962.3206" x2="962.3206" y1="1354.4551" y2="1369.4551"/><polygon fill="#000000" points="958.3206,1359.4551,962.3206,1369.4551,966.3206,1359.4551,962.3206,1363.4551" style="stroke:#000000;stroke-width:1;"/><line style="stroke:#000000;stroke-width:1;" x1="1084.9053" x2="1084.9053" y1="1273.0859" y2="1308.0859"/><polygon fill="#000000" points="1080.9053,1298.0859,1084.9053,1308.0859,1088.9053,1298.0859,1084.9053,1302.0859" style="stroke:#000000;stroke-width:1;"/><line style="stroke:#000000;stroke-width:1;" x1="909.1646" x2="839.7358" y1="1187.1934" y2="1187.1934"/><line style="stroke:#000000;stroke-width:1;" x1="839.7358" x2="839.7358" y1="1187.1934" y2="1209.1934"/><polygon fill="#000000" points="835.7358,1199.1934,839.7358,1209.1934,843.7358,1199.1934,839.7358,1203.1934" style="stroke:#000000;stroke-width:1;"/><line style="stroke:#000000;stroke-width:1;" x1="1015.4766" x2="1084.9053" y1="1187.1934" y2="1187.1934"/><line style="stroke:#000000;stroke-width:1;" x1="1084.9053" x2="1084.9053" y1="1187.1934" y2="1209.1934"/><polygon fill="#000000" points="1080.9053,1199.1934,1084.9053,1209.1934,1088.9053,1199.1934,1084.9053,1203.1934" style="stroke:#000000;stroke-width:1;"/><line style="stroke:#000000;stroke-width:1;" x1="962.3206" x2="962.3206" y1="1155.1934" y2="1175.1934"/><polygon fill="#000000" points="958.3206,1165.1934,962.3206,1175.1934,966.3206,1165.1934,962.3206,1169.1934" style="stroke:#000000;stroke-width:1;"/><line style="stroke:#000000;stroke-width:1;" x1="962.3206" x2="962.3206" y1="1100.5625" y2="1120.5625"/><polygon fill="#000000" points="958.3206,1110.5625,962.3206,1120.5625,966.3206,1110.5625,962.3206,1114.5625" style="stroke:#000000;stroke-width:1;"/><line style="stroke:#000000;stroke-width:1;" x1="1015.4524" x2="1161.3728" y1="1381.4551" y2="1381.4551"/><polygon fill="#000000" points="1157.3728,1243.5088,1161.3728,1233.5088,1165.3728,1243.5088,1161.3728,1239.5088" style="stroke:#000000;stroke-width:1;"/><line style="stroke:#000000;stroke-width:1;" x1="1161.3728" x2="1161.3728" y1="1088.5625" y2="1381.4551"/><line style="stroke:#000000;stroke-width:1;" x1="1161.3728" x2="974.3206" y1="1088.5625" y2="1088.5625"/><polygon fill="#000000" points="984.3206,1084.5625,974.3206,1088.5625,984.3206,1092.5625,980.3206,1088.5625" style="stroke:#000000;stroke-width:1;"/><line style="stroke:#000000;stroke-width:1;" x1="962.3206" x2="962.3206" y1="1056.5625" y2="1076.5625"/><polygon fill="#000000" points="958.3206,1066.5625,962.3206,1076.5625,966.3206,1066.5625,962.3206,1070.5625" style="stroke:#000000;stroke-width:1;"/><line style="stroke:#000000;stroke-width:1;" x1="359.007" x2="359.007" y1="1001.9316" y2="1006.9316"/><line style="stroke:#000000;stroke-width:1;" x1="359.007" x2="962.3206" y1="1006.9316" y2="1006.9316"/><line style="stroke:#000000;stroke-width:1;" x1="962.3206" x2="962.3206" y1="1006.9316" y2="1021.9316"/><polygon fill="#000000" points="958.3206,1011.9316,962.3206,1021.9316,966.3206,1011.9316,962.3206,1015.9316" style="stroke:#000000;stroke-width:1;"/><text fill="#000000" font-family="Segoe UI" font-size="11" lengthAdjust="spacing" textLength="105.1016" x="289.4562" y="68.3926">Keepalived (Access-1)</text><text fill="#000000" font-family="Segoe UI" font-size="11" lengthAdjust="spacing" textLength="105.1016" x="874.6426" y="68.3926">Keepalived (Access-2)</text><!--SRC=[dLJFRn915BxlN_6i5qYX0UgXGh31fZLDescAxOc4ZCi04vPPt1reQdeeDDOq7eoDYRSQ3zwnWbBwwr-O_HVwb_XcTi6jR6DYzi3iyhttllUzzyq3KQTD2YsBC6wu3SPRn25DU4NCHisnsxooObks0m_NLjKJGbHebRGjiMPpyO9WXhaYhTaKjjVdea55zeP2EcqOWWcBmWQbBMAn3gt0pjRM9jmUV88w9PQe9yqwDHlWTK7svPdNazVoHWwz0pcKl_3BZNVeTUKOlrv2yNMRLGnZFvGiLZ1Dwhh9T7pVS0LnX96Ld_-4XUgMEFulQFvveVXoTIi1BOVP3XDx-NGgbJECgkqq381int5QPTTqM4k0PbPsLTKIZp4kgDCX5cJSU0wX3crH8l20KVB4Uu-qh-M5l4BYLt8aXoNknnDUAJjKa_DpBRZrd1_MO9P5B0kIAPXKGTOZ-GCpzEK5fBHEsCm1fZxJgenbFr7YgWfuX_8xWiyGElHw0SmxmfUkrutx9LWLObesa3yLTZaEk04SOd8W-t4DGHuESocOE7xiS7w-nAkALF0EUKZb0g3Afh6tnzyW4vaBi-rILgiBG6BNYWcEj8zyLGCNIfiIdqYFgRNuVXpb5LRLPsfXYPZgqUl5GwLNRDkgsBiSv4YbzJxAyNqSt3rNqAOfB0YadmXisRKQDdLxT0A8mRTf-OYYQhAdMhY1xW6dYhBu96Pf8peid18oBEpVGcgi4dBn7q8cCob_k2DvgGJ4lk-Ak1IbON3ojnHswmnT60ivXvW2VvVZUlE1rDI5W3MrEqcbGns1t9kK2rpA9fgQcSGLaCayMaZXarvI36nXeySpYI2WZ1R9foFSSOexe1f0Wwi5Xb2H4aVduzz3EKRB7giUfzRCpV3N5iQEVHCZUMmJj7KZRuKCtWfPt_PF2oiRsviXspz6qQOaPySyguDYe-OcloYV8zbtQXW19cA46ljLkK2UJyl2ao1W-YNQaLX4tu7UMmmVe9U2balycKD4cmcxxK91NQIuo3lhcvC5S8NTkjT3QX3QZhX1btZw0BugkJiR4uvCW7RlEIvU7plkmQBh9ylwT41VTmDjz1xUHpU-mV-FVS3Tvn4zTvylplqt]--></g></svg>