<svg xmlns="http://www.w3.org/2000/svg" xmlns:xlink="http://www.w3.org/1999/xlink" contentStyleType="text/css" data-diagram-type="DESCRIPTION" height="1169px" preserveAspectRatio="none" style="width:1024px;height:1169px;background:#FEFEFE;" version="1.1" viewBox="0 0 1024 1169" width="1024px" zoomAndPan="magnify"><title>&#1050;&#1086;&#1084;&#1087;&#1086;&#1085;&#1077;&#1085;&#1090;&#1085;&#1072;&#1103; &#1076;&#1080;&#1072;&#1075;&#1088;&#1072;&#1084;&#1084;&#1072; AI Assistants Proxy</title><defs/><g><rect fill="#FEFEFE" height="1169" style="stroke:none;stroke-width:1;" width="1024" x="0" y="0"/><text fill="#000000" font-family="Verdana" font-size="22" font-weight="bold" lengthAdjust="spacing" textLength="581.1631" x="216.9185" y="37.1182">&#1050;&#1086;&#1084;&#1087;&#1086;&#1085;&#1077;&#1085;&#1090;&#1085;&#1072;&#1103; &#1076;&#1080;&#1072;&#1075;&#1088;&#1072;&#1084;&#1084;&#1072; AI Assistants Proxy</text><!--cluster AccessTier--><g class="cluster" data-entity="AccessTier" data-source-line="19" data-uid="ent0009" id="cluster_AccessTier"><rect fill="#FFFFFF" height="251" rx="2.5" ry="2.5" style="stroke:#000000;stroke-width:1;" width="665" x="12" y="317.7373"/><path d="M135.3262,317.7373 L135.3262,325.3213 L125.3262,335.3213 L12,335.3213" fill="none" style="stroke:#000000;stroke-width:1;"/><text fill="#000000" font-family="Verdana" font-size="12" font-weight="bold" lengthAdjust="spacing" textLength="113.3262" x="15" y="330.8018">Access Tier (&#1056;&#1060;)</text></g><!--cluster UpstreamTier--><g class="cluster" data-entity="UpstreamTier" data-source-line="27" data-uid="ent0015" id="cluster_UpstreamTier"><rect fill="#FFFFFF" height="265" rx="2.5" ry="2.5" style="stroke:#000000;stroke-width:1;" width="530" x="488" y="592.7373"/><path d="M659.8828,592.7373 L659.8828,600.3213 L649.8828,610.3213 L488,610.3213" fill="none" style="stroke:#000000;stroke-width:1;"/><text fill="#000000" font-family="Verdana" font-size="12" font-weight="bold" lengthAdjust="spacing" textLength="161.8828" x="491" y="605.8018">Upstream Tier (&#1074;&#1085;&#1077; &#1056;&#1060;)</text></g><!--cluster ControlPlane--><g class="cluster" data-entity="ControlPlane" data-source-line="35" data-uid="ent0021" id="cluster_ControlPlane"><rect fill="#FFFFFF" height="127" rx="2.5" ry="2.5" style="stroke:#000000;stroke-width:1;" width="172" x="663" y="166.7373"/><path d="M763.7734,166.7373 L763.7734,174.3213 L753.7734,184.3213 L663,184.3213" fill="none" style="stroke:#000000;stroke-width:1;"/><text fill="#000000" font-family="Verdana" font-size="12" font-weight="bold" lengthAdjust="spacing" textLength="90.7734" x="666" y="179.8018">Control Plane</text></g><!--entity NginxSNI--><g class="entity" data-entity="NginxSNI" data-source-line="20" data-uid="ent0010" id="entity_NginxSNI"><rect fill="#ADD8E6" height="63.752" rx="2.5" ry="2.5" style="stroke:#000000;stroke-width:1;" width="138.3125" x="167" y="350.7373"/><text fill="#000000" font-family="Verdana" font-size="12" lengthAdjust="spacing" textLength="103.9453" x="177" y="372.8018">nginx SNI Router</text><text fill="#000000" font-family="Verdana" font-size="12" lengthAdjust="spacing" textLength="77.8887" x="177" y="387.3857">[C3-NX-001]</text><text fill="#000000" font-family="Verdana" font-size="12" lengthAdjust="spacing" textLength="118.3125" x="177" y="401.9697">:443 &#8594; SNI routing</text></g><!--entity SquidAccess--><g class="entity" data-entity="SquidAccess" data-source-line="21" data-uid="ent0011" id="entity_SquidAccess"><rect fill="#90EE90" height="78.3359" rx="2.5" ry="2.5" style="stroke:#000000;stroke-width:1;" width="175.0449" x="485.5" y="474.7373"/><text fill="#000000" font-family="Verdana" font-size="12" lengthAdjust="spacing" textLength="116.6836" x="495.5" y="496.8018">Squid Access Proxy</text><text fill="#000000" font-family="Verdana" font-size="12" lengthAdjust="spacing" textLength="77.0977" x="495.5" y="511.3857">[C3-SA-001]</text><text fill="#000000" font-family="Verdana" font-size="12" lengthAdjust="spacing" textLength="155.0449" x="495.5" y="525.9697">localhost:3128 (&#1079;&#1072; nginx)</text><text fill="#000000" font-family="Verdana" font-size="12" lengthAdjust="spacing" textLength="124.4766" x="495.5" y="540.5537">Auth + ACL + Cache</text></g><!--entity Keepalived--><g class="entity" data-entity="Keepalived" data-source-line="22" data-uid="ent0012" id="entity_Keepalived"><rect fill="#FFFFE0" height="63.752" rx="2.5" ry="2.5" style="stroke:#000000;stroke-width:1;" width="124.8301" x="535.5" y="350.7373"/><text fill="#000000" font-family="Verdana" font-size="12" lengthAdjust="spacing" textLength="101.9531" x="545.5" y="372.8018">Keepalived VRRP</text><text fill="#000000" font-family="Verdana" font-size="12" lengthAdjust="spacing" textLength="77.209" x="545.5" y="387.3857">[C3-KA-001]</text><text fill="#000000" font-family="Verdana" font-size="12" lengthAdjust="spacing" textLength="104.8301" x="545.5" y="401.9697">Virtual IP failover</text></g><!--entity CrowdSecAccess--><g class="entity" data-entity="CrowdSecAccess" data-source-line="23" data-uid="ent0013" id="entity_CrowdSecAccess"><rect fill="#F08080" height="63.752" rx="2.5" ry="2.5" style="stroke:#000000;stroke-width:1;" width="160.0332" x="340" y="350.7373"/><text fill="#000000" font-family="Verdana" font-size="12" lengthAdjust="spacing" textLength="84.3926" x="350" y="372.8018">CrowdSec IPS</text><text fill="#000000" font-family="Verdana" font-size="12" lengthAdjust="spacing" textLength="77.2734" x="350" y="387.3857">[C3-CS-001]</text><text fill="#000000" font-family="Verdana" font-size="12" lengthAdjust="spacing" textLength="140.0332" x="350" y="401.9697">Log analysis + nftables</text></g><!--entity UnboundAccess--><g class="entity" data-entity="UnboundAccess" data-source-line="24" data-uid="ent0014" id="entity_UnboundAccess"><rect fill="#ADD8E6" height="49.168" rx="2.5" ry="2.5" style="stroke:#000000;stroke-width:1;" width="103.2559" x="28.5" y="358.2373"/><text fill="#000000" font-family="Verdana" font-size="12" lengthAdjust="spacing" textLength="83.2559" x="38.5" y="380.3018">unbound DNS</text><text fill="#000000" font-family="Verdana" font-size="12" lengthAdjust="spacing" textLength="73.8926" x="38.5" y="394.8857">localhost:53</text></g><!--entity NginxUpstream--><g class="entity" data-entity="NginxUpstream" data-source-line="28" data-uid="ent0016" id="entity_NginxUpstream"><rect fill="#ADD8E6" height="63.752" rx="2.5" ry="2.5" style="stroke:#000000;stroke-width:1;" width="149.6152" x="852" y="632.7373"/><text fill="#000000" font-family="Verdana" font-size="12" lengthAdjust="spacing" textLength="103.9453" x="862" y="654.8018">nginx SNI Router</text><text fill="#000000" font-family="Verdana" font-size="12" lengthAdjust="spacing" textLength="77.8887" x="862" y="669.3857">[C3-NX-001]</text><text fill="#000000" font-family="Verdana" font-size="12" lengthAdjust="spacing" textLength="129.6152" x="862" y="683.9697">:443 &#8594; MTProxy only</text></g><!--entity SquidUpstream--><g class="entity" data-entity="SquidUpstream" data-source-line="29" data-uid="ent0017" id="entity_SquidUpstream"><rect fill="#90EE90" height="78.3359" rx="2.5" ry="2.5" style="stroke:#000000;stroke-width:1;" width="156.5176" x="659.5" y="625.7373"/><text fill="#000000" font-family="Verdana" font-size="12" lengthAdjust="spacing" textLength="134.7129" x="669.5" y="647.8018">Squid Upstream Proxy</text><text fill="#000000" font-family="Verdana" font-size="12" lengthAdjust="spacing" textLength="77.6777" x="669.5" y="662.3857">[C3-SU-001]</text><text fill="#000000" font-family="Verdana" font-size="12" lengthAdjust="spacing" textLength="136.5176" x="669.5" y="676.9697">:80 (direct, &#1073;&#1077;&#1079; nginx)</text><text fill="#000000" font-family="Verdana" font-size="12" lengthAdjust="spacing" textLength="130.3066" x="669.5" y="691.5537">Anonymous transport</text></g><!--entity MTProxy--><g class="entity" data-entity="MTProxy" data-source-line="30" data-uid="ent0018" id="entity_MTProxy"><rect fill="#DDA0DD" height="78.3359" rx="2.5" ry="2.5" style="stroke:#000000;stroke-width:1;" width="134.082" x="864" y="763.7373"/><text fill="#000000" font-family="Verdana" font-size="12" lengthAdjust="spacing" textLength="90.3457" x="874" y="785.8018">MTProxy (mtg)</text><text fill="#000000" font-family="Verdana" font-size="12" lengthAdjust="spacing" textLength="78.1992" x="874" y="800.3857">[C3-MT-001]</text><text fill="#000000" font-family="Verdana" font-size="12" lengthAdjust="spacing" textLength="89.1504" x="874" y="814.9697">localhost:2083</text><text fill="#000000" font-family="Verdana" font-size="12" lengthAdjust="spacing" textLength="114.082" x="874" y="829.5537">fake-TLS Telegram</text></g><!--entity CrowdSecUpstream--><g class="entity" data-entity="CrowdSecUpstream" data-source-line="31" data-uid="ent0019" id="entity_CrowdSecUpstream"><rect fill="#F08080" height="63.752" rx="2.5" ry="2.5" style="stroke:#000000;stroke-width:1;" width="120.1133" x="504" y="632.7373"/><text fill="#000000" font-family="Verdana" font-size="12" lengthAdjust="spacing" textLength="84.3926" x="514" y="654.8018">CrowdSec IPS</text><text fill="#000000" font-family="Verdana" font-size="12" lengthAdjust="spacing" textLength="77.2734" x="514" y="669.3857">[C3-CS-001]</text><text fill="#000000" font-family="Verdana" font-size="12" lengthAdjust="spacing" textLength="100.1133" x="514" y="683.9697">SSH log analysis</text></g><!--entity UnboundUpstream--><g class="entity" data-entity="UnboundUpstream" data-source-line="32" data-uid="ent0020" id="entity_UnboundUpstream"><rect fill="#ADD8E6" height="49.168" rx="2.5" ry="2.5" style="stroke:#000000;stroke-width:1;" width="103.2559" x="686.5" y="778.2373"/><text fill="#000000" font-family="Verdana" font-size="12" lengthAdjust="spacing" textLength="83.2559" x="696.5" y="800.3018">unbound DNS</text><text fill="#000000" font-family="Verdana" font-size="12" lengthAdjust="spacing" textLength="73.8926" x="696.5" y="814.8857">localhost:53</text></g><!--entity Ansible--><g class="entity" data-entity="Ansible" data-source-line="36" data-uid="ent0022" id="entity_Ansible"><rect fill="#F5DEB3" height="78.3359" rx="2.5" ry="2.5" style="stroke:#000000;stroke-width:1;" width="140.1699" x="679" y="199.7373"/><text fill="#000000" font-family="Verdana" font-size="12" lengthAdjust="spacing" textLength="120.1699" x="689" y="221.8018">Ansible Deployment</text><text fill="#000000" font-family="Verdana" font-size="12" lengthAdjust="spacing" textLength="78.1406" x="689" y="236.3857">[C3-AD-001]</text><text fill="#000000" font-family="Verdana" font-size="12" lengthAdjust="spacing" textLength="115.6172" x="689" y="250.9697">playbook + roles +</text><text fill="#000000" font-family="Verdana" font-size="12" lengthAdjust="spacing" textLength="59.6543" x="689" y="265.5537">templates</text></g><!--entity User--><g class="entity" data-entity="User" data-source-line="10" data-uid="ent0002" id="entity_User"><ellipse cx="166.7998" cy="202.7373" fill="#FFFFFF" rx="8" ry="8" style="stroke:#000000;stroke-width:1;"/><path d="M166.7998,210.7373 L166.7998,237.7373 M153.7998,218.7373 L179.7998,218.7373 M166.7998,237.7373 L153.7998,252.7373 M166.7998,237.7373 L179.7998,252.7373" fill="none" style="stroke:#000000;stroke-width:1;"/><text fill="#000000" font-family="Verdana" font-size="12" lengthAdjust="spacing" textLength="55.6465" x="118" y="266.8018">&#1048;&#1085;&#1078;&#1077;&#1085;&#1077;&#1088;</text><text fill="#000000" font-family="Verdana" font-size="12" lengthAdjust="spacing" textLength="97.5996" x="118" y="281.3857">(IDE / &#1041;&#1088;&#1072;&#1091;&#1079;&#1077;&#1088;)</text></g><!--entity TgUser--><g class="entity" data-entity="TgUser" data-source-line="11" data-uid="ent0003" id="entity_TgUser"><ellipse cx="303.9443" cy="209.7373" fill="#FFFFFF" rx="8" ry="8" style="stroke:#000000;stroke-width:1;"/><path d="M303.9443,217.7373 L303.9443,244.7373 M290.9443,225.7373 L316.9443,225.7373 M303.9443,244.7373 L290.9443,259.7373 M303.9443,244.7373 L316.9443,259.7373" fill="none" style="stroke:#000000;stroke-width:1;"/><text fill="#000000" font-family="Verdana" font-size="12" lengthAdjust="spacing" textLength="104.8887" x="251.5" y="273.8018">Telegram-&#1082;&#1083;&#1080;&#1077;&#1085;&#1090;</text></g><!--entity DevOps--><g class="entity" data-entity="DevOps" data-source-line="12" data-uid="ent0004" id="entity_DevOps"><ellipse cx="749.2207" cy="66.7373" fill="#FFFFFF" rx="8" ry="8" style="stroke:#000000;stroke-width:1;"/><path d="M749.2207,74.7373 L749.2207,101.7373 M736.2207,82.7373 L762.2207,82.7373 M749.2207,101.7373 L736.2207,116.7373 M749.2207,101.7373 L762.2207,116.7373" fill="none" style="stroke:#000000;stroke-width:1;"/><text fill="#000000" font-family="Verdana" font-size="12" lengthAdjust="spacing" textLength="106.4414" x="696" y="130.8018">DevOps-&#1080;&#1085;&#1078;&#1077;&#1085;&#1077;&#1088;</text></g><!--entity AIAPI--><g class="entity" data-entity="AIAPI" data-source-line="14" data-uid="ent0005" id="entity_AIAPI"><path d="M340.3067,774.7333 C342.3135,769.3462 347.5931,768.3902 351.1172,773.1105 C354.9152,766.7725 358.9554,767.2139 363.7236,772.0123 C368.022,765.7851 373.1631,764.9783 378.1191,771.2553 C379.9543,764.6447 385.833,763.9458 390.352,768.2466 C394.4306,762.24 398.8206,762.0408 403.2462,767.8685 C407.2182,763.1043 411.8612,763.2008 414.0921,769.5654 C418.1733,763.9582 424.3744,763.8474 427.9673,770.1348 C433.5085,765.9149 437.7814,766.1434 440.8717,772.9922 C445.1298,766.6626 450.2912,768.6636 453.3153,774.2779 C456.5063,768.7907 460.8385,769.2011 464.4672,773.7937 C473.826,778.0717 473.7921,783.6783 466.6278,790.1402 C473.294,793.6579 474.6029,797.8536 469.6424,803.9157 C476.6841,808.9055 476.0086,814.5574 468.3565,818.2269 C475.2621,824.6134 472.574,829.3823 465.3815,832.9129 C461.5459,838.5129 457.5619,839.986 452.8975,833.7899 C448.5101,839.1483 444.1589,840.4896 439.8574,833.6977 C437.3313,840.418 432.9099,840.8398 428.2526,835.8009 C424.4389,841.1648 418.8477,841.7234 414.9345,835.9195 C411.9646,841.4895 408.0962,843.6803 403.2089,837.9004 C398.7233,843.0208 394.5557,843.9318 390.3943,837.5395 C385.2158,843.0406 380.6466,843.2405 376.8801,836.0375 C372.3736,841.9628 368.2225,840.6836 364.5191,835.1697 C359.7306,840.0787 355.0572,839.6012 352.7069,832.7258 C348.6828,837.6494 344.1489,838.0869 340.6572,832.1358 C332.9173,829.0008 333.0035,822.1883 339.9957,818.3465 C333.2085,814.0791 331.45,808.1282 338.6393,802.6528 C331.4711,799.3168 331.0319,792.509 338.2169,788.7372 C331.1758,784.0133 332.9653,777.3109 340.3067,774.7333" fill="#FFFFFF" style="stroke:#000000;stroke-width:1;"/><text fill="#000000" font-family="Verdana" font-size="12" lengthAdjust="spacing" textLength="37.9629" x="345.5" y="792.8018">AI API</text><text fill="#000000" font-family="Verdana" font-size="12" lengthAdjust="spacing" textLength="111.3398" x="345.5" y="807.3857">(Claude, ChatGPT,</text><text fill="#000000" font-family="Verdana" font-size="12" lengthAdjust="spacing" textLength="98.0742" x="345.5" y="821.9697">Gemini, Copilot)</text></g><!--entity TgDC--><g class="entity" data-entity="TgDC" data-source-line="15" data-uid="ent0006" id="entity_TgDC"><path d="M885.6197,925.3227 C889.2633,919.832 894.272,919.6538 897.2549,925.9736 C900.717,919.0877 905.7911,920.339 909.8469,925.3449 C912.0364,919.182 917.9522,918.8125 921.6364,923.7587 C924.9634,919.2836 928.4919,919.2166 931.293,924.2905 C934.6726,918.813 939.4604,918.9466 943.1479,923.942 C947.2822,917.8514 951.384,918.1031 955.345,924.1166 C959.0585,917.8805 963.9018,918.4024 967.6573,924.0731 C971.6624,920.146 974.8993,919.8896 977.6046,925.4376 C986.0857,926.2426 990.0096,930.7699 985.4357,939.0728 C989.949,946.3983 987.9639,952.3743 978.8221,953.3938 C976.1696,959.4191 970.9646,959.6705 967.0271,954.7827 C963.9932,959.5192 959.8968,959.502 956.3648,955.3823 C952.6177,962.2216 948.2567,962.1747 943.8144,956.0556 C941.6077,963.3364 936.3942,964.1562 931.685,958.3803 C928.0861,964.0904 922.8041,962.7761 920.5791,957.0464 C917.62,961.083 912.6687,961.689 910.226,956.4689 C905.7339,960.516 900.742,960.8728 898.5931,953.9778 C894.4305,959.6272 889.4569,958.8363 885.8417,953.351 C878.2581,950.3494 877.3861,946.1453 882.4847,939.9636 C876.5359,934.6399 877.468,927.6271 885.6197,925.3227" fill="#FFFFFF" style="stroke:#000000;stroke-width:1;"/><text fill="#000000" font-family="Verdana" font-size="12" lengthAdjust="spacing" textLength="78.3047" x="892" y="943.3018">Telegram DC</text></g><!--entity CAPI--><g class="entity" data-entity="CAPI" data-source-line="16" data-uid="ent0007" id="entity_CAPI"><path d="M150.3093,781.3567 C153.868,775.9377 158.6072,775.9602 162.1459,781.3786 C165.839,776.9221 170.1312,777.0602 172.8391,782.4488 C175.6231,775.51 179.1796,774.9589 184.2878,780.2779 C188.371,775.9468 192.0537,775.6091 195.4068,781.1041 C198.8072,776.0389 202.6546,775.7643 206.7699,780.254 C210.0261,774.702 216.6503,774.0758 220.2776,779.8099 C223.6544,775.6433 227.63,775.829 230.7585,780.1178 C234.4745,775.5923 238.3543,775.0456 241.6425,780.5806 C245.5781,775.7265 250.9371,776.3406 253.4309,782.1713 C256.1055,776.2051 260.5306,775.514 264.6744,780.6885 C269.4387,775.7069 272.9086,776.7081 276.2933,782.2166 C279.9574,777.1112 284.6087,776.3734 287.8388,782.6565 C294.2322,783.7555 294.9225,787.8657 292.1725,792.8514 C298.7264,794.5974 299.3379,797.9987 295.803,803.2626 C299.367,807.3751 299.0782,812.0303 293.2362,813.8658 C297.775,819.2682 296.149,824.2577 289.3973,826.1244 C286.3559,832.374 281.5101,832.732 277.8983,826.6566 C273.8122,831.95 269.8172,833.6737 265.2153,827.2132 C262.0701,832.2231 258.8848,833.3684 254.8964,828.0561 C250.3986,834.3463 246.1797,833.6996 242.2825,827.4518 C239.7099,833.6627 235.5763,833.3846 231.5195,828.9527 C228.6079,834.7493 223.5426,835.0936 219.6899,829.9723 C216.1732,834.566 210.4704,834.0574 207.8833,828.8521 C204.4318,832.9758 199.2856,833.9946 196.9259,827.7034 C193.6169,834.5811 188.1563,834.6942 184.2071,828.3179 C180.1467,832.1688 175.8034,830.4577 174.0686,825.6081 C170.6523,831.492 165.2205,830.4826 162.0908,825.298 C159.5505,830.4799 154.2727,831.4778 150.7484,826.3842 C137.8757,820.1024 138.4266,811.8824 148.7995,803.6112 C139.6627,797.0908 141.005,786.6261 150.3093,781.3567" fill="#FFFFFF" style="stroke:#000000;stroke-width:1;"/><text fill="#000000" font-family="Verdana" font-size="12" lengthAdjust="spacing" textLength="92.7715" x="156" y="800.3018">CrowdSec CAPI</text><text fill="#000000" font-family="Verdana" font-size="12" lengthAdjust="spacing" textLength="124.3301" x="156" y="814.8857">(Threat Intelligence)</text></g><!--entity DNS--><g class="entity" data-entity="DNS" data-source-line="17" data-uid="ent0008" id="entity_DNS"><path d="M681.4667,911.6264 C684.3688,906.0601 689.5652,904.9595 693.8574,910.0029 C695.1603,903.4401 700.7285,902.961 704.8709,907.0733 C707.5509,902.3291 711.3656,901.7317 715.0999,905.8573 C718.7528,899.725 723.7359,899.7828 727.9483,905.2369 C730.4012,900.0432 734.7113,899.6242 738.4651,903.7723 C742.6153,897.3062 747.2652,898.4786 750.9745,904.224 C755.5333,898.9921 759.9685,900.6675 762.4729,906.382 C766.2294,902.271 770.4717,901.7085 773.1215,907.5643 C777.6333,903.2013 781.8242,904.9167 783.5864,910.467 C787.3673,905.2026 792.8328,905.1282 795.5529,911.5529 C804.7312,914.2399 805.3113,919.1578 800.0848,926.278 C808.2779,928.2161 809.4383,933.9934 803.73,939.7054 C810.6211,945.5117 807.5307,952.4672 800.3383,955.1883 C804.8807,961.2802 803.6904,965.8157 796.6241,968.7216 C792.9359,975.9486 788.6015,976.3338 783.361,970.2708 C779.3863,974.4599 775.5773,974.4216 772.2969,969.4337 C769.9942,974.8387 766.7515,976.1236 762.3604,971.5037 C758.9618,977.1106 754.2552,977.4711 750.7168,971.6461 C746.8457,977.3188 742.568,978.0258 738.3746,971.9857 C735.6368,976.031 731.0509,976.8808 728.5849,971.6975 C724.3009,977.7612 720.3957,978.824 715.8701,971.9346 C711.8969,977.3625 708.5516,976.1207 705.107,971.3753 C700.0148,976.8397 696.5644,975.2636 693.7651,969.1326 C690.8498,973.881 685.7875,973.8921 682.6414,969.4107 C673.421,966.3635 673.127,961.4206 678.0701,954.1349 C670.6853,950.5919 669.7716,945.1386 675.566,939.3617 C669.4607,933.9337 672.6518,927.8157 679.1347,925.6682 C673.8889,920.5755 673.3274,914.4962 681.4667,911.6264" fill="#FFFFFF" style="stroke:#000000;stroke-width:1;"/><text fill="#000000" font-family="Verdana" font-size="12" lengthAdjust="spacing" textLength="26.4258" x="688" y="928.8018">DNS</text><text fill="#000000" font-family="Verdana" font-size="12" lengthAdjust="spacing" textLength="99.5391" x="688" y="943.3857">(Quad9, Google,</text><text fill="#000000" font-family="Verdana" font-size="12" lengthAdjust="spacing" textLength="66.4629" x="688" y="957.9697">Cloudflare)</text></g><!--link User to NginxSNI--><g class="link" data-entity-1="User" data-entity-2="NginxSNI" data-source-line="40" data-uid="lnk23" id="link_User_NginxSNI"><path d="M191.5,283.9073 C191.5,305.5173 191.5,324.8873 191.5,344.5173" fill="none" id="User-to-NginxSNI" style="stroke:#000000;stroke-width:1;"/><polygon fill="#000000" points="191.5,350.5173,195.5,341.5173,191.5,345.5173,187.5,341.5173,191.5,350.5173" style="stroke:#000000;stroke-width:1;"/><text fill="#000000" font-family="Verdana" font-size="12" lengthAdjust="spacing" textLength="39.2461" x="118.5264" y="299.2718">HTTPS</text><text fill="#000000" font-family="Verdana" font-size="12" lengthAdjust="spacing" textLength="105.2988" x="85.5" y="313.8557">(HTTP CONNECT)</text></g><!--link TgUser to NginxSNI--><g class="link" data-entity-1="TgUser" data-entity-2="NginxSNI" data-source-line="41" data-uid="lnk24" id="link_TgUser_NginxSNI"><path d="M269.33,276.9473 C269.33,299.9473 269.33,322.8873 269.33,344.6873" fill="none" id="TgUser-to-NginxSNI" style="stroke:#000000;stroke-width:1;"/><polygon fill="#000000" points="269.33,350.6873,273.33,341.6873,269.33,345.6873,265.33,341.6873,269.33,350.6873" style="stroke:#000000;stroke-width:1;"/><text fill="#000000" font-family="Verdana" font-size="12" lengthAdjust="spacing" textLength="22.2773" x="304.5663" y="295.8818">TLS</text><text fill="#000000" font-family="Verdana" font-size="12" lengthAdjust="spacing" textLength="90.75" x="270.33" y="310.4657">(fake-TLS SNI)</text></g><!--link NginxSNI to SquidAccess--><g class="link" data-entity-1="NginxSNI" data-entity-2="SquidAccess" data-source-line="44" data-uid="lnk25" id="link_NginxSNI_SquidAccess"><path d="M301.67,414.7873 C301.67,453.5673 301.67,513.7373 301.67,513.7373 C301.67,513.7373 400.01,513.7373 479.28,513.7373" fill="none" id="NginxSNI-to-SquidAccess" style="stroke:#000000;stroke-width:1;"/><polygon fill="#000000" points="485.28,513.7373,476.28,509.7373,480.28,513.7373,476.28,517.7373,485.28,513.7373" style="stroke:#000000;stroke-width:1;"/><text fill="#000000" font-family="Verdana" font-size="12" lengthAdjust="spacing" textLength="68.1152" x="257.1758" y="481.8018">default SNI</text><text fill="#000000" font-family="Verdana" font-size="12" lengthAdjust="spacing" textLength="89.1504" x="246.6582" y="496.3857">localhost:3128</text><text fill="#000000" font-family="Verdana" font-size="12" lengthAdjust="spacing" textLength="104.4668" x="239" y="510.9697">(PROXY protocol)</text></g><!--link NginxSNI to NginxUpstream--><g class="link" data-entity-1="NginxSNI" data-entity-2="NginxUpstream" data-source-line="45" data-uid="lnk26" id="link_NginxSNI_NginxUpstream"><path d="M298.33,414.9373 C298.33,470.3273 298.33,577.7373 298.33,577.7373 C298.33,577.7373 902,577.7373 902,577.7373 C902,577.7373 902,601.6073 902,626.3373" fill="none" id="NginxSNI-to-NginxUpstream" style="stroke:#000000;stroke-width:1;"/><polygon fill="#000000" points="902,632.3373,906,623.3373,902,627.3373,898,623.3373,902,632.3373" style="stroke:#000000;stroke-width:1;"/><text fill="#000000" font-family="Verdana" font-size="12" lengthAdjust="spacing" textLength="77.8008" x="454.1559" y="590.8018">MTProxy SNI</text><text fill="#000000" font-family="Verdana" font-size="12" lengthAdjust="spacing" textLength="96.5508" x="444.7809" y="605.3857">TLS relay :9443</text><text fill="#000000" font-family="Verdana" font-size="12" lengthAdjust="spacing" textLength="105.9727" x="440.07" y="619.9697">&#8594; upstream :443</text></g><!--link NginxUpstream to MTProxy--><g class="link" data-entity-1="NginxUpstream" data-entity-2="MTProxy" data-source-line="48" data-uid="lnk27" id="link_NginxUpstream_MTProxy"><path d="M931,696.7473 C931,716.6473 931,736.3873 931,757.5173" fill="none" id="NginxUpstream-to-MTProxy" style="stroke:#000000;stroke-width:1;"/><polygon fill="#000000" points="931,763.5173,935,754.5173,931,758.5173,927,754.5173,931,763.5173" style="stroke:#000000;stroke-width:1;"/><text fill="#000000" font-family="Verdana" font-size="12" lengthAdjust="spacing" textLength="58.3242" x="848.5225" y="712.1918">SNI route</text><text fill="#000000" font-family="Verdana" font-size="12" lengthAdjust="spacing" textLength="105.3691" x="825" y="726.7757">&#8594; localhost:2083</text></g><!--link SquidAccess to SquidUpstream--><g class="link" data-entity-1="SquidAccess" data-entity-2="SquidUpstream" data-source-line="51" data-uid="lnk28" id="link_SquidAccess_SquidUpstream"><path d="M641.75,553.0073 C641.75,586.6573 641.75,629.7373 641.75,629.7373 C641.75,629.7373 642.95,629.7373 653.4,629.7373" fill="none" id="SquidAccess-to-SquidUpstream" style="stroke:#000000;stroke-width:1;"/><polygon fill="#000000" points="659.4,629.7373,650.4,625.7373,654.4,629.7373,650.4,633.7373,659.4,629.7373" style="stroke:#000000;stroke-width:1;"/><text fill="#000000" font-family="Verdana" font-size="12" lengthAdjust="spacing" textLength="68.9766" x="666.4482" y="568.2618">cache_peer</text><text fill="#000000" font-family="Verdana" font-size="12" lengthAdjust="spacing" textLength="116.373" x="642.75" y="582.8457">userhash balancing</text><text fill="#000000" font-family="Verdana" font-size="12" lengthAdjust="spacing" textLength="20.707" x="690.583" y="597.4297">:80</text></g><!--link SquidUpstream to AIAPI--><g class="link" data-entity-1="SquidUpstream" data-entity-2="AIAPI" data-source-line="54" data-uid="lnk29" id="link_SquidUpstream_AIAPI"><path d="M666.25,703.8273 C666.25,735.4473 666.25,774.7373 666.25,774.7373 C666.25,774.7373 556.31,774.7373 477.73,774.7373" fill="none" id="SquidUpstream-to-AIAPI" style="stroke:#000000;stroke-width:1;"/><polygon fill="#000000" points="471.73,774.7373,480.73,778.7373,476.73,774.7373,480.73,770.7373,471.73,774.7373" style="stroke:#000000;stroke-width:1;"/><text fill="#000000" font-family="Verdana" font-size="12" lengthAdjust="spacing" textLength="39.2461" x="546.4998" y="756.8018">HTTPS</text><text fill="#000000" font-family="Verdana" font-size="12" lengthAdjust="spacing" textLength="75.3457" x="528.45" y="771.3857">(TLS tunnel)</text></g><!--link SquidUpstream to UnboundUpstream--><g class="link" data-entity-1="SquidUpstream" data-entity-2="UnboundUpstream" data-source-line="55" data-uid="lnk30" id="link_SquidUpstream_UnboundUpstream"><path d="M738,703.9173 C738,727.8173 738,751.6373 738,772.2373" fill="none" id="SquidUpstream-to-UnboundUpstream" style="stroke:#000000;stroke-width:1;"/><polygon fill="#000000" points="738,778.2373,742,769.2373,738,773.2373,734,769.2373,738,778.2373" style="stroke:#000000;stroke-width:1;"/><text fill="#000000" font-family="Verdana" font-size="12" lengthAdjust="spacing" textLength="74.6777" x="663" y="723.1418">DNS queries</text><text fill="#000000" font-family="Verdana" font-size="12" lengthAdjust="spacing" textLength="73.8926" x="663.3926" y="737.7257">localhost:53</text></g><!--link UnboundUpstream to DNS--><g class="link" data-entity-1="UnboundUpstream" data-entity-2="DNS" data-source-line="56" data-uid="lnk31" id="link_UnboundUpstream_DNS"><path d="M738,827.3673 C738,848.1073 738,872.0973 738,895.7273" fill="none" id="UnboundUpstream-to-DNS" style="stroke:#000000;stroke-width:1;"/><polygon fill="#000000" points="738,901.7273,742,892.7273,738,896.7273,734,892.7273,738,901.7273" style="stroke:#000000;stroke-width:1;"/><text fill="#000000" font-family="Verdana" font-size="12" lengthAdjust="spacing" textLength="95.2559" x="642" y="861.6118">DNS forwarding</text></g><!--link MTProxy to TgDC--><g class="link" data-entity-1="MTProxy" data-entity-2="TgDC" data-source-line="57" data-uid="lnk32" id="link_MTProxy_TgDC"><path d="M931,842.0773 C931,866.0773 931,889.9173 931,910.0473" fill="none" id="MTProxy-to-TgDC" style="stroke:#000000;stroke-width:1;"/><polygon fill="#000000" points="931,916.0473,935,907.0473,931,911.0473,927,907.0473,931,916.0473" style="stroke:#000000;stroke-width:1;"/><text fill="#000000" font-family="Verdana" font-size="12" lengthAdjust="spacing" textLength="49.1602" x="881" y="876.1218">MTProto</text></g><!--link CrowdSecAccess to SquidAccess--><g class="link" data-entity-1="CrowdSecAccess" data-entity-2="SquidAccess" data-source-line="60" data-uid="lnk33" id="link_CrowdSecAccess_SquidAccess"><path d="M492.75,414.7873 C492.75,432.8073 492.75,449.4573 492.75,468.5373" fill="none" id="CrowdSecAccess-to-SquidAccess" style="stroke:#000000;stroke-width:1;stroke-dasharray:7.0,7.0;"/><polygon fill="#000000" points="492.75,474.5373,496.75,465.5373,492.75,469.5373,488.75,465.5373,492.75,474.5373" style="stroke:#000000;stroke-width:1;"/><text fill="#000000" font-family="Verdana" font-size="12" lengthAdjust="spacing" textLength="41.209" x="441.0361" y="457.7218">&#1095;&#1080;&#1090;&#1072;&#1077;&#1090;</text><text fill="#000000" font-family="Verdana" font-size="12" lengthAdjust="spacing" textLength="61.7813" x="430.75" y="472.3057">access.log</text></g><!--link CrowdSecAccess to CAPI--><g class="link" data-entity-1="CrowdSecAccess" data-entity-2="CAPI" data-source-line="61" data-uid="lnk34" id="link_CrowdSecAccess_CAPI"><path d="M339.94,382.7373 C327,382.7373 317.75,382.7373 317.75,382.7373 C317.75,382.7373 317.75,802.7373 317.75,802.7373 C317.75,802.7373 314.25,802.7373 301.12,802.7373" fill="none" id="CrowdSecAccess-to-CAPI" style="stroke:#000000;stroke-width:1;"/><polygon fill="#000000" points="295.12,802.7373,304.12,806.7373,300.12,802.7373,304.12,798.7373,295.12,802.7373" style="stroke:#000000;stroke-width:1;"/><text fill="#000000" font-family="Verdana" font-size="12" lengthAdjust="spacing" textLength="43.418" x="271.5273" y="575.0218">alerts /</text><text fill="#000000" font-family="Verdana" font-size="12" lengthAdjust="spacing" textLength="48.9727" x="268.75" y="589.6057">blocklist</text></g><!--link CrowdSecUpstream to CAPI--><g class="link" data-entity-1="CrowdSecUpstream" data-entity-2="CAPI" data-source-line="62" data-uid="lnk35" id="link_CrowdSecUpstream_CAPI"><path d="M503.7,664.7373 C407.73,664.7373 231,664.7373 231,664.7373 C231,664.7373 231,726.5873 231,767.1373" fill="none" id="CrowdSecUpstream-to-CAPI" style="stroke:#000000;stroke-width:1;"/><polygon fill="#000000" points="231,773.1373,235,764.1373,231,768.1373,227,764.1373,231,773.1373" style="stroke:#000000;stroke-width:1;"/><text fill="#000000" font-family="Verdana" font-size="12" lengthAdjust="spacing" textLength="43.418" x="266.9273" y="646.8018">alerts /</text><text fill="#000000" font-family="Verdana" font-size="12" lengthAdjust="spacing" textLength="48.9727" x="264.15" y="661.3857">blocklist</text></g><!--link Keepalived to SquidAccess--><g class="link" data-entity-1="Keepalived" data-entity-2="SquidAccess" data-source-line="65" data-uid="lnk36" id="link_Keepalived_SquidAccess"><path d="M598,414.7873 C598,432.8073 598,449.4573 598,468.5373" fill="none" id="Keepalived-to-SquidAccess" style="stroke:#000000;stroke-width:1;stroke-dasharray:7.0,7.0;"/><polygon fill="#000000" points="598,474.5373,602,465.5373,598,469.5373,594,465.5373,598,474.5373" style="stroke:#000000;stroke-width:1;"/><text fill="#000000" font-family="Verdana" font-size="12" lengthAdjust="spacing" textLength="76.1309" x="608.5742" y="426.7218">health check</text><text fill="#000000" font-family="Verdana" font-size="12" lengthAdjust="spacing" textLength="95.2793" x="599" y="441.3057">(killall -0 squid)</text></g><!--link DevOps to Ansible--><g class="link" data-entity-1="DevOps" data-entity-2="Ansible" data-source-line="68" data-uid="lnk37" id="link_DevOps_Ansible"><path d="M749,134.0573 C749,154.2473 749,172.9673 749,193.3173" fill="none" id="DevOps-to-Ansible" style="stroke:#000000;stroke-width:1;"/><polygon fill="#000000" points="749,199.3173,753,190.3173,749,194.3173,745,190.3173,749,199.3173" style="stroke:#000000;stroke-width:1;"/><text fill="#000000" font-family="Verdana" font-size="12" lengthAdjust="spacing" textLength="101.9355" x="647" y="163.7518">ansible-playbook</text></g><!--link Ansible to SquidAccess--><g class="link" data-entity-1="Ansible" data-entity-2="SquidAccess" data-source-line="69" data-uid="lnk38" id="link_Ansible_SquidAccess"><path d="M747.75,277.8473 C747.75,353.7673 747.75,513.7373 747.75,513.7373 C747.75,513.7373 710.23,513.7373 666.63,513.7373" fill="none" id="Ansible-to-SquidAccess" style="stroke:#000000;stroke-width:1;stroke-dasharray:7.0,7.0;"/><polygon fill="#000000" points="660.63,513.7373,669.63,517.7373,665.63,513.7373,669.63,509.7373,660.63,513.7373" style="stroke:#000000;stroke-width:1;"/><text fill="#000000" font-family="Verdana" font-size="12" lengthAdjust="spacing" textLength="69.4219" x="748.75" y="436.4118">SSH deploy</text></g><!--link Ansible to SquidUpstream--><g class="link" data-entity-1="Ansible" data-entity-2="SquidUpstream" data-source-line="70" data-uid="lnk39" id="link_Ansible_SquidUpstream"><path d="M793.58,278.0473 C793.58,359.2073 793.58,538.4473 793.58,619.5173" fill="none" id="Ansible-to-SquidUpstream" style="stroke:#000000;stroke-width:1;stroke-dasharray:7.0,7.0;"/><polygon fill="#000000" points="793.58,625.5173,797.58,616.5173,793.58,620.5173,789.58,616.5173,793.58,625.5173" style="stroke:#000000;stroke-width:1;"/><text fill="#000000" font-family="Verdana" font-size="12" lengthAdjust="spacing" textLength="69.4219" x="723.58" y="464.8518">SSH deploy</text></g><!--link Ansible to NginxSNI--><g class="link" data-entity-1="Ansible" data-entity-2="NginxSNI" data-source-line="71" data-uid="lnk40" id="link_Ansible_NginxSNI"><path d="M701.92,277.7773 C701.92,297.6773 701.92,317.7373 701.92,317.7373 C701.92,317.7373 287.17,317.7373 287.17,317.7373 C287.17,317.7373 287.17,328.2373 287.17,344.6173" fill="none" id="Ansible-to-NginxSNI" style="stroke:#000000;stroke-width:1;stroke-dasharray:7.0,7.0;"/><polygon fill="#000000" points="287.17,350.6173,291.17,341.6173,287.17,345.6173,283.17,341.6173,287.17,350.6173" style="stroke:#000000;stroke-width:1;"/><text fill="#000000" font-family="Verdana" font-size="12" lengthAdjust="spacing" textLength="69.4219" x="424.6044" y="299.8018">SSH deploy</text><text fill="#000000" font-family="Verdana" font-size="12" lengthAdjust="spacing" textLength="76.4707" x="421.08" y="314.3857">(role: nginx)</text></g><!--link Ansible to NginxUpstream--><g class="link" data-entity-1="Ansible" data-entity-2="NginxUpstream" data-source-line="72" data-uid="lnk41" id="link_Ansible_NginxUpstream"><path d="M819.15,251.7373 C877.82,251.7373 952,251.7373 952,251.7373 C952,251.7373 952,529.6373 952,626.6773" fill="none" id="Ansible-to-NginxUpstream" style="stroke:#000000;stroke-width:1;stroke-dasharray:7.0,7.0;"/><polygon fill="#000000" points="952,632.6773,956,623.6773,952,627.6773,948,623.6773,952,632.6773" style="stroke:#000000;stroke-width:1;"/><text fill="#000000" font-family="Verdana" font-size="12" lengthAdjust="spacing" textLength="69.4219" x="870.2373" y="357.8418">SSH deploy</text><text fill="#000000" font-family="Verdana" font-size="12" lengthAdjust="spacing" textLength="93.8965" x="858" y="372.4257">(role: mtproxy)</text></g><!--link Ansible to MTProxy--><g class="link" data-entity-1="Ansible" data-entity-2="MTProxy" data-source-line="73" data-uid="lnk42" id="link_Ansible_MTProxy"><path d="M819.23,225.7373 C828.85,225.7373 835.5,225.7373 835.5,225.7373 C835.5,225.7373 835.5,770.7373 835.5,770.7373 C835.5,770.7373 841.97,770.7373 857.89,770.7373" fill="none" id="Ansible-to-MTProxy" style="stroke:#000000;stroke-width:1;stroke-dasharray:7.0,7.0;"/><polygon fill="#000000" points="863.89,770.7373,854.89,766.7373,858.89,770.7373,854.89,774.7373,863.89,770.7373" style="stroke:#000000;stroke-width:1;"/><text fill="#000000" font-family="Verdana" font-size="12" lengthAdjust="spacing" textLength="69.4219" x="753.7373" y="486.3618">SSH deploy</text><text fill="#000000" font-family="Verdana" font-size="12" lengthAdjust="spacing" textLength="93.8965" x="741.5" y="500.9457">(role: mtproxy)</text></g><!--link Ansible to CrowdSecAccess--><g class="link" data-entity-1="Ansible" data-entity-2="CrowdSecAccess" data-source-line="74" data-uid="lnk43" id="link_Ansible_CrowdSecAccess"><path d="M678.61,238.7373 C584.19,238.7373 428.25,238.7373 428.25,238.7373 C428.25,238.7373 428.25,301.9673 428.25,344.4173" fill="none" id="Ansible-to-CrowdSecAccess" style="stroke:#000000;stroke-width:1;stroke-dasharray:7.0,7.0;"/><polygon fill="#000000" points="428.25,350.4173,432.25,341.4173,428.25,345.4173,424.25,341.4173,428.25,350.4173" style="stroke:#000000;stroke-width:1;"/><text fill="#000000" font-family="Verdana" font-size="12" lengthAdjust="spacing" textLength="69.4219" x="412.3879" y="220.8018">SSH deploy</text><text fill="#000000" font-family="Verdana" font-size="12" lengthAdjust="spacing" textLength="99.0176" x="397.59" y="235.3857">(role: crowdsec)</text></g><!--link Ansible to CrowdSecUpstream--><g class="link" data-entity-1="Ansible" data-entity-2="CrowdSecUpstream" data-source-line="75" data-uid="lnk44" id="link_Ansible_CrowdSecUpstream"><path d="M770.67,277.9273 C770.67,371.7973 770.67,601.7373 770.67,601.7373 C770.67,601.7373 564,601.7373 564,601.7373 C564,601.7373 564,610.9973 564,626.4973" fill="none" id="Ansible-to-CrowdSecUpstream" style="stroke:#000000;stroke-width:1;stroke-dasharray:7.0,7.0;"/><polygon fill="#000000" points="564,632.4973,568,623.4973,564,627.4973,560,623.4973,564,632.4973" style="stroke:#000000;stroke-width:1;"/><text fill="#000000" font-family="Verdana" font-size="12" lengthAdjust="spacing" textLength="69.4219" x="786.4679" y="540.6118">SSH deploy</text><text fill="#000000" font-family="Verdana" font-size="12" lengthAdjust="spacing" textLength="99.0176" x="771.67" y="555.1957">(role: crowdsec)</text></g><!--link Ansible to Keepalived--><g class="link" data-entity-1="Ansible" data-entity-2="Keepalived" data-source-line="76" data-uid="lnk45" id="link_Ansible_Keepalived"><path d="M724.83,278.0873 C724.83,320.7173 724.83,382.7373 724.83,382.7373 C724.83,382.7373 698.63,382.7373 666.67,382.7373" fill="none" id="Ansible-to-Keepalived" style="stroke:#000000;stroke-width:1;stroke-dasharray:7.0,7.0;"/><polygon fill="#000000" points="660.67,382.7373,669.67,386.7373,665.67,382.7373,669.67,378.7373,660.67,382.7373" style="stroke:#000000;stroke-width:1;"/><text fill="#000000" font-family="Verdana" font-size="12" lengthAdjust="spacing" textLength="69.4219" x="725.83" y="359.5518">SSH deploy</text></g><rect fill="none" height="167.1318" rx="7.5" ry="7.5" style="stroke:#000000;stroke-width:1;" width="290.5674" x="714.4326" y="989.824"/><text fill="#000000" font-family="Verdana" font-size="14" font-weight="bold" lengthAdjust="spacing" textLength="38.165" x="724.2178" y="1010.8992">&#1062;&#1074;&#1077;&#1090;</text><text fill="#000000" font-family="Verdana" font-size="14" font-weight="bold" lengthAdjust="spacing" textLength="97.0635" x="771.9531" y="1010.8992">&#1053;&#1072;&#1079;&#1085;&#1072;&#1095;&#1077;&#1085;&#1080;&#1077;</text><rect fill="#90EE90" height="17.0146" style="stroke:none;stroke-width:1;" width="47.7354" x="719.4326" y="1013.8387"/><text fill="#000000" font-family="Verdana" font-size="14" lengthAdjust="spacing" textLength="4.9219" x="719.4326" y="1027.9139">&#160;</text><text fill="#000000" font-family="Verdana" font-size="14" lengthAdjust="spacing" textLength="84.123" x="772.0898" y="1027.9139">Squid Proxy</text><rect fill="#ADD8E6" height="17.0146" style="stroke:none;stroke-width:1;" width="47.7354" x="719.4326" y="1030.8533"/><text fill="#000000" font-family="Verdana" font-size="14" lengthAdjust="spacing" textLength="4.9219" x="719.4326" y="1044.9285">&#160;</text><text fill="#000000" font-family="Verdana" font-size="14" lengthAdjust="spacing" textLength="137.4434" x="772.0898" y="1044.9285">nginx Router / DNS</text><rect fill="#FFFFE0" height="17.0146" style="stroke:none;stroke-width:1;" width="47.7354" x="719.4326" y="1047.868"/><text fill="#000000" font-family="Verdana" font-size="14" lengthAdjust="spacing" textLength="4.9219" x="719.4326" y="1061.9432">&#160;</text><text fill="#000000" font-family="Verdana" font-size="14" lengthAdjust="spacing" textLength="114.2695" x="772.0898" y="1061.9432">HA (Keepalived)</text><rect fill="#F08080" height="17.0146" style="stroke:none;stroke-width:1;" width="47.7354" x="719.4326" y="1064.8826"/><text fill="#000000" font-family="Verdana" font-size="14" lengthAdjust="spacing" textLength="4.9219" x="719.4326" y="1078.9578">&#160;</text><text fill="#000000" font-family="Verdana" font-size="14" lengthAdjust="spacing" textLength="111.1729" x="772.0898" y="1078.9578">IPS (CrowdSec)</text><rect fill="#DDA0DD" height="17.0146" style="stroke:none;stroke-width:1;" width="47.7354" x="719.4326" y="1081.8973"/><text fill="#000000" font-family="Verdana" font-size="14" lengthAdjust="spacing" textLength="4.9219" x="719.4326" y="1095.9725">&#160;</text><text fill="#000000" font-family="Verdana" font-size="14" lengthAdjust="spacing" textLength="110.2773" x="772.0898" y="1095.9725">Telegram Proxy</text><rect fill="#F5DEB3" height="17.0146" style="stroke:none;stroke-width:1;" width="47.7354" x="719.4326" y="1098.9119"/><text fill="#000000" font-family="Verdana" font-size="14" lengthAdjust="spacing" textLength="4.9219" x="719.4326" y="1112.9871">&#160;</text><text fill="#000000" font-family="Verdana" font-size="14" lengthAdjust="spacing" textLength="152.9131" x="772.0898" y="1112.9871">Deployment (Ansible)</text><line style="stroke:#000000;stroke-width:1;" x1="719.4326" x2="929.9248" y1="996.824" y2="996.824"/><line style="stroke:#000000;stroke-width:1;" x1="719.4326" x2="929.9248" y1="1013.8387" y2="1013.8387"/><line style="stroke:#000000;stroke-width:1;" x1="719.4326" x2="929.9248" y1="1030.8533" y2="1030.8533"/><line style="stroke:#000000;stroke-width:1;" x1="719.4326" x2="929.9248" y1="1047.868" y2="1047.868"/><line style="stroke:#000000;stroke-width:1;" x1="719.4326" x2="929.9248" y1="1064.8826" y2="1064.8826"/><line style="stroke:#000000;stroke-width:1;" x1="719.4326" x2="929.9248" y1="1081.8973" y2="1081.8973"/><line style="stroke:#000000;stroke-width:1;" x1="719.4326" x2="929.9248" y1="1098.9119" y2="1098.9119"/><line style="stroke:#000000;stroke-width:1;" x1="719.4326" x2="929.9248" y1="1115.9266" y2="1115.9266"/><line style="stroke:#000000;stroke-width:1;" x1="719.4326" x2="719.4326" y1="996.824" y2="1115.9266"/><line style="stroke:#000000;stroke-width:1;" x1="767.168" x2="767.168" y1="996.824" y2="1115.9266"/><line style="stroke:#000000;stroke-width:1;" x1="929.9248" x2="929.9248" y1="996.824" y2="1115.9266"/><text fill="#000000" font-family="Verdana" font-size="14" lengthAdjust="spacing" textLength="182.3281" x="719.4326" y="1132.0018">&#9472;&#9472; &#1089;&#1087;&#1083;&#1086;&#1096;&#1085;&#1072;&#1103; = data flow</text><text fill="#000000" font-family="Verdana" font-size="14" lengthAdjust="spacing" textLength="280.5674" x="719.4326" y="1149.0164">.. &#1087;&#1091;&#1085;&#1082;&#1090;&#1080;&#1088; = management / monitoring</text><!--SRC=[fLTRRnj557xVNp4a3zWYJjAcIAr5AvbDIAscgOdTqWeZD5cFxLN6CzlTsRQ68eKY0H8tWNX080GFYEUKjYJgzI-i_q9_2T_CxAxNwq0Bn94lC-SsvtpdExElg24RCH9mwWidslD5G4Cw8hlKsnk4CXOzLt8PaiMtDlIh8E79KI054wgjnfoHa7cAYW5d1P4UwzEOgxSaXFmF63bnih0Pm0CTCAlTnqfHa_k2gN70Y0pLK3gEyXMaaX-JfydZv1dUdoGFaYUJE_Wyc7n3all9KNAGt9liu_qnNWUaqIIDAF8Z1AKYqWhbhR7ZK4_XB0l93z3xKrj87apskwBINDyWAoJvLkjFFaaEzN9rWT28N8vOcAbr66S3H5TB7YQFuD14OAGwWwBSEhjnAOXga2XuCN9snt4yBkCUMT0njfhmxt8QzzWISOTKRROwIrsnoKQ-yB4Y0vzBPODfD26UAMVHa7KtZM7TpVRSKDxijPb7N6k_CmmPLQGf5EFS7p3XCMlHBHXStsv3zEsOziuiaKqfKKi4ukhDFgTXgW4fnqbhXnDu7elWssSXgII_9h-bWPfbi_gXG_2NWuKiY84lRf7sTfFio5Yni2lUTTTgsrThgwidtkkA-gbJQ-JvfzyP2G1G-M9WR6vhFRsukEKFXkfD7hEowVRrsE-bpct9hV5s8pNEfKVvK4QgldRYv6b4V0Yac82gNT68rP2yHXhk5jvTwWsPyMkCfZQjwysGCL7sVO6nW7B_1kkHApixBUluGkRuYX-gc7BIR94-HK5liD0OBsXPszTG87cpR3olPxFLjfRTTcfvImu85PIFWNN4BVgAxd8MsUgcQZFHkpAalEmW5hkwrud1m3HBhw_P9h2xCsPC_ZygGE5o42cWR9I1uG-DUpB5HBR__r1niMFgIgJWuoaiSjylmaOkM4J7vSp9wLLIwVcQoPP8SXUTUpW5Xv1YF99nH5H8HHI0bwReABa_5XzPu9MH6bIjuukTELYUN3szrXLzkiTgdQqsoNhSkCeiBBPuFFeN26ctpnDUGCaCD4gX_tTm75U28ZnS385GSjBYLDZ6IbVCmZmW6YBo0MHGPi3bU8GrUwp6UdeiJApnhfHx03siC82_2teROLcbyCzCBBup1FlfQ5ubjLgD9BzWW3oQV8dkVmgO7c2CFD2_9n-3s8yqQFM4kQzPVlBrv3F3u4UOCj1rDC_Zoxaf7TN9-Kv79xsYFubxQNjxm-rK7JiJohAeAYJp0cEnceMLjjUq1mXKaxkJhn283k7-v0iJGcvDcowoKpqRkDf6cUpWjRLpwUer4eHIIK_owgoXsJwgvsWpfdIe8KF2IVqCEh4hT2l6kJ2MiaFa5bxk6Bcu3Y5pMS-vdrbFi_rHoXSKSojvzmgPTgvnLKnIdhJ2MJrDzky7JDDEZA8DQJJ43GZ0z31z337CdGzcDcxXT6YggO-PuvXfNO27JgAAXM18_RnqkOtgkjt8zPY5FejcsyufosfzBMrr-ZAyISCU8dUoZ6e1VJ_8wgfaTfwSD_GPIlDYURcCBpJ34Rhb01UQErr1pV8okAMigVsvzlIKin0Ni9MksCKPzZXkPCuS-Rn0FesrC2nrj8MVyv6Yupd6EUhgxI7tUpxdbADIgoJISjEcIpb26xItCrkxT1dns6-rZ6wSR6lUfoRQdg6hUQ52NVz6h40IKmc4hicjdg9vNk5OkxdMI0Mw_hDwXJPxIOrITOzLzBHCnBpZDVyvpEDr2_MTILh6uZ-1JkvPIi4jJXSGmv9XJeLw066Ut3vBajz1y02h-VupW7jedXXIJWVLtzPoRnJczhdRjc3sXZ2phsSQjkrL9UMs5TDoHIbxWuFS-GQfJCzGdH4oSnOocDQaaYKf5z437flv3Nyc53FCi3iTZAIIfiqQUFxzFlu9fjapFAOydNoUFYIT9JsgAEdR- -NoCiOSddMU90_HqKUJVUoFS4KOC6DoXOoayF4uesb49zNcrlaB]--></g></svg>