<svg xmlns="http://www.w3.org/2000/svg" xmlns:xlink="http://www.w3.org/1999/xlink" contentStyleType="text/css" data-diagram-type="DESCRIPTION" height="1002px" preserveAspectRatio="none" style="width:885px;height:1002px;background:#FFFFFF;" version="1.1" viewBox="0 0 885 1002" width="885px" zoomAndPan="magnify"><title>&#1050;&#1086;&#1085;&#1090;&#1077;&#1082;&#1089;&#1090;&#1085;&#1072;&#1103; &#1076;&#1080;&#1072;&#1075;&#1088;&#1072;&#1084;&#1084;&#1072; AI Assistants Proxy</title><defs/><g><text fill="#000000" font-family="DejaVu Sans" font-size="22" font-weight="bold" lengthAdjust="spacing" textLength="473.752" x="201.6049" y="37.8379">&#1050;&#1086;&#1085;&#1090;&#1077;&#1082;&#1089;&#1090;&#1085;&#1072;&#1103; &#1076;&#1080;&#1072;&#1075;&#1088;&#1072;&#1084;&#1084;&#1072; AI Assistants Proxy</text><!--cluster system--><g class="cluster" data-entity="system" data-source-line="11" data-uid="ent0005" id="cluster_system"><path d="M230.536,234.6719 L363.0321,234.6719 A3.75,3.75 0 0 1 365.5321,237.1719 L372.5321,258.2813 L541.536,258.2813 A2.5,2.5 0 0 1 544.036,260.7813 L544.036,657.6719 A2.5,2.5 0 0 1 541.536,660.1719 L230.536,660.1719 A2.5,2.5 0 0 1 228.036,657.6719 L228.036,237.1719 A2.5,2.5 0 0 1 230.536,234.6719" fill="#FFFFFF" style="stroke:#000000;stroke-width:1;"/><line style="stroke:#000000;stroke-width:1;" x1="228.036" x2="372.5321" y1="258.2813" y2="258.2813"/><text fill="#000000" font-family="DejaVu Sans" font-size="14" font-weight="bold" lengthAdjust="spacing" textLength="131.4961" x="232.036" y="251.2051">AI Assistants Proxy</text></g><!--cluster aiapi--><g class="cluster" data-entity="aiapi" data-source-line="18" data-uid="ent0010" id="cluster_aiapi"><path d="M499.407,745.9732 C504.925,732.8802 515.0752,733.0211 523.3119,743.1779 C529.7124,728.6224 542.1647,728.4519 551.0687,740.573 C558.5863,730.2757 567.294,730.6907 574.7775,740.613 C583.7252,728.9708 591.2716,730.7675 598.4489,742.4126 C603.9311,727.0768 614.9871,725.7727 624.5389,738.6492 C632.2902,727.4646 644.0202,728.0767 651.4989,738.982 C659.4762,729.3745 666.937,730.0605 673.8175,740.2203 C680.3788,728.528 690.6607,726.1358 698.8486,738.53 C709.3417,724.9338 718.8345,727.8111 726.8962,741.0695 C733.7251,729.3605 743.5437,730.1083 751.4939,739.7795 C759.6322,730.883 769.7459,730.9946 774.3017,743.5826 C779.2167,730.4664 789.9447,729.7065 798.0802,740.3611 C807.4582,730.8115 815.8777,731.0485 822.2266,743.6613 C832.6955,730.9006 848.6881,732.3718 854.036,749.1719 C857.4032,748.6902 859.2513,749.9122 858.3234,753.5943 C872.3834,761.8514 870.0805,773.5166 856.6402,780.0221 C870.9905,786.014 873.0634,798.3473 859.6486,807.3912 C874.504,814.4065 873.3842,822.8354 862.558,832.7923 C877.9394,838.6272 876.9057,852.9504 865.5214,861.544 C878.1391,868.8073 878.9617,880.8503 865.3751,887.9686 C875.6951,899.7138 877.5759,909.8793 860.2463,916.6866 C873.3267,924.7916 872.9995,937.6737 859.7927,945.3628 C869.2494,959.1731 864.8911,973.6701 847.036,976.1719 C849.548,977.3405 849.4046,979.1525 847.4588,980.7342 C839.383,990.627 830.6296,990.8533 824.4243,978.7732 C818.5313,992.0112 810.2026,993.2502 801.2093,981.6735 C792.5025,992.2102 779.9055,990.6596 774.3353,978.0343 C767.0443,992.8713 755.8649,991.096 747.3995,979.2184 C741.9179,989.7869 731.5598,992.5572 723.3889,982.3225 C715.3267,991.5469 707.0459,990.9722 701.544,979.6062 C694.1184,992.0445 685.8518,991.7532 676.8371,981.323 C667.2983,995.0967 658.342,993.4146 648.527,981.6289 C641.6336,994.2102 630.1929,990.4511 624.7101,980.16 C618.2612,993.171 607.1331,992.7352 599.3452,981.5645 C590.2007,993.1046 580.3436,991.542 574.687,978.1192 C567.9565,992.6093 557.977,991.2445 548.8126,980.6276 C540.8944,990.5559 530.742,988.6491 525.2683,977.8508 C511.5821,990.8746 496.9694,986.7276 491.036,969.1719 C492.5865,970.1616 492.3629,971.0535 491.0706,972.077 C477.7796,963.5859 476.3174,952.2889 489.3912,942.3103 C478.8724,935.2118 476.4973,922.7776 489.9579,916.1996 C475.795,909.7495 471.457,900.9339 484.3794,888.9408 C471.055,881.8461 467.4006,871.5077 480.0715,860.4785 C470.774,850.0475 469.5113,841.9534 483.5325,834.6467 C472.9128,823.4765 474.8327,813.1217 488.955,806.7631 C476.0206,796.9412 477.3633,784.9802 491.6619,777.6942 C475.6211,765.2009 479.2275,748.4117 498.036,742.1719 C500.2368,742.4957 500.8882,744.3215 499.407,745.9732" fill="#FFFFFF" style="stroke:#000000;stroke-width:1;"/><text fill="#000000" font-family="DejaVu Sans" font-size="14" font-weight="bold" lengthAdjust="spacing" textLength="41.2275" x="651.9223" y="761.7051">AI API</text></g><!--cluster infra--><g class="cluster" data-entity="infra" data-source-line="26" data-uid="ent0016" id="cluster_infra"><path d="M45.0449,742.9015 C52.5334,728.2621 66.003,728.519 74.1885,742.184 C83.6976,729.7787 93.4897,731.251 101.6196,743.7059 C110.0618,727.8385 123.1018,728.5483 131.6759,743.5775 C140.3362,731.5163 148.3403,730.7439 157.1981,743.3734 C162.9694,728.2194 174.6033,727.563 184.5592,739.0806 C192.9044,724.3704 204.7012,724.9908 212.7801,739.3392 C220.5493,725.31 231.8045,724.8064 240.0369,738.89 C251.8578,725.8238 261.8366,722.7455 272.641,739.9836 C280.2369,725.9068 290.2549,728.8155 298.1154,739.7137 C307.0494,726.6068 318.4745,726.3064 326.7959,740.3607 C336.0485,729.2341 344.0054,728.5609 352.2573,741.4228 C360.0438,724.6112 375.7986,727.4355 384.3574,740.5957 C392.668,729.0588 401.339,729.5045 409.4969,740.7641 C423.7197,725.8186 435.7013,731.9315 443.036,748.1719 C446.5303,748.1196 447.6981,750.0295 446.8268,753.2415 C473.3765,759.4025 472.6878,781.9202 456.203,797.2499 C472.7546,823.5579 467.3776,842.1145 436.036,850.1719 C438.4216,851.0528 438.3059,852.8392 436.7342,854.377 C427.9838,865.3341 419.4842,865.641 411.5806,853.4567 C404.7043,865.5656 394.5358,869.3406 384.7845,856.5507 C373.1677,869.8377 364.0586,865.5629 356.5292,852.2147 C347.724,868.1577 338.0151,873.1057 324.3218,857.1501 C316.53,871.9167 303.2843,870.27 296.3488,856.316 C288.8877,868.7457 280.2415,870.724 271.571,857.4834 C264.0683,868.0431 252.1336,868.3759 244.9648,857.0771 C236.3985,870.4145 222.5468,870.5624 215.8372,855.1933 C205.9613,871.0489 196.8338,869.1573 186.7378,855.4097 C175.6624,869.6458 166.1585,869.4044 157.76,852.8873 C150.5505,867.6841 140.7001,865.2466 131.2464,855.2911 C122.9685,866.3337 113.2931,869.5361 104.3916,855.9717 C95.8621,867.3425 83.6218,866.4382 77.0903,853.7085 C58.4416,871.7249 45.8143,862.6773 37.036,843.1719 C39.5565,842.9116 40.7187,844.8112 39.4649,846.9667 C12.0168,831.8378 12.2565,815.8309 36.1553,797.2818 C11,776.6442 11.7433,753.7407 44.036,741.1719 C45.0557,741.2696 45.4957,741.9461 45.0449,742.9015" fill="#FFFFFF" style="stroke:#000000;stroke-width:1;"/><text fill="#000000" font-family="DejaVu Sans" font-size="14" font-weight="bold" lengthAdjust="spacing" textLength="116.0742" x="181.9989" y="760.7051">&#1048;&#1085;&#1092;&#1088;&#1072;&#1089;&#1090;&#1088;&#1091;&#1082;&#1090;&#1091;&#1088;&#1072;</text></g><!--entity access--><g class="entity" data-entity="access" data-source-line="12" data-uid="ent0006" id="entity_access"><rect fill="#ADD8E6" height="55.2188" rx="2.5" ry="2.5" style="stroke:#000000;stroke-width:1;" width="104.7998" x="407.536" y="440.1719"/><text fill="#000000" font-family="DejaVu Sans" font-size="14" lengthAdjust="spacing" textLength="84.7998" x="417.536" y="464.7051">Access Proxy</text><text fill="#000000" font-family="DejaVu Sans" font-size="14" lengthAdjust="spacing" textLength="29.3057" x="417.536" y="482.3145">(&#1056;&#1060;)</text></g><!--entity upstream--><g class="entity" data-entity="upstream" data-source-line="13" data-uid="ent0007" id="entity_upstream"><rect fill="#90EE90" height="55.2188" rx="2.5" ry="2.5" style="stroke:#000000;stroke-width:1;" width="120.3584" x="323.036" y="589.1719"/><text fill="#000000" font-family="DejaVu Sans" font-size="14" lengthAdjust="spacing" textLength="100.3584" x="333.036" y="613.7051">Upstream Proxy</text><text fill="#000000" font-family="DejaVu Sans" font-size="14" lengthAdjust="spacing" textLength="56.1504" x="333.036" y="631.3145">(&#1074;&#1085;&#1077; &#1056;&#1060;)</text></g><!--entity mtproxy--><g class="entity" data-entity="mtproxy" data-source-line="14" data-uid="ent0008" id="entity_mtproxy"><rect fill="#FFFFE0" height="55.2188" rx="2.5" ry="2.5" style="stroke:#000000;stroke-width:1;" width="118.7998" x="244.536" y="270.6719"/><text fill="#000000" font-family="DejaVu Sans" font-size="14" lengthAdjust="spacing" textLength="56" x="254.536" y="295.2051">MTProxy</text><text fill="#000000" font-family="DejaVu Sans" font-size="14" lengthAdjust="spacing" textLength="98.7998" x="254.536" y="312.8145">(mtg, upstream)</text></g><!--entity ansible--><g class="entity" data-entity="ansible" data-source-line="15" data-uid="ent0009" id="entity_ansible"><rect fill="#D3D3D3" height="55.2188" rx="2.5" ry="2.5" style="stroke:#000000;stroke-width:1;" width="94.7031" x="398.536" y="270.6719"/><text fill="#000000" font-family="DejaVu Sans" font-size="14" lengthAdjust="spacing" textLength="45.917" x="408.536" y="295.2051">Ansible</text><text fill="#000000" font-family="DejaVu Sans" font-size="14" lengthAdjust="spacing" textLength="74.7031" x="408.536" y="312.8145">Deployment</text></g><!--entity claude--><g class="entity" data-entity="claude" data-source-line="19" data-uid="ent0011" id="entity_claude"><rect fill="#FFFFFF" height="55.2188" rx="2.5" ry="2.5" style="stroke:#000000;stroke-width:1;" width="79.1445" x="526.536" y="778.1719"/><text fill="#000000" font-family="DejaVu Sans" font-size="14" lengthAdjust="spacing" textLength="59.1445" x="536.536" y="802.7051">Anthropic</text><text fill="#000000" font-family="DejaVu Sans" font-size="14" lengthAdjust="spacing" textLength="53.6895" x="536.536" y="820.3145">(Claude)</text></g><!--entity chatgpt--><g class="entity" data-entity="chatgpt" data-source-line="20" data-uid="ent0012" id="entity_chatgpt"><rect fill="#FFFFFF" height="55.2188" rx="2.5" ry="2.5" style="stroke:#000000;stroke-width:1;" width="87.6758" x="641.036" y="778.1719"/><text fill="#000000" font-family="DejaVu Sans" font-size="14" lengthAdjust="spacing" textLength="47.4756" x="651.036" y="802.7051">OpenAI</text><text fill="#000000" font-family="DejaVu Sans" font-size="14" lengthAdjust="spacing" textLength="67.6758" x="651.036" y="820.3145">(ChatGPT)</text></g><!--entity gemini--><g class="entity" data-entity="gemini" data-source-line="21" data-uid="ent0013" id="entity_gemini"><rect fill="#FFFFFF" height="55.2188" rx="2.5" ry="2.5" style="stroke:#000000;stroke-width:1;" width="73.6689" x="764.036" y="778.1719"/><text fill="#000000" font-family="DejaVu Sans" font-size="14" lengthAdjust="spacing" textLength="45.1445" x="774.036" y="802.7051">Google</text><text fill="#000000" font-family="DejaVu Sans" font-size="14" lengthAdjust="spacing" textLength="53.6689" x="774.036" y="820.3145">(Gemini)</text></g><!--entity copilot--><g class="entity" data-entity="copilot" data-source-line="22" data-uid="ent0014" id="entity_copilot"><rect fill="#FFFFFF" height="55.2188" rx="2.5" ry="2.5" style="stroke:#000000;stroke-width:1;" width="72.9033" x="529.536" y="905.1719"/><text fill="#000000" font-family="DejaVu Sans" font-size="14" lengthAdjust="spacing" textLength="43.5723" x="539.536" y="929.7051">GitHub</text><text fill="#000000" font-family="DejaVu Sans" font-size="14" lengthAdjust="spacing" textLength="52.9033" x="539.536" y="947.3145">(Copilot)</text></g><!--entity others--><g class="entity" data-entity="others" data-source-line="23" data-uid="ent0015" id="entity_others"><rect fill="#FFFFFF" height="55.2188" rx="2.5" ry="2.5" style="stroke:#000000;stroke-width:1;" width="127.4063" x="637.536" y="905.1719"/><text fill="#000000" font-family="DejaVu Sans" font-size="14" lengthAdjust="spacing" textLength="73.9033" x="647.536" y="929.7051">xAI, Cursor,</text><text fill="#000000" font-family="DejaVu Sans" font-size="14" lengthAdjust="spacing" textLength="107.4063" x="647.536" y="947.3145">DeepL, Alibaba...</text></g><!--entity dns--><g class="entity" data-entity="dns" data-source-line="27" data-uid="ent0017" id="entity_dns"><rect fill="#FFFFFF" height="72.8281" rx="2.5" ry="2.5" style="stroke:#000000;stroke-width:1;" width="123.5098" x="311.036" y="769.1719"/><text fill="#000000" font-family="DejaVu Sans" font-size="14" lengthAdjust="spacing" textLength="29.5586" x="321.036" y="793.7051">DNS</text><text fill="#000000" font-family="DejaVu Sans" font-size="14" lengthAdjust="spacing" textLength="103.5098" x="321.036" y="811.3145">(Quad9, Google,</text><text fill="#000000" font-family="DejaVu Sans" font-size="14" lengthAdjust="spacing" textLength="68.4756" x="321.036" y="828.9238">Cloudflare)</text></g><!--entity crowdsec--><g class="entity" data-entity="crowdsec" data-source-line="28" data-uid="ent0018" id="entity_crowdsec"><rect fill="#FFFFFF" height="55.2188" rx="2.5" ry="2.5" style="stroke:#000000;stroke-width:1;" width="91.5859" x="184.036" y="778.1719"/><text fill="#000000" font-family="DejaVu Sans" font-size="14" lengthAdjust="spacing" textLength="64.5791" x="194.036" y="802.7051">CrowdSec</text><text fill="#000000" font-family="DejaVu Sans" font-size="14" lengthAdjust="spacing" textLength="71.5859" x="194.036" y="820.3145">Central API</text></g><!--entity tgdc--><g class="entity" data-entity="tgdc" data-source-line="29" data-uid="ent0019" id="entity_tgdc"><rect fill="#FFFFFF" height="37.6094" rx="2.5" ry="2.5" style="stroke:#000000;stroke-width:1;" width="103.2412" x="45.536" y="786.6719"/><text fill="#000000" font-family="DejaVu Sans" font-size="14" lengthAdjust="spacing" textLength="83.2412" x="55.536" y="811.2051">Telegram DC</text></g><!--entity engineer--><g class="entity" data-entity="engineer" data-source-line="7" data-uid="ent0002" id="entity_engineer"><ellipse cx="601.0458" cy="259.1719" fill="#FFFFFF" rx="8" ry="8" style="stroke:#000000;stroke-width:1;"/><path d="M601.0458,267.1719 L601.0458,294.1719 M588.0458,275.1719 L614.0458,275.1719 M601.0458,294.1719 L588.0458,309.1719 M601.0458,294.1719 L614.0458,309.1719" fill="none" style="stroke:#000000;stroke-width:1;"/><text fill="#000000" font-family="DejaVu Sans" font-size="14" lengthAdjust="spacing" textLength="62.9111" x="560.536" y="325.7051">&#1048;&#1085;&#1078;&#1077;&#1085;&#1077;&#1088;-</text><text fill="#000000" font-family="DejaVu Sans" font-size="14" lengthAdjust="spacing" textLength="81.0195" x="560.536" y="343.3145">&#1088;&#1072;&#1079;&#1088;&#1072;&#1073;&#1086;&#1090;&#1095;&#1080;&#1082;</text></g><!--entity devops--><g class="entity" data-entity="devops" data-source-line="8" data-uid="ent0003" id="entity_devops"><ellipse cx="446.0395" cy="67.6719" fill="#FFFFFF" rx="8" ry="8" style="stroke:#000000;stroke-width:1;"/><path d="M446.0395,75.6719 L446.0395,102.6719 M433.0395,83.6719 L459.0395,83.6719 M446.0395,102.6719 L433.0395,117.6719 M446.0395,102.6719 L459.0395,117.6719" fill="none" style="stroke:#000000;stroke-width:1;"/><text fill="#000000" font-family="DejaVu Sans" font-size="14" lengthAdjust="spacing" textLength="55.2344" x="418.036" y="134.2051">DevOps-</text><text fill="#000000" font-family="DejaVu Sans" font-size="14" lengthAdjust="spacing" textLength="56.0068" x="418.036" y="151.8145">&#1080;&#1085;&#1078;&#1077;&#1085;&#1077;&#1088;</text></g><!--entity tguser--><g class="entity" data-entity="tguser" data-source-line="9" data-uid="ent0004" id="entity_tguser"><ellipse cx="721.996" cy="259.1719" fill="#FFFFFF" rx="8" ry="8" style="stroke:#000000;stroke-width:1;"/><path d="M721.996,267.1719 L721.996,294.1719 M708.996,275.1719 L734.996,275.1719 M721.996,294.1719 L708.996,309.1719 M721.996,294.1719 L734.996,309.1719" fill="none" style="stroke:#000000;stroke-width:1;"/><text fill="#000000" font-family="DejaVu Sans" font-size="14" lengthAdjust="spacing" textLength="63.793" x="677.036" y="325.7051">Telegram-</text><text fill="#000000" font-family="DejaVu Sans" font-size="14" lengthAdjust="spacing" textLength="89.9199" x="677.036" y="343.3145">&#1087;&#1086;&#1083;&#1100;&#1079;&#1086;&#1074;&#1072;&#1090;&#1077;&#1083;&#1100;</text></g><!--link engineer to access--><g class="link" data-entity-1="engineer" data-entity-2="access" data-source-line="32" data-uid="lnk20" id="link_engineer_access"><path d="M587.416,346.2119 C579.576,367.4619 568.036,391.8419 552.036,410.1719 C541.186,422.5919 532.0581,430.0434 518.0081,438.5534" fill="none" id="engineer-to-access" style="stroke:#000000;stroke-width:1;"/><polygon fill="#000000" points="512.876,441.6619,522.6464,440.4206,517.1527,439.0715,518.5018,433.5779,512.876,441.6619" style="stroke:#000000;stroke-width:1;"/><text fill="#000000" font-family="DejaVu Sans" font-size="13" lengthAdjust="spacing" textLength="42.6118" x="588.131" y="390.667">HTTPS</text><text fill="#000000" font-family="DejaVu Sans" font-size="13" lengthAdjust="spacing" textLength="70.8018" x="574.036" y="407.0186">(Basic Auth)</text></g><!--link devops to ansible--><g class="link" data-entity-1="devops" data-entity-2="ansible" data-source-line="33" data-uid="lnk21" id="link_devops_ansible"><path d="M446.036,155.0019 C446.036,191.5119 446.036,234.6619 446.036,264.5819" fill="none" id="devops-to-ansible" style="stroke:#000000;stroke-width:1;"/><polygon fill="#000000" points="446.036,270.5819,450.036,261.5819,446.036,265.5819,442.036,261.5819,446.036,270.5819" style="stroke:#000000;stroke-width:1;"/><text fill="#000000" font-family="DejaVu Sans" font-size="13" lengthAdjust="spacing" textLength="26.73" x="459.3188" y="199.167">SSH</text><text fill="#000000" font-family="DejaVu Sans" font-size="13" lengthAdjust="spacing" textLength="51.2954" x="447.036" y="215.5186">(Ansible)</text></g><!--link tguser to access--><g class="link" data-entity-1="tguser" data-entity-2="access" data-source-line="34" data-uid="lnk22" id="link_tguser_access"><path d="M702.516,346.2019 C691.096,368.4919 674.626,393.7719 653.036,410.1719 C612.036,441.3219 560.139,454.4373 518.489,460.7173" fill="none" id="tguser-to-access" style="stroke:#000000;stroke-width:1;"/><polygon fill="#000000" points="512.556,461.6119,522.0518,464.2253,517.5002,460.8664,520.8591,456.3147,512.556,461.6119" style="stroke:#000000;stroke-width:1;"/><text fill="#000000" font-family="DejaVu Sans" font-size="13" lengthAdjust="spacing" textLength="23.8418" x="703.8156" y="390.667">TLS</text><text fill="#000000" font-family="DejaVu Sans" font-size="13" lengthAdjust="spacing" textLength="61.4009" x="685.036" y="407.0186">(fake-TLS)</text></g><!--link access to upstream--><g class="link" data-entity-1="access" data-entity-2="upstream" data-source-line="36" data-uid="lnk23" id="link_access_upstream"><path d="M451.876,495.2519 C445.696,513.7519 436.346,538.6719 425.036,559.1719 C419.366,569.4419 415.6769,575.1852 408.7369,584.3152" fill="none" id="access-to-upstream" style="stroke:#000000;stroke-width:1;"/><polygon fill="#000000" points="405.106,589.0919,413.7368,584.3475,408.1318,585.1113,407.3679,579.5063,405.106,589.0919" style="stroke:#000000;stroke-width:1;"/><text fill="#000000" font-family="DejaVu Sans" font-size="13" lengthAdjust="spacing" textLength="42.6118" x="450.7987" y="539.667">HTTPS</text><text fill="#000000" font-family="DejaVu Sans" font-size="13" lengthAdjust="spacing" textLength="62.1372" x="441.036" y="556.0186">(userhash)</text></g><!--link access to upstream--><g class="link" data-entity-1="access" data-entity-2="upstream" data-source-line="37" data-uid="lnk24" id="link_access_upstream"><path d="M407.176,485.4019 C396.856,488.6519 386.106,492.0219 376.036,495.1719 C332.966,508.6319 305.816,488.8519 279.036,525.1719 C270.066,537.3319 271.316,546.1819 279.036,559.1719 C288.966,575.8619 300.367,585.2536 317.567,593.8336" fill="none" id="access-to-upstream-1" style="stroke:#000000;stroke-width:1;"/><polygon fill="#000000" points="322.936,596.5119,316.668,588.9151,318.4618,594.28,313.0969,596.0738,322.936,596.5119" style="stroke:#000000;stroke-width:1;"/><text fill="#000000" font-family="DejaVu Sans" font-size="13" lengthAdjust="spacing" textLength="55.6309" x="320.3722" y="539.667">TLS relay</text><text fill="#000000" font-family="DejaVu Sans" font-size="13" lengthAdjust="spacing" textLength="136.3032" x="280.036" y="556.0186">(nginx SNI &#8594; MTProxy)</text></g><!--link upstream to aiapi--><g class="link" data-entity-1="upstream" data-entity-2="aiapi" data-source-line="38" data-uid="lnk25" id="link_upstream_aiapi"><path d="M421.316,644.1919 C432.176,653.2719 443.176,664.1919 451.036,676.1719 C459.116,688.4769 465.6417,702.5075 470.8885,716.6692 C473.512,723.7501 475.8157,730.8637 477.8342,737.8108 C478.8435,741.2843 479.7815,744.7163 480.6524,748.0816 C481.0879,749.7643 481.5066,751.4303 481.9091,753.0766 C482.1104,753.8998 482.3076,754.718 482.5008,755.5309 C482.5974,755.9373 482.693,756.3424 482.7876,756.7461 C482.8349,756.948 481.5219,751.3057 481.5688,751.5069" fill="none" id="upstream-to-aiapi" style="stroke:#000000;stroke-width:1;"/><polygon fill="#000000" points="482.9288,757.3507,484.7846,747.6782,481.7954,752.4808,476.9928,749.4917,482.9288,757.3507" style="stroke:#000000;stroke-width:1;"/><text fill="#000000" font-family="DejaVu Sans" font-size="13" lengthAdjust="spacing" textLength="42.6118" x="480.7726" y="690.667">HTTPS</text><text fill="#000000" font-family="DejaVu Sans" font-size="13" lengthAdjust="spacing" textLength="68.085" x="468.036" y="707.0186">(&#1072;&#1085;&#1086;&#1085;&#1080;&#1084;&#1085;&#1086;)</text></g><!--link upstream to dns--><g class="link" data-entity-1="upstream" data-entity-2="dns" data-source-line="39" data-uid="lnk26" id="link_upstream_dns"><path d="M376.946,644.3219 C374.956,654.2619 373.016,665.6719 372.036,676.1719 C369.116,707.4919 369.454,737.2976 370.584,763.1476" fill="none" id="upstream-to-dns" style="stroke:#000000;stroke-width:1;"/><polygon fill="#000000" points="370.846,769.1419,374.4492,759.9758,370.6277,764.1466,366.4568,760.3251,370.846,769.1419" style="stroke:#000000;stroke-width:1;"/><text fill="#000000" font-family="DejaVu Sans" font-size="13" lengthAdjust="spacing" textLength="73.6963" x="373.036" y="698.667">DNS queries</text></g><!--link access to crowdsec--><g class="link" data-entity-1="access" data-entity-2="crowdsec" data-source-line="40" data-uid="lnk27" id="link_access_crowdsec"><path d="M407.526,491.8919 C404.336,493.0619 401.156,494.1619 398.036,495.1719 C339.956,513.9119 310.346,485.4219 264.036,525.1719 C190.596,588.2119 209.1034,715.0772 221.8634,771.9872" fill="none" id="access-to-crowdsec" style="stroke:#000000;stroke-width:1;"/><polygon fill="#000000" points="223.176,777.8419,225.1101,768.1848,222.0821,772.963,217.3039,769.935,223.176,777.8419" style="stroke:#000000;stroke-width:1;"/><text fill="#000000" font-family="DejaVu Sans" font-size="13" lengthAdjust="spacing" textLength="37.5718" x="236.7724" y="614.167">Threat</text><text fill="#000000" font-family="DejaVu Sans" font-size="13" lengthAdjust="spacing" textLength="65.0444" x="223.036" y="630.5186">intelligence</text></g><!--link mtproxy to tgdc--><g class="link" data-entity-1="mtproxy" data-entity-2="tgdc" data-source-line="41" data-uid="lnk28" id="link_mtproxy_tgdc"><path d="M286.426,325.9919 C259.926,367.3219 209.526,449.7219 178.036,525.1719 C138.346,620.2819 111.7314,735.4247 102.0514,780.6647" fill="none" id="mtproxy-to-tgdc" style="stroke:#000000;stroke-width:1;"/><polygon fill="#000000" points="100.796,786.5319,106.5906,778.568,101.8422,781.6425,98.7677,776.8941,100.796,786.5319" style="stroke:#000000;stroke-width:1;"/><text fill="#000000" font-family="DejaVu Sans" font-size="13" lengthAdjust="spacing" textLength="49.8418" x="179.036" y="547.667">MTProto</text></g><!--link ansible to access--><g class="link" data-entity-1="ansible" data-entity-2="access" data-source-line="43" data-uid="lnk29" id="link_ansible_access"><path d="M448.256,325.7119 C450.866,356.9819 454.6862,402.6627 457.3062,434.0027" fill="none" id="ansible-to-access" style="stroke:#000000;stroke-width:1;"/><polygon fill="#000000" points="457.806,439.9819,461.0424,430.6799,457.3895,434.9993,453.0702,431.3464,457.806,439.9819" style="stroke:#000000;stroke-width:1;"/><text fill="#000000" font-family="DejaVu Sans" font-size="13" lengthAdjust="spacing" textLength="87.3882" x="456.036" y="398.667">&#1050;&#1086;&#1085;&#1092;&#1080;&#1075;&#1091;&#1088;&#1072;&#1094;&#1080;&#1103;</text></g><!--link ansible to upstream--><g class="link" data-entity-1="ansible" data-entity-2="upstream" data-source-line="44" data-uid="lnk30" id="link_ansible_upstream"><path d="M411.816,325.7819 C379.826,352.0719 332.386,394.8319 301.036,440.1719 C277.606,474.0619 272.436,484.8319 264.036,525.1719 C260.956,539.9619 255.966,546.4019 264.036,559.1719 C277.236,580.0519 294.8579,591.2657 317.3179,599.6857" fill="none" id="ansible-to-upstream" style="stroke:#000000;stroke-width:1;"/><polygon fill="#000000" points="322.936,601.7919,315.9129,594.8871,318.2542,600.0367,313.1046,602.378,322.936,601.7919" style="stroke:#000000;stroke-width:1;"/><text fill="#000000" font-family="DejaVu Sans" font-size="13" lengthAdjust="spacing" textLength="87.3882" x="302.036" y="473.167">&#1050;&#1086;&#1085;&#1092;&#1080;&#1075;&#1091;&#1088;&#1072;&#1094;&#1080;&#1103;</text></g><!--SRC=[TLJBRXCn5DtFLvYmQQIaUxf02eb88vKsA049AHjdvcPYwjY3xMaR8QJILcM3L8aLOiM23oWjfLLfoYzuVe4luNeUQIOKHPhCZCyvFlVClNvWnZ014d7AXAUtcOYeeXCofFvsg6GiWgRaKf7TCJEmi1x0YCRSF9N2R5BaLrhmchwCIOyANV4ymmm7Oh_OMpjB3ko5lKxUu__CdYOdnFwmL_RKdYVxUBt1tobfT4X3QwOD5KQJhf9xKy-Zli6TA_OpydwYninU9FlrWKXvb-drkxrD3f8Fg7TT8LGJ424J0AhWjc1dAzB8GSI2I8eDO4T6ka3sWKE8bJdiRxJzA_beB_7_32sx0l0vPPamrgZlHHWG3R7mUwodG3tL1YRahKU80XzNG-xGlWywXmt4YlrglrLJECqM7cwmS6oUy1ZAl1UHDWem-3dpp9L2xWJY0f59j1M0A6iywnVaYGbhSq96dvZ8BURiLy2vt5soBZGRSXY85aHSJYSWJEOyUp_VbqwzTvxdSna7MJhTJePZD6B_v27CMCc8-UYgoMaSG6R7J-_BsAq8HAFZW6Dgsjr-ZiI7C39bQ5lAq5bTQSE42POXm_H-2SZCUZnqccY2IvDhPWzbw5wZKoFDM6cfQYu4Y3PgfC7Pa0xfwkfgIfGuJKelrE-QDpbolUe68DbF3d4K3f93zoPbC35IT3cLrcOFBJsFQV2eHh9QSCkcannnglAC0g7BjAQIkq4FCCicVXn5-JnxtwreyCluekT9gvdtTk0xxyKKaNhzST6OQsIzt-ywMq-ePZvfn6PSzR8Pod1v6woHNcyTONcxLBriOifQ_GsdDABRKCVRgflrTCM1veryjwKJ65ED6zwFGmsiYrFNsyxx7kbjTiYVuqyax_cgDqUdFj9MlDF7asJcZYey9MxStH8SWqOmVXJo9WR5G2_QAA9rDiP8CGF1XC7vOI487xnYi1pM1Oour9IHM7MUMIcR_DGyGZFdMQCan_OgEIcX5uh_B_ul]--></g></svg>