<svg xmlns="http://www.w3.org/2000/svg" xmlns:xlink="http://www.w3.org/1999/xlink" contentStyleType="text/css" data-diagram-type="ACTIVITY" height="1027px" preserveAspectRatio="none" style="width:760px;height:1027px;background:#FFFFFF;" version="1.1" viewBox="0 0 760 1027" width="760px" zoomAndPan="magnify"><title>&#1055;&#1086;&#1090;&#1086;&#1082;&#1080; &#1094;&#1077;&#1085;&#1085;&#1086;&#1089;&#1090;&#1080; AI Assistants Proxy</title><defs/><g><text fill="#000000" font-family="DejaVu Sans" font-size="22" font-weight="bold" lengthAdjust="spacing" textLength="399.1689" x="179.0115" y="37.8379">&#1055;&#1086;&#1090;&#1086;&#1082;&#1080; &#1094;&#1077;&#1085;&#1085;&#1086;&#1089;&#1090;&#1080; AI Assistants Proxy</text><rect fill="#FFFFFF" height="22.6406" style="stroke:#FFFFFF;stroke-width:1;" width="737.1919" x="10" y="56.127"/><ellipse cx="96.6934" cy="93.7676" fill="#FFFFFF" rx="10" ry="10" style="stroke:#000000;stroke-width:1;"/><rect fill="#FFFFFF" height="50.1875" rx="12.5" ry="12.5" style="stroke:#000000;stroke-width:1;" width="152.9902" x="20.1982" y="123.7676"/><text fill="#000000" font-family="DejaVu Sans" font-size="12" lengthAdjust="spacing" textLength="132.9902" x="30.1982" y="146.2246">&#1053;&#1072;&#1089;&#1090;&#1088;&#1086;&#1081;&#1082;&#1072; &#1087;&#1088;&#1086;&#1082;&#1089;&#1080; &#1074; IDE</text><text fill="#000000" font-family="DejaVu Sans" font-size="12" lengthAdjust="spacing" textLength="72.3633" x="30.1982" y="161.3184">(&#1086;&#1076;&#1085;&#1086;&#1082;&#1088;&#1072;&#1090;&#1085;&#1086;)</text><rect fill="#FFFFFF" height="50.1875" rx="12.5" ry="12.5" style="stroke:#000000;stroke-width:1;" width="161.3867" x="16" y="193.9551"/><text fill="#000000" font-family="DejaVu Sans" font-size="12" lengthAdjust="spacing" textLength="128.6895" x="26" y="216.4121">&#1047;&#1072;&#1087;&#1088;&#1086;&#1089; &#1082; AI-&#1072;&#1089;&#1089;&#1080;&#1089;&#1090;&#1077;&#1085;&#1090;&#1091;</text><text fill="#000000" font-family="DejaVu Sans" font-size="12" lengthAdjust="spacing" textLength="141.3867" x="26" y="231.5059">(Claude / Copilot / Gemini)</text><rect fill="#FFFFFF" height="50.1875" rx="12.5" ry="12.5" style="stroke:#000000;stroke-width:1;" width="147.0078" x="23.1895" y="928.5488"/><text fill="#000000" font-family="DejaVu Sans" font-size="12" lengthAdjust="spacing" textLength="127.0078" x="33.1895" y="951.0059">&#1055;&#1086;&#1083;&#1091;&#1095;&#1077;&#1085;&#1080;&#1077; &#1088;&#1077;&#1079;&#1091;&#1083;&#1100;&#1090;&#1072;&#1090;&#1072;</text><text fill="#000000" font-family="DejaVu Sans" font-size="12" lengthAdjust="spacing" textLength="29.7129" x="33.1895" y="966.0996">&#1074; IDE</text><ellipse cx="96.6934" cy="1009.7363" fill="none" rx="11" ry="11" style="stroke:#000000;stroke-width:1;"/><ellipse cx="96.6934" cy="1009.7363" fill="#FFFFFF" rx="6" ry="6" style="stroke:#000000;stroke-width:1;"/><line style="stroke:#000000;stroke-width:1;" x1="10" x2="10" y1="56.127" y2="1020.7363"/><rect fill="#FFFFFF" height="50.1875" rx="12.5" ry="12.5" style="stroke:#000000;stroke-width:1;" width="113.5742" x="261.5361" y="264.1426"/><text fill="#000000" font-family="DejaVu Sans" font-size="12" lengthAdjust="spacing" textLength="93.5742" x="271.5361" y="286.5996">&#1040;&#1091;&#1090;&#1077;&#1085;&#1090;&#1080;&#1092;&#1080;&#1082;&#1072;&#1094;&#1080;&#1103;</text><text fill="#000000" font-family="DejaVu Sans" font-size="12" lengthAdjust="spacing" textLength="65.3555" x="271.5361" y="301.6934">(Basic Auth)</text><rect fill="#FFFFFF" height="50.1875" rx="12.5" ry="12.5" style="stroke:#000000;stroke-width:1;" width="118.8535" x="258.8965" y="334.3301"/><text fill="#000000" font-family="DejaVu Sans" font-size="12" lengthAdjust="spacing" textLength="98.8535" x="268.8965" y="356.7871">&#1055;&#1088;&#1086;&#1074;&#1077;&#1088;&#1082;&#1072; &#1076;&#1086;&#1084;&#1077;&#1085;&#1072;</text><text fill="#000000" font-family="DejaVu Sans" font-size="12" lengthAdjust="spacing" textLength="50.6719" x="268.8965" y="371.8809">(whitelist)</text><rect fill="#FFFFFF" height="50.1875" rx="12.5" ry="12.5" style="stroke:#000000;stroke-width:1;" width="117.1602" x="259.7432" y="404.5176"/><text fill="#000000" font-family="DejaVu Sans" font-size="12" lengthAdjust="spacing" textLength="97.1602" x="269.7432" y="426.9746">&#1046;&#1091;&#1088;&#1085;&#1072;&#1083;&#1080;&#1088;&#1086;&#1074;&#1072;&#1085;&#1080;&#1077;</text><text fill="#000000" font-family="DejaVu Sans" font-size="12" lengthAdjust="spacing" textLength="63.2695" x="269.7432" y="442.0684">&#1086;&#1073;&#1088;&#1072;&#1097;&#1077;&#1085;&#1080;&#1103;</text><polygon fill="#FFFFFF" points="279.9629,474.7051,356.6836,474.7051,368.6836,486.7051,356.6836,498.7051,279.9629,498.7051,267.9629,486.7051,279.9629,474.7051" style="stroke:#000000;stroke-width:1;"/><text fill="#000000" font-family="DejaVu Sans" font-size="11" lengthAdjust="spacing" textLength="76.7207" x="279.9629" y="491.2061">&#1050;&#1077;&#1096; &#1072;&#1082;&#1090;&#1091;&#1072;&#1083;&#1077;&#1085;?</text><text fill="#000000" font-family="DejaVu Sans" font-size="11" lengthAdjust="spacing" textLength="12.5361" x="255.4268" y="484.2881">&#1076;&#1072;</text><text fill="#000000" font-family="DejaVu Sans" font-size="11" lengthAdjust="spacing" textLength="17.2305" x="368.6836" y="484.2881">&#1085;&#1077;&#1090;</text><rect fill="#FFFFFF" height="35.0938" rx="12.5" ry="12.5" style="stroke:#000000;stroke-width:1;" width="112.4961" x="187.3867" y="518.7051"/><text fill="#000000" font-family="DejaVu Sans" font-size="12" lengthAdjust="spacing" textLength="92.4961" x="197.3867" y="541.1621">&#1042;&#1086;&#1079;&#1074;&#1088;&#1072;&#1090; &#1080;&#1079; &#1082;&#1077;&#1096;&#1072;</text><polygon fill="#FFFFFF" points="318.3232,814.3613,330.3232,826.3613,318.3232,838.3613,306.3232,826.3613,318.3232,814.3613" style="stroke:#000000;stroke-width:1;"/><rect fill="#FFFFFF" height="50.1875" rx="12.5" ry="12.5" style="stroke:#000000;stroke-width:1;" width="111.9922" x="262.3271" y="858.3613"/><text fill="#000000" font-family="DejaVu Sans" font-size="12" lengthAdjust="spacing" textLength="91.9922" x="272.3271" y="880.8184">&#1044;&#1086;&#1089;&#1090;&#1072;&#1074;&#1082;&#1072; &#1086;&#1090;&#1074;&#1077;&#1090;&#1072;</text><text fill="#000000" font-family="DejaVu Sans" font-size="12" lengthAdjust="spacing" textLength="54.0059" x="272.3271" y="895.9121">&#1080;&#1085;&#1078;&#1077;&#1085;&#1077;&#1088;&#1091;</text><line style="stroke:#000000;stroke-width:1;" x1="181.3867" x2="181.3867" y1="56.127" y2="1020.7363"/><rect fill="#FFFFFF" height="50.1875" rx="12.5" ry="12.5" style="stroke:#000000;stroke-width:1;" width="146.2578" x="426.8984" y="518.7051"/><text fill="#000000" font-family="DejaVu Sans" font-size="12" lengthAdjust="spacing" textLength="81.8379" x="436.8984" y="541.1621">&#1040;&#1085;&#1086;&#1085;&#1080;&#1084;&#1080;&#1079;&#1072;&#1094;&#1080;&#1103;</text><text fill="#000000" font-family="DejaVu Sans" font-size="12" lengthAdjust="spacing" textLength="126.2578" x="436.8984" y="556.2559">(&#1091;&#1076;&#1072;&#1083;&#1077;&#1085;&#1080;&#1077; &#1079;&#1072;&#1075;&#1086;&#1083;&#1086;&#1074;&#1082;&#1086;&#1074;)</text><rect fill="#FFFFFF" height="50.1875" rx="12.5" ry="12.5" style="stroke:#000000;stroke-width:1;" width="130.2266" x="434.9141" y="588.8926"/><text fill="#000000" font-family="DejaVu Sans" font-size="12" lengthAdjust="spacing" textLength="110.2266" x="444.9141" y="611.3496">&#1055;&#1077;&#1088;&#1077;&#1089;&#1099;&#1083;&#1082;&#1072; &#1079;&#1072;&#1087;&#1088;&#1086;&#1089;&#1072;</text><text fill="#000000" font-family="DejaVu Sans" font-size="12" lengthAdjust="spacing" textLength="42.5977" x="444.9141" y="626.4434">&#1082; AI API</text><rect fill="#FFFFFF" height="35.0938" rx="12.5" ry="12.5" style="stroke:#000000;stroke-width:1;" width="127.6016" x="436.2266" y="769.2676"/><text fill="#000000" font-family="DejaVu Sans" font-size="12" lengthAdjust="spacing" textLength="107.6016" x="446.2266" y="791.7246">&#1058;&#1088;&#1072;&#1085;&#1089;&#1083;&#1103;&#1094;&#1080;&#1103; &#1086;&#1090;&#1074;&#1077;&#1090;&#1072;</text><line style="stroke:#000000;stroke-width:1;" x1="390.9141" x2="390.9141" y1="56.127" y2="1020.7363"/><rect fill="#FFFFFF" height="35.0938" rx="12.5" ry="12.5" style="stroke:#000000;stroke-width:1;" width="128.5508" x="613.1406" y="659.0801"/><text fill="#000000" font-family="DejaVu Sans" font-size="12" lengthAdjust="spacing" textLength="108.5508" x="623.1406" y="681.5371">&#1054;&#1073;&#1088;&#1072;&#1073;&#1086;&#1090;&#1082;&#1072; &#1079;&#1072;&#1087;&#1088;&#1086;&#1089;&#1072;</text><rect fill="#FFFFFF" height="35.0938" rx="12.5" ry="12.5" style="stroke:#000000;stroke-width:1;" width="106.1211" x="624.3555" y="714.1738"/><text fill="#000000" font-family="DejaVu Sans" font-size="12" lengthAdjust="spacing" textLength="86.1211" x="634.3555" y="736.6309">&#1042;&#1086;&#1079;&#1074;&#1088;&#1072;&#1090; &#1086;&#1090;&#1074;&#1077;&#1090;&#1072;</text><line style="stroke:#000000;stroke-width:1;" x1="607.1406" x2="607.1406" y1="56.127" y2="1020.7363"/><line style="stroke:#000000;stroke-width:1;" x1="745.6914" x2="745.6914" y1="56.127" y2="1020.7363"/><line style="stroke:#000000;stroke-width:1;" x1="96.6934" x2="96.6934" y1="103.7676" y2="123.7676"/><polygon fill="#000000" points="92.6934,113.7676,96.6934,123.7676,100.6934,113.7676,96.6934,117.7676" style="stroke:#000000;stroke-width:1;"/><line style="stroke:#000000;stroke-width:1;" x1="96.6934" x2="96.6934" y1="173.9551" y2="193.9551"/><polygon fill="#000000" points="92.6934,183.9551,96.6934,193.9551,100.6934,183.9551,96.6934,187.9551" style="stroke:#000000;stroke-width:1;"/><line style="stroke:#000000;stroke-width:1;" x1="96.6934" x2="96.6934" y1="978.7363" y2="998.7363"/><polygon fill="#000000" points="92.6934,988.7363,96.6934,998.7363,100.6934,988.7363,96.6934,992.7363" style="stroke:#000000;stroke-width:1;"/><line style="stroke:#000000;stroke-width:1;" x1="318.3232" x2="318.3232" y1="314.3301" y2="334.3301"/><polygon fill="#000000" points="314.3232,324.3301,318.3232,334.3301,322.3232,324.3301,318.3232,328.3301" style="stroke:#000000;stroke-width:1;"/><line style="stroke:#000000;stroke-width:1;" x1="318.3232" x2="318.3232" y1="384.5176" y2="404.5176"/><polygon fill="#000000" points="314.3232,394.5176,318.3232,404.5176,322.3232,394.5176,318.3232,398.5176" style="stroke:#000000;stroke-width:1;"/><line style="stroke:#000000;stroke-width:1;" x1="267.9629" x2="243.6348" y1="486.7051" y2="486.7051"/><line style="stroke:#000000;stroke-width:1;" x1="243.6348" x2="243.6348" y1="486.7051" y2="518.7051"/><polygon fill="#000000" points="239.6348,508.7051,243.6348,518.7051,247.6348,508.7051,243.6348,512.7051" style="stroke:#000000;stroke-width:1;"/><line style="stroke:#000000;stroke-width:1;" x1="243.6348" x2="243.6348" y1="553.7988" y2="826.3613"/><line style="stroke:#000000;stroke-width:1;" x1="243.6348" x2="306.3232" y1="826.3613" y2="826.3613"/><polygon fill="#000000" points="296.3232,822.3613,306.3232,826.3613,296.3232,830.3613,300.3232,826.3613" style="stroke:#000000;stroke-width:1;"/><line style="stroke:#000000;stroke-width:1;" x1="318.3232" x2="318.3232" y1="454.7051" y2="474.7051"/><polygon fill="#000000" points="314.3232,464.7051,318.3232,474.7051,322.3232,464.7051,318.3232,468.7051" style="stroke:#000000;stroke-width:1;"/><line style="stroke:#000000;stroke-width:1;" x1="318.3232" x2="318.3232" y1="838.3613" y2="858.3613"/><polygon fill="#000000" points="314.3232,848.3613,318.3232,858.3613,322.3232,848.3613,318.3232,852.3613" style="stroke:#000000;stroke-width:1;"/><line style="stroke:#000000;stroke-width:1;" x1="500.0273" x2="500.0273" y1="568.8926" y2="588.8926"/><polygon fill="#000000" points="496.0273,578.8926,500.0273,588.8926,504.0273,578.8926,500.0273,582.8926" style="stroke:#000000;stroke-width:1;"/><line style="stroke:#000000;stroke-width:1;" x1="677.416" x2="677.416" y1="694.1738" y2="714.1738"/><polygon fill="#000000" points="673.416,704.1738,677.416,714.1738,681.416,704.1738,677.416,708.1738" style="stroke:#000000;stroke-width:1;"/><line style="stroke:#000000;stroke-width:1;" x1="96.6934" x2="96.6934" y1="244.1426" y2="249.1426"/><line style="stroke:#000000;stroke-width:1;" x1="96.6934" x2="318.3232" y1="249.1426" y2="249.1426"/><line style="stroke:#000000;stroke-width:1;" x1="318.3232" x2="318.3232" y1="249.1426" y2="264.1426"/><polygon fill="#000000" points="314.3232,254.1426,318.3232,264.1426,322.3232,254.1426,318.3232,258.1426" style="stroke:#000000;stroke-width:1;"/><line style="stroke:#000000;stroke-width:1;" x1="500.0273" x2="500.0273" y1="639.0801" y2="644.0801"/><line style="stroke:#000000;stroke-width:1;" x1="500.0273" x2="677.416" y1="644.0801" y2="644.0801"/><line style="stroke:#000000;stroke-width:1;" x1="677.416" x2="677.416" y1="644.0801" y2="659.0801"/><polygon fill="#000000" points="673.416,649.0801,677.416,659.0801,681.416,649.0801,677.416,653.0801" style="stroke:#000000;stroke-width:1;"/><line style="stroke:#000000;stroke-width:1;" x1="677.416" x2="677.416" y1="749.2676" y2="754.2676"/><line style="stroke:#000000;stroke-width:1;" x1="677.416" x2="500.0273" y1="754.2676" y2="754.2676"/><line style="stroke:#000000;stroke-width:1;" x1="500.0273" x2="500.0273" y1="754.2676" y2="769.2676"/><polygon fill="#000000" points="496.0273,759.2676,500.0273,769.2676,504.0273,759.2676,500.0273,763.2676" style="stroke:#000000;stroke-width:1;"/><line style="stroke:#000000;stroke-width:1;" x1="368.6836" x2="500.0273" y1="486.7051" y2="486.7051"/><line style="stroke:#000000;stroke-width:1;" x1="500.0273" x2="500.0273" y1="486.7051" y2="518.7051"/><polygon fill="#000000" points="496.0273,508.7051,500.0273,518.7051,504.0273,508.7051,500.0273,512.7051" style="stroke:#000000;stroke-width:1;"/><line style="stroke:#000000;stroke-width:1;" x1="500.0273" x2="500.0273" y1="804.3613" y2="826.3613"/><line style="stroke:#000000;stroke-width:1;" x1="500.0273" x2="330.3232" y1="826.3613" y2="826.3613"/><polygon fill="#000000" points="340.3232,822.3613,330.3232,826.3613,340.3232,830.3613,336.3232,826.3613" style="stroke:#000000;stroke-width:1;"/><line style="stroke:#000000;stroke-width:1;" x1="318.3232" x2="318.3232" y1="908.5488" y2="913.5488"/><line style="stroke:#000000;stroke-width:1;" x1="318.3232" x2="96.6934" y1="913.5488" y2="913.5488"/><line style="stroke:#000000;stroke-width:1;" x1="96.6934" x2="96.6934" y1="913.5488" y2="928.5488"/><polygon fill="#000000" points="92.6934,918.5488,96.6934,928.5488,100.6934,918.5488,96.6934,922.5488" style="stroke:#000000;stroke-width:1;"/><text fill="#000000" font-family="DejaVu Sans" font-size="18" lengthAdjust="spacing" textLength="74.8916" x="58.2476" y="74.8125">&#1048;&#1085;&#1078;&#1077;&#1085;&#1077;&#1088;</text><text fill="#000000" font-family="DejaVu Sans" font-size="18" lengthAdjust="spacing" textLength="151.708" x="210.2964" y="74.8125">Access Proxy (&#1056;&#1060;)</text><text fill="#000000" font-family="DejaVu Sans" font-size="18" lengthAdjust="spacing" textLength="206.2266" x="395.9141" y="74.8125">Upstream Proxy (&#1074;&#1085;&#1077; &#1056;&#1060;)</text><text fill="#000000" font-family="DejaVu Sans" font-size="18" lengthAdjust="spacing" textLength="51.0205" x="650.9058" y="74.8125">AI API</text><!--SRC=[ZPFFZX914CRlynJbdfQ3yGu7WwmQBcOJewUzZD18kyCCcMcY9XpuO_mJJNPZZ9fDLepn0MOHP8HTV8NgD_Ah7b1KJ0m9cUwg-dLzNrTVCatLKjGEV1rwoQ4Estxij-YUNpky7qUTi5w9WYYcXqrjr4QyhXf-9p0tej3Syb6_iwSU-7SxTDiFantFCze4YdZ4IplW9Syv8_kKfto1tzBsiPbHkKhb9D69yKEJq7uSFNhiULr-ZvIlBdLgUrqFuTXuHJxbLEfi3xXl0AR4tzrYRlk0yPYgUzSFmbtiJEGGxFTGCf3lGcaBkCZlECqPjayyHp-NtHd0kGwHYVE6O5O2lrDNT8KgKLi7aS7NJTNIeNRWSgscafK0skMF_BaWz6CxN4C0VCAPD0qJCdi4v3K_qJKgTqmJZ2AFd9InT9Phcs1vxffDaUtS3s2LItuBSayYl00jBqonpdXw469rvfI_SDKuhUJf1lew0Vmv8N4kgbmn4guM20CG8ZxXjE0H5Var43CUv_OHg3Eu8yMSbZmL90h9uk50qhjtsec95IPYhNyiGLhP8BnZTntIthd0Dan06vDr8z8zIPI_87lXHCtb7vA5CdBUJ74pBn5r7ir-tP-uvAwGoljLN0eQox_p5Zxadl2PcyU_YqlRX4kgtCX0ulydzPCxvGB8XJtAPVx1KM5TD_uzD6zMhoDrwjFVYg4msnnXEzm-rYFn3oFoxAUjOXpFuFR2lXBIYkQUJ0alB6fxFm00]--></g></svg>