<svg xmlns="http://www.w3.org/2000/svg" xmlns:xlink="http://www.w3.org/1999/xlink" contentStyleType="text/css" data-diagram-type="DESCRIPTION" height="365px" preserveAspectRatio="none" style="width:2528px;height:365px;background:#FFFFFF;" version="1.1" viewBox="0 0 2528 365" width="2528px" zoomAndPan="magnify"><title>&#1048;&#1085;&#1090;&#1077;&#1075;&#1088;&#1072;&#1094;&#1080;&#1103; &#1089; &#1074;&#1085;&#1077;&#1096;&#1085;&#1080;&#1084;&#1080; &#1089;&#1080;&#1089;&#1090;&#1077;&#1084;&#1072;&#1084;&#1080;</title><defs/><g><text fill="#000000" font-family="DejaVu Sans" font-size="22" font-weight="bold" lengthAdjust="spacing" textLength="390.7148" x="1064.4697" y="37.8379">&#1048;&#1085;&#1090;&#1077;&#1075;&#1088;&#1072;&#1094;&#1080;&#1103; &#1089; &#1074;&#1085;&#1077;&#1096;&#1085;&#1080;&#1084;&#1080; &#1089;&#1080;&#1089;&#1090;&#1077;&#1084;&#1072;&#1084;&#1080;</text><!--cluster system--><g class="cluster" data-entity="system" data-source-line="7" data-uid="ent0002" id="cluster_system"><rect fill="#ADD8E6" height="90" rx="2.5" ry="2.5" style="stroke:#000000;stroke-width:1;" width="565" x="874" y="60.6719"/><text fill="#000000" font-family="DejaVu Sans" font-size="14" font-weight="bold" lengthAdjust="spacing" textLength="131.4961" x="1090.752" y="77.2051">AI Assistants Proxy</text></g><!--cluster ai--><g class="cluster" data-entity="ai" data-source-line="14" data-uid="ent0007" id="cluster_ai"><path d="M13.5,226.1719 L94.2412,226.1719 A3.75,3.75 0 0 1 96.7412,228.6719 L103.7412,249.7813 L1571.5,249.7813 A2.5,2.5 0 0 1 1574,252.2813 L1574,346.6719 A2.5,2.5 0 0 1 1571.5,349.1719 L13.5,349.1719 A2.5,2.5 0 0 1 11,346.6719 L11,228.6719 A2.5,2.5 0 0 1 13.5,226.1719" fill="#90EE90" style="stroke:#000000;stroke-width:1;"/><line style="stroke:#000000;stroke-width:1;" x1="11" x2="103.7412" y1="249.7813" y2="249.7813"/><text fill="#000000" font-family="DejaVu Sans" font-size="14" font-weight="bold" lengthAdjust="spacing" textLength="79.7412" x="15" y="242.7051">AI-&#1089;&#1077;&#1088;&#1074;&#1080;&#1089;&#1099;</text></g><!--cluster infra--><g class="cluster" data-entity="infra" data-source-line="31" data-uid="ent0022" id="cluster_infra"><path d="M1608.5,216.6719 L1725.5742,216.6719 A3.75,3.75 0 0 1 1728.0742,219.1719 L1735.0742,240.2813 L2172.5,240.2813 A2.5,2.5 0 0 1 2175,242.7813 L2175,356.1719 A2.5,2.5 0 0 1 2172.5,358.6719 L1608.5,358.6719 A2.5,2.5 0 0 1 1606,356.1719 L1606,219.1719 A2.5,2.5 0 0 1 1608.5,216.6719" fill="#FFFFE0" style="stroke:#000000;stroke-width:1;"/><line style="stroke:#000000;stroke-width:1;" x1="1606" x2="1735.0742" y1="240.2813" y2="240.2813"/><text fill="#000000" font-family="DejaVu Sans" font-size="14" font-weight="bold" lengthAdjust="spacing" textLength="116.0742" x="1610" y="233.2051">&#1048;&#1085;&#1092;&#1088;&#1072;&#1089;&#1090;&#1088;&#1091;&#1082;&#1090;&#1091;&#1088;&#1072;</text></g><!--cluster msg--><g class="cluster" data-entity="msg" data-source-line="38" data-uid="ent0027" id="cluster_msg"><path d="M2201.5,234.1719 L2274.8516,234.1719 A3.75,3.75 0 0 1 2277.3516,236.6719 L2284.3516,257.7813 L2330.5,257.7813 A2.5,2.5 0 0 1 2333,260.2813 L2333,338.6719 A2.5,2.5 0 0 1 2330.5,341.1719 L2201.5,341.1719 A2.5,2.5 0 0 1 2199,338.6719 L2199,236.6719 A2.5,2.5 0 0 1 2201.5,234.1719" fill="#F08080" style="stroke:#000000;stroke-width:1;"/><line style="stroke:#000000;stroke-width:1;" x1="2199" x2="2284.3516" y1="257.7813" y2="257.7813"/><text fill="#000000" font-family="DejaVu Sans" font-size="14" font-weight="bold" lengthAdjust="spacing" textLength="72.3516" x="2203" y="250.7051">Messaging</text></g><!--entity access--><g class="entity" data-entity="access" data-source-line="8" data-uid="ent0003" id="entity_access"><rect fill="#FFFFFF" height="37.6094" rx="2.5" ry="2.5" style="stroke:#000000;stroke-width:1;" width="104.7998" x="1317.5" y="96.6719"/><text fill="#000000" font-family="DejaVu Sans" font-size="14" lengthAdjust="spacing" textLength="84.7998" x="1327.5" y="121.2051">Access Proxy</text></g><!--entity upstream--><g class="entity" data-entity="upstream" data-source-line="9" data-uid="ent0004" id="entity_upstream"><rect fill="#FFFFFF" height="37.6094" rx="2.5" ry="2.5" style="stroke:#000000;stroke-width:1;" width="120.3584" x="890" y="96.6719"/><text fill="#000000" font-family="DejaVu Sans" font-size="14" lengthAdjust="spacing" textLength="100.3584" x="900" y="121.2051">Upstream Proxy</text></g><!--entity mtproxy--><g class="entity" data-entity="mtproxy" data-source-line="10" data-uid="ent0005" id="entity_mtproxy"><rect fill="#FFFFFF" height="37.6094" rx="2.5" ry="2.5" style="stroke:#000000;stroke-width:1;" width="76" x="1206" y="96.6719"/><text fill="#000000" font-family="DejaVu Sans" font-size="14" lengthAdjust="spacing" textLength="56" x="1216" y="121.2051">MTProxy</text></g><!--entity csagent--><g class="entity" data-entity="csagent" data-source-line="11" data-uid="ent0006" id="entity_csagent"><rect fill="#FFFFFF" height="37.6094" rx="2.5" ry="2.5" style="stroke:#000000;stroke-width:1;" width="125.0547" x="1045.5" y="96.6719"/><text fill="#000000" font-family="DejaVu Sans" font-size="14" lengthAdjust="spacing" textLength="105.0547" x="1055.5" y="121.2051">CrowdSec Agent</text></g><!--entity claude--><g class="entity" data-entity="claude" data-source-line="15" data-uid="ent0008" id="entity_claude"><rect fill="#FFFFFF" height="55.2188" rx="2.5" ry="2.5" style="stroke:#000000;stroke-width:1;" width="79.1445" x="54.5" y="270.1719"/><text fill="#000000" font-family="DejaVu Sans" font-size="14" lengthAdjust="spacing" textLength="59.1445" x="64.5" y="294.7051">Anthropic</text><text fill="#000000" font-family="DejaVu Sans" font-size="14" lengthAdjust="spacing" textLength="53.6895" x="64.5" y="312.3145">(Claude)</text></g><!--entity openai--><g class="entity" data-entity="openai" data-source-line="16" data-uid="ent0009" id="entity_openai"><rect fill="#FFFFFF" height="55.2188" rx="2.5" ry="2.5" style="stroke:#000000;stroke-width:1;" width="87.6758" x="169" y="270.1719"/><text fill="#000000" font-family="DejaVu Sans" font-size="14" lengthAdjust="spacing" textLength="47.4756" x="179" y="294.7051">OpenAI</text><text fill="#000000" font-family="DejaVu Sans" font-size="14" lengthAdjust="spacing" textLength="67.6758" x="179" y="312.3145">(ChatGPT)</text></g><!--entity google--><g class="entity" data-entity="google" data-source-line="17" data-uid="ent0010" id="entity_google"><rect fill="#FFFFFF" height="55.2188" rx="2.5" ry="2.5" style="stroke:#000000;stroke-width:1;" width="73.6689" x="292" y="270.1719"/><text fill="#000000" font-family="DejaVu Sans" font-size="14" lengthAdjust="spacing" textLength="45.1445" x="302" y="294.7051">Google</text><text fill="#000000" font-family="DejaVu Sans" font-size="14" lengthAdjust="spacing" textLength="53.6689" x="302" y="312.3145">(Gemini)</text></g><!--entity github--><g class="entity" data-entity="github" data-source-line="18" data-uid="ent0011" id="entity_github"><rect fill="#FFFFFF" height="55.2188" rx="2.5" ry="2.5" style="stroke:#000000;stroke-width:1;" width="72.9033" x="401.5" y="270.1719"/><text fill="#000000" font-family="DejaVu Sans" font-size="14" lengthAdjust="spacing" textLength="43.5723" x="411.5" y="294.7051">GitHub</text><text fill="#000000" font-family="DejaVu Sans" font-size="14" lengthAdjust="spacing" textLength="52.9033" x="411.5" y="312.3145">(Copilot)</text></g><!--entity msai--><g class="entity" data-entity="msai" data-source-line="19" data-uid="ent0012" id="entity_msai"><rect fill="#FFFFFF" height="55.2188" rx="2.5" ry="2.5" style="stroke:#000000;stroke-width:1;" width="83.0137" x="509.5" y="270.1719"/><text fill="#000000" font-family="DejaVu Sans" font-size="14" lengthAdjust="spacing" textLength="56.7861" x="519.5" y="294.7051">Microsoft</text><text fill="#000000" font-family="DejaVu Sans" font-size="14" lengthAdjust="spacing" textLength="63.0137" x="519.5" y="312.3145">(Azure AI)</text></g><!--entity xai--><g class="entity" data-entity="xai" data-source-line="20" data-uid="ent0013" id="entity_xai"><rect fill="#FFFFFF" height="55.2188" rx="2.5" ry="2.5" style="stroke:#000000;stroke-width:1;" width="59.6621" x="628" y="270.1719"/><text fill="#000000" font-family="DejaVu Sans" font-size="14" lengthAdjust="spacing" textLength="20.2275" x="638" y="294.7051">xAI</text><text fill="#000000" font-family="DejaVu Sans" font-size="14" lengthAdjust="spacing" textLength="39.6621" x="638" y="312.3145">(Grok)</text></g><!--entity cursor--><g class="entity" data-entity="cursor" data-source-line="21" data-uid="ent0014" id="entity_cursor"><rect fill="#FFFFFF" height="37.6094" rx="2.5" ry="2.5" style="stroke:#000000;stroke-width:1;" width="62.0068" x="723" y="278.6719"/><text fill="#000000" font-family="DejaVu Sans" font-size="14" lengthAdjust="spacing" textLength="42.0068" x="733" y="303.2051">Cursor</text></g><!--entity deepl--><g class="entity" data-entity="deepl" data-source-line="22" data-uid="ent0015" id="entity_deepl"><rect fill="#FFFFFF" height="37.6094" rx="2.5" ry="2.5" style="stroke:#000000;stroke-width:1;" width="61.2549" x="820.5" y="278.6719"/><text fill="#000000" font-family="DejaVu Sans" font-size="14" lengthAdjust="spacing" textLength="41.2549" x="830.5" y="303.2051">DeepL</text></g><!--entity alibaba--><g class="entity" data-entity="alibaba" data-source-line="23" data-uid="ent0016" id="entity_alibaba"><rect fill="#FFFFFF" height="55.2188" rx="2.5" ry="2.5" style="stroke:#000000;stroke-width:1;" width="66.7031" x="916.5" y="270.1719"/><text fill="#000000" font-family="DejaVu Sans" font-size="14" lengthAdjust="spacing" textLength="46.7031" x="926.5" y="294.7051">Alibaba</text><text fill="#000000" font-family="DejaVu Sans" font-size="14" lengthAdjust="spacing" textLength="45.8965" x="926.5" y="312.3145">(Qwen)</text></g><!--entity mistral--><g class="entity" data-entity="mistral" data-source-line="24" data-uid="ent0017" id="entity_mistral"><rect fill="#FFFFFF" height="37.6094" rx="2.5" ry="2.5" style="stroke:#000000;stroke-width:1;" width="78.3379" x="1019" y="278.6719"/><text fill="#000000" font-family="DejaVu Sans" font-size="14" lengthAdjust="spacing" textLength="58.3379" x="1029" y="303.2051">Mistral AI</text></g><!--entity groq--><g class="entity" data-entity="groq" data-source-line="25" data-uid="ent0018" id="entity_groq"><rect fill="#FFFFFF" height="37.6094" rx="2.5" ry="2.5" style="stroke:#000000;stroke-width:1;" width="51.124" x="1132.5" y="278.6719"/><text fill="#000000" font-family="DejaVu Sans" font-size="14" lengthAdjust="spacing" textLength="31.124" x="1142.5" y="303.2051">Groq</text></g><!--entity deepseek--><g class="entity" data-entity="deepseek" data-source-line="26" data-uid="ent0019" id="entity_deepseek"><rect fill="#FFFFFF" height="37.6094" rx="2.5" ry="2.5" style="stroke:#000000;stroke-width:1;" width="85.3789" x="1218.5" y="278.6719"/><text fill="#000000" font-family="DejaVu Sans" font-size="14" lengthAdjust="spacing" textLength="65.3789" x="1228.5" y="303.2051">DeepSeek</text></g><!--entity cerebras--><g class="entity" data-entity="cerebras" data-source-line="27" data-uid="ent0020" id="entity_cerebras"><rect fill="#FFFFFF" height="37.6094" rx="2.5" ry="2.5" style="stroke:#000000;stroke-width:1;" width="77.5791" x="1339" y="278.6719"/><text fill="#000000" font-family="DejaVu Sans" font-size="14" lengthAdjust="spacing" textLength="57.5791" x="1349" y="303.2051">Cerebras</text></g><!--entity sambanova--><g class="entity" data-entity="sambanova" data-source-line="28" data-uid="ent0021" id="entity_sambanova"><rect fill="#FFFFFF" height="37.6094" rx="2.5" ry="2.5" style="stroke:#000000;stroke-width:1;" width="97.041" x="1452.5" y="278.6719"/><text fill="#000000" font-family="DejaVu Sans" font-size="14" lengthAdjust="spacing" textLength="77.041" x="1462.5" y="303.2051">SambaNova</text></g><!--entity dns--><g class="entity" data-entity="dns" data-source-line="32" data-uid="ent0023" id="entity_dns"><rect fill="#FFFFFF" height="90.4375" rx="2.5" ry="2.5" style="stroke:#000000;stroke-width:1;" width="115.6895" x="1916" y="252.6719"/><text fill="#000000" font-family="DejaVu Sans" font-size="14" lengthAdjust="spacing" textLength="95.6895" x="1926" y="277.2051">DNS Resolvers</text><text fill="#000000" font-family="DejaVu Sans" font-size="14" lengthAdjust="spacing" textLength="42.8135" x="1926" y="294.8145">9.9.9.9</text><text fill="#000000" font-family="DejaVu Sans" font-size="14" lengthAdjust="spacing" textLength="42.8135" x="1926" y="312.4238">8.8.8.8</text><text fill="#000000" font-family="DejaVu Sans" font-size="14" lengthAdjust="spacing" textLength="42.8135" x="1926" y="330.0332">1.1.1.1</text></g><!--entity csapi--><g class="entity" data-entity="csapi" data-source-line="33" data-uid="ent0024" id="entity_csapi"><rect fill="#FFFFFF" height="55.2188" rx="2.5" ry="2.5" style="stroke:#000000;stroke-width:1;" width="91.5859" x="2067" y="270.1719"/><text fill="#000000" font-family="DejaVu Sans" font-size="14" lengthAdjust="spacing" textLength="64.5791" x="2077" y="294.7051">CrowdSec</text><text fill="#000000" font-family="DejaVu Sans" font-size="14" lengthAdjust="spacing" textLength="71.5859" x="2077" y="312.3145">Central API</text></g><!--entity ghrel--><g class="entity" data-entity="ghrel" data-source-line="34" data-uid="ent0025" id="entity_ghrel"><rect fill="#FFFFFF" height="55.2188" rx="2.5" ry="2.5" style="stroke:#000000;stroke-width:1;" width="125.8271" x="1755" y="270.1719"/><text fill="#000000" font-family="DejaVu Sans" font-size="14" lengthAdjust="spacing" textLength="105.8271" x="1765" y="294.7051">GitHub Releases</text><text fill="#000000" font-family="DejaVu Sans" font-size="14" lengthAdjust="spacing" textLength="74.6826" x="1765" y="312.3145">(mtg binary)</text></g><!--entity apt--><g class="entity" data-entity="apt" data-source-line="35" data-uid="ent0026" id="entity_apt"><rect fill="#FFFFFF" height="55.2188" rx="2.5" ry="2.5" style="stroke:#000000;stroke-width:1;" width="97.8135" x="1622" y="270.1719"/><text fill="#000000" font-family="DejaVu Sans" font-size="14" lengthAdjust="spacing" textLength="27.2275" x="1632" y="294.7051">APT</text><text fill="#000000" font-family="DejaVu Sans" font-size="14" lengthAdjust="spacing" textLength="77.8135" x="1632" y="312.3145">Repositories</text></g><!--entity tgdc--><g class="entity" data-entity="tgdc" data-source-line="39" data-uid="ent0028" id="entity_tgdc"><rect fill="#FFFFFF" height="55.2188" rx="2.5" ry="2.5" style="stroke:#000000;stroke-width:1;" width="102.4824" x="2215" y="270.1719"/><text fill="#000000" font-family="DejaVu Sans" font-size="14" lengthAdjust="spacing" textLength="59.1309" x="2225" y="294.7051">Telegram</text><text fill="#000000" font-family="DejaVu Sans" font-size="14" lengthAdjust="spacing" textLength="82.4824" x="2225" y="312.3145">Data Centers</text></g><g class="entity" data-entity="GMN46" data-source-line="62" data-uid="ent0047" id="entity_GMN46"><path d="M2352.5,251.6719 L2352.5,343.4297 L2521.6543,343.4297 L2521.6543,261.6719 L2511.6543,251.6719 L2352.5,251.6719" fill="#FFFFFF" style="stroke:#000000;stroke-width:1;"/><path d="M2511.6543,251.6719 L2511.6543,261.6719 L2521.6543,261.6719 L2511.6543,251.6719" fill="#FFFFFF" style="stroke:#000000;stroke-width:1;"/><text fill="#000000" font-family="DejaVu Sans" font-size="13" lengthAdjust="spacing" textLength="139.6929" x="2358.5" y="270.167">&#1041;&#1077;&#1083;&#1099;&#1081; &#1089;&#1087;&#1080;&#1089;&#1086;&#1082; &#1076;&#1086;&#1084;&#1077;&#1085;&#1086;&#1074;</text><text fill="#000000" font-family="DejaVu Sans" font-size="13" lengthAdjust="spacing" textLength="133.8467" x="2358.5" y="286.5186">&#1082;&#1086;&#1085;&#1090;&#1088;&#1086;&#1083;&#1080;&#1088;&#1091;&#1077;&#1090;&#1089;&#1103; &#1095;&#1077;&#1088;&#1077;&#1079;</text><text fill="#000000" font-family="DejaVu Sans" font-size="13" lengthAdjust="spacing" textLength="111.3252" x="2358.5" y="302.8701">allowed_domains &#1080;</text><text fill="#000000" font-family="DejaVu Sans" font-size="13" lengthAdjust="spacing" textLength="148.1543" x="2358.5" y="319.2217">allowed_domain_patterns</text><text fill="#000000" font-family="DejaVu Sans" font-size="13" lengthAdjust="spacing" textLength="87.0962" x="2358.5" y="335.5732">&#1074; inventory.yml</text></g><!--link upstream to claude--><g class="link" data-entity-1="upstream" data-entity-2="claude" data-source-line="42" data-uid="lnk29" id="link_upstream_claude"><path d="M889.91,117.6819 C740.28,120.6919 354.24,131.7119 231,166.6719 C192.37,177.6319 180.66,181.6019 151,208.6719 C132.04,225.9719 119.4805,245.6055 109.5005,264.5155" fill="none" id="upstream-to-claude" style="stroke:#000000;stroke-width:1;"/><polygon fill="#000000" points="106.7,269.8219,114.4383,263.7294,109.0337,265.3999,107.3632,259.9954,106.7,269.8219" style="stroke:#000000;stroke-width:1;"/><text fill="#000000" font-family="DejaVu Sans" font-size="13" lengthAdjust="spacing" textLength="42.6118" x="232" y="189.167">HTTPS</text></g><!--link upstream to openai--><g class="link" data-entity-1="upstream" data-entity-2="openai" data-source-line="43" data-uid="lnk30" id="link_upstream_openai"><path d="M889.78,118.0019 C756.75,121.5119 441.67,133.2119 341,166.6719 C307.65,177.7619 299.42,184.4019 274,208.6719 C255.18,226.6419 241.765,246.1238 230.695,264.7538" fill="none" id="upstream-to-openai" style="stroke:#000000;stroke-width:1;"/><polygon fill="#000000" points="227.63,269.9119,235.6662,264.218,230.1841,265.6135,228.7887,260.1314,227.63,269.9119" style="stroke:#000000;stroke-width:1;"/><text fill="#000000" font-family="DejaVu Sans" font-size="13" lengthAdjust="spacing" textLength="42.6118" x="342" y="189.167">HTTPS</text></g><!--link upstream to google--><g class="link" data-entity-1="upstream" data-entity-2="google" data-source-line="44" data-uid="lnk31" id="link_upstream_google"><path d="M889.71,119.1419 C774.84,124.4319 528.93,138.7019 449,166.6719 C416.53,178.0319 408.14,184.1719 384,208.6719 C366.3,226.6419 354.2954,245.9576 344.5254,264.5976" fill="none" id="upstream-to-google" style="stroke:#000000;stroke-width:1;"/><polygon fill="#000000" points="341.74,269.9119,349.461,263.7974,344.0612,265.4833,342.3753,260.0835,341.74,269.9119" style="stroke:#000000;stroke-width:1;"/><text fill="#000000" font-family="DejaVu Sans" font-size="13" lengthAdjust="spacing" textLength="42.6118" x="450" y="189.167">HTTPS</text></g><!--link upstream to github--><g class="link" data-entity-1="upstream" data-entity-2="github" data-source-line="45" data-uid="lnk32" id="link_upstream_github"><path d="M889.96,116.9919 C812.4,119.0619 674.15,128.4319 563,166.6719 C528.33,178.6019 518.13,182.9619 492,208.6719 C473.98,226.4019 462.1235,245.9305 452.6835,264.7205" fill="none" id="upstream-to-github" style="stroke:#000000;stroke-width:1;"/><polygon fill="#000000" points="449.99,270.0819,457.6046,263.8354,452.2346,265.614,450.456,260.244,449.99,270.0819" style="stroke:#000000;stroke-width:1;"/><text fill="#000000" font-family="DejaVu Sans" font-size="13" lengthAdjust="spacing" textLength="42.6118" x="564" y="189.167">HTTPS</text></g><!--link upstream to msai--><g class="link" data-entity-1="upstream" data-entity-2="msai" data-source-line="46" data-uid="lnk33" id="link_upstream_msai"><path d="M889.81,117.5319 C828.69,120.5219 732.65,131.1419 658,166.6719 C613,188.0919 583.3001,233.3459 566.5901,264.7259" fill="none" id="upstream-to-msai" style="stroke:#000000;stroke-width:1;"/><polygon fill="#000000" points="563.77,270.0219,571.5308,263.958,566.1201,265.6086,564.4695,260.1979,563.77,270.0219" style="stroke:#000000;stroke-width:1;"/><text fill="#000000" font-family="DejaVu Sans" font-size="13" lengthAdjust="spacing" textLength="42.6118" x="659" y="189.167">HTTPS</text></g><!--link upstream to xai--><g class="link" data-entity-1="upstream" data-entity-2="xai" data-source-line="47" data-uid="lnk34" id="link_upstream_xai"><path d="M889.93,123.0819 C848.06,129.5019 792.03,142.1519 748,166.6719 C707.35,189.3119 683.4089,233.4365 670.2989,264.4065" fill="none" id="upstream-to-xai" style="stroke:#000000;stroke-width:1;"/><polygon fill="#000000" points="667.96,269.9319,675.152,263.2032,669.9091,265.3274,667.7849,260.0846,667.96,269.9319" style="stroke:#000000;stroke-width:1;"/><text fill="#000000" font-family="DejaVu Sans" font-size="13" lengthAdjust="spacing" textLength="42.6118" x="749" y="189.167">HTTPS</text></g><!--link upstream to cursor--><g class="link" data-entity-1="upstream" data-entity-2="cursor" data-source-line="48" data-uid="lnk35" id="link_upstream_cursor"><path d="M889.88,133.1219 C869.02,140.8919 846.5,151.8119 829,166.6719 C792.66,197.5419 771.9802,245.0658 761.9802,272.8758" fill="none" id="upstream-to-cursor" style="stroke:#000000;stroke-width:1;"/><polygon fill="#000000" points="759.95,278.5219,766.7594,271.4063,761.6419,273.8168,759.2313,268.6993,759.95,278.5219" style="stroke:#000000;stroke-width:1;"/><text fill="#000000" font-family="DejaVu Sans" font-size="13" lengthAdjust="spacing" textLength="42.6118" x="830" y="189.167">HTTPS</text></g><!--link upstream to deepl--><g class="link" data-entity-1="upstream" data-entity-2="deepl" data-source-line="49" data-uid="lnk36" id="link_upstream_deepl"><path d="M926.93,134.7019 C916.94,143.4719 905.78,154.7019 898,166.6719 C874.6,202.7019 862.3037,246.0566 856.2037,272.3966" fill="none" id="upstream-to-deepl" style="stroke:#000000;stroke-width:1;"/><polygon fill="#000000" points="854.85,278.2419,860.7774,270.3764,855.9781,273.3708,852.9837,268.5715,854.85,278.2419" style="stroke:#000000;stroke-width:1;"/><text fill="#000000" font-family="DejaVu Sans" font-size="13" lengthAdjust="spacing" textLength="42.6118" x="899" y="189.167">HTTPS</text></g><!--link upstream to alibaba--><g class="link" data-entity-1="upstream" data-entity-2="alibaba" data-source-line="50" data-uid="lnk37" id="link_upstream_alibaba"><path d="M950,134.9219 C950,166.8319 950,226.8819 950,263.9519" fill="none" id="upstream-to-alibaba" style="stroke:#000000;stroke-width:1;"/><polygon fill="#000000" points="950,269.9519,954,260.9519,950,264.9519,946,260.9519,950,269.9519" style="stroke:#000000;stroke-width:1;"/><text fill="#000000" font-family="DejaVu Sans" font-size="13" lengthAdjust="spacing" textLength="42.6118" x="951" y="189.167">HTTPS</text></g><!--link upstream to mistral--><g class="link" data-entity-1="upstream" data-entity-2="mistral" data-source-line="51" data-uid="lnk38" id="link_upstream_mistral"><path d="M972.48,134.6919 C982.47,143.5419 993.8,154.8319 1002,166.6719 C1027.05,202.8319 1042.6641,246.2538 1050.8641,272.5538" fill="none" id="upstream-to-mistral" style="stroke:#000000;stroke-width:1;"/><polygon fill="#000000" points="1052.65,278.2819,1053.7898,268.4992,1051.1617,273.5085,1046.1524,270.8804,1052.65,278.2819" style="stroke:#000000;stroke-width:1;"/><text fill="#000000" font-family="DejaVu Sans" font-size="13" lengthAdjust="spacing" textLength="42.6118" x="1023" y="189.167">HTTPS</text></g><!--link upstream to groq--><g class="link" data-entity-1="upstream" data-entity-2="groq" data-source-line="52" data-uid="lnk39" id="link_upstream_groq"><path d="M978.25,134.7419 C992.63,143.1919 1010.7,152.6919 1028,158.6719 C1047.61,165.4519 1055.7,156.8919 1074,166.6719 C1118.31,190.3619 1140.8121,243.12 1150.7421,272.9" fill="none" id="upstream-to-groq" style="stroke:#000000;stroke-width:1;"/><polygon fill="#000000" points="1152.64,278.5919,1153.5877,268.7887,1151.0584,273.8486,1145.9985,271.3193,1152.64,278.5919" style="stroke:#000000;stroke-width:1;"/><text fill="#000000" font-family="DejaVu Sans" font-size="13" lengthAdjust="spacing" textLength="42.6118" x="1113" y="189.167">HTTPS</text></g><!--link upstream to deepseek--><g class="link" data-entity-1="upstream" data-entity-2="deepseek" data-source-line="53" data-uid="lnk40" id="link_upstream_deepseek"><path d="M976.55,134.7219 C991.08,143.6119 1009.8,153.5119 1028,158.6719 C1057.13,166.9319 1136.79,153.4019 1164,166.6719 C1211.33,189.7519 1238.9296,242.9571 1251.6296,272.9371" fill="none" id="upstream-to-deepseek" style="stroke:#000000;stroke-width:1;"/><polygon fill="#000000" points="1253.97,278.4619,1254.1426,268.6145,1252.0197,273.8579,1246.7763,271.735,1253.97,278.4619" style="stroke:#000000;stroke-width:1;"/><text fill="#000000" font-family="DejaVu Sans" font-size="13" lengthAdjust="spacing" textLength="42.6118" x="1207" y="189.167">HTTPS</text></g><!--link upstream to cerebras--><g class="link" data-entity-1="upstream" data-entity-2="cerebras" data-source-line="54" data-uid="lnk41" id="link_upstream_cerebras"><path d="M976.14,134.6819 C990.72,143.6819 1009.59,153.6919 1028,158.6719 C1077.37,172.0319 1209.32,151.0019 1258,166.6719 C1290.03,176.9819 1297.36,184.7219 1321,208.6719 C1341.84,229.7919 1356.4706,254.3745 1366.3706,273.3145" fill="none" id="upstream-to-cerebras" style="stroke:#000000;stroke-width:1;"/><polygon fill="#000000" points="1369.15,278.6319,1368.5258,268.8028,1366.8338,274.2007,1361.4359,272.5087,1369.15,278.6319" style="stroke:#000000;stroke-width:1;"/><text fill="#000000" font-family="DejaVu Sans" font-size="13" lengthAdjust="spacing" textLength="42.6118" x="1313" y="189.167">HTTPS</text></g><!--link upstream to sambanova--><g class="link" data-entity-1="upstream" data-entity-2="sambanova" data-source-line="55" data-uid="lnk42" id="link_upstream_sambanova"><path d="M976.12,134.7619 C990.69,143.7819 1009.56,153.7919 1028,158.6719 C1100.2,177.7919 1292.26,145.8819 1364,166.6719 C1398.85,176.7719 1406.97,184.4719 1434,208.6719 C1457.32,229.5519 1474.8915,254.4518 1486.9215,273.4618" fill="none" id="upstream-to-sambanova" style="stroke:#000000;stroke-width:1;"/><polygon fill="#000000" points="1490.13,278.5319,1488.6973,268.7878,1487.4563,274.3068,1481.9372,273.0657,1490.13,278.5319" style="stroke:#000000;stroke-width:1;"/><text fill="#000000" font-family="DejaVu Sans" font-size="13" lengthAdjust="spacing" textLength="42.6118" x="1427" y="189.167">HTTPS</text></g><!--link upstream to dns--><g class="link" data-entity-1="upstream" data-entity-2="dns" data-source-line="57" data-uid="lnk43" id="link_upstream_dns"><path d="M976.11,134.8019 C990.67,143.8419 1009.55,153.8419 1028,158.6719 C1076.38,171.3319 1428.11,163.1719 1478,166.6719 C1601.73,175.3419 1631.45,189.6719 1755,200.6719 C1770.96,202.0919 1884.64,201.5519 1899,208.6719 C1918.6,218.3919 1931.5275,230.9688 1944.0175,247.7488" fill="none" id="upstream-to-dns" style="stroke:#000000;stroke-width:1;"/><polygon fill="#000000" points="1947.6,252.5619,1945.4349,242.9539,1944.6146,248.551,1939.0175,247.7307,1947.6,252.5619" style="stroke:#000000;stroke-width:1;"/><text fill="#000000" font-family="DejaVu Sans" font-size="13" lengthAdjust="spacing" textLength="114.8481" x="1756" y="189.167">DNS (UDP/TCP 53)</text></g><!--link csagent to csapi--><g class="link" data-entity-1="csagent" data-entity-2="csapi" data-source-line="58" data-uid="lnk44" id="link_csagent_csapi"><path d="M1134.83,134.8519 C1149.78,143.9019 1169.14,153.9019 1188,158.6719 C1225.22,168.0819 1840.91,161.8419 1879,166.6719 C1956.64,176.5219 1985.2,164.7919 2050,208.6719 C2072.56,223.9419 2086.9371,244.8681 2097.6171,264.7181" fill="none" id="csagent-to-csapi" style="stroke:#000000;stroke-width:1;"/><polygon fill="#000000" points="2100.46,270.0019,2099.7182,260.181,2098.091,265.5987,2092.6732,263.9715,2100.46,270.0019" style="stroke:#000000;stroke-width:1;"/><text fill="#000000" font-family="DejaVu Sans" font-size="13" lengthAdjust="spacing" textLength="42.6118" x="2066.3481" y="181.167">HTTPS</text><text fill="#000000" font-family="DejaVu Sans" font-size="13" lengthAdjust="spacing" textLength="103.3081" x="2036" y="197.5186">(scenarios, alerts)</text></g><!--link mtproxy to tgdc--><g class="link" data-entity-1="mtproxy" data-entity-2="tgdc" data-source-line="59" data-uid="lnk45" id="link_mtproxy_tgdc"><path d="M1261.93,134.8019 C1272.14,143.8319 1285.73,153.8419 1300,158.6719 C1344.62,173.7819 2105.01,147.3919 2148,166.6719 C2195.42,187.9419 2228.8981,233.418 2248.0481,264.848" fill="none" id="mtproxy-to-tgdc" style="stroke:#000000;stroke-width:1;"/><polygon fill="#000000" points="2251.17,269.9719,2249.903,260.2048,2248.5684,265.702,2243.0713,264.3674,2251.17,269.9719" style="stroke:#000000;stroke-width:1;"/><text fill="#000000" font-family="DejaVu Sans" font-size="13" lengthAdjust="spacing" textLength="49.8418" x="2195" y="189.167">MTProto</text></g><!--link ai to GMN46--><g class="link" data-entity-1="ai" data-entity-2="GMN46" data-source-line="62" data-uid="lnk48" id="link_ai_GMN46"><path d="M24.4529,226.1188 C24.51,225.929 24.5675,225.7393 24.6255,225.5498 C24.8576,224.7918 25.0972,224.0364 25.3448,223.2842 C25.8398,221.7797 26.3663,220.288 26.926,218.813 C28.0455,215.8631 29.2979,212.9802 30.6977,210.197 C36.2969,199.0644 44.255,189.5269 55.5,183.6719 C111.18,154.6819 2257.13,160.5719 2315.5,183.6719 C2350.2,197.4019 2380.78,226.2419 2402.58,251.4719" fill="none" id="ai-GMN46" style="stroke:#000000;stroke-width:1;stroke-dasharray:7.0,7.0;"/></g><!--SRC=[TLLTQnGn57sVNn7hImks8YAe3yAwYzj2hMjtAmWBafsvdOsTISOaqtOLeRMYWW_Ycpz3gekrjleNCl_8csJwCTDP5ZR9lIV9FPbpacjw32cGBA6C1sgByOnAcf8H3RTYAN8UjKKY9DaPCmsNyX5iqZpHZmJNQnJdptNW9NsMapxbQYu8DDC94FFDd1RlpDJyAFRCz-A3EIg-a6AVc4DpQgR59_m_CYVc26EOsdVG4_FTXe90GgWfZt6PkTOAQId558wr8ZqfTYTpX2gY9af3IgwlidYi7oOva3S18PSdXY6eopEe2rH16vdI4f3J1ImlGrNWuy458jMPxLS1RIbseZw4f1K3rmuNAchxmTiWoF18SM3fB2BXAPx9eQFzsPV6IY9T2S2lCE5wB4N6mY6VRoSqZs31h-_wLUoJ37XhnGB7L7Tx0uyK6AMiYkmAWIqYkv0opZmmTi4QaEdbV6INn1eIeKiaq-DyL3ia5agXnAP6SEjrBe6qLZmwLVNjTrsLNIcsF6At3cZdKWdfYRfkDTq1o5PTDi9UKZknX8teYE86JtU0-mseZzKhnezD4wpJb-c7DVvIlFAKiNErY3x0rdaT2WSr6Y1X9AdoHCf15TAdwOYkYMtgXMr774SLtJWxlNTMGgyKUyM1ESRsm4RSDCOt9IrLz1oIHEpKPTHPwvDrK2BP1gc6_DwI-mtvtINt6_9RI-xdoN3LhEyXRwEctPdrLivadh4coU1k2L05kDbygcCoOfpAIIcViOJwH-iDXdmTCg6O5fA1FpAQLGtq63rCOyRZKbTnoRajR4qroWCi8COhQyWxL5DYAqVkRgQEez0kV6PtihZue7GKkK-M1uDUlvhp7chEUTlCo3cZDEUiBPepkxCItWlDEUU4vbIf_Xbbb2vehXzLFtixA_WPXPPQRywUg_myNLkRsubMilCRdTxDGRj7xjnU2CehrMzWTNSs7IMcGln0aWbr0zc2r6eXA6zg1xSV7D7k8jSY2BZGGAIL3X6RnDq-vYi-Gd-Ap-QtVPN-sGlQ_3N7nFp4vWHpfzWUMk0nTawj3x7zWpZhnocEz-qZzz7TxrFp2v7KEX6Y5v58yP5L15-tUl15HZNAqXdE7AAHjv6Xa9EbIPe4m2DYAmt-0m00]--></g></svg>