<svg xmlns="http://www.w3.org/2000/svg" xmlns:xlink="http://www.w3.org/1999/xlink" contentStyleType="text/css" data-diagram-type="SEQUENCE" height="1012px" preserveAspectRatio="none" style="width:1049px;height:1012px;background:#FEFEFE;" version="1.1" viewBox="0 0 1049 1012" width="1049px" zoomAndPan="magnify"><title>&#1044;&#1074;&#1091;&#1093;&#1091;&#1088;&#1086;&#1074;&#1085;&#1077;&#1074;&#1099;&#1081; &#1087;&#1086;&#1090;&#1086;&#1082; &#1079;&#1072;&#1087;&#1088;&#1086;&#1089;&#1072; &#1089; &#1088;&#1072;&#1079;&#1076;&#1077;&#1083;&#1077;&#1085;&#1080;&#1077;&#1084; &#1086;&#1090;&#1074;&#1077;&#1090;&#1089;&#1090;&#1074;&#1077;&#1085;&#1085;&#1086;&#1089;&#1090;&#1080;</title><defs/><g><rect fill="#FEFEFE" height="1012" style="stroke:none;stroke-width:1;" width="1049" x="0" y="0"/><text fill="#000000" font-family="Segoe UI" font-size="22" font-weight="bold" lengthAdjust="spacing" textLength="685.2979" x="180.3799" y="38.7402">&#1044;&#1074;&#1091;&#1093;&#1091;&#1088;&#1086;&#1074;&#1085;&#1077;&#1074;&#1099;&#1081; &#1087;&#1086;&#1090;&#1086;&#1082; &#1079;&#1072;&#1087;&#1088;&#1086;&#1089;&#1072; &#1089; &#1088;&#1072;&#1079;&#1076;&#1077;&#1083;&#1077;&#1085;&#1080;&#1077;&#1084; &#1086;&#1090;&#1074;&#1077;&#1090;&#1089;&#1090;&#1074;&#1077;&#1085;&#1085;&#1086;&#1089;&#1090;&#1080;</text><rect fill="#E8F5E9" height="950.1875" style="stroke:#000000;stroke-width:1;" width="563.3088" x="94.708" y="56.2617"/><text fill="#000000" font-family="Segoe UI" font-size="11" font-weight="bold" lengthAdjust="spacing" textLength="81.834" x="335.4454" y="68.1318">Access tier (&#1056;&#1060;)</text><rect fill="#E3F2FD" height="950.1875" style="stroke:#000000;stroke-width:1;" width="241.5417" x="670.0168" y="56.2617"/><text fill="#000000" font-family="Segoe UI" font-size="11" font-weight="bold" lengthAdjust="spacing" textLength="120.2212" x="730.6771" y="68.1318">Upstream tier (&#1074;&#1085;&#1077; &#1056;&#1060;)</text><g><title>&#1050;&#1083;&#1080;&#1077;&#1085;&#1090;</title><rect fill="#000000" fill-opacity="0.00000" height="767.6641" width="8" x="26.5903" y="145.5234"/><line style="stroke:#000000;stroke-width:1;" x1="30" x2="30" y1="145.5234" y2="913.1875"/></g><g><title>VIP</title><rect fill="#000000" fill-opacity="0.00000" height="767.6641" width="8" x="141.4155" y="145.5234"/><line style="stroke:#000000;stroke-width:1;" x1="144.708" x2="144.708" y1="145.5234" y2="913.1875"/></g><g><title>nginx SNI Router</title><rect fill="#000000" fill-opacity="0.00000" height="767.6641" width="8" x="256.2334" y="145.5234"/><line style="stroke:#000000;stroke-width:1;" x1="260.123" x2="260.123" y1="145.5234" y2="913.1875"/></g><g><title>Squid Access</title><rect fill="#000000" fill-opacity="0.00000" height="767.6641" width="8" x="372.8667" y="145.5234"/><line style="stroke:#000000;stroke-width:1;" x1="376.3438" x2="376.3438" y1="145.5234" y2="913.1875"/></g><g><title>access.log</title><rect fill="#000000" fill-opacity="0.00000" height="767.6641" width="8" x="497.1826" y="145.5234"/><line style="stroke:#000000;stroke-width:1;" x1="500.7737" x2="500.7737" y1="145.5234" y2="913.1875"/></g><g><title>CrowdSec</title><rect fill="#000000" fill-opacity="0.00000" height="767.6641" width="8" x="608.9248" y="145.5234"/><line style="stroke:#000000;stroke-width:1;" x1="612.8328" x2="612.8328" y1="145.5234" y2="913.1875"/></g><g><title>UFW Firewall</title><rect fill="#000000" fill-opacity="0.00000" height="767.6641" width="8" x="718.3679" y="145.5234"/><line style="stroke:#000000;stroke-width:1;" x1="722.0168" x2="722.0168" y1="145.5234" y2="913.1875"/></g><g><title>Squid Upstream</title><rect fill="#000000" fill-opacity="0.00000" height="767.6641" width="8" x="847.6746" y="145.5234"/><line style="stroke:#000000;stroke-width:1;" x1="850.7905" x2="850.7905" y1="145.5234" y2="913.1875"/></g><g><title>AI API</title><rect fill="#000000" fill-opacity="0.00000" height="767.6641" width="8" x="975.5676" y="145.5234"/><line style="stroke:#000000;stroke-width:1;" x1="978.9583" x2="978.9583" y1="145.5234" y2="913.1875"/></g><g class="participant participant-head" data-participant="client"><text fill="#000000" font-family="Segoe UI" font-size="11" lengthAdjust="spacing" textLength="35.1807" x="10" y="128.1318">&#1050;&#1083;&#1080;&#1077;&#1085;&#1090;</text><text fill="#000000" font-family="Segoe UI" font-size="11" lengthAdjust="spacing" textLength="22.8433" x="16.1687" y="142.7627">(IDE)</text><ellipse cx="30.5903" cy="64.2617" fill="#FFFFFF" rx="8" ry="8" style="stroke:#000000;stroke-width:1;"/><path d="M30.5903,72.2617 L30.5903,99.2617 M17.5903,80.2617 L43.5903,80.2617 M30.5903,99.2617 L17.5903,114.2617 M30.5903,99.2617 L43.5903,114.2617" fill="none" style="stroke:#000000;stroke-width:1;"/></g><g class="participant participant-tail" data-participant="client"><text fill="#000000" font-family="Segoe UI" font-size="11" lengthAdjust="spacing" textLength="35.1807" x="10" y="924.0576">&#1050;&#1083;&#1080;&#1077;&#1085;&#1090;</text><text fill="#000000" font-family="Segoe UI" font-size="11" lengthAdjust="spacing" textLength="22.8433" x="16.1687" y="938.6885">(IDE)</text><ellipse cx="30.5903" cy="950.4492" fill="#FFFFFF" rx="8" ry="8" style="stroke:#000000;stroke-width:1;"/><path d="M30.5903,958.4492 L30.5903,985.4492 M17.5903,966.4492 L43.5903,966.4492 M30.5903,985.4492 L17.5903,1000.4492 M30.5903,985.4492 L43.5903,1000.4492" fill="none" style="stroke:#000000;stroke-width:1;"/></g><g class="participant participant-head" data-participant="vip"><rect fill="#FFFFFF" height="43.2617" rx="2.5" ry="2.5" style="stroke:#000000;stroke-width:1;" width="73.415" x="108.708" y="101.2617"/><text fill="#000000" font-family="Segoe UI" font-size="11" lengthAdjust="spacing" textLength="15.9199" x="137.4556" y="120.1318">VIP</text><text fill="#000000" font-family="Segoe UI" font-size="11" lengthAdjust="spacing" textLength="59.415" x="115.708" y="134.7627">(Keepalived)</text></g><g class="participant participant-tail" data-participant="vip"><rect fill="#FFFFFF" height="43.2617" rx="2.5" ry="2.5" style="stroke:#000000;stroke-width:1;" width="73.415" x="108.708" y="912.1875"/><text fill="#000000" font-family="Segoe UI" font-size="11" lengthAdjust="spacing" textLength="15.9199" x="137.4556" y="931.0576">VIP</text><text fill="#000000" font-family="Segoe UI" font-size="11" lengthAdjust="spacing" textLength="59.415" x="115.708" y="945.6885">(Keepalived)</text></g><g class="participant participant-head" data-participant="nginx"><rect fill="#FFFFFF" height="43.2617" rx="2.5" ry="2.5" style="stroke:#000000;stroke-width:1;" width="96.2207" x="212.123" y="101.2617"/><text fill="#000000" font-family="Segoe UI" font-size="11" lengthAdjust="spacing" textLength="82.2207" x="219.123" y="120.1318">nginx SNI Router</text><text fill="#000000" font-family="Segoe UI" font-size="11" lengthAdjust="spacing" textLength="20.1738" x="250.1465" y="134.7627">:443</text></g><g class="participant participant-tail" data-participant="nginx"><rect fill="#FFFFFF" height="43.2617" rx="2.5" ry="2.5" style="stroke:#000000;stroke-width:1;" width="96.2207" x="212.123" y="912.1875"/><text fill="#000000" font-family="Segoe UI" font-size="11" lengthAdjust="spacing" textLength="82.2207" x="219.123" y="931.0576">nginx SNI Router</text><text fill="#000000" font-family="Segoe UI" font-size="11" lengthAdjust="spacing" textLength="20.1738" x="250.1465" y="945.6885">:443</text></g><g class="participant participant-head" data-participant="access"><rect fill="#FFFFFF" height="43.2617" rx="2.5" ry="2.5" style="stroke:#000000;stroke-width:1;" width="77.0459" x="338.3438" y="101.2617"/><text fill="#000000" font-family="Segoe UI" font-size="11" lengthAdjust="spacing" textLength="63.0459" x="345.3438" y="120.1318">Squid Access</text><text fill="#000000" font-family="Segoe UI" font-size="11" lengthAdjust="spacing" textLength="26.1035" x="363.8149" y="134.7627">:3128</text></g><g class="participant participant-tail" data-participant="access"><rect fill="#FFFFFF" height="43.2617" rx="2.5" ry="2.5" style="stroke:#000000;stroke-width:1;" width="77.0459" x="338.3438" y="912.1875"/><text fill="#000000" font-family="Segoe UI" font-size="11" lengthAdjust="spacing" textLength="63.0459" x="345.3438" y="931.0576">Squid Access</text><text fill="#000000" font-family="Segoe UI" font-size="11" lengthAdjust="spacing" textLength="26.1035" x="363.8149" y="945.6885">:3128</text></g><g class="participant participant-head" data-participant="log"><text fill="#000000" font-family="Segoe UI" font-size="11" lengthAdjust="spacing" textLength="48.8179" x="473.7737" y="142.7627">access.log</text><path d="M483.1826,94.8926 C483.1826,84.8926 501.1826,84.8926 501.1826,84.8926 C501.1826,84.8926 519.1826,84.8926 519.1826,94.8926 L519.1826,120.8926 C519.1826,130.8926 501.1826,130.8926 501.1826,130.8926 C501.1826,130.8926 483.1826,130.8926 483.1826,120.8926 L483.1826,94.8926" fill="#FFFFFF" style="stroke:#000000;stroke-width:1.5;"/><path d="M483.1826,94.8926 C483.1826,104.8926 501.1826,104.8926 501.1826,104.8926 C501.1826,104.8926 519.1826,104.8926 519.1826,94.8926" fill="none" style="stroke:#000000;stroke-width:1.5;"/></g><g class="participant participant-tail" data-participant="log"><text fill="#000000" font-family="Segoe UI" font-size="11" lengthAdjust="spacing" textLength="48.8179" x="473.7737" y="924.0576">access.log</text><path d="M483.1826,936.8184 C483.1826,926.8184 501.1826,926.8184 501.1826,926.8184 C501.1826,926.8184 519.1826,926.8184 519.1826,936.8184 L519.1826,962.8184 C519.1826,972.8184 501.1826,972.8184 501.1826,972.8184 C501.1826,972.8184 483.1826,972.8184 483.1826,962.8184 L483.1826,936.8184" fill="#FFFFFF" style="stroke:#000000;stroke-width:1.5;"/><path d="M483.1826,936.8184 C483.1826,946.8184 501.1826,946.8184 501.1826,946.8184 C501.1826,946.8184 519.1826,946.8184 519.1826,936.8184" fill="none" style="stroke:#000000;stroke-width:1.5;"/></g><g class="participant participant-head" data-participant="cs"><rect fill="#FFFFFF" height="28.6309" rx="2.5" ry="2.5" style="stroke:#000000;stroke-width:1;" width="62.1841" x="581.8328" y="115.8926"/><text fill="#000000" font-family="Segoe UI" font-size="11" lengthAdjust="spacing" textLength="48.1841" x="588.8328" y="134.7627">CrowdSec</text></g><g class="participant participant-tail" data-participant="cs"><rect fill="#FFFFFF" height="28.6309" rx="2.5" ry="2.5" style="stroke:#000000;stroke-width:1;" width="62.1841" x="581.8328" y="912.1875"/><text fill="#000000" font-family="Segoe UI" font-size="11" lengthAdjust="spacing" textLength="48.1841" x="588.8328" y="931.0576">CrowdSec</text></g><g class="participant participant-head" data-participant="ufw"><rect fill="#FFFFFF" height="28.6309" rx="2.5" ry="2.5" style="stroke:#000000;stroke-width:1;" width="76.7021" x="684.0168" y="115.8926"/><text fill="#000000" font-family="Segoe UI" font-size="11" lengthAdjust="spacing" textLength="62.7021" x="691.0168" y="134.7627">UFW Firewall</text></g><g class="participant participant-tail" data-participant="ufw"><rect fill="#FFFFFF" height="28.6309" rx="2.5" ry="2.5" style="stroke:#000000;stroke-width:1;" width="76.7021" x="684.0168" y="912.1875"/><text fill="#000000" font-family="Segoe UI" font-size="11" lengthAdjust="spacing" textLength="62.7021" x="691.0168" y="931.0576">UFW Firewall</text></g><g class="participant participant-head" data-participant="upstream"><rect fill="#FFFFFF" height="43.2617" rx="2.5" ry="2.5" style="stroke:#000000;stroke-width:1;" width="91.7681" x="805.7905" y="101.2617"/><text fill="#000000" font-family="Segoe UI" font-size="11" lengthAdjust="spacing" textLength="77.7681" x="812.7905" y="120.1318">Squid Upstream</text><text fill="#000000" font-family="Segoe UI" font-size="11" lengthAdjust="spacing" textLength="14.2441" x="844.5525" y="134.7627">:80</text></g><g class="participant participant-tail" data-participant="upstream"><rect fill="#FFFFFF" height="43.2617" rx="2.5" ry="2.5" style="stroke:#000000;stroke-width:1;" width="91.7681" x="805.7905" y="912.1875"/><text fill="#000000" font-family="Segoe UI" font-size="11" lengthAdjust="spacing" textLength="77.7681" x="812.7905" y="931.0576">Squid Upstream</text><text fill="#000000" font-family="Segoe UI" font-size="11" lengthAdjust="spacing" textLength="14.2441" x="844.5525" y="945.6885">:80</text></g><g class="participant participant-head" data-participant="api"><rect fill="#FFFFFF" height="28.6309" rx="2.5" ry="2.5" style="stroke:#000000;stroke-width:1;" width="43.2188" x="957.9583" y="115.8926"/><text fill="#000000" font-family="Segoe UI" font-size="11" lengthAdjust="spacing" textLength="29.2188" x="964.9583" y="134.7627">AI API</text></g><g class="participant participant-tail" data-participant="api"><rect fill="#FFFFFF" height="28.6309" rx="2.5" ry="2.5" style="stroke:#000000;stroke-width:1;" width="43.2188" x="957.9583" y="912.1875"/><text fill="#000000" font-family="Segoe UI" font-size="11" lengthAdjust="spacing" textLength="29.2188" x="964.9583" y="931.0576">AI API</text></g><rect fill="#FFFFFF" height="3" style="stroke:#FFFFFF;stroke-width:1;" width="1037.0576" x="5" y="175.8389"/><line style="stroke:#000000;stroke-width:0.5;" x1="5" x2="1042.0576" y1="175.8389" y2="175.8389"/><line style="stroke:#000000;stroke-width:0.5;" x1="5" x2="1042.0576" y1="178.8389" y2="178.8389"/><rect fill="#FFFFFF" height="22.6309" style="stroke:#000000;stroke-width:1;" width="128.6782" x="459.1897" y="165.5234"/><text fill="#000000" font-family="Segoe UI" font-size="11" font-weight="bold" lengthAdjust="spacing" textLength="111.6436" x="465.1897" y="181.3936">Access tier: &#1082;&#1086;&#1085;&#1090;&#1088;&#1086;&#1083;&#1100;</text><g class="message" data-participant-1="client" data-participant-2="vip"><polygon fill="#000000" points="133.4155,229.416,143.4155,233.416,133.4155,237.416,137.4155,233.416" style="stroke:#000000;stroke-width:1;"/><line style="stroke:#000000;stroke-width:1;" x1="30.5903" x2="139.4155" y1="233.416" y2="233.416"/><text fill="#000000" font-family="Segoe UI" font-size="11" lengthAdjust="spacing" textLength="84.6484" x="37.5903" y="214.0244">HTTPS proxy :443</text><text fill="#000000" font-family="Segoe UI" font-size="11" lengthAdjust="spacing" textLength="90.8252" x="37.5903" y="228.6553">(Proxy-Auth: Basic)</text></g><g class="message" data-participant-1="vip" data-participant-2="nginx"><polygon fill="#000000" points="248.2334,258.0469,258.2334,262.0469,248.2334,266.0469,252.2334,262.0469" style="stroke:#000000;stroke-width:1;"/><line style="stroke:#000000;stroke-width:1;" x1="145.4155" x2="254.2334" y1="262.0469" y2="262.0469"/><text fill="#000000" font-family="Segoe UI" font-size="11" lengthAdjust="spacing" textLength="78.7993" x="152.4155" y="257.2861">(VIP &#8594; MASTER)</text></g><g class="message" data-participant-1="nginx" data-participant-2="access"><polygon fill="#000000" points="364.8667,315.9395,374.8667,319.9395,364.8667,323.9395,368.8667,319.9395" style="stroke:#000000;stroke-width:1;"/><line style="stroke:#000000;stroke-width:1;" x1="260.2334" x2="370.8667" y1="319.9395" y2="319.9395"/><text fill="#000000" font-family="Segoe UI" font-size="11" lengthAdjust="spacing" textLength="53.8989" x="267.2334" y="285.917">SNI default</text><text fill="#000000" font-family="Segoe UI" font-size="11" lengthAdjust="spacing" textLength="69.6201" x="267.2334" y="300.5479">localhost:3128</text><text fill="#000000" font-family="Segoe UI" font-size="11" lengthAdjust="spacing" textLength="84.353" x="267.2334" y="315.1787">(PROXY protocol)</text></g><g class="message" data-participant-1="access" data-participant-2="access"><line style="stroke:#000000;stroke-width:1;" x1="376.8667" x2="418.8667" y1="363.2012" y2="363.2012"/><line style="stroke:#000000;stroke-width:1;" x1="418.8667" x2="418.8667" y1="363.2012" y2="376.2012"/><line style="stroke:#000000;stroke-width:1;" x1="377.8667" x2="418.8667" y1="376.2012" y2="376.2012"/><polygon fill="#000000" points="387.8667,372.2012,377.8667,376.2012,387.8667,380.2012,383.8667,376.2012" style="stroke:#000000;stroke-width:1;"/><text fill="#000000" font-family="Segoe UI" font-size="11" lengthAdjust="spacing" textLength="83.4614" x="383.8667" y="343.8096">&#1040;&#1091;&#1090;&#1077;&#1085;&#1090;&#1080;&#1092;&#1080;&#1082;&#1072;&#1094;&#1080;&#1103;</text><text fill="#000000" font-family="Segoe UI" font-size="11" lengthAdjust="spacing" textLength="83.5903" x="383.8667" y="358.4404">(basic_ncsa_auth)</text></g><g class="message" data-participant-1="access" data-participant-2="access"><line style="stroke:#000000;stroke-width:1;" x1="376.8667" x2="418.8667" y1="419.4629" y2="419.4629"/><line style="stroke:#000000;stroke-width:1;" x1="418.8667" x2="418.8667" y1="419.4629" y2="432.4629"/><line style="stroke:#000000;stroke-width:1;" x1="377.8667" x2="418.8667" y1="432.4629" y2="432.4629"/><polygon fill="#000000" points="387.8667,428.4629,377.8667,432.4629,387.8667,436.4629,383.8667,432.4629" style="stroke:#000000;stroke-width:1;"/><text fill="#000000" font-family="Segoe UI" font-size="11" lengthAdjust="spacing" textLength="70.4688" x="383.8667" y="400.0713">ACL &#1087;&#1088;&#1086;&#1074;&#1077;&#1088;&#1082;&#1072;</text><text fill="#000000" font-family="Segoe UI" font-size="11" lengthAdjust="spacing" textLength="90.3042" x="383.8667" y="414.7021">(allowed_domains)</text></g><g class="message" data-participant-1="access" data-participant-2="log"><polygon fill="#000000" points="489.1826,471.7246,499.1826,475.7246,489.1826,479.7246,493.1826,475.7246" style="stroke:#000000;stroke-width:1;"/><line style="stroke:#000000;stroke-width:1;" x1="376.8667" x2="495.1826" y1="475.7246" y2="475.7246"/><text fill="#000000" font-family="Segoe UI" font-size="11" lengthAdjust="spacing" textLength="95.5732" x="383.8667" y="456.333">&#1047;&#1072;&#1087;&#1080;&#1089;&#1100; &#1074; access.log</text><text fill="#000000" font-family="Segoe UI" font-size="11" lengthAdjust="spacing" textLength="100.3159" x="383.8667" y="470.9639">(IP, user, URL, status)</text></g><g class="message" data-participant-1="cs" data-participant-2="log"><polygon fill="#000000" points="512.1826,500.3555,502.1826,504.3555,512.1826,508.3555,508.1826,504.3555" style="stroke:#000000;stroke-width:1;"/><line style="stroke:#000000;stroke-width:1;" x1="506.1826" x2="611.9248" y1="504.3555" y2="504.3555"/><text fill="#000000" font-family="Segoe UI" font-size="11" lengthAdjust="spacing" textLength="87.7422" x="518.1826" y="499.5947">&#1052;&#1086;&#1085;&#1080;&#1090;&#1086;&#1088;&#1080;&#1085;&#1075; (tail)</text></g><rect fill="#FFFFFF" height="3" style="stroke:#FFFFFF;stroke-width:1;" width="1037.0576" x="5" y="532.6709"/><line style="stroke:#000000;stroke-width:0.5;" x1="5" x2="1042.0576" y1="532.6709" y2="532.6709"/><line style="stroke:#000000;stroke-width:0.5;" x1="5" x2="1042.0576" y1="535.6709" y2="535.6709"/><rect fill="#FFFFFF" height="22.6309" style="stroke:#000000;stroke-width:1;" width="149.0669" x="448.9954" y="522.3555"/><text fill="#000000" font-family="Segoe UI" font-size="11" font-weight="bold" lengthAdjust="spacing" textLength="132.0322" x="454.9954" y="538.2256">Upstream tier: &#1090;&#1088;&#1072;&#1085;&#1089;&#1087;&#1086;&#1088;&#1090;</text><g class="message" data-participant-1="access" data-participant-2="ufw"><polygon fill="#000000" points="710.3679,571.6172,720.3679,575.6172,710.3679,579.6172,714.3679,575.6172" style="stroke:#000000;stroke-width:1;"/><line style="stroke:#000000;stroke-width:1;" x1="376.8667" x2="716.3679" y1="575.6172" y2="575.6172"/><text fill="#000000" font-family="Segoe UI" font-size="11" lengthAdjust="spacing" textLength="71.355" x="383.8667" y="570.8564">cache_peer :80</text></g><g class="message" data-participant-1="ufw" data-participant-2="ufw"><line style="stroke:#000000;stroke-width:1;" x1="722.3679" x2="764.3679" y1="618.8789" y2="618.8789"/><line style="stroke:#000000;stroke-width:1;" x1="764.3679" x2="764.3679" y1="618.8789" y2="631.8789"/><line style="stroke:#000000;stroke-width:1;" x1="723.3679" x2="764.3679" y1="631.8789" y2="631.8789"/><polygon fill="#000000" points="733.3679,627.8789,723.3679,631.8789,733.3679,635.8789,729.3679,631.8789" style="stroke:#000000;stroke-width:1;"/><text fill="#000000" font-family="Segoe UI" font-size="11" lengthAdjust="spacing" textLength="61.9663" x="729.3679" y="599.4873">&#1055;&#1088;&#1086;&#1074;&#1077;&#1088;&#1082;&#1072; IP</text><text fill="#000000" font-family="Segoe UI" font-size="11" lengthAdjust="spacing" textLength="115.3066" x="729.3679" y="614.1182">(&#1090;&#1086;&#1083;&#1100;&#1082;&#1086; access-&#1087;&#1088;&#1086;&#1082;&#1089;&#1080;)</text></g><g class="message" data-participant-1="ufw" data-participant-2="upstream"><polygon fill="#000000" points="839.6746,656.5098,849.6746,660.5098,839.6746,664.5098,843.6746,660.5098" style="stroke:#000000;stroke-width:1;"/><line style="stroke:#000000;stroke-width:1;" x1="722.3679" x2="845.6746" y1="660.5098" y2="660.5098"/><text fill="#000000" font-family="Segoe UI" font-size="11" lengthAdjust="spacing" textLength="38.2046" x="729.3679" y="655.749">ACCEPT</text></g><g class="message" data-participant-1="upstream" data-participant-2="upstream"><line style="stroke:#000000;stroke-width:1;" x1="851.6746" x2="893.6746" y1="703.7715" y2="703.7715"/><line style="stroke:#000000;stroke-width:1;" x1="893.6746" x2="893.6746" y1="703.7715" y2="716.7715"/><line style="stroke:#000000;stroke-width:1;" x1="852.6746" x2="893.6746" y1="716.7715" y2="716.7715"/><polygon fill="#000000" points="862.6746,712.7715,852.6746,716.7715,862.6746,720.7715,858.6746,716.7715" style="stroke:#000000;stroke-width:1;"/><text fill="#000000" font-family="Segoe UI" font-size="11" lengthAdjust="spacing" textLength="110.2578" x="858.6746" y="684.3799">&#1059;&#1076;&#1072;&#1083;&#1077;&#1085;&#1080;&#1077; &#1079;&#1072;&#1075;&#1086;&#1083;&#1086;&#1074;&#1082;&#1086;&#1074;:</text><text fill="#000000" font-family="Segoe UI" font-size="11" lengthAdjust="spacing" textLength="103.1357" x="858.6746" y="699.0107">X-Forwarded-For, Via</text></g><g class="message" data-participant-1="upstream" data-participant-2="api"><polygon fill="#000000" points="967.5676,756.0332,977.5676,760.0332,967.5676,764.0332,971.5676,760.0332" style="stroke:#000000;stroke-width:1;"/><line style="stroke:#000000;stroke-width:1;" x1="851.6746" x2="973.5676" y1="760.0332" y2="760.0332"/><text fill="#000000" font-family="Segoe UI" font-size="11" lengthAdjust="spacing" textLength="54.5273" x="858.6746" y="740.6416">HTTPS :443</text><text fill="#000000" font-family="Segoe UI" font-size="11" lengthAdjust="spacing" textLength="103.8931" x="858.6746" y="755.2725">(&#1072;&#1085;&#1086;&#1085;&#1080;&#1084;&#1085;&#1099;&#1081; &#1079;&#1072;&#1087;&#1088;&#1086;&#1089;)</text></g><path d="M921,773.0332 L921,812.0332 L1037,812.0332 L1037,783.0332 L1027,773.0332 L921,773.0332" fill="#FFFFFF" style="stroke:#000000;stroke-width:1;"/><path d="M1027,773.0332 L1027,783.0332 L1037,783.0332 L1027,773.0332" fill="#FFFFFF" style="stroke:#000000;stroke-width:1;"/><text fill="#000000" font-family="Segoe UI" font-size="11" lengthAdjust="spacing" textLength="61.3701" x="927" y="789.9033">AI API &#1074;&#1080;&#1076;&#1080;&#1090;</text><text fill="#000000" font-family="Segoe UI" font-size="11" lengthAdjust="spacing" textLength="95.0576" x="927" y="804.5342">&#1090;&#1086;&#1083;&#1100;&#1082;&#1086; IP upstream</text><g class="message" data-participant-1="api" data-participant-2="upstream"><polygon fill="#000000" points="862.6746,833.9258,852.6746,837.9258,862.6746,841.9258,858.6746,837.9258" style="stroke:#000000;stroke-width:1;"/><line style="stroke:#000000;stroke-width:1;stroke-dasharray:2.0,2.0;" x1="856.6746" x2="978.5676" y1="837.9258" y2="837.9258"/><text fill="#000000" font-family="Segoe UI" font-size="11" lengthAdjust="spacing" textLength="28.8965" x="868.6746" y="833.165">&#1054;&#1090;&#1074;&#1077;&#1090;</text></g><g class="message" data-participant-1="upstream" data-participant-2="access"><polygon fill="#000000" points="387.8667,862.5566,377.8667,866.5566,387.8667,870.5566,383.8667,866.5566" style="stroke:#000000;stroke-width:1;"/><line style="stroke:#000000;stroke-width:1;stroke-dasharray:2.0,2.0;" x1="381.8667" x2="850.6746" y1="866.5566" y2="866.5566"/><text fill="#000000" font-family="Segoe UI" font-size="11" lengthAdjust="spacing" textLength="28.8965" x="393.8667" y="861.7959">&#1054;&#1090;&#1074;&#1077;&#1090;</text></g><g class="message" data-participant-1="access" data-participant-2="client"><polygon fill="#000000" points="41.5903,891.1875,31.5903,895.1875,41.5903,899.1875,37.5903,895.1875" style="stroke:#000000;stroke-width:1;"/><line style="stroke:#000000;stroke-width:1;stroke-dasharray:2.0,2.0;" x1="35.5903" x2="375.8667" y1="895.1875" y2="895.1875"/><text fill="#000000" font-family="Segoe UI" font-size="11" lengthAdjust="spacing" textLength="28.8965" x="47.5903" y="890.4268">&#1054;&#1090;&#1074;&#1077;&#1090;</text></g><!--SRC=[RLJjQXD15Fq_Jt5D_oJGYFqGQg12J1CCQWrDKYi4ocHtcWxTxgoxawRwgudQFmgA28A82le08MqnzlCLPb_19_7EJ98cePGqavbpxvrppxbpIswpNGQ1HxbFeXtk1pIakr2dpauZ54tVpGbFX31JoEk_COJBjcZJamNXorMA6H9brX0CgiN4pQ0oVyLWReuGoQN7G7rMlVXr_1O_1-fIzTI5Ei6TT-elg2jr6NTmynJK7zLLLneHjrKNuZRWkekxnuW-my-5wkF_Sp0HFNKIT-AsNU7HXGx3Ntr2g2EHHK9znIWTSH5tQdwok99F9O16u7YS-PBKnJuaiex3eWWaPo4arK_r6o4p-QN2tVmz0e2y97TuG7q9YVLY2RCyOYoW7jzZhassnuDfeD_W_ZwKLukm9fgIXJK_ixYuOD3cQ1fVVj7aBjYR87PXRdx9WAdPGRHB9QtJ2Djkjsvxec4G-3sTB1UAbbjcZcKQ4UQxW4mjsseGoP2XL0E-HWWOqLuep1TMfXDM2y-Wm4FMefvdaZQtMZSp66P73ajtB7ImCxh5H5Is2DbIqL8DE27Bop0cHmRKATe2jJEUEOlVm_8o8LOyID_NdOSCFAnKIcK8Gh7_4dIRKQAI_f7EDkLs1XxGY3ifeh4OOfN9G1ArX7-7d-19jbp9hwM8FK24RJ12j7m3GzTyJpZKsnQHDEBe4cjFDvxhgb8umakHGTXu0lKHtTwnxbFz-0qwyLHruqDSVy0CTNsnJT-9w2R5czwO8fjx37OWZDiFT08CHI54YxcRhjZ5EOx6Gz4GklGNFKXOg8rDKpsuTeqUWz8iD2CMpa9rxV4iH9BA9kPmnkE_wSPZFCubLktZ-WYIad9agbMQi546Z49TvDasmtmGTunIrxT2ns1MXphRR3DWw3pq1z6RepFrOv8bc5apxm8Ahuqm894UzECKY_LJeoJ32-cUvVAb2Y6ZhSbZzGjVa-xrQs8VdIDTnzJNbkjbQlv6kY325WrTvkhLBAnpEf4J7Jjoty1tkWUsSUeSks5Ujx4d3Lqc90EnXmsmqNO0K26CEDRjhlaJbD6aemaYEYGzHURxy1qSkzg41wy1GpNmU3124yV_0G00]--></g></svg>