<svg xmlns="http://www.w3.org/2000/svg" xmlns:xlink="http://www.w3.org/1999/xlink" contentStyleType="text/css" data-diagram-type="ACTIVITY" height="800px" preserveAspectRatio="none" style="width:626px;height:800px;background:#FEFEFE;" version="1.1" viewBox="0 0 626 800" width="626px" zoomAndPan="magnify"><title>&#1052;&#1077;&#1093;&#1072;&#1085;&#1080;&#1079;&#1084; &#1082;&#1077;&#1096;&#1080;&#1088;&#1086;&#1074;&#1072;&#1085;&#1080;&#1103; Squid (access-&#1091;&#1088;&#1086;&#1074;&#1077;&#1085;&#1100;)</title><defs/><g><rect fill="#FEFEFE" height="800" style="stroke:none;stroke-width:1;" width="626" x="0" y="0"/><text fill="#000000" font-family="Segoe UI" font-size="22" font-weight="bold" lengthAdjust="spacing" textLength="516.3232" x="53.7886" y="38.7402">&#1052;&#1077;&#1093;&#1072;&#1085;&#1080;&#1079;&#1084; &#1082;&#1077;&#1096;&#1080;&#1088;&#1086;&#1074;&#1072;&#1085;&#1080;&#1103; Squid (access-&#1091;&#1088;&#1086;&#1074;&#1077;&#1085;&#1100;)</text><ellipse cx="384.0211" cy="65.2617" fill="#FFFFFF" rx="10" ry="10" style="stroke:#000000;stroke-width:1;"/><rect fill="#FFFFFF" height="34.6309" rx="12.5" ry="12.5" style="stroke:#000000;stroke-width:1;" width="191.3916" x="288.3253" y="95.2617"/><text fill="#000000" font-family="Segoe UI" font-size="11" lengthAdjust="spacing" textLength="171.3916" x="298.3253" y="117.1318">Squid &#1087;&#1086;&#1083;&#1091;&#1095;&#1072;&#1077;&#1090; &#1079;&#1072;&#1087;&#1088;&#1086;&#1089; &#1086;&#1090; &#1082;&#1083;&#1080;&#1077;&#1085;&#1090;&#1072;</text><polygon fill="#FFFFFF" points="327.8287,149.8926,440.2134,149.8926,452.2134,161.8926,440.2134,173.8926,327.8287,173.8926,315.8287,161.8926,327.8287,149.8926" style="stroke:#000000;stroke-width:1;"/><text fill="#000000" font-family="Segoe UI" font-size="11" lengthAdjust="spacing" textLength="112.3848" x="327.8287" y="166.4473">enable_caching = true?</text><text fill="#000000" font-family="Segoe UI" font-size="11" lengthAdjust="spacing" textLength="11.6123" x="304.2164" y="159.1318">&#1076;&#1072;</text><text fill="#000000" font-family="Segoe UI" font-size="11" lengthAdjust="spacing" textLength="98.5864" x="452.2134" y="159.1318">&#1085;&#1077;&#1090; &#8212; pass-through</text><polygon fill="#FFFFFF" points="178.7201,183.8926,251.5521,183.8926,263.5521,198.5234,251.5521,213.1543,178.7201,213.1543,166.7201,198.5234,178.7201,183.8926" style="stroke:#000000;stroke-width:1;"/><text fill="#000000" font-family="Segoe UI" font-size="11" lengthAdjust="spacing" textLength="72.832" x="178.7201" y="195.7627">&#1047;&#1072;&#1087;&#1088;&#1086;&#1089; &#1074; &#1082;&#1101;&#1096;&#1077;</text><text fill="#000000" font-family="Segoe UI" font-size="11" lengthAdjust="spacing" textLength="51.3691" x="178.7201" y="210.3936">(TCP_HIT)?</text><text fill="#000000" font-family="Segoe UI" font-size="11" lengthAdjust="spacing" textLength="11.6123" x="155.1078" y="195.7627">&#1076;&#1072;</text><text fill="#000000" font-family="Segoe UI" font-size="11" lengthAdjust="spacing" textLength="81.4312" x="263.5521" y="195.7627">&#1085;&#1077;&#1090; &#8212; TCP_MISS</text><path d="M152.7988,223.1543 L152.7988,238.7852 L132.7988,242.7852 L152.7988,246.7852 L152.7988,262.416 A0,0 0 0 0 152.7988,262.416 L258.834,262.416 A0,0 0 0 0 258.834,262.416 L258.834,233.1543 L248.834,223.1543 L152.7988,223.1543 A0,0 0 0 0 152.7988,223.1543" fill="#FFFFFF" style="stroke:#000000;stroke-width:1;"/><path d="M248.834,223.1543 L248.834,233.1543 L258.834,233.1543 L248.834,223.1543" fill="#FFFFFF" style="stroke:#000000;stroke-width:1;"/><text fill="#000000" font-family="Segoe UI" font-size="11" lengthAdjust="spacing" textLength="76.1299" x="158.7988" y="240.0244">ufs disk storage</text><text fill="#000000" font-family="Segoe UI" font-size="11" lengthAdjust="spacing" textLength="85.0352" x="158.7988" y="254.6553">/var/spool/squid/</text><rect fill="#FFFFFF" height="34.6309" rx="12.5" ry="12.5" style="stroke:#000000;stroke-width:1;" width="126.7988" x="6" y="225.4697"/><text fill="#000000" font-family="Segoe UI" font-size="11" lengthAdjust="spacing" textLength="106.7988" x="16" y="247.3398">&#1054;&#1090;&#1076;&#1072;&#1090;&#1100; &#1086;&#1090;&#1074;&#1077;&#1090; &#1080;&#1079; &#1082;&#1101;&#1096;&#1072;</text><rect fill="#FFFFFF" height="49.2617" rx="12.5" ry="12.5" style="stroke:#000000;stroke-width:1;" width="107.8228" x="15.488" y="297.416"/><text fill="#000000" font-family="Segoe UI" font-size="11" lengthAdjust="spacing" textLength="87.8228" x="25.488" y="319.2861">&#1047;&#1072;&#1087;&#1080;&#1089;&#1072;&#1090;&#1100; TCP_HIT</text><text fill="#000000" font-family="Segoe UI" font-size="11" lengthAdjust="spacing" textLength="57.6587" x="25.488" y="333.917">&#1074; access.log</text><rect fill="#FFFFFF" height="63.8926" rx="12.5" ry="12.5" style="stroke:#000000;stroke-width:1;" width="112.7964" x="304.4746" y="223.1543"/><text fill="#000000" font-family="Segoe UI" font-size="11" lengthAdjust="spacing" textLength="90.1968" x="314.4746" y="245.0244">&#1055;&#1077;&#1088;&#1077;&#1089;&#1083;&#1072;&#1090;&#1100; &#1079;&#1072;&#1087;&#1088;&#1086;&#1089;</text><text fill="#000000" font-family="Segoe UI" font-size="11" lengthAdjust="spacing" textLength="92.7964" x="314.4746" y="259.6553">&#1085;&#1072; upstream &#1095;&#1077;&#1088;&#1077;&#1079;</text><text fill="#000000" font-family="Segoe UI" font-size="11" lengthAdjust="spacing" textLength="54.0977" x="314.4746" y="274.2861">cache_peer</text><rect fill="#FFFFFF" height="49.2617" rx="12.5" ry="12.5" style="stroke:#000000;stroke-width:1;" width="98.1279" x="311.8088" y="322.0469"/><text fill="#000000" font-family="Segoe UI" font-size="11" lengthAdjust="spacing" textLength="78.1279" x="321.8088" y="343.917">&#1055;&#1086;&#1083;&#1091;&#1095;&#1080;&#1090;&#1100; &#1086;&#1090;&#1074;&#1077;&#1090;</text><text fill="#000000" font-family="Segoe UI" font-size="11" lengthAdjust="spacing" textLength="59.7051" x="321.8088" y="358.5479">&#1086;&#1090; upstream</text><rect fill="#FFFFFF" height="63.8926" rx="12.5" ry="12.5" style="stroke:#000000;stroke-width:1;" width="144.0776" x="288.834" y="460.5166"/><text fill="#000000" font-family="Segoe UI" font-size="11" lengthAdjust="spacing" textLength="79.3525" x="298.834" y="482.3867">&#1057;&#1086;&#1093;&#1088;&#1072;&#1085;&#1080;&#1090;&#1100; &#1074; ufs</text><text fill="#000000" font-family="Segoe UI" font-size="11" lengthAdjust="spacing" textLength="124.0776" x="298.834" y="497.0176">(&#1076;&#1086; maximum_object_size</text><text fill="#000000" font-family="Segoe UI" font-size="11" lengthAdjust="spacing" textLength="34.375" x="298.834" y="511.6484">50 MB)</text><polygon fill="#FFFFFF" points="302.8328,391.3086,418.9128,391.3086,430.9128,413.2549,418.9128,435.2012,302.8328,435.2012,290.8328,413.2549,302.8328,391.3086" style="stroke:#000000;stroke-width:1;"/><text fill="#000000" font-family="Segoe UI" font-size="11" lengthAdjust="spacing" textLength="11.6123" x="364.8728" y="447.0713">&#1076;&#1072;</text><text fill="#000000" font-family="Segoe UI" font-size="11" lengthAdjust="spacing" textLength="102.7114" x="302.8328" y="403.1787">&#1054;&#1090;&#1074;&#1077;&#1090; &#1082;&#1077;&#1096;&#1080;&#1088;&#1091;&#1077;&#1084;&#1099;&#1081;?</text><text fill="#000000" font-family="Segoe UI" font-size="11" lengthAdjust="spacing" textLength="75.7109" x="302.8328" y="417.8096">(Cache-Control,</text><text fill="#000000" font-family="Segoe UI" font-size="11" lengthAdjust="spacing" textLength="116.0801" x="302.8328" y="432.4404">Expires, refresh_pattern)</text><text fill="#000000" font-family="Segoe UI" font-size="11" lengthAdjust="spacing" textLength="16.6128" x="430.9128" y="410.4941">&#1085;&#1077;&#1090;</text><polygon fill="#FFFFFF" points="360.8728,544.4092,372.8728,556.4092,360.8728,568.4092,348.8728,556.4092,360.8728,544.4092" style="stroke:#000000;stroke-width:1;"/><rect fill="#FFFFFF" height="34.6309" rx="12.5" ry="12.5" style="stroke:#000000;stroke-width:1;" width="127.1372" x="297.3042" y="588.4092"/><text fill="#000000" font-family="Segoe UI" font-size="11" lengthAdjust="spacing" textLength="107.1372" x="307.3042" y="610.2793">&#1054;&#1090;&#1076;&#1072;&#1090;&#1100; &#1086;&#1090;&#1074;&#1077;&#1090; &#1082;&#1083;&#1080;&#1077;&#1085;&#1090;&#1091;</text><rect fill="#FFFFFF" height="49.2617" rx="12.5" ry="12.5" style="stroke:#000000;stroke-width:1;" width="115.8149" x="302.9653" y="643.04"/><text fill="#000000" font-family="Segoe UI" font-size="11" lengthAdjust="spacing" textLength="95.8149" x="312.9653" y="664.9102">&#1047;&#1072;&#1087;&#1080;&#1089;&#1072;&#1090;&#1100; TCP_MISS</text><text fill="#000000" font-family="Segoe UI" font-size="11" lengthAdjust="spacing" textLength="57.6587" x="312.9653" y="679.541">&#1074; access.log</text><polygon fill="#FFFFFF" points="215.1361,698.3018,227.1361,710.3018,215.1361,722.3018,203.1361,710.3018,215.1361,698.3018" style="stroke:#000000;stroke-width:1;"/><rect fill="#FFFFFF" height="49.2617" rx="12.5" ry="12.5" style="stroke:#000000;stroke-width:1;" width="135.9888" x="484.9116" y="183.8926"/><text fill="#000000" font-family="Segoe UI" font-size="11" lengthAdjust="spacing" textLength="90.1968" x="494.9116" y="205.7627">&#1055;&#1077;&#1088;&#1077;&#1089;&#1083;&#1072;&#1090;&#1100; &#1079;&#1072;&#1087;&#1088;&#1086;&#1089;</text><text fill="#000000" font-family="Segoe UI" font-size="11" lengthAdjust="spacing" textLength="115.9888" x="494.9116" y="220.3936">&#1085;&#1072; upstream &#1085;&#1072;&#1087;&#1088;&#1103;&#1084;&#1091;&#1102;</text><rect fill="#FFFFFF" height="34.6309" rx="12.5" ry="12.5" style="stroke:#000000;stroke-width:1;" width="127.1372" x="489.3374" y="268.1543"/><text fill="#000000" font-family="Segoe UI" font-size="11" lengthAdjust="spacing" textLength="107.1372" x="499.3374" y="290.0244">&#1054;&#1090;&#1076;&#1072;&#1090;&#1100; &#1086;&#1090;&#1074;&#1077;&#1090; &#1082;&#1083;&#1080;&#1077;&#1085;&#1090;&#1091;</text><polygon fill="#FFFFFF" points="384.0211,728.3018,396.0211,740.3018,384.0211,752.3018,372.0211,740.3018,384.0211,728.3018" style="stroke:#000000;stroke-width:1;"/><ellipse cx="384.0211" cy="783.3018" fill="none" rx="11" ry="11" style="stroke:#000000;stroke-width:1;"/><ellipse cx="384.0211" cy="783.3018" fill="#FFFFFF" rx="6" ry="6" style="stroke:#000000;stroke-width:1;"/><line style="stroke:#000000;stroke-width:1;" x1="384.0211" x2="384.0211" y1="75.2617" y2="95.2617"/><polygon fill="#000000" points="380.0211,85.2617,384.0211,95.2617,388.0211,85.2617,384.0211,89.2617" style="stroke:#000000;stroke-width:1;"/><line style="stroke:#000000;stroke-width:1;" x1="69.3994" x2="69.3994" y1="260.1006" y2="297.416"/><polygon fill="#000000" points="65.3994,287.416,69.3994,297.416,73.3994,287.416,69.3994,291.416" style="stroke:#000000;stroke-width:1;"/><line style="stroke:#000000;stroke-width:1;" x1="360.8728" x2="360.8728" y1="287.0469" y2="322.0469"/><polygon fill="#000000" points="356.8728,312.0469,360.8728,322.0469,364.8728,312.0469,360.8728,316.0469" style="stroke:#000000;stroke-width:1;"/><line style="stroke:#000000;stroke-width:1;" x1="360.8728" x2="360.8728" y1="435.2012" y2="460.5166"/><polygon fill="#000000" points="356.8728,450.5166,360.8728,460.5166,364.8728,450.5166,360.8728,454.5166" style="stroke:#000000;stroke-width:1;"/><line style="stroke:#000000;stroke-width:1;" x1="430.9128" x2="442.9128" y1="413.2549" y2="413.2549"/><polygon fill="#000000" points="438.9128,477.4897,442.9128,487.4897,446.9128,477.4897,442.9128,481.4897" style="stroke:#000000;stroke-width:1;"/><line style="stroke:#000000;stroke-width:1;" x1="442.9128" x2="442.9128" y1="413.2549" y2="556.4092"/><line style="stroke:#000000;stroke-width:1;" x1="442.9128" x2="372.8728" y1="556.4092" y2="556.4092"/><polygon fill="#000000" points="382.8728,552.4092,372.8728,556.4092,382.8728,560.4092,378.8728,556.4092" style="stroke:#000000;stroke-width:1;"/><line style="stroke:#000000;stroke-width:1;" x1="360.8728" x2="360.8728" y1="524.4092" y2="544.4092"/><polygon fill="#000000" points="356.8728,534.4092,360.8728,544.4092,364.8728,534.4092,360.8728,538.4092" style="stroke:#000000;stroke-width:1;"/><line style="stroke:#000000;stroke-width:1;" x1="360.8728" x2="360.8728" y1="371.3086" y2="391.3086"/><polygon fill="#000000" points="356.8728,381.3086,360.8728,391.3086,364.8728,381.3086,360.8728,385.3086" style="stroke:#000000;stroke-width:1;"/><line style="stroke:#000000;stroke-width:1;" x1="360.8728" x2="360.8728" y1="568.4092" y2="588.4092"/><polygon fill="#000000" points="356.8728,578.4092,360.8728,588.4092,364.8728,578.4092,360.8728,582.4092" style="stroke:#000000;stroke-width:1;"/><line style="stroke:#000000;stroke-width:1;" x1="360.8728" x2="360.8728" y1="623.04" y2="643.04"/><polygon fill="#000000" points="356.8728,633.04,360.8728,643.04,364.8728,633.04,360.8728,637.04" style="stroke:#000000;stroke-width:1;"/><line style="stroke:#000000;stroke-width:1;" x1="166.7201" x2="69.3994" y1="198.5234" y2="198.5234"/><line style="stroke:#000000;stroke-width:1;" x1="69.3994" x2="69.3994" y1="198.5234" y2="225.4697"/><polygon fill="#000000" points="65.3994,215.4697,69.3994,225.4697,73.3994,215.4697,69.3994,219.4697" style="stroke:#000000;stroke-width:1;"/><line style="stroke:#000000;stroke-width:1;" x1="263.5521" x2="360.8728" y1="198.5234" y2="198.5234"/><line style="stroke:#000000;stroke-width:1;" x1="360.8728" x2="360.8728" y1="198.5234" y2="223.1543"/><polygon fill="#000000" points="356.8728,213.1543,360.8728,223.1543,364.8728,213.1543,360.8728,217.1543" style="stroke:#000000;stroke-width:1;"/><line style="stroke:#000000;stroke-width:1;" x1="69.3994" x2="69.3994" y1="346.6777" y2="710.3018"/><line style="stroke:#000000;stroke-width:1;" x1="69.3994" x2="203.1361" y1="710.3018" y2="710.3018"/><polygon fill="#000000" points="193.1361,706.3018,203.1361,710.3018,193.1361,714.3018,197.1361,710.3018" style="stroke:#000000;stroke-width:1;"/><line style="stroke:#000000;stroke-width:1;" x1="360.8728" x2="360.8728" y1="692.3018" y2="710.3018"/><line style="stroke:#000000;stroke-width:1;" x1="360.8728" x2="227.1361" y1="710.3018" y2="710.3018"/><polygon fill="#000000" points="237.1361,706.3018,227.1361,710.3018,237.1361,714.3018,233.1361,710.3018" style="stroke:#000000;stroke-width:1;"/><line style="stroke:#000000;stroke-width:1;" x1="552.906" x2="552.906" y1="233.1543" y2="268.1543"/><polygon fill="#000000" points="548.906,258.1543,552.906,268.1543,556.906,258.1543,552.906,262.1543" style="stroke:#000000;stroke-width:1;"/><line style="stroke:#000000;stroke-width:1;" x1="315.8287" x2="215.1361" y1="161.8926" y2="161.8926"/><line style="stroke:#000000;stroke-width:1;" x1="215.1361" x2="215.1361" y1="161.8926" y2="183.8926"/><polygon fill="#000000" points="211.1361,173.8926,215.1361,183.8926,219.1361,173.8926,215.1361,177.8926" style="stroke:#000000;stroke-width:1;"/><line style="stroke:#000000;stroke-width:1;" x1="452.2134" x2="552.906" y1="161.8926" y2="161.8926"/><line style="stroke:#000000;stroke-width:1;" x1="552.906" x2="552.906" y1="161.8926" y2="183.8926"/><polygon fill="#000000" points="548.906,173.8926,552.906,183.8926,556.906,173.8926,552.906,177.8926" style="stroke:#000000;stroke-width:1;"/><line style="stroke:#000000;stroke-width:1;" x1="215.1361" x2="215.1361" y1="722.3018" y2="740.3018"/><line style="stroke:#000000;stroke-width:1;" x1="215.1361" x2="372.0211" y1="740.3018" y2="740.3018"/><polygon fill="#000000" points="362.0211,736.3018,372.0211,740.3018,362.0211,744.3018,366.0211,740.3018" style="stroke:#000000;stroke-width:1;"/><line style="stroke:#000000;stroke-width:1;" x1="552.906" x2="552.906" y1="302.7852" y2="740.3018"/><line style="stroke:#000000;stroke-width:1;" x1="552.906" x2="396.0211" y1="740.3018" y2="740.3018"/><polygon fill="#000000" points="406.0211,736.3018,396.0211,740.3018,406.0211,744.3018,402.0211,740.3018" style="stroke:#000000;stroke-width:1;"/><line style="stroke:#000000;stroke-width:1;" x1="384.0211" x2="384.0211" y1="129.8926" y2="149.8926"/><polygon fill="#000000" points="380.0211,139.8926,384.0211,149.8926,388.0211,139.8926,384.0211,143.8926" style="stroke:#000000;stroke-width:1;"/><line style="stroke:#000000;stroke-width:1;" x1="384.0211" x2="384.0211" y1="752.3018" y2="772.3018"/><polygon fill="#000000" points="380.0211,762.3018,384.0211,772.3018,388.0211,762.3018,384.0211,766.3018" style="stroke:#000000;stroke-width:1;"/><!--SRC=[bLFTQXD15BxVfpZMcooqnbvuqo05Gukvg0YfTu5bifdiZjdCh3EpKhpA3qN1Qcy4RwJY6uHWQBHD-meph-2JU6PtKuCfIWb9c3ddVESxttVcdevfdqAQ4COzrMCy9PBqeKt2NYH5nZjraGW9z_Vtt6SbeqEx94lqlk3w6K64ZIQD18KNZOtRavhi3ONjRS_JJ2SKp1SpiyTcOXPcRixD9PYVUF7EpEt0N9bf4R2dq7oLiGvKI1XIfRRik0pFpCAU-9wdD97QytQAD7EDmGjCUelrCpi2H9wOQrTZXu0_8zVc0Zkw-f6Pr3oFTQ52EMadD0X963CUmMFGCgExFg0s72hckvdu7e3BD9zN0QS8PpyWwrcBLmxhpuEdZKD_hGvWnvnXDppQaJt9URWH71kSVOc1P5mk5vg2P56iyoD0rbNGOQe7IWj98bfULryJMLMf44bLkU6h-JtbdHoXR9kpHHs7PUkIOuiZzKBI1uc8N6EQA8gK5pcjNuDFUUf1ezbSJl0L8mFy3b6_SeuLSH5nOIQGfKfBYiQZ0tcwEMzn9oiDKafbxGPhQTFyBqKGnxcqn2aASk7F_eXsiobsZ1qkxNlpOnSDgBi-MtNSDIcIpHRVEqgPf6eJ9EtYVnoaH6igkRzka2Fr3JiV8-TYyt9QKoS-8cFY5VJ94Ujd_K2qNz9G1mhtkSKVFOI39tv1SrL2V-a6w_vd0rRsqOvh__3DcN6RSNcFDVjIWiz5n_Y4ezYHkQk1xkHYzXG57jkFDUyEGnISy76ArFiD]--></g></svg>