<svg xmlns="http://www.w3.org/2000/svg" xmlns:xlink="http://www.w3.org/1999/xlink" contentStyleType="text/css" data-diagram-type="SEQUENCE" height="820px" preserveAspectRatio="none" style="width:805px;height:820px;background:#FEFEFE;" version="1.1" viewBox="0 0 805 820" width="805px" zoomAndPan="magnify"><title>&#1052;&#1077;&#1093;&#1072;&#1085;&#1080;&#1079;&#1084; &#1072;&#1091;&#1090;&#1077;&#1085;&#1090;&#1080;&#1092;&#1080;&#1082;&#1072;&#1094;&#1080;&#1080; Basic Auth (access-&#1087;&#1088;&#1086;&#1082;&#1089;&#1080;)</title><defs/><g><rect fill="#FEFEFE" height="820" style="stroke:none;stroke-width:1;" width="805" x="0" y="0"/><text fill="#000000" font-family="Segoe UI" font-size="22" font-weight="bold" lengthAdjust="spacing" textLength="585.707" x="108.2118" y="38.7402">&#1052;&#1077;&#1093;&#1072;&#1085;&#1080;&#1079;&#1084; &#1072;&#1091;&#1090;&#1077;&#1085;&#1090;&#1080;&#1092;&#1080;&#1082;&#1072;&#1094;&#1080;&#1080; Basic Auth (access-&#1087;&#1088;&#1086;&#1082;&#1089;&#1080;)</text><rect fill="#FFFFFF" height="259.9395" style="stroke:#000000;stroke-width:1;" width="682.3743" x="15" y="448.832"/><rect fill="#FFFFFF" height="109.1543" style="stroke:none;stroke-width:1;" width="682.3743" x="15" y="599.6172"/><g><title>&#1050;&#1083;&#1080;&#1077;&#1085;&#1090;</title><rect fill="#000000" fill-opacity="0.00000" height="580.248" width="8" x="58.0044" y="145.5234"/><line style="stroke:#000000;stroke-width:1;" x1="62" x2="62" y1="145.5234" y2="725.7715"/></g><g><title>Squid Access</title><rect fill="#000000" fill-opacity="0.00000" height="580.248" width="8" x="389.7305" y="145.5234"/><line style="stroke:#000000;stroke-width:1;" x1="393.2075" x2="393.2075" y1="145.5234" y2="725.7715"/></g><g><title>basic_ncsa_auth</title><rect fill="#000000" fill-opacity="0.00000" height="580.248" width="8" x="627.8984" y="145.5234"/><line style="stroke:#000000;stroke-width:1;" x1="631.4226" x2="631.4226" y1="145.5234" y2="725.7715"/></g><g><title>/etc/squid/passwd</title><rect fill="#000000" fill-opacity="0.00000" height="580.248" width="8" x="741.2524" y="145.5234"/><line style="stroke:#000000;stroke-width:1;" x1="744.3743" x2="744.3743" y1="145.5234" y2="725.7715"/></g><g class="participant participant-head" data-participant="client"><text fill="#000000" font-family="Segoe UI" font-size="11" lengthAdjust="spacing" textLength="35.1807" x="41.4141" y="128.1318">&#1050;&#1083;&#1080;&#1077;&#1085;&#1090;</text><text fill="#000000" font-family="Segoe UI" font-size="11" lengthAdjust="spacing" textLength="68.0088" x="25" y="142.7627">(IDE/&#1073;&#1088;&#1072;&#1091;&#1079;&#1077;&#1088;)</text><ellipse cx="62.0044" cy="64.2617" fill="#FFFFFF" rx="8" ry="8" style="stroke:#000000;stroke-width:1;"/><path d="M62.0044,72.2617 L62.0044,99.2617 M49.0044,80.2617 L75.0044,80.2617 M62.0044,99.2617 L49.0044,114.2617 M62.0044,99.2617 L75.0044,114.2617" fill="none" style="stroke:#000000;stroke-width:1;"/></g><g class="participant participant-tail" data-participant="client"><text fill="#000000" font-family="Segoe UI" font-size="11" lengthAdjust="spacing" textLength="35.1807" x="41.4141" y="736.6416">&#1050;&#1083;&#1080;&#1077;&#1085;&#1090;</text><text fill="#000000" font-family="Segoe UI" font-size="11" lengthAdjust="spacing" textLength="68.0088" x="25" y="751.2725">(IDE/&#1073;&#1088;&#1072;&#1091;&#1079;&#1077;&#1088;)</text><ellipse cx="62.0044" cy="763.0332" fill="#FFFFFF" rx="8" ry="8" style="stroke:#000000;stroke-width:1;"/><path d="M62.0044,771.0332 L62.0044,798.0332 M49.0044,779.0332 L75.0044,779.0332 M62.0044,798.0332 L49.0044,813.0332 M62.0044,798.0332 L75.0044,813.0332" fill="none" style="stroke:#000000;stroke-width:1;"/></g><g class="participant participant-head" data-participant="squid"><rect fill="#FFFFFF" height="43.2617" rx="2.5" ry="2.5" style="stroke:#000000;stroke-width:1;" width="77.0459" x="355.2075" y="101.2617"/><text fill="#000000" font-family="Segoe UI" font-size="11" lengthAdjust="spacing" textLength="63.0459" x="362.2075" y="120.1318">Squid Access</text><text fill="#000000" font-family="Segoe UI" font-size="11" lengthAdjust="spacing" textLength="26.1035" x="380.6787" y="134.7627">:3128</text></g><g class="participant participant-tail" data-participant="squid"><rect fill="#FFFFFF" height="43.2617" rx="2.5" ry="2.5" style="stroke:#000000;stroke-width:1;" width="77.0459" x="355.2075" y="724.7715"/><text fill="#000000" font-family="Segoe UI" font-size="11" lengthAdjust="spacing" textLength="63.0459" x="362.2075" y="743.6416">Squid Access</text><text fill="#000000" font-family="Segoe UI" font-size="11" lengthAdjust="spacing" textLength="26.1035" x="380.6787" y="758.2725">:3128</text></g><g class="participant participant-head" data-participant="auth"><rect fill="#FFFFFF" height="43.2617" rx="2.5" ry="2.5" style="stroke:#000000;stroke-width:1;" width="90.9517" x="586.4226" y="101.2617"/><text fill="#000000" font-family="Segoe UI" font-size="11" lengthAdjust="spacing" textLength="76.9517" x="593.4226" y="120.1318">basic_ncsa_auth</text><text fill="#000000" font-family="Segoe UI" font-size="11" lengthAdjust="spacing" textLength="37.3237" x="613.2366" y="134.7627">(helper)</text></g><g class="participant participant-tail" data-participant="auth"><rect fill="#FFFFFF" height="43.2617" rx="2.5" ry="2.5" style="stroke:#000000;stroke-width:1;" width="90.9517" x="586.4226" y="724.7715"/><text fill="#000000" font-family="Segoe UI" font-size="11" lengthAdjust="spacing" textLength="76.9517" x="593.4226" y="743.6416">basic_ncsa_auth</text><text fill="#000000" font-family="Segoe UI" font-size="11" lengthAdjust="spacing" textLength="37.3237" x="613.2366" y="758.2725">(helper)</text></g><g class="participant participant-head" data-participant="passwd"><text fill="#000000" font-family="Segoe UI" font-size="11" lengthAdjust="spacing" textLength="89.7563" x="697.3743" y="128.1318">/etc/squid/passwd</text><text fill="#000000" font-family="Segoe UI" font-size="11" lengthAdjust="spacing" textLength="37.5278" x="723.4885" y="142.7627">(bcrypt)</text><path d="M727.2524,80.2617 C727.2524,70.2617 745.2524,70.2617 745.2524,70.2617 C745.2524,70.2617 763.2524,70.2617 763.2524,80.2617 L763.2524,106.2617 C763.2524,116.2617 745.2524,116.2617 745.2524,116.2617 C745.2524,116.2617 727.2524,116.2617 727.2524,106.2617 L727.2524,80.2617" fill="#FFFFFF" style="stroke:#000000;stroke-width:1.5;"/><path d="M727.2524,80.2617 C727.2524,90.2617 745.2524,90.2617 745.2524,90.2617 C745.2524,90.2617 763.2524,90.2617 763.2524,80.2617" fill="none" style="stroke:#000000;stroke-width:1.5;"/></g><g class="participant participant-tail" data-participant="passwd"><text fill="#000000" font-family="Segoe UI" font-size="11" lengthAdjust="spacing" textLength="89.7563" x="697.3743" y="736.6416">/etc/squid/passwd</text><text fill="#000000" font-family="Segoe UI" font-size="11" lengthAdjust="spacing" textLength="37.5278" x="723.4885" y="751.2725">(bcrypt)</text><path d="M727.2524,764.0332 C727.2524,754.0332 745.2524,754.0332 745.2524,754.0332 C745.2524,754.0332 763.2524,754.0332 763.2524,764.0332 L763.2524,790.0332 C763.2524,800.0332 745.2524,800.0332 745.2524,800.0332 C745.2524,800.0332 727.2524,800.0332 727.2524,790.0332 L727.2524,764.0332" fill="#FFFFFF" style="stroke:#000000;stroke-width:1.5;"/><path d="M727.2524,764.0332 C727.2524,774.0332 745.2524,774.0332 745.2524,774.0332 C745.2524,774.0332 763.2524,774.0332 763.2524,764.0332" fill="none" style="stroke:#000000;stroke-width:1.5;"/></g><rect fill="#FFFFFF" height="3" style="stroke:#FFFFFF;stroke-width:1;" width="793.1306" x="5" y="175.8389"/><line style="stroke:#000000;stroke-width:0.5;" x1="5" x2="798.1306" y1="175.8389" y2="175.8389"/><line style="stroke:#000000;stroke-width:0.5;" x1="5" x2="798.1306" y1="178.8389" y2="178.8389"/><rect fill="#FFFFFF" height="22.6309" style="stroke:#000000;stroke-width:1;" width="188.7002" x="307.2152" y="165.5234"/><text fill="#000000" font-family="Segoe UI" font-size="11" font-weight="bold" lengthAdjust="spacing" textLength="171.6655" x="313.2152" y="181.3936">&#1055;&#1077;&#1088;&#1074;&#1099;&#1081; &#1079;&#1072;&#1087;&#1088;&#1086;&#1089; (&#1073;&#1077;&#1079; credentials)</text><g class="message" data-participant-1="client" data-participant-2="squid"><polygon fill="#000000" points="381.7305,214.7852,391.7305,218.7852,381.7305,222.7852,385.7305,218.7852" style="stroke:#000000;stroke-width:1;"/><line style="stroke:#000000;stroke-width:1;" x1="62.0044" x2="387.7305" y1="218.7852" y2="218.7852"/><text fill="#000000" font-family="Segoe UI" font-size="11" lengthAdjust="spacing" textLength="159.6396" x="69.0044" y="214.0244">CONNECT api.anthropic.com:443</text></g><g class="message" data-participant-1="squid" data-participant-2="client"><polygon fill="#000000" points="73.0044,258.0469,63.0044,262.0469,73.0044,266.0469,69.0044,262.0469" style="stroke:#000000;stroke-width:1;"/><line style="stroke:#000000;stroke-width:1;stroke-dasharray:2.0,2.0;" x1="67.0044" x2="392.7305" y1="262.0469" y2="262.0469"/><text fill="#000000" font-family="Segoe UI" font-size="11" lengthAdjust="spacing" textLength="197.2749" x="79.0044" y="242.6553">HTTP 407 Proxy Authentication Required</text><text fill="#000000" font-family="Segoe UI" font-size="11" lengthAdjust="spacing" textLength="307.7261" x="79.0044" y="257.2861">(Proxy-Authenticate: Basic realm="Squid Proxy Authentication")</text></g><rect fill="#FFFFFF" height="3" style="stroke:#FFFFFF;stroke-width:1;" width="793.1306" x="5" y="290.3623"/><line style="stroke:#000000;stroke-width:0.5;" x1="5" x2="798.1306" y1="290.3623" y2="290.3623"/><line style="stroke:#000000;stroke-width:0.5;" x1="5" x2="798.1306" y1="293.3623" y2="293.3623"/><rect fill="#FFFFFF" height="22.6309" style="stroke:#000000;stroke-width:1;" width="195.2744" x="303.9281" y="280.0469"/><text fill="#000000" font-family="Segoe UI" font-size="11" font-weight="bold" lengthAdjust="spacing" textLength="178.2397" x="309.9281" y="295.917">&#1055;&#1086;&#1074;&#1090;&#1086;&#1088;&#1085;&#1099;&#1081; &#1079;&#1072;&#1087;&#1088;&#1086;&#1089; (&#1089; credentials)</text><g class="message" data-participant-1="client" data-participant-2="squid"><polygon fill="#000000" points="381.7305,343.9395,391.7305,347.9395,381.7305,351.9395,385.7305,347.9395" style="stroke:#000000;stroke-width:1;"/><line style="stroke:#000000;stroke-width:1;" x1="62.0044" x2="387.7305" y1="347.9395" y2="347.9395"/><text fill="#000000" font-family="Segoe UI" font-size="11" lengthAdjust="spacing" textLength="159.6396" x="69.0044" y="328.5479">CONNECT api.anthropic.com:443</text><text fill="#000000" font-family="Segoe UI" font-size="11" lengthAdjust="spacing" textLength="230.0493" x="69.0044" y="343.1787">Proxy-Authorization: Basic &lt;base64(user:pass)&gt;</text></g><g class="message" data-participant-1="squid" data-participant-2="auth"><polygon fill="#000000" points="619.8984,372.5703,629.8984,376.5703,619.8984,380.5703,623.8984,376.5703" style="stroke:#000000;stroke-width:1;"/><line style="stroke:#000000;stroke-width:1;" x1="393.7305" x2="625.8984" y1="376.5703" y2="376.5703"/><text fill="#000000" font-family="Segoe UI" font-size="11" lengthAdjust="spacing" textLength="69.5771" x="400.7305" y="371.8096">user password</text></g><g class="message" data-participant-1="auth" data-participant-2="passwd"><polygon fill="#000000" points="733.2524,401.2012,743.2524,405.2012,733.2524,409.2012,737.2524,405.2012" style="stroke:#000000;stroke-width:1;"/><line style="stroke:#000000;stroke-width:1;" x1="631.8984" x2="739.2524" y1="405.2012" y2="405.2012"/><text fill="#000000" font-family="Segoe UI" font-size="11" lengthAdjust="spacing" textLength="57.1968" x="638.8984" y="400.4404">lookup user</text></g><g class="message" data-participant-1="passwd" data-participant-2="auth"><polygon fill="#000000" points="642.8984,429.832,632.8984,433.832,642.8984,437.832,638.8984,433.832" style="stroke:#000000;stroke-width:1;"/><line style="stroke:#000000;stroke-width:1;stroke-dasharray:2.0,2.0;" x1="636.8984" x2="744.2524" y1="433.832" y2="433.832"/><text fill="#000000" font-family="Segoe UI" font-size="11" lengthAdjust="spacing" textLength="56.6167" x="648.8984" y="429.0713">bcrypt hash</text></g><path d="M15,448.832 L73.3257,448.832 L73.3257,455.4629 L63.3257,465.4629 L15,465.4629 L15,448.832" fill="#FFFFFF" style="stroke:#000000;stroke-width:1;"/><rect fill="none" height="259.9395" style="stroke:#000000;stroke-width:1;" width="682.3743" x="15" y="448.832"/><text fill="#000000" font-family="Segoe UI" font-size="11" font-weight="bold" lengthAdjust="spacing" textLength="13.3257" x="30" y="461.7021">alt</text><text fill="#000000" font-family="Segoe UI" font-size="11" font-weight="bold" lengthAdjust="spacing" textLength="93.5645" x="88.3257" y="462.7021">[&#1055;&#1072;&#1088;&#1086;&#1083;&#1100; &#1074;&#1077;&#1088;&#1085;&#1099;&#1081;]</text><g class="message" data-participant-1="auth" data-participant-2="squid"><polygon fill="#000000" points="404.7305,482.0938,394.7305,486.0938,404.7305,490.0938,400.7305,486.0938" style="stroke:#000000;stroke-width:1;"/><line style="stroke:#000000;stroke-width:1;stroke-dasharray:2.0,2.0;" x1="398.7305" x2="630.8984" y1="486.0938" y2="486.0938"/><text fill="#000000" font-family="Segoe UI" font-size="11" lengthAdjust="spacing" textLength="14.6738" x="410.7305" y="481.333">OK</text></g><g class="message" data-participant-1="squid" data-participant-2="squid"><line style="stroke:#000000;stroke-width:1;" x1="393.7305" x2="435.7305" y1="529.3555" y2="529.3555"/><line style="stroke:#000000;stroke-width:1;" x1="435.7305" x2="435.7305" y1="529.3555" y2="542.3555"/><line style="stroke:#000000;stroke-width:1;" x1="394.7305" x2="435.7305" y1="542.3555" y2="542.3555"/><polygon fill="#000000" points="404.7305,538.3555,394.7305,542.3555,404.7305,546.3555,400.7305,542.3555" style="stroke:#000000;stroke-width:1;"/><text fill="#000000" font-family="Segoe UI" font-size="11" lengthAdjust="spacing" textLength="71.9619" x="400.7305" y="509.9639">&#1055;&#1088;&#1086;&#1074;&#1077;&#1088;&#1082;&#1072; ACL</text><text fill="#000000" font-family="Segoe UI" font-size="11" lengthAdjust="spacing" textLength="224.168" x="400.7305" y="524.5947">(allowed_domains / allowed_domain_patterns)</text></g><g class="message" data-participant-1="squid" data-participant-2="client"><polygon fill="#000000" points="73.0044,577.3018,63.0044,581.3018,73.0044,585.3018,69.0044,581.3018" style="stroke:#000000;stroke-width:1;"/><line style="stroke:#000000;stroke-width:1;stroke-dasharray:2.0,2.0;" x1="67.0044" x2="392.7305" y1="581.3018" y2="581.3018"/><text fill="#000000" font-family="Segoe UI" font-size="11" lengthAdjust="spacing" textLength="162.5884" x="79.0044" y="576.541">HTTP 200 Connection established</text></g><path d="M398,555.3555 L398,594.3555 L572,594.3555 L572,565.3555 L562,555.3555 L398,555.3555" fill="#FFFFFF" style="stroke:#000000;stroke-width:1;"/><path d="M562,555.3555 L562,565.3555 L572,565.3555 L562,555.3555" fill="#FFFFFF" style="stroke:#000000;stroke-width:1;"/><text fill="#000000" font-family="Segoe UI" font-size="11" lengthAdjust="spacing" textLength="153.7637" x="404" y="572.2256">CONNECT-&#1090;&#1091;&#1085;&#1085;&#1077;&#1083;&#1100; &#1091;&#1089;&#1090;&#1072;&#1085;&#1086;&#1074;&#1083;&#1077;&#1085;</text><text fill="#000000" font-family="Segoe UI" font-size="11" lengthAdjust="spacing" textLength="82.3174" x="404" y="586.8564">(TLS end-to-end)</text><line style="stroke:#000000;stroke-width:1;stroke-dasharray:2.0,2.0;" x1="15" x2="697.3743" y1="600.6172" y2="600.6172"/><text fill="#000000" font-family="Segoe UI" font-size="11" font-weight="bold" lengthAdjust="spacing" textLength="106.2456" x="20" y="612.4873">[&#1055;&#1072;&#1088;&#1086;&#1083;&#1100; &#1085;&#1077;&#1074;&#1077;&#1088;&#1085;&#1099;&#1081;]</text><g class="message" data-participant-1="auth" data-participant-2="squid"><polygon fill="#000000" points="404.7305,632.8789,394.7305,636.8789,404.7305,640.8789,400.7305,636.8789" style="stroke:#000000;stroke-width:1;"/><line style="stroke:#000000;stroke-width:1;stroke-dasharray:2.0,2.0;" x1="398.7305" x2="630.8984" y1="636.8789" y2="636.8789"/><text fill="#000000" font-family="Segoe UI" font-size="11" lengthAdjust="spacing" textLength="18.7236" x="410.7305" y="632.1182">ERR</text></g><g class="message" data-participant-1="squid" data-participant-2="client"><polygon fill="#000000" points="73.0044,679.1406,63.0044,683.1406,73.0044,687.1406,69.0044,683.1406" style="stroke:#000000;stroke-width:1;"/><line style="stroke:#000000;stroke-width:1;stroke-dasharray:2.0,2.0;" x1="67.0044" x2="392.7305" y1="683.1406" y2="683.1406"/><text fill="#000000" font-family="Segoe UI" font-size="11" lengthAdjust="spacing" textLength="46.2988" x="79.0044" y="678.3799">HTTP 407</text></g><path d="M398,649.8789 L398,702.8789 L548,702.8789 L548,659.8789 L538,649.8789 L398,649.8789" fill="#FFFFFF" style="stroke:#000000;stroke-width:1;"/><path d="M538,649.8789 L538,659.8789 L548,659.8789 L538,649.8789" fill="#FFFFFF" style="stroke:#000000;stroke-width:1;"/><text fill="#000000" font-family="Segoe UI" font-size="11" lengthAdjust="spacing" textLength="99.7251" x="404" y="666.749">&#1053;&#1077;&#1091;&#1076;&#1072;&#1095;&#1085;&#1072;&#1103; &#1087;&#1086;&#1087;&#1099;&#1090;&#1082;&#1072;</text><text fill="#000000" font-family="Segoe UI" font-size="11" lengthAdjust="spacing" textLength="129.0996" x="404" y="681.3799">&#1079;&#1072;&#1087;&#1080;&#1089;&#1099;&#1074;&#1072;&#1077;&#1090;&#1089;&#1103; &#1074; access.log</text><text fill="#000000" font-family="Segoe UI" font-size="11" lengthAdjust="spacing" textLength="98.334" x="404" y="696.0107">&#8594; CrowdSec &#1072;&#1085;&#1072;&#1083;&#1080;&#1079;</text><!--SRC=[fLJTJXD15BwVfpZMc_PYAJ-DciQIO2tHI83GUjUa6MR7xeJjpBep3S8L1SKBJ4oyD1fUeJGsL11uXTbNy4ayEzjQ4A8NfcctEVETSxxlV7FsdWbuXqCKKY69tX8oeZ7jm2PbM-rOTQLVLQ6AuVvoBVrSG_Zy5Us6Pbb9iqgnGgxEsuh3o-Uvkq5riSjXReuG8qp8mNwnm-ITxTiBExAdzWVOVdAGxDkXlS3VKV8MmsSOEyJd29vGBHWiTKq0USeOrzgpLycUlRHdIS-E2eHGPf1cpdwsvvZXgZHb_ldJMj6U812BOvTXibV80TN0Gi6b8KZI22OYAWtoVzqLFYovwarPNfYRV-ImEetVX6wcT5gIQTgYo0aR1JoCU9mLJqF4fuOY3ETIv8OLNP5YHBNUzX6-oUATo6JmB4X8fGBsEALe1ycH_Gx8jv-9J7gGjoSewXHOp7raBcYe2r2f498f0MynumbbgAwjhjQg3Q2Hc46sGQmYmMQOwfHBfGMIeJp4ZpFByApHM8VIx4DOZzMR7JVbj0MZHYW96nmpi2koTkVUjNDU7ZiJSnfsAkCHtbKcLvW8l4Hv-wXf3oswBHE__oknAQSyLInsNVy9qSUf9mzA-QxcSJcTV65nCf95PnnMJyyoLrJi4nV4mymcF0wLskf63aN6GM-Qd3aB0TK1NihGf9BxxgQU9n_03fp1JZc1BCUx9cpj1KP_yvb4xR4haENYKi1ITGNje66ejhdVybK7brT34Mv6MX4rXiTI5wP5R_a-FpiBLIKbPyvjhl7QXa87tCSagGo7MBG3Cnswb-pZBbtWP-WauTRsqD1qaLEAv-dk8Rd6IXsuz3sZF7mK20zn5sxE8gtmZtdKDZR-mXtlx9yaxLSiU62_OP_tsA2VV0HxXGslaYCaYRDhokp2uIkcXrq7-7-8YdefS03PksKcLEsc_7du2QgnslRhd87JrtVlbbE2WiWl]--></g></svg>