<svg xmlns="http://www.w3.org/2000/svg" xmlns:xlink="http://www.w3.org/1999/xlink" contentStyleType="text/css" data-diagram-type="ACTIVITY" height="805px" preserveAspectRatio="none" style="width:1302px;height:805px;background:#FEFEFE;" version="1.1" viewBox="0 0 1302 805" width="1302px" zoomAndPan="magnify"><title>CrowdSec IPS &#8212; &#1082;&#1086;&#1085;&#1074;&#1077;&#1081;&#1077;&#1088; &#1086;&#1073;&#1085;&#1072;&#1088;&#1091;&#1078;&#1077;&#1085;&#1080;&#1103; &#1080; &#1073;&#1083;&#1086;&#1082;&#1080;&#1088;&#1086;&#1074;&#1082;&#1080;</title><defs/><g><rect fill="#FEFEFE" height="805" style="stroke:none;stroke-width:1;" width="1302" x="0" y="0"/><text fill="#000000" font-family="Segoe UI" font-size="22" font-weight="bold" lengthAdjust="spacing" textLength="590.2402" x="354.4502" y="38.7402">CrowdSec IPS &#8212; &#1082;&#1086;&#1085;&#1074;&#1077;&#1081;&#1077;&#1088; &#1086;&#1073;&#1085;&#1072;&#1088;&#1091;&#1078;&#1077;&#1085;&#1080;&#1103; &#1080; &#1073;&#1083;&#1086;&#1082;&#1080;&#1088;&#1086;&#1074;&#1082;&#1080;</text><rect fill="#FFFFFF" height="14.6309" style="stroke:#FFFFFF;stroke-width:1;" width="1279.1406" x="10" y="56.5225"/><ellipse cx="80.1245" cy="86.1533" fill="#FFFFFF" rx="10" ry="10" style="stroke:#000000;stroke-width:1;"/><path d="M164.249,113.8379 L164.249,136.7842 L144.249,140.7842 L164.249,144.7842 L164.249,167.7305 A0,0 0 0 0 164.249,167.7305 L289.7168,167.7305 A0,0 0 0 0 289.7168,167.7305 L289.7168,123.8379 L279.7168,113.8379 L164.249,113.8379 A0,0 0 0 0 164.249,113.8379" fill="#FFFFFF" style="stroke:#000000;stroke-width:1;"/><path d="M279.7168,113.8379 L279.7168,123.8379 L289.7168,123.8379 L279.7168,113.8379" fill="#FFFFFF" style="stroke:#000000;stroke-width:1;"/><text fill="#000000" font-family="Segoe UI" font-size="11" lengthAdjust="spacing" textLength="72.0317" x="170.249" y="130.708">IP, &#1084;&#1077;&#1090;&#1086;&#1076;, URL,</text><text fill="#000000" font-family="Segoe UI" font-size="11" lengthAdjust="spacing" textLength="82.0059" x="170.249" y="145.3389">&#1089;&#1090;&#1072;&#1090;&#1091;&#1089; (200/407),</text><text fill="#000000" font-family="Segoe UI" font-size="11" lengthAdjust="spacing" textLength="104.4678" x="170.249" y="159.9697">username, timestamp</text><rect fill="#FFFFFF" height="49.2617" rx="12.5" ry="12.5" style="stroke:#000000;stroke-width:1;" width="128.249" x="16" y="116.1533"/><text fill="#000000" font-family="Segoe UI" font-size="11" lengthAdjust="spacing" textLength="108.249" x="26" y="138.0234">&#1047;&#1072;&#1087;&#1080;&#1089;&#1100; HTTP-&#1079;&#1072;&#1087;&#1088;&#1086;&#1089;&#1072;</text><text fill="#000000" font-family="Segoe UI" font-size="11" lengthAdjust="spacing" textLength="57.6587" x="26" y="152.6543">&#1074; access.log</text><line style="stroke:#000000;stroke-width:1;" x1="10" x2="10" y1="56.5225" y2="798.4551"/><rect fill="#FFFFFF" height="49.2617" rx="12.5" ry="12.5" style="stroke:#000000;stroke-width:1;" width="134.0068" x="431.4966" y="187.7305"/><text fill="#000000" font-family="Segoe UI" font-size="11" lengthAdjust="spacing" textLength="87.8604" x="441.4966" y="209.6006">&#1063;&#1090;&#1077;&#1085;&#1080;&#1077; access.log</text><text fill="#000000" font-family="Segoe UI" font-size="11" lengthAdjust="spacing" textLength="114.0068" x="441.4966" y="224.2314">(acquis.yaml, tail mode)</text><rect fill="#FFFFFF" height="49.2617" rx="12.5" ry="12.5" style="stroke:#000000;stroke-width:1;" width="132.9434" x="432.0283" y="256.9922"/><text fill="#000000" font-family="Segoe UI" font-size="11" lengthAdjust="spacing" textLength="75.6841" x="442.0283" y="278.8623">&#1055;&#1072;&#1088;&#1089;&#1080;&#1085;&#1075; &#1087;&#1086;&#1083;&#1077;&#1081;</text><text fill="#000000" font-family="Segoe UI" font-size="11" lengthAdjust="spacing" textLength="112.9434" x="442.0283" y="293.4932">(IP, &#1084;&#1077;&#1090;&#1086;&#1076;, &#1089;&#1090;&#1072;&#1090;&#1091;&#1089;, user)</text><rect fill="#FFFFFF" height="49.2617" rx="12.5" ry="12.5" style="stroke:#000000;stroke-width:1;" width="141.6016" x="427.6992" y="326.2539"/><text fill="#000000" font-family="Segoe UI" font-size="11" lengthAdjust="spacing" textLength="121.6016" x="437.6992" y="348.124">&#1055;&#1088;&#1080;&#1084;&#1077;&#1085;&#1077;&#1085;&#1080;&#1077; &#1089;&#1094;&#1077;&#1085;&#1072;&#1088;&#1080;&#1077;&#1074;</text><text fill="#000000" font-family="Segoe UI" font-size="11" lengthAdjust="spacing" textLength="68.7822" x="437.6992" y="362.7549">&#1086;&#1073;&#1085;&#1072;&#1088;&#1091;&#1078;&#1077;&#1085;&#1080;&#1103;</text><path d="M563.416,385.5156 L563.416,454.0391 L777.9902,454.0391 L777.9902,395.5156 L767.9902,385.5156 L563.416,385.5156" fill="#FFFFFF" style="stroke:#000000;stroke-width:1;"/><path d="M767.9902,385.5156 L767.9902,395.5156 L777.9902,395.5156 L767.9902,385.5156" fill="#FFFFFF" style="stroke:#000000;stroke-width:1;"/><text fill="#000000" font-family="Segoe UI" font-size="11" lengthAdjust="spacing" textLength="105.6548" x="569.416" y="402.3857">&#1055;&#1088;&#1080;&#1084;&#1077;&#1088;&#1099; &#1087;&#1072;&#1090;&#1090;&#1077;&#1088;&#1085;&#1086;&#1074;:</text><text fill="#000000" font-family="Segoe UI" font-size="11" lengthAdjust="spacing" textLength="170.9351" x="569.416" y="417.0166">&#8226; N &#215; 407 &#1079;&#1072; T &#1089;&#1077;&#1082;&#1091;&#1085;&#1076; (brute-force)</text><text fill="#000000" font-family="Segoe UI" font-size="11" lengthAdjust="spacing" textLength="193.5742" x="569.416" y="431.6475">&#8226; &#1042;&#1099;&#1089;&#1086;&#1082;&#1072;&#1103; &#1095;&#1072;&#1089;&#1090;&#1086;&#1090;&#1072; &#1079;&#1072;&#1087;&#1088;&#1086;&#1089;&#1086;&#1074; (rate limit)</text><text fill="#000000" font-family="Segoe UI" font-size="11" lengthAdjust="spacing" textLength="183.3423" x="569.416" y="446.2783">&#8226; &#1057;&#1082;&#1072;&#1085;&#1080;&#1088;&#1086;&#1074;&#1072;&#1085;&#1080;&#1077; URL (scan detection)</text><polygon fill="#FFFFFF" points="445.584,454.0391,551.416,454.0391,563.416,466.0391,551.416,478.0391,445.584,478.0391,433.584,466.0391,445.584,454.0391" style="stroke:#000000;stroke-width:1;"/><text fill="#000000" font-family="Segoe UI" font-size="11" lengthAdjust="spacing" textLength="105.832" x="445.584" y="470.5938">&#1055;&#1072;&#1090;&#1090;&#1077;&#1088;&#1085; &#1086;&#1073;&#1085;&#1072;&#1088;&#1091;&#1078;&#1077;&#1085;?</text><text fill="#000000" font-family="Segoe UI" font-size="11" lengthAdjust="spacing" textLength="11.6123" x="421.9717" y="463.2783">&#1076;&#1072;</text><text fill="#000000" font-family="Segoe UI" font-size="11" lengthAdjust="spacing" textLength="16.6128" x="563.416" y="463.2783">&#1085;&#1077;&#1090;</text><rect fill="#FFFFFF" height="49.2617" rx="12.5" ry="12.5" style="stroke:#000000;stroke-width:1;" width="111.2549" x="300.7168" y="498.0391"/><text fill="#000000" font-family="Segoe UI" font-size="11" lengthAdjust="spacing" textLength="91.2549" x="310.7168" y="519.9092">&#1057;&#1086;&#1079;&#1076;&#1072;&#1085;&#1080;&#1077; decision</text><text fill="#000000" font-family="Segoe UI" font-size="11" lengthAdjust="spacing" textLength="83.6118" x="310.7168" y="534.54">(ban IP, duration)</text><line style="stroke:#000000;stroke-width:1;" x1="294.7168" x2="294.7168" y1="56.5225" y2="798.4551"/><path d="M1069.0598,385.5156 L1069.0598,454.0391 L1283.634,454.0391 L1283.634,395.5156 L1273.634,385.5156 L1069.0598,385.5156" fill="#FFFFFF" style="stroke:#000000;stroke-width:1;"/><path d="M1273.634,385.5156 L1273.634,395.5156 L1283.634,395.5156 L1273.634,385.5156" fill="#FFFFFF" style="stroke:#000000;stroke-width:1;"/><text fill="#000000" font-family="Segoe UI" font-size="11" lengthAdjust="spacing" textLength="105.6548" x="1075.0598" y="402.3857">&#1055;&#1088;&#1080;&#1084;&#1077;&#1088;&#1099; &#1087;&#1072;&#1090;&#1090;&#1077;&#1088;&#1085;&#1086;&#1074;:</text><text fill="#000000" font-family="Segoe UI" font-size="11" lengthAdjust="spacing" textLength="170.9351" x="1075.0598" y="417.0166">&#8226; N &#215; 407 &#1079;&#1072; T &#1089;&#1077;&#1082;&#1091;&#1085;&#1076; (brute-force)</text><text fill="#000000" font-family="Segoe UI" font-size="11" lengthAdjust="spacing" textLength="193.5742" x="1075.0598" y="431.6475">&#8226; &#1042;&#1099;&#1089;&#1086;&#1082;&#1072;&#1103; &#1095;&#1072;&#1089;&#1090;&#1086;&#1090;&#1072; &#1079;&#1072;&#1087;&#1088;&#1086;&#1089;&#1086;&#1074; (rate limit)</text><text fill="#000000" font-family="Segoe UI" font-size="11" lengthAdjust="spacing" textLength="183.3423" x="1075.0598" y="446.2783">&#8226; &#1057;&#1082;&#1072;&#1085;&#1080;&#1088;&#1086;&#1074;&#1072;&#1085;&#1080;&#1077; URL (scan detection)</text><rect fill="#FFFFFF" height="49.2617" rx="12.5" ry="12.5" style="stroke:#000000;stroke-width:1;" width="118.855" x="793.0347" y="567.3008"/><text fill="#000000" font-family="Segoe UI" font-size="11" lengthAdjust="spacing" textLength="98.855" x="803.0347" y="589.1709">&#1055;&#1086;&#1083;&#1091;&#1095;&#1077;&#1085;&#1080;&#1077; decision</text><text fill="#000000" font-family="Segoe UI" font-size="11" lengthAdjust="spacing" textLength="86.5283" x="803.0347" y="603.8018">&#1086;&#1090; CrowdSec LAPI</text><path d="M935.9341,641.5625 L935.9341,657.1934 L915.9341,661.1934 L935.9341,665.1934 L935.9341,680.8242 A0,0 0 0 0 935.9341,680.8242 L1090.0942,680.8242 A0,0 0 0 0 1090.0942,680.8242 L1090.0942,651.5625 L1080.0942,641.5625 L935.9341,641.5625 A0,0 0 0 0 935.9341,641.5625" fill="#FFFFFF" style="stroke:#000000;stroke-width:1;"/><path d="M1080.0942,641.5625 L1080.0942,651.5625 L1090.0942,651.5625 L1080.0942,641.5625" fill="#FFFFFF" style="stroke:#000000;stroke-width:1;"/><text fill="#000000" font-family="Segoe UI" font-size="11" lengthAdjust="spacing" textLength="123.793" x="941.9341" y="658.4326">nft add element inet filter</text><text fill="#000000" font-family="Segoe UI" font-size="11" lengthAdjust="spacing" textLength="133.1602" x="941.9341" y="673.0635">crowdsec-blacklists { &lt;IP&gt; }</text><rect fill="#FFFFFF" height="49.2617" rx="12.5" ry="12.5" style="stroke:#000000;stroke-width:1;" width="126.9438" x="788.9902" y="636.5625"/><text fill="#000000" font-family="Segoe UI" font-size="11" lengthAdjust="spacing" textLength="106.9438" x="798.9902" y="658.4326">&#1044;&#1086;&#1073;&#1072;&#1074;&#1083;&#1077;&#1085;&#1080;&#1077; &#1087;&#1088;&#1072;&#1074;&#1080;&#1083;&#1072;</text><text fill="#000000" font-family="Segoe UI" font-size="11" lengthAdjust="spacing" textLength="79.1431" x="798.9902" y="673.0635">DROP &#1074; nftables</text><rect fill="#FFFFFF" height="34.6309" rx="12.5" ry="12.5" style="stroke:#000000;stroke-width:1;" width="103.7568" x="800.5837" y="705.8242"/><text fill="#000000" font-family="Segoe UI" font-size="11" lengthAdjust="spacing" textLength="83.7568" x="810.5837" y="727.6943">IP &#1079;&#1072;&#1073;&#1083;&#1086;&#1082;&#1080;&#1088;&#1086;&#1074;&#1072;&#1085;</text><ellipse cx="852.4622" cy="771.4551" fill="none" rx="11" ry="11" style="stroke:#000000;stroke-width:1;"/><ellipse cx="852.4622" cy="771.4551" fill="#FFFFFF" rx="6" ry="6" style="stroke:#000000;stroke-width:1;"/><rect fill="#FFFFFF" height="49.2617" rx="12.5" ry="12.5" style="stroke:#000000;stroke-width:1;" width="91.4624" x="1110.0942" y="498.0391"/><text fill="#000000" font-family="Segoe UI" font-size="11" lengthAdjust="spacing" textLength="71.4624" x="1120.0942" y="519.9092">&#1055;&#1088;&#1086;&#1076;&#1086;&#1083;&#1078;&#1077;&#1085;&#1080;&#1077;</text><text fill="#000000" font-family="Segoe UI" font-size="11" lengthAdjust="spacing" textLength="66.8809" x="1120.0942" y="534.54">&#1084;&#1086;&#1085;&#1080;&#1090;&#1086;&#1088;&#1080;&#1085;&#1075;&#1072;</text><ellipse cx="1155.8254" cy="578.3008" fill="none" rx="11" ry="11" style="stroke:#000000;stroke-width:1;"/><ellipse cx="1155.8254" cy="578.3008" fill="#FFFFFF" rx="6" ry="6" style="stroke:#000000;stroke-width:1;"/><line style="stroke:#000000;stroke-width:1;" x1="782.9902" x2="782.9902" y1="56.5225" y2="798.4551"/><line style="stroke:#000000;stroke-width:1;" x1="1288.634" x2="1288.634" y1="56.5225" y2="798.4551"/><line style="stroke:#000000;stroke-width:1;" x1="80.1245" x2="80.1245" y1="96.1533" y2="116.1533"/><polygon fill="#000000" points="76.1245,106.1533,80.1245,116.1533,84.1245,106.1533,80.1245,110.1533" style="stroke:#000000;stroke-width:1;"/><line style="stroke:#000000;stroke-width:1;" x1="498.5" x2="498.5" y1="236.9922" y2="256.9922"/><polygon fill="#000000" points="494.5,246.9922,498.5,256.9922,502.5,246.9922,498.5,250.9922" style="stroke:#000000;stroke-width:1;"/><line style="stroke:#000000;stroke-width:1;" x1="498.5" x2="498.5" y1="306.2539" y2="326.2539"/><polygon fill="#000000" points="494.5,316.2539,498.5,326.2539,502.5,316.2539,498.5,320.2539" style="stroke:#000000;stroke-width:1;"/><line style="stroke:#000000;stroke-width:1;" x1="433.584" x2="356.3442" y1="466.0391" y2="466.0391"/><line style="stroke:#000000;stroke-width:1;" x1="356.3442" x2="356.3442" y1="466.0391" y2="498.0391"/><polygon fill="#000000" points="352.3442,488.0391,356.3442,498.0391,360.3442,488.0391,356.3442,492.0391" style="stroke:#000000;stroke-width:1;"/><line style="stroke:#000000;stroke-width:1;" x1="498.5" x2="498.5" y1="375.5156" y2="454.0391"/><polygon fill="#000000" points="494.5,444.0391,498.5,454.0391,502.5,444.0391,498.5,448.0391" style="stroke:#000000;stroke-width:1;"/><line style="stroke:#000000;stroke-width:1;" x1="852.4622" x2="852.4622" y1="616.5625" y2="636.5625"/><polygon fill="#000000" points="848.4622,626.5625,852.4622,636.5625,856.4622,626.5625,852.4622,630.5625" style="stroke:#000000;stroke-width:1;"/><line style="stroke:#000000;stroke-width:1;" x1="852.4622" x2="852.4622" y1="685.8242" y2="705.8242"/><polygon fill="#000000" points="848.4622,695.8242,852.4622,705.8242,856.4622,695.8242,852.4622,699.8242" style="stroke:#000000;stroke-width:1;"/><line style="stroke:#000000;stroke-width:1;" x1="852.4622" x2="852.4622" y1="740.4551" y2="760.4551"/><polygon fill="#000000" points="848.4622,750.4551,852.4622,760.4551,856.4622,750.4551,852.4622,754.4551" style="stroke:#000000;stroke-width:1;"/><line style="stroke:#000000;stroke-width:1;" x1="1155.8254" x2="1155.8254" y1="547.3008" y2="567.3008"/><polygon fill="#000000" points="1151.8254,557.3008,1155.8254,567.3008,1159.8254,557.3008,1155.8254,561.3008" style="stroke:#000000;stroke-width:1;"/><line style="stroke:#000000;stroke-width:1;" x1="80.1245" x2="80.1245" y1="165.415" y2="172.7305"/><line style="stroke:#000000;stroke-width:1;" x1="80.1245" x2="498.5" y1="172.7305" y2="172.7305"/><line style="stroke:#000000;stroke-width:1;" x1="498.5" x2="498.5" y1="172.7305" y2="187.7305"/><polygon fill="#000000" points="494.5,177.7305,498.5,187.7305,502.5,177.7305,498.5,181.7305" style="stroke:#000000;stroke-width:1;"/><line style="stroke:#000000;stroke-width:1;" x1="356.3442" x2="356.3442" y1="547.3008" y2="552.3008"/><line style="stroke:#000000;stroke-width:1;" x1="356.3442" x2="852.4622" y1="552.3008" y2="552.3008"/><line style="stroke:#000000;stroke-width:1;" x1="852.4622" x2="852.4622" y1="552.3008" y2="567.3008"/><polygon fill="#000000" points="848.4622,557.3008,852.4622,567.3008,856.4622,557.3008,852.4622,561.3008" style="stroke:#000000;stroke-width:1;"/><line style="stroke:#000000;stroke-width:1;" x1="563.416" x2="1155.8254" y1="466.0391" y2="466.0391"/><line style="stroke:#000000;stroke-width:1;" x1="1155.8254" x2="1155.8254" y1="466.0391" y2="498.0391"/><polygon fill="#000000" points="1151.8254,488.0391,1155.8254,498.0391,1159.8254,488.0391,1155.8254,492.0391" style="stroke:#000000;stroke-width:1;"/><text fill="#000000" font-family="Segoe UI" font-size="11" lengthAdjust="spacing" textLength="63.0459" x="120.8354" y="68.3926">Squid Access</text><text fill="#000000" font-family="Segoe UI" font-size="11" lengthAdjust="spacing" textLength="80.4751" x="498.616" y="68.3926">CrowdSec Agent</text><text fill="#000000" font-family="Segoe UI" font-size="11" lengthAdjust="spacing" textLength="81.415" x="995.1046" y="68.3926">nftables Bouncer</text><!--SRC=[RLH1JnD15BxlhtZYfKqAWZ4nQOq6KM8JWWs56vVfxhHCcCxYxZH6hKbR4ZbWOc98E1AzU5rhYnLeFVW7Ply2lyHlfj8M93rizytxtlk-xxtPEtg7rpdjIIQK5-yAjSSYLgSAytThKTXGmKeemuZkhZwtlvcCW5TPG-hLKEbrXWfpPLuBEMqLvsvFAektd9QMF4yBBJcjHE7heCnzAfRATDaw8dDcHcPekgPlVfb-sYAyVaSWILlflZb5U6W6wISo0qBy7ATdU6_XsRN_FAzPVjKG0ItxFe_ZfXTh5calRuvDOduZivr-f1URcwLvyzD6B39jcsHRcIunXrcGOQtWgL1pYaHjHti4SZao5w3JGPzUZhOsrd88erW7n3hfVjgcpFt5nNiF5XzcxKaZvf627JdIeix1eRxdSHMGhGgA4zNBDQvq4_I-ePAJPlepDBPLXlcG4o-yONM9Oan8geS1pnQ0EN6cj84PcXy4TIFu0Tk0kabubcdEiHjNWFo1pKE5g-v8_U1U4dVODrruS-iC2fudgfHnF3gMFm33M-Rr94lOBeNCdacoSEUQjqHJ6i0SMY4pzUnWyoxjilMLrkdFCS5aijEZJP15WpCq6feUPIfHG_FvQXZvF3k1cC_f8TBidYJOc_G03-l6o3f2rxO0hIWJCP2JeYxqJ8ql5krKZpSj-MSM5e4oiSyKLbnpNujGMTHar4HvO4VeqfjW0kwB68aOKmL0EwgWWQuM2qk9cgggMKNoc9xYvlayQhew9tQ-6E31P5JJIbRDz2wjBPUA1OSvSjD8mFXyWd9oRMY081R_sSRB4a7vLTV2_nF24R4W82xnaL2QXEAQga9g7hbpttQEkJzVaVXWI17hcDxHesBfCRs_OKUnDFRyvjs5ExPnh4FS51bpRClGxczshDrbzTo6drufWUmBzx4Ok76snXV19DCwAX1Lxoy0]--></g></svg>