<svg xmlns="http://www.w3.org/2000/svg" xmlns:xlink="http://www.w3.org/1999/xlink" contentStyleType="text/css" data-diagram-type="STATE" height="728px" preserveAspectRatio="none" style="width:609px;height:728px;background:#FEFEFE;" version="1.1" viewBox="0 0 609 728" width="609px" zoomAndPan="magnify"><title>Upstream failover &#8212; userhash rehash</title><defs/><g><rect fill="#FEFEFE" height="728" style="stroke:none;stroke-width:1;" width="609" x="0" y="0"/><text fill="#000000" font-family="Segoe UI" font-size="22" font-weight="bold" lengthAdjust="spacing" textLength="385.8379" x="107.2544" y="38.7402">Upstream failover &#8212; userhash rehash</text><path d="M206,142.2617 L371.2144,142.2617 A12.5,12.5 0 0 1 383.7144,154.7617 L383.7144,181.5234 L193.5,181.5234 L193.5,154.7617 A12.5,12.5 0 0 1 206,142.2617" fill="#C8E6C9" style="stroke:#C8E6C9;stroke-width:1;"/><path d="M193.5,181.5234 L383.7144,181.5234 L383.7144,269.5469 A12.5,12.5 0 0 1 371.2144,282.0469 L206,282.0469 A12.5,12.5 0 0 1 193.5,269.5469 L193.5,181.5234" fill="#FFFFFF" style="stroke:#FFFFFF;stroke-width:1;"/><rect fill="none" height="139.7852" rx="12.5" ry="12.5" style="stroke:#000000;stroke-width:1;" width="190.2144" x="193.5" y="142.2617"/><line style="stroke:#000000;stroke-width:1;" x1="193.5" x2="383.7144" y1="181.5234" y2="181.5234"/><text fill="#000000" font-family="Segoe UI" font-size="11" lengthAdjust="spacing" textLength="82.355" x="247.4297" y="159.1318">Upstream-1 alive</text><text fill="#000000" font-family="Segoe UI" font-size="11" lengthAdjust="spacing" textLength="82.355" x="247.4297" y="173.7627">Upstream-2 alive</text><g id="normal.uh"><rect fill="#FFFFFF" height="78.5234" rx="12.5" ry="12.5" style="stroke:#000000;stroke-width:1;" width="169.2144" x="205.5" y="193.5234"/><line style="stroke:#000000;stroke-width:1;" x1="205.5" x2="374.7144" y1="218.1543" y2="218.1543"/><text fill="#000000" font-family="Segoe UI" font-size="11" lengthAdjust="spacing" textLength="81.7856" x="249.2144" y="210.3936">userhash routing</text><text fill="#000000" font-family="Segoe UI" font-size="11" lengthAdjust="spacing" textLength="102.1582" x="210.5" y="235.0244">user A &#8594; upstream-1</text><text fill="#000000" font-family="Segoe UI" font-size="11" lengthAdjust="spacing" textLength="101.3687" x="210.5" y="249.6553">user B &#8594; upstream-2</text><text fill="#000000" font-family="Segoe UI" font-size="11" lengthAdjust="spacing" textLength="149.2144" x="210.5" y="264.2861">(&#1076;&#1077;&#1090;&#1077;&#1088;&#1084;&#1080;&#1085;&#1080;&#1088;&#1086;&#1074;&#1072;&#1085;&#1085;&#1086; &#1087;&#1086; &#1093;&#1077;&#1096;&#1091;)</text></g><path d="M24.5,373.2617 L172.5,373.2617 A12.5,12.5 0 0 1 185,385.7617 L185,397.8926 L12,397.8926 L12,385.7617 A12.5,12.5 0 0 1 24.5,373.2617" fill="#FFCDD2" style="stroke:#FFCDD2;stroke-width:1;"/><path d="M12,397.8926 L185,397.8926 L185,500.5469 A12.5,12.5 0 0 1 172.5,513.0469 L24.5,513.0469 A12.5,12.5 0 0 1 12,500.5469 L12,397.8926" fill="#FFFFFF" style="stroke:#FFFFFF;stroke-width:1;"/><rect fill="none" height="139.7852" rx="12.5" ry="12.5" style="stroke:#000000;stroke-width:1;" width="173" x="12" y="373.2617"/><line style="stroke:#000000;stroke-width:1;" x1="12" x2="185" y1="397.8926" y2="397.8926"/><text fill="#000000" font-family="Segoe UI" font-size="11" lengthAdjust="spacing" textLength="87.0063" x="54.9968" y="390.1318">Upstream-1 failed</text><g id="failed1.sh1"><rect fill="#FFFFFF" height="93.1543" rx="12.5" ry="12.5" style="stroke:#000000;stroke-width:1;" width="152" x="24" y="409.8926"/><line style="stroke:#000000;stroke-width:1;" x1="24" x2="176" y1="434.5234" y2="434.5234"/><text fill="#000000" font-family="Segoe UI" font-size="11" lengthAdjust="spacing" textLength="78.4878" x="60.7561" y="426.7627">userhash rehash</text><text fill="#000000" font-family="Segoe UI" font-size="11" lengthAdjust="spacing" textLength="102.1582" x="29" y="451.3936">user A &#8594; upstream-2</text><text fill="#000000" font-family="Segoe UI" font-size="11" lengthAdjust="spacing" textLength="101.3687" x="29" y="466.0244">user B &#8594; upstream-2</text><text fill="#000000" font-family="Segoe UI" font-size="11" lengthAdjust="spacing" textLength="132" x="29" y="480.6553">(&#1093;&#1077;&#1096;-&#1082;&#1086;&#1083;&#1100;&#1094;&#1086; &#1087;&#1077;&#1088;&#1077;&#1089;&#1090;&#1088;&#1086;&#1077;&#1085;&#1086;</text><text fill="#000000" font-family="Segoe UI" font-size="11" lengthAdjust="spacing" textLength="98.7959" x="29" y="495.2861">&#1089;&#1088;&#1077;&#1076;&#1080; &#1078;&#1080;&#1074;&#1099;&#1093; peers)</text></g><path d="M203,604.2617 L312.2476,604.2617 A12.5,12.5 0 0 1 324.7476,616.7617 L324.7476,628.8926 L190.5,628.8926 L190.5,616.7617 A12.5,12.5 0 0 1 203,604.2617" fill="#FFF9C4" style="stroke:#FFF9C4;stroke-width:1;"/><path d="M190.5,628.8926 L324.7476,628.8926 L324.7476,702.2852 A12.5,12.5 0 0 1 312.2476,714.7852 L203,714.7852 A12.5,12.5 0 0 1 190.5,702.2852 L190.5,628.8926" fill="#FFFFFF" style="stroke:#FFFFFF;stroke-width:1;"/><rect fill="none" height="110.5234" rx="12.5" ry="12.5" style="stroke:#000000;stroke-width:1;" width="134.2476" x="190.5" y="604.2617"/><line style="stroke:#000000;stroke-width:1;" x1="190.5" x2="324.7476" y1="628.8926" y2="628.8926"/><text fill="#000000" font-family="Segoe UI" font-size="11" lengthAdjust="spacing" textLength="108.5874" x="203.3301" y="621.1318">Upstream-1 recovered</text><g id="recovery.dpt"><rect fill="#FFFFFF" height="63.8926" rx="12.5" ry="12.5" style="stroke:#000000;stroke-width:1;" width="113.2476" x="202.5" y="640.8926"/><line style="stroke:#000000;stroke-width:1;" x1="202.5" x2="315.7476" y1="665.5234" y2="665.5234"/><text fill="#000000" font-family="Segoe UI" font-size="11" lengthAdjust="spacing" textLength="93.2476" x="212.5" y="657.7627">dead_peer_timeout</text><text fill="#000000" font-family="Segoe UI" font-size="11" lengthAdjust="spacing" textLength="87.1836" x="207.5" y="682.3936">&#1054;&#1078;&#1080;&#1076;&#1072;&#1085;&#1080;&#1077; 15 &#1089;&#1077;&#1082;</text><text fill="#000000" font-family="Segoe UI" font-size="11" lengthAdjust="spacing" textLength="53.9526" x="207.5" y="697.0244">&#1079;&#1072;&#1090;&#1077;&#1084; retry</text></g><ellipse cx="288.5" cy="71.2617" fill="#FFFFFF" rx="10" ry="10" style="stroke:#000000;stroke-width:1;"/><g class="entity" data-entity="GMN2" data-source-line="28" data-uid="ent0003" id="entity_GMN2"><path d="M419,185.2617 L419,208.2617 L383.89,212.2617 L419,216.2617 L419,239.1543 A0,0 0 0 0 419,239.1543 L602.3467,239.1543 A0,0 0 0 0 602.3467,239.1543 L602.3467,195.2617 L592.3467,185.2617 L419,185.2617 A0,0 0 0 0 419,185.2617" fill="#FFFFFF" style="stroke:#000000;stroke-width:1;"/><path d="M592.3467,185.2617 L592.3467,195.2617 L602.3467,195.2617 L592.3467,185.2617" fill="#FFFFFF" style="stroke:#000000;stroke-width:1;"/><text fill="#000000" font-family="Segoe UI" font-size="11" lengthAdjust="spacing" textLength="103.7212" x="425" y="202.1318">&#1054;&#1089;&#1085;&#1086;&#1074;&#1085;&#1086;&#1081; &#1072;&#1083;&#1075;&#1086;&#1088;&#1080;&#1090;&#1084;:</text><text fill="#000000" font-family="Segoe UI" font-size="11" font-weight="bold" lengthAdjust="spacing" textLength="45.8262" x="531.7344" y="202.1318">userhash</text><text fill="#000000" font-family="Segoe UI" font-size="11" lengthAdjust="spacing" textLength="162.3467" x="425" y="216.7627">&#1050;&#1072;&#1078;&#1076;&#1099;&#1081; &#1087;&#1086;&#1083;&#1100;&#1079;&#1086;&#1074;&#1072;&#1090;&#1077;&#1083;&#1100; &#1087;&#1088;&#1080;&#1074;&#1103;&#1079;&#1072;&#1085;</text><text fill="#000000" font-family="Segoe UI" font-size="11" lengthAdjust="spacing" textLength="123.5298" x="425" y="231.3936">&#1082; &#1082;&#1086;&#1085;&#1082;&#1088;&#1077;&#1090;&#1085;&#1086;&#1084;&#1091; upstream</text></g><g class="entity" data-entity="GMN5" data-source-line="34" data-uid="ent0006" id="entity_GMN5"><path d="M220,416.2617 L220,439.2617 L185.41,443.2617 L220,447.2617 L220,470.1543 A0,0 0 0 0 220,470.1543 L409.0669,470.1543 A0,0 0 0 0 409.0669,470.1543 L409.0669,426.2617 L399.0669,416.2617 L220,416.2617 A0,0 0 0 0 220,416.2617" fill="#FFFFFF" style="stroke:#000000;stroke-width:1;"/><path d="M399.0669,416.2617 L399.0669,426.2617 L409.0669,426.2617 L399.0669,416.2617" fill="#FFFFFF" style="stroke:#000000;stroke-width:1;"/><text fill="#000000" font-family="Segoe UI" font-size="11" lengthAdjust="spacing" textLength="83.585" x="226" y="433.1318">&#1055;&#1088;&#1080; &#1086;&#1090;&#1082;&#1072;&#1079;&#1077; peer:</text><text fill="#000000" font-family="Segoe UI" font-size="11" font-weight="bold" lengthAdjust="spacing" textLength="34.332" x="312.5981" y="433.1318">rehash</text><text fill="#000000" font-family="Segoe UI" font-size="11" lengthAdjust="spacing" textLength="168.0669" x="226" y="447.7627">Squid &#1087;&#1077;&#1088;&#1077;&#1089;&#1090;&#1088;&#1072;&#1080;&#1074;&#1072;&#1077;&#1090; &#1093;&#1077;&#1096;-&#1082;&#1086;&#1083;&#1100;&#1094;&#1086;</text><text fill="#000000" font-family="Segoe UI" font-size="11" lengthAdjust="spacing" textLength="137.9565" x="226" y="462.3936">&#1089;&#1088;&#1077;&#1076;&#1080; &#1078;&#1080;&#1074;&#1099;&#1093; upstream-&#1085;&#1086;&#1076;</text></g><!--link *start* to normal--><g class="link" data-entity-1="*start*" data-entity-2="normal" data-source-line="20" data-uid="lnk3" id="link_*start*_normal"><path d="M288.5,81.3817 C288.5,94.0617 288.5,112.1917 288.5,136.2417" fill="none" id="*start*-to-normal" style="stroke:#000000;stroke-width:1;"/><polygon fill="#000000" points="288.5,142.2417,292.5,133.2417,288.5,137.2417,284.5,133.2417,288.5,142.2417" style="stroke:#000000;stroke-width:1;"/></g><!--link normal to failed1--><g class="link" data-entity-1="normal" data-entity-2="failed1" data-source-line="22" data-uid="lnk4" id="link_normal_failed1"><path d="M231.24,282.2817 C207.42,310.9917 183.6516,339.6345 159.8016,368.3745" fill="none" id="normal-to-failed1" style="stroke:#000000;stroke-width:1;"/><polygon fill="#000000" points="155.97,372.9917,164.7956,368.6203,159.163,369.144,158.6393,363.5115,155.97,372.9917" style="stroke:#000000;stroke-width:1;"/><text fill="#000000" font-family="Segoe UI" font-size="11" lengthAdjust="spacing" textLength="96.3521" x="236.4438" y="325.1318">connect-fail-limit=2</text><text fill="#000000" font-family="Segoe UI" font-size="11" lengthAdjust="spacing" textLength="156.2397" x="206.5" y="339.7627">(2 &#1085;&#1077;&#1091;&#1076;&#1072;&#1095;&#1085;&#1099;&#1093; TCP-&#1089;&#1086;&#1077;&#1076;&#1080;&#1085;&#1077;&#1085;&#1080;&#1103;)</text></g><!--link failed1 to recovery--><g class="link" data-entity-1="failed1" data-entity-2="recovery" data-source-line="23" data-uid="lnk5" id="link_failed1_recovery"><path d="M83.16,513.4217 C82.04,534.2417 84.62,556.3117 95.5,574.2617 C116.14,608.3017 149.8257,627.2465 184.5757,639.7765" fill="none" id="failed1-to-recovery" style="stroke:#000000;stroke-width:1;"/><polygon fill="#000000" points="190.22,641.8117,183.1104,634.9961,185.5164,640.1157,180.3968,642.5218,190.22,641.8117" style="stroke:#000000;stroke-width:1;"/><text fill="#000000" font-family="Segoe UI" font-size="11" lengthAdjust="spacing" textLength="117.2993" x="96.5" y="563.6318">dead_peer_timeout=15s</text></g><!--link recovery to failed1--><g class="link" data-entity-1="recovery" data-entity-2="failed1" data-source-line="25" data-uid="lnk7" id="link_recovery_failed1"><path d="M245.79,604.1317 C239.77,583.8517 230.99,561.3917 218.5,543.2617 C209.15,529.6917 201.8492,521.0518 189.4392,509.5418" fill="none" id="recovery-to-failed1" style="stroke:#000000;stroke-width:1;"/><polygon fill="#000000" points="185.04,505.4617,188.9187,514.5147,188.706,508.8618,194.3588,508.6491,185.04,505.4617" style="stroke:#000000;stroke-width:1;"/><text fill="#000000" font-family="Segoe UI" font-size="11" lengthAdjust="spacing" textLength="72.8159" x="258.8831" y="556.1318">retry &#1085;&#1077;&#1091;&#1076;&#1072;&#1095;&#1077;&#1085;</text><text fill="#000000" font-family="Segoe UI" font-size="11" lengthAdjust="spacing" textLength="119.582" x="235.5" y="570.7627">(upstream-1 &#1077;&#1097;&#1105; &#1084;&#1105;&#1088;&#1090;&#1074;)</text></g><!--link recovery to normal--><g class="link" data-entity-1="recovery" data-entity-2="normal" data-source-line="24" data-uid="lnk6" id="link_recovery_normal"><path d="M324.88,621.9717 C362.92,596.9617 406.71,559.9617 426.5,513.2617 C450.77,455.9717 448.18,431.5817 426.5,373.2617 C413.98,339.5617 394.885,312.6349 371.065,286.7749" fill="none" id="recovery-to-normal" style="stroke:#000000;stroke-width:1;"/><polygon fill="#000000" points="367,282.3617,370.1554,291.6914,370.3875,286.0393,376.0396,286.2714,367,282.3617" style="stroke:#000000;stroke-width:1;"/><text fill="#000000" font-family="Segoe UI" font-size="11" lengthAdjust="spacing" textLength="68.8682" x="454.1367" y="440.6318">retry &#1091;&#1089;&#1087;&#1077;&#1096;&#1077;&#1085;</text><text fill="#000000" font-family="Segoe UI" font-size="11" lengthAdjust="spacing" textLength="86.1416" x="445.5" y="455.2627">(upstream-1 &#1078;&#1080;&#1074;)</text></g><!--SRC=[TLDDRzD04BtxLmpfXKRomH55D5AH86qaBWYfS2AeMk9DRDLP1tjTgI2aDb5BKP6g8auSu2z49IuXJTA_iFiN-akOMJj9Fr95SUp9spVllHa_a1vlSMW7p1TMlEsBDejO2zwp-dOp2XFXLi8WZ62fka6VQmYNDrWIo6eev4k638LDtWmvl7bHM0pQz3zoS1pBahuC4DUEPSGHqc1-4Exm2AxsVa0IyyXZiGSHfn_BYYMJo3r5smwmmD_XDJ6hbB9A0LWC8enQB82bofEDnvLL-6G1v0HpuZ2HlcWQUE91sRI4Pt1r-1sIMPUQCENdDykbcdYe-YhL7VpkgP4QgB4QuDr4dQaUte_L1DGbNlG18evqTzdwlCW3UUQkqP3TEXXmjRA-NbgisOHXuB7dtAEvTB_cJ8sjXYZqGd_JXvbCyf3gVTqn3b9INnFuZ5LqEG1rZWRFzB4-W3RdKNoFcOZNQNwvd_nfbmnLLokFhXjoENEtY6fB-YsEWp0dtBP4I-gNQTStEGvK2iuAw7rKCgm9zLVrA7CrGdePxPAEjyLtODjFyv5RLZvwAaqZBKCz58BNfKqLE_1RlboZF4g0FLBTfMxwYneRYwyhhsniECdC4y0CzsJPcl8HzynU6UwuMNDMOci6c8j3h94DkeiDAFSZ8aSXyuNBmrw-UNxk92Eu8VikHQg_wbDG8tsgzp0lPCDOCFZ8RteImiOqBC2qKSdOx2rT_m76Vg7-g0aEVu17HsKe5gVxLopIYPy8ELTzVKpeosoJS31czSrmy1d_809ScXEQcHhJmI6OnHkheTctZkauqjtPZbfSk412RylDxHF9R-85rDT1iXwIfsOdIMRsTXYHcnyItxszsZqIX5Ti3GlU13osUETdoHh1_RdA_m00]--></g></svg>