<svg xmlns="http://www.w3.org/2000/svg" xmlns:xlink="http://www.w3.org/1999/xlink" contentStyleType="text/css" data-diagram-type="ACTIVITY" height="827px" preserveAspectRatio="none" style="width:923px;height:827px;background:#FEFEFE;" version="1.1" viewBox="0 0 923 827" width="923px" zoomAndPan="magnify"><title>&#1043;&#1086;&#1088;&#1080;&#1079;&#1086;&#1085;&#1090;&#1072;&#1083;&#1100;&#1085;&#1086;&#1077; &#1084;&#1072;&#1089;&#1096;&#1090;&#1072;&#1073;&#1080;&#1088;&#1086;&#1074;&#1072;&#1085;&#1080;&#1077;: &#1076;&#1086;&#1073;&#1072;&#1074;&#1083;&#1077;&#1085;&#1080;&#1077; upstream-&#1085;&#1086;&#1076;&#1099;</title><defs/><g><rect fill="#FEFEFE" height="827" style="stroke:none;stroke-width:1;" width="923" x="0" y="0"/><text fill="#000000" font-family="Segoe UI" font-size="22" font-weight="bold" lengthAdjust="spacing" textLength="692.957" x="113.6108" y="38.7402">&#1043;&#1086;&#1088;&#1080;&#1079;&#1086;&#1085;&#1090;&#1072;&#1083;&#1100;&#1085;&#1086;&#1077; &#1084;&#1072;&#1089;&#1096;&#1090;&#1072;&#1073;&#1080;&#1088;&#1086;&#1074;&#1072;&#1085;&#1080;&#1077;: &#1076;&#1086;&#1073;&#1072;&#1074;&#1083;&#1077;&#1085;&#1080;&#1077; upstream-&#1085;&#1086;&#1076;&#1099;</text><rect fill="#FFFFFF" height="14.6309" style="stroke:#FFFFFF;stroke-width:1;" width="900.1787" x="10" y="56.5225"/><ellipse cx="97.5564" cy="86.1533" fill="#FFFFFF" rx="10" ry="10" style="stroke:#000000;stroke-width:1;"/><rect fill="#FFFFFF" height="63.8926" rx="12.5" ry="12.5" style="stroke:#000000;stroke-width:1;" width="131.3589" x="31.877" y="116.1533"/><text fill="#000000" font-family="Segoe UI" font-size="11" lengthAdjust="spacing" textLength="111.3589" x="41.877" y="138.0234">&#1044;&#1086;&#1073;&#1072;&#1074;&#1080;&#1090;&#1100; &#1085;&#1086;&#1074;&#1091;&#1102; &#1085;&#1086;&#1076;&#1091;</text><text fill="#000000" font-family="Segoe UI" font-size="11" lengthAdjust="spacing" textLength="74.1426" x="41.877" y="152.6543">&#1074; inventory.yml</text><text fill="#000000" font-family="Segoe UI" font-size="11" lengthAdjust="spacing" textLength="94.3486" x="41.877" y="167.2852">(&#1075;&#1088;&#1091;&#1087;&#1087;&#1072; upstreams)</text><rect fill="#FFFFFF" height="49.2617" rx="12.5" ry="12.5" style="stroke:#000000;stroke-width:1;" width="163.1128" x="16" y="200.0459"/><text fill="#000000" font-family="Segoe UI" font-size="11" lengthAdjust="spacing" textLength="135.5718" x="26" y="221.916">&#1047;&#1072;&#1087;&#1091;&#1089;&#1090;&#1080;&#1090;&#1100; ansible-playbook</text><text fill="#000000" font-family="Segoe UI" font-size="11" lengthAdjust="spacing" textLength="143.1128" x="26" y="236.5469">-i inventory.yml playbook.yml</text><rect fill="#FFFFFF" height="63.8926" rx="12.5" ry="12.5" style="stroke:#000000;stroke-width:1;" width="114.2412" x="40.4358" y="714.5625"/><text fill="#000000" font-family="Segoe UI" font-size="11" lengthAdjust="spacing" textLength="94.2412" x="50.4358" y="736.4326">&#1055;&#1088;&#1086;&#1074;&#1077;&#1088;&#1080;&#1090;&#1100; &#1090;&#1088;&#1072;&#1092;&#1080;&#1082;</text><text fill="#000000" font-family="Segoe UI" font-size="11" lengthAdjust="spacing" textLength="73.9922" x="50.4358" y="751.0635">&#1085;&#1072; &#1085;&#1086;&#1074;&#1086;&#1081; &#1085;&#1086;&#1076;&#1077;</text><text fill="#000000" font-family="Segoe UI" font-size="11" lengthAdjust="spacing" textLength="55.4565" x="50.4358" y="765.6943">(access.log)</text><ellipse cx="97.5564" cy="809.4551" fill="none" rx="11" ry="11" style="stroke:#000000;stroke-width:1;"/><ellipse cx="97.5564" cy="809.4551" fill="#FFFFFF" rx="6" ry="6" style="stroke:#000000;stroke-width:1;"/><line style="stroke:#000000;stroke-width:1;" x1="10" x2="10" y1="56.5225" y2="820.4551"/><rect fill="#000000" height="6" rx="2.5" ry="2.5" style="stroke:#000000;stroke-width:1;" width="383.5725" x="189.1128" y="269.3076"/><rect fill="#FFFFFF" height="34.6309" rx="12.5" ry="12.5" style="stroke:#000000;stroke-width:1;" width="112.1841" x="227.5063" y="337.4385"/><text fill="#000000" font-family="Segoe UI" font-size="11" lengthAdjust="spacing" textLength="92.1841" x="237.5063" y="359.3086">SSH &#8594; &#1085;&#1086;&#1074;&#1072;&#1103; &#1085;&#1086;&#1076;&#1072;</text><rect fill="#FFFFFF" height="63.8926" rx="12.5" ry="12.5" style="stroke:#000000;stroke-width:1;" width="164.9712" x="201.1128" y="407.0693"/><text fill="#000000" font-family="Segoe UI" font-size="11" lengthAdjust="spacing" textLength="144.9712" x="211.1128" y="428.9395">&#1059;&#1089;&#1090;&#1072;&#1085;&#1086;&#1074;&#1080;&#1090;&#1100; Squid (upstream),</text><text fill="#000000" font-family="Segoe UI" font-size="11" lengthAdjust="spacing" textLength="127.6978" x="211.1128" y="443.5703">nginx SNI, mtg, CrowdSec,</text><text fill="#000000" font-family="Segoe UI" font-size="11" lengthAdjust="spacing" textLength="38.543" x="211.1128" y="458.2012">nftables</text><rect fill="#FFFFFF" height="34.6309" rx="12.5" ry="12.5" style="stroke:#000000;stroke-width:1;" width="136.5474" x="408.2959" y="295.3076"/><text fill="#000000" font-family="Segoe UI" font-size="11" lengthAdjust="spacing" textLength="116.5474" x="418.2959" y="317.1777">SSH &#8594; &#1074;&#1089;&#1077; access-&#1085;&#1086;&#1076;&#1099;</text><rect fill="#FFFFFF" height="78.5234" rx="12.5" ry="12.5" style="stroke:#000000;stroke-width:1;" width="168.2314" x="392.4539" y="364.9385"/><text fill="#000000" font-family="Segoe UI" font-size="11" lengthAdjust="spacing" textLength="148.2314" x="402.4539" y="386.8086">&#1055;&#1077;&#1088;&#1077;&#1075;&#1077;&#1085;&#1077;&#1088;&#1080;&#1088;&#1086;&#1074;&#1072;&#1090;&#1100; squid.conf</text><text fill="#000000" font-family="Segoe UI" font-size="11" lengthAdjust="spacing" textLength="93.2476" x="402.4539" y="401.4395">(&#1085;&#1086;&#1074;&#1099;&#1081; cache_peer</text><text fill="#000000" font-family="Segoe UI" font-size="11" lengthAdjust="spacing" textLength="104.0059" x="402.4539" y="416.0703">&#1080;&#1079; {% for upstream in</text><text fill="#000000" font-family="Segoe UI" font-size="11" lengthAdjust="spacing" textLength="114.8608" x="402.4539" y="430.7012">groups['upstreams'] %})</text><rect fill="#FFFFFF" height="34.6309" rx="12.5" ry="12.5" style="stroke:#000000;stroke-width:1;" width="118.1191" x="417.51" y="478.4619"/><text fill="#000000" font-family="Segoe UI" font-size="11" lengthAdjust="spacing" textLength="98.1191" x="427.51" y="500.332">squid -k reconfigure</text><rect fill="#000000" height="6" rx="2.5" ry="2.5" style="stroke:#000000;stroke-width:1;" width="383.5725" x="189.1128" y="533.0928"/><line style="stroke:#000000;stroke-width:1;" x1="183.1128" x2="183.1128" y1="56.5225" y2="820.4551"/><path d="M778.3289,556.7773 L778.3289,579.7236 L758.3289,583.7236 L778.3289,587.7236 L778.3289,610.6699 A0,0 0 0 0 778.3289,610.6699 L904.6721,610.6699 A0,0 0 0 0 904.6721,610.6699 L904.6721,566.7773 L894.6721,556.7773 L778.3289,556.7773 A0,0 0 0 0 778.3289,556.7773" fill="#FFFFFF" style="stroke:#000000;stroke-width:1;"/><path d="M894.6721,556.7773 L894.6721,566.7773 L904.6721,566.7773 L894.6721,556.7773" fill="#FFFFFF" style="stroke:#000000;stroke-width:1;"/><text fill="#000000" font-family="Segoe UI" font-size="11" lengthAdjust="spacing" textLength="94.3916" x="784.3289" y="573.6475">Consistent hashing:</text><text fill="#000000" font-family="Segoe UI" font-size="11" lengthAdjust="spacing" textLength="105.3433" x="784.3289" y="588.2783">&#1087;&#1077;&#1088;&#1077;&#1084;&#1077;&#1097;&#1072;&#1077;&#1090;&#1089;&#1103; &#8804; 1/N</text><text fill="#000000" font-family="Segoe UI" font-size="11" lengthAdjust="spacing" textLength="75.1094" x="784.3289" y="602.9092">&#1087;&#1086;&#1083;&#1100;&#1079;&#1086;&#1074;&#1072;&#1090;&#1077;&#1083;&#1077;&#1081;</text><rect fill="#FFFFFF" height="49.2617" rx="12.5" ry="12.5" style="stroke:#000000;stroke-width:1;" width="175.6436" x="582.6853" y="559.0928"/><text fill="#000000" font-family="Segoe UI" font-size="11" lengthAdjust="spacing" textLength="122.2085" x="592.6853" y="580.9629">userhash &#1087;&#1077;&#1088;&#1077;&#1089;&#1095;&#1080;&#1090;&#1099;&#1074;&#1072;&#1077;&#1090;</text><text fill="#000000" font-family="Segoe UI" font-size="11" lengthAdjust="spacing" textLength="155.6436" x="592.6853" y="595.5938">&#1088;&#1072;&#1089;&#1087;&#1088;&#1077;&#1076;&#1077;&#1083;&#1077;&#1085;&#1080;&#1077; &#1087;&#1086;&#1083;&#1100;&#1079;&#1086;&#1074;&#1072;&#1090;&#1077;&#1083;&#1077;&#1081;</text><rect fill="#FFFFFF" height="63.8926" rx="12.5" ry="12.5" style="stroke:#000000;stroke-width:1;" width="165.5083" x="587.7529" y="630.6699"/><text fill="#000000" font-family="Segoe UI" font-size="11" lengthAdjust="spacing" textLength="133.3965" x="597.7529" y="652.54">&#1053;&#1086;&#1074;&#1099;&#1077; CONNECT-&#1079;&#1072;&#1087;&#1088;&#1086;&#1089;&#1099;</text><text fill="#000000" font-family="Segoe UI" font-size="11" lengthAdjust="spacing" textLength="145.5083" x="597.7529" y="667.1709">&#1084;&#1072;&#1088;&#1096;&#1088;&#1091;&#1090;&#1080;&#1079;&#1080;&#1088;&#1091;&#1102;&#1090;&#1089;&#1103; &#1089; &#1091;&#1095;&#1105;&#1090;&#1086;&#1084;</text><text fill="#000000" font-family="Segoe UI" font-size="11" lengthAdjust="spacing" textLength="84.4712" x="597.7529" y="681.8018">&#1085;&#1086;&#1074;&#1086;&#1075;&#1086; upstream</text><line style="stroke:#000000;stroke-width:1;" x1="576.6853" x2="576.6853" y1="56.5225" y2="820.4551"/><line style="stroke:#000000;stroke-width:1;" x1="909.6721" x2="909.6721" y1="56.5225" y2="820.4551"/><line style="stroke:#000000;stroke-width:1;" x1="97.5564" x2="97.5564" y1="96.1533" y2="116.1533"/><polygon fill="#000000" points="93.5564,106.1533,97.5564,116.1533,101.5564,106.1533,97.5564,110.1533" style="stroke:#000000;stroke-width:1;"/><line style="stroke:#000000;stroke-width:1;" x1="97.5564" x2="97.5564" y1="180.0459" y2="200.0459"/><polygon fill="#000000" points="93.5564,190.0459,97.5564,200.0459,101.5564,190.0459,97.5564,194.0459" style="stroke:#000000;stroke-width:1;"/><line style="stroke:#000000;stroke-width:1;" x1="97.5564" x2="97.5564" y1="778.4551" y2="798.4551"/><polygon fill="#000000" points="93.5564,788.4551,97.5564,798.4551,101.5564,788.4551,97.5564,792.4551" style="stroke:#000000;stroke-width:1;"/><line style="stroke:#000000;stroke-width:1;" x1="283.5984" x2="283.5984" y1="372.0693" y2="407.0693"/><polygon fill="#000000" points="279.5984,397.0693,283.5984,407.0693,287.5984,397.0693,283.5984,401.0693" style="stroke:#000000;stroke-width:1;"/><line style="stroke:#000000;stroke-width:1;" x1="476.5696" x2="476.5696" y1="329.9385" y2="364.9385"/><polygon fill="#000000" points="472.5696,354.9385,476.5696,364.9385,480.5696,354.9385,476.5696,358.9385" style="stroke:#000000;stroke-width:1;"/><line style="stroke:#000000;stroke-width:1;" x1="476.5696" x2="476.5696" y1="443.4619" y2="478.4619"/><polygon fill="#000000" points="472.5696,468.4619,476.5696,478.4619,480.5696,468.4619,476.5696,472.4619" style="stroke:#000000;stroke-width:1;"/><line style="stroke:#000000;stroke-width:1;" x1="283.5984" x2="283.5984" y1="275.3076" y2="337.4385"/><polygon fill="#000000" points="279.5984,327.4385,283.5984,337.4385,287.5984,327.4385,283.5984,331.4385" style="stroke:#000000;stroke-width:1;"/><line style="stroke:#000000;stroke-width:1;" x1="476.5696" x2="476.5696" y1="275.3076" y2="295.3076"/><polygon fill="#000000" points="472.5696,285.3076,476.5696,295.3076,480.5696,285.3076,476.5696,289.3076" style="stroke:#000000;stroke-width:1;"/><line style="stroke:#000000;stroke-width:1;" x1="283.5984" x2="283.5984" y1="470.9619" y2="533.0928"/><polygon fill="#000000" points="279.5984,523.0928,283.5984,533.0928,287.5984,523.0928,283.5984,527.0928" style="stroke:#000000;stroke-width:1;"/><line style="stroke:#000000;stroke-width:1;" x1="476.5696" x2="476.5696" y1="513.0928" y2="533.0928"/><polygon fill="#000000" points="472.5696,523.0928,476.5696,533.0928,480.5696,523.0928,476.5696,527.0928" style="stroke:#000000;stroke-width:1;"/><line style="stroke:#000000;stroke-width:1;" x1="670.5071" x2="670.5071" y1="608.3545" y2="630.6699"/><polygon fill="#000000" points="666.5071,620.6699,670.5071,630.6699,674.5071,620.6699,670.5071,624.6699" style="stroke:#000000;stroke-width:1;"/><line style="stroke:#000000;stroke-width:1;" x1="97.5564" x2="97.5564" y1="249.3076" y2="254.3076"/><line style="stroke:#000000;stroke-width:1;" x1="97.5564" x2="380.084" y1="254.3076" y2="254.3076"/><line style="stroke:#000000;stroke-width:1;" x1="380.084" x2="380.084" y1="254.3076" y2="269.3076"/><polygon fill="#000000" points="376.084,259.3076,380.084,269.3076,384.084,259.3076,380.084,263.3076" style="stroke:#000000;stroke-width:1;"/><line style="stroke:#000000;stroke-width:1;" x1="380.084" x2="380.084" y1="539.0928" y2="544.0928"/><line style="stroke:#000000;stroke-width:1;" x1="380.084" x2="670.5071" y1="544.0928" y2="544.0928"/><line style="stroke:#000000;stroke-width:1;" x1="670.5071" x2="670.5071" y1="544.0928" y2="559.0928"/><polygon fill="#000000" points="666.5071,549.0928,670.5071,559.0928,674.5071,549.0928,670.5071,553.0928" style="stroke:#000000;stroke-width:1;"/><line style="stroke:#000000;stroke-width:1;" x1="670.5071" x2="670.5071" y1="694.5625" y2="699.5625"/><line style="stroke:#000000;stroke-width:1;" x1="670.5071" x2="97.5564" y1="699.5625" y2="699.5625"/><line style="stroke:#000000;stroke-width:1;" x1="97.5564" x2="97.5564" y1="699.5625" y2="714.5625"/><polygon fill="#000000" points="93.5564,704.5625,97.5564,714.5625,101.5564,704.5625,97.5564,708.5625" style="stroke:#000000;stroke-width:1;"/><text fill="#000000" font-family="Segoe UI" font-size="11" lengthAdjust="spacing" textLength="38.1616" x="77.4756" y="68.3926">DevOps</text><text fill="#000000" font-family="Segoe UI" font-size="11" lengthAdjust="spacing" textLength="35.5352" x="362.1315" y="68.3926">Ansible</text><text fill="#000000" font-family="Segoe UI" font-size="11" lengthAdjust="spacing" textLength="63.0459" x="711.6558" y="68.3926">Squid Access</text><!--SRC=[TLFBJjj05DtxAswf420HAhR92gMWiWaBjwkcgWPdubXnPbpFX9OsbGXKfIW8r8VKLTL5-m4cO14Ac5-O-GM-f7V6ZakbLbOYpzovvroVS-QUxD0UXIWa0ND4Ds0HYKaFDedNzMFUPwqw3taCzzTMpNFdH8ksIJ-KQvp91a646PVwdCAJzPb_7tA3rnIMbnr71ZAae3whJE-eYJfNcRhMkofHb_fGNUCg1NMb4ZtK7-psYPhWmKoDyVqQ6z8gg3DSd-1wh2vLckz2Fn8ofgHNiI1dUkGuWuTqQoCI0qT84akdghwKVHEzgm_17XthFNq4HTTUawan16oBCidZxQNjNjXay-fKx-WzTODFKXA9XPg3c5yHxmOXXZXjZagO23P3Ma5HjpSvxpPP9VWR4gObiq2KmKhUCd3QFEuw05NNVGItxpyL4w8SnyM4AgcPklfX2PEYdXExB_f12-Qd0ouiDXdp0_OAtCRw8lIalmZrcBzikTGpfROao2bgbXI8Ro9mbtgiXwWhyJmgHAbgplvTfMXAgawj_EQzDCbE8imaInvdRQDUhl98NO17l0vz7b4QeyveFhoP1MGlDKMPcim4Bn9FvqgXvvx1xDi5oso1eTA5c1hqmE_7jEPGrWAhd3F8DLYnGm-SQb_Gk4D41z0wEpBAjc_b6jb4fNgtoN0VyuOkcaywmz-VL65RPfDvFlswedo1jZ4kASI1tv4uMfsZXqAYoM080-PNSNTAYv5EzK5EY2CSm-t1JrX-qCYF_8V2VfSXCJdxLeYOGdsZqLYjFwvWGsA7pX1nX8AQQxE3rmQpQiA8zObzFoeuzH1mjQy_OZLJLzYHfoT37xFIWzgTYuDE5xxc7XjlyS_ezGu9Vbc814gSYsbAK_GzJyvIo7rpKuJaaVCR]--></g></svg>