<svg xmlns="http://www.w3.org/2000/svg" xmlns:xlink="http://www.w3.org/1999/xlink" contentStyleType="text/css" data-diagram-type="SEQUENCE" height="1175px" preserveAspectRatio="none" style="width:674px;height:1175px;background:#FEFEFE;" version="1.1" viewBox="0 0 674 1175" width="674px" zoomAndPan="magnify"><title>VRRP Failover &#8212; &#1072;&#1074;&#1090;&#1086;&#1087;&#1077;&#1088;&#1077;&#1079;&#1072;&#1087;&#1091;&#1089;&#1082; Squid &#1080; &#1087;&#1077;&#1088;&#1077;&#1082;&#1083;&#1102;&#1095;&#1077;&#1085;&#1080;&#1077; VIP</title><defs/><g><rect fill="#FEFEFE" height="1175" style="stroke:none;stroke-width:1;" width="674" x="0" y="0"/><text fill="#000000" font-family="Segoe UI" font-size="22" font-weight="bold" lengthAdjust="spacing" textLength="641.0186" x="15" y="38.7402">VRRP Failover &#8212; &#1072;&#1074;&#1090;&#1086;&#1087;&#1077;&#1088;&#1077;&#1079;&#1072;&#1087;&#1091;&#1089;&#1082; Squid &#1080; &#1087;&#1077;&#1088;&#1077;&#1082;&#1083;&#1102;&#1095;&#1077;&#1085;&#1080;&#1077; VIP</text><g><title>&#1050;&#1083;&#1080;&#1077;&#1085;&#1090;</title><rect fill="#000000" fill-opacity="0.00000" height="1027.4492" width="8" x="93.5601" y="99.5234"/><line style="stroke:#000000;stroke-width:1;" x1="96.9697" x2="96.9697" y1="99.5234" y2="1126.9727"/></g><g><title>VIP</title><rect fill="#000000" fill-opacity="0.00000" height="1027.4492" width="8" x="202.2085" y="99.5234"/><line style="stroke:#000000;stroke-width:1;" x1="205.2485" x2="205.2485" y1="99.5234" y2="1126.9727"/></g><g><title>Access-1</title><rect fill="#000000" fill-opacity="0.00000" height="1027.4492" width="8" x="345.3071" y="99.5234"/><line style="stroke:#000000;stroke-width:1;" x1="348.5698" x2="348.5698" y1="99.5234" y2="1126.9727"/></g><g><title>Access-2</title><rect fill="#000000" fill-opacity="0.00000" height="1027.4492" width="8" x="507.646" y="99.5234"/><line style="stroke:#000000;stroke-width:1;" x1="511.0803" x2="511.0803" y1="99.5234" y2="1126.9727"/></g><g class="participant participant-head" data-participant="client"><rect fill="#FFFFFF" height="28.6309" rx="2.5" ry="2.5" style="stroke:#000000;stroke-width:1;" width="49.1807" x="72.9697" y="69.8926"/><text fill="#000000" font-family="Segoe UI" font-size="11" lengthAdjust="spacing" textLength="35.1807" x="79.9697" y="88.7627">&#1050;&#1083;&#1080;&#1077;&#1085;&#1090;</text></g><g class="participant participant-tail" data-participant="client"><rect fill="#FFFFFF" height="28.6309" rx="2.5" ry="2.5" style="stroke:#000000;stroke-width:1;" width="49.1807" x="72.9697" y="1125.9727"/><text fill="#000000" font-family="Segoe UI" font-size="11" lengthAdjust="spacing" textLength="35.1807" x="79.9697" y="1144.8428">&#1050;&#1083;&#1080;&#1077;&#1085;&#1090;</text></g><g class="participant participant-head" data-participant="vip"><rect fill="#FFF9C4" height="28.6309" rx="2.5" ry="2.5" style="stroke:#000000;stroke-width:1;" width="29.9199" x="191.2485" y="69.8926"/><text fill="#000000" font-family="Segoe UI" font-size="11" lengthAdjust="spacing" textLength="15.9199" x="198.2485" y="88.7627">VIP</text></g><g class="participant participant-tail" data-participant="vip"><rect fill="#FFF9C4" height="28.6309" rx="2.5" ry="2.5" style="stroke:#000000;stroke-width:1;" width="29.9199" x="191.2485" y="1125.9727"/><text fill="#000000" font-family="Segoe UI" font-size="11" lengthAdjust="spacing" textLength="15.9199" x="198.2485" y="1144.8428">VIP</text></g><g class="participant participant-head" data-participant="master"><rect fill="#FFFFFF" height="43.2617" rx="2.5" ry="2.5" style="stroke:#000000;stroke-width:1;" width="111.4746" x="293.5698" y="55.2617"/><text fill="#000000" font-family="Segoe UI" font-size="11" lengthAdjust="spacing" textLength="42.6733" x="327.9705" y="74.1318">Access-1</text><text fill="#000000" font-family="Segoe UI" font-size="11" lengthAdjust="spacing" textLength="97.4746" x="300.5698" y="88.7627">(MASTER, prio=100)</text></g><g class="participant participant-tail" data-participant="master"><rect fill="#FFFFFF" height="43.2617" rx="2.5" ry="2.5" style="stroke:#000000;stroke-width:1;" width="111.4746" x="293.5698" y="1125.9727"/><text fill="#000000" font-family="Segoe UI" font-size="11" lengthAdjust="spacing" textLength="42.6733" x="327.9705" y="1144.8428">Access-1</text><text fill="#000000" font-family="Segoe UI" font-size="11" lengthAdjust="spacing" textLength="97.4746" x="300.5698" y="1159.4736">(MASTER, prio=100)</text></g><g class="participant participant-head" data-participant="backup"><rect fill="#FFFFFF" height="43.2617" rx="2.5" ry="2.5" style="stroke:#000000;stroke-width:1;" width="105.1313" x="459.0803" y="55.2617"/><text fill="#000000" font-family="Segoe UI" font-size="11" lengthAdjust="spacing" textLength="42.6733" x="490.3093" y="74.1318">Access-2</text><text fill="#000000" font-family="Segoe UI" font-size="11" lengthAdjust="spacing" textLength="91.1313" x="466.0803" y="88.7627">(BACKUP, prio=90)</text></g><g class="participant participant-tail" data-participant="backup"><rect fill="#FFFFFF" height="43.2617" rx="2.5" ry="2.5" style="stroke:#000000;stroke-width:1;" width="105.1313" x="459.0803" y="1125.9727"/><text fill="#000000" font-family="Segoe UI" font-size="11" lengthAdjust="spacing" textLength="42.6733" x="490.3093" y="1144.8428">Access-2</text><text fill="#000000" font-family="Segoe UI" font-size="11" lengthAdjust="spacing" textLength="91.1313" x="466.0803" y="1159.4736">(BACKUP, prio=90)</text></g><rect fill="#FFFFFF" height="3" style="stroke:#FFFFFF;stroke-width:1;" width="644.0791" x="13.9697" y="129.8389"/><line style="stroke:#000000;stroke-width:0.5;" x1="13.9697" x2="658.0488" y1="129.8389" y2="129.8389"/><line style="stroke:#000000;stroke-width:0.5;" x1="13.9697" x2="658.0488" y1="132.8389" y2="132.8389"/><rect fill="#FFFFFF" height="22.6309" style="stroke:#000000;stroke-width:1;" width="125.2729" x="273.3728" y="119.5234"/><text fill="#000000" font-family="Segoe UI" font-size="11" font-weight="bold" lengthAdjust="spacing" textLength="108.2383" x="279.3728" y="135.3936">&#1053;&#1086;&#1088;&#1084;&#1072;&#1083;&#1100;&#1085;&#1072;&#1103; &#1088;&#1072;&#1073;&#1086;&#1090;&#1072;</text><g class="message" data-participant-1="master" data-participant-2="backup"><polygon fill="#000000" points="499.646,183.416,509.646,187.416,499.646,191.416,503.646,187.416" style="stroke:#000000;stroke-width:1;"/><line style="stroke:#000000;stroke-width:1;" x1="349.3071" x2="505.646" y1="187.416" y2="187.416"/><text fill="#000000" font-family="Segoe UI" font-size="11" lengthAdjust="spacing" textLength="98.0762" x="356.3071" y="168.0244">VRRP advertisement</text><text fill="#000000" font-family="Segoe UI" font-size="11" lengthAdjust="spacing" textLength="108.7324" x="356.3071" y="182.6553">(&#1082;&#1072;&#1078;&#1076;&#1099;&#1077; 1&#1089;, multicast)</text></g><g class="message" data-participant-1="client" data-participant-2="vip"><polygon fill="#000000" points="194.2085,212.0469,204.2085,216.0469,194.2085,220.0469,198.2085,216.0469" style="stroke:#000000;stroke-width:1;"/><line style="stroke:#000000;stroke-width:1;" x1="97.5601" x2="200.2085" y1="216.0469" y2="216.0469"/><text fill="#000000" font-family="Segoe UI" font-size="11" lengthAdjust="spacing" textLength="84.6484" x="104.5601" y="211.2861">HTTPS proxy :443</text></g><g class="message" data-participant-1="vip" data-participant-2="master"><polygon fill="#000000" points="337.3071,240.6777,347.3071,244.6777,337.3071,248.6777,341.3071,244.6777" style="stroke:#000000;stroke-width:1;"/><line style="stroke:#000000;stroke-width:1;" x1="206.2085" x2="343.3071" y1="244.6777" y2="244.6777"/><text fill="#000000" font-family="Segoe UI" font-size="11" lengthAdjust="spacing" textLength="73.5732" x="213.2085" y="239.917">(VIP &#1085;&#1072; master)</text></g><rect fill="#FFFFFF" height="3" style="stroke:#FFFFFF;stroke-width:1;" width="644.0791" x="13.9697" y="272.9932"/><line style="stroke:#000000;stroke-width:0.5;" x1="13.9697" x2="658.0488" y1="272.9932" y2="272.9932"/><line style="stroke:#000000;stroke-width:0.5;" x1="13.9697" x2="658.0488" y1="275.9932" y2="275.9932"/><rect fill="#FFFFFF" height="22.6309" style="stroke:#000000;stroke-width:1;" width="134.9463" x="268.5361" y="262.6777"/><text fill="#000000" font-family="Segoe UI" font-size="11" font-weight="bold" lengthAdjust="spacing" textLength="117.9116" x="274.5361" y="278.5479">&#1054;&#1090;&#1082;&#1072;&#1079; Squid &#1085;&#1072; Master</text><g class="message" data-participant-1="master" data-participant-2="master"><line style="stroke:#000000;stroke-width:1;" x1="349.3071" x2="391.3071" y1="330.5703" y2="330.5703"/><line style="stroke:#000000;stroke-width:1;" x1="391.3071" x2="391.3071" y1="330.5703" y2="343.5703"/><line style="stroke:#000000;stroke-width:1;" x1="350.3071" x2="391.3071" y1="343.5703" y2="343.5703"/><polygon fill="#000000" points="360.3071,339.5703,350.3071,343.5703,360.3071,347.5703,356.3071,343.5703" style="stroke:#000000;stroke-width:1;"/><text fill="#000000" font-family="Segoe UI" font-size="11" lengthAdjust="spacing" textLength="130.5122" x="356.3071" y="311.1787">check_and_restart_squid.sh</text><text fill="#000000" font-family="Segoe UI" font-size="11" lengthAdjust="spacing" textLength="146.5181" x="356.3071" y="325.8096">killall -0 squid &#8594; FAIL (fall 1/3)</text></g><path d="M514.4878,303.8086 L514.4878,342.8086 L643.4878,342.8086 L643.4878,313.8086 L633.4878,303.8086 L514.4878,303.8086" fill="#FFFFFF" style="stroke:#000000;stroke-width:1;"/><path d="M633.4878,303.8086 L633.4878,313.8086 L643.4878,313.8086 L633.4878,303.8086" fill="#FFFFFF" style="stroke:#000000;stroke-width:1;"/><text fill="#000000" font-family="Segoe UI" font-size="11" lengthAdjust="spacing" textLength="108.7432" x="520.4878" y="320.6787">systemctl restart squid</text><text fill="#000000" font-family="Segoe UI" font-size="11" lengthAdjust="spacing" textLength="73.9116" x="520.4878" y="335.3096">(cooldown 30s)</text><g class="message" data-participant-1="master" data-participant-2="backup"><polygon fill="#000000" points="499.646,368.2012,509.646,372.2012,499.646,376.2012,503.646,372.2012" style="stroke:#000000;stroke-width:1;"/><line style="stroke:#000000;stroke-width:1;" x1="349.3071" x2="505.646" y1="372.2012" y2="372.2012"/><text fill="#000000" font-family="Segoe UI" font-size="11" lengthAdjust="spacing" textLength="98.0762" x="356.3071" y="367.4404">VRRP advertisement</text></g><rect fill="#FFFFFF" height="3" style="stroke:#FFFFFF;stroke-width:1;" width="644.0791" x="13.9697" y="400.5166"/><line style="stroke:#000000;stroke-width:0.5;" x1="13.9697" x2="658.0488" y1="400.5166" y2="400.5166"/><line style="stroke:#000000;stroke-width:0.5;" x1="13.9697" x2="658.0488" y1="403.5166" y2="403.5166"/><rect fill="#FFFFFF" height="22.6309" style="stroke:#000000;stroke-width:1;" width="195.4194" x="238.2996" y="390.2012"/><text fill="#000000" font-family="Segoe UI" font-size="11" font-weight="bold" lengthAdjust="spacing" textLength="178.3848" x="244.2996" y="406.0713">&#1042;&#1072;&#1088;&#1080;&#1072;&#1085;&#1090; A: Squid &#1087;&#1077;&#1088;&#1077;&#1079;&#1072;&#1087;&#1091;&#1089;&#1090;&#1080;&#1083;&#1089;&#1103;</text><g class="message" data-participant-1="master" data-participant-2="master"><line style="stroke:#000000;stroke-width:1;" x1="349.3071" x2="391.3071" y1="443.4629" y2="443.4629"/><line style="stroke:#000000;stroke-width:1;" x1="391.3071" x2="391.3071" y1="443.4629" y2="456.4629"/><line style="stroke:#000000;stroke-width:1;" x1="350.3071" x2="391.3071" y1="456.4629" y2="456.4629"/><polygon fill="#000000" points="360.3071,452.4629,350.3071,456.4629,360.3071,460.4629,356.3071,456.4629" style="stroke:#000000;stroke-width:1;"/><text fill="#000000" font-family="Segoe UI" font-size="11" lengthAdjust="spacing" textLength="134.5942" x="356.3071" y="438.7021">check_squid &#8594; OK (rise 1/2)</text></g><g class="message" data-participant-1="master" data-participant-2="master"><line style="stroke:#000000;stroke-width:1;" x1="349.3071" x2="391.3071" y1="499.7246" y2="499.7246"/><line style="stroke:#000000;stroke-width:1;" x1="391.3071" x2="391.3071" y1="499.7246" y2="512.7246"/><line style="stroke:#000000;stroke-width:1;" x1="350.3071" x2="391.3071" y1="512.7246" y2="512.7246"/><polygon fill="#000000" points="360.3071,508.7246,350.3071,512.7246,360.3071,516.7246,356.3071,512.7246" style="stroke:#000000;stroke-width:1;"/><text fill="#000000" font-family="Segoe UI" font-size="11" lengthAdjust="spacing" textLength="134.5942" x="356.3071" y="480.333">check_squid &#8594; OK (rise 2/2)</text><text fill="#000000" font-family="Segoe UI" font-size="11" font-weight="bold" lengthAdjust="spacing" textLength="148.3389" x="356.3071" y="494.9639">priority &#1074;&#1086;&#1089;&#1089;&#1090;&#1072;&#1085;&#1086;&#1074;&#1083;&#1077;&#1085; = 100</text></g><path d="M516.3086,472.9629 L516.3086,511.9629 L644.3086,511.9629 L644.3086,482.9629 L634.3086,472.9629 L516.3086,472.9629" fill="#90EE90" style="stroke:#000000;stroke-width:1;"/><path d="M634.3086,472.9629 L634.3086,482.9629 L644.3086,482.9629 L634.3086,472.9629" fill="#90EE90" style="stroke:#000000;stroke-width:1;"/><text fill="#000000" font-family="Segoe UI" font-size="11" lengthAdjust="spacing" textLength="107.7817" x="522.3086" y="489.833">&#1057;&#1072;&#1084;&#1086;&#1074;&#1086;&#1089;&#1089;&#1090;&#1072;&#1085;&#1086;&#1074;&#1083;&#1077;&#1085;&#1080;&#1077;</text><text fill="#000000" font-family="Segoe UI" font-size="11" lengthAdjust="spacing" textLength="55.8647" x="522.3086" y="504.4639">bez failover</text><g class="message" data-participant-1="master" data-participant-2="backup"><polygon fill="#000000" points="499.646,537.3555,509.646,541.3555,499.646,545.3555,503.646,541.3555" style="stroke:#000000;stroke-width:1;"/><line style="stroke:#000000;stroke-width:1;" x1="349.3071" x2="505.646" y1="541.3555" y2="541.3555"/><text fill="#000000" font-family="Segoe UI" font-size="11" lengthAdjust="spacing" textLength="98.0762" x="356.3071" y="536.5947">VRRP advertisement</text></g><g class="message" data-participant-1="client" data-participant-2="vip"><polygon fill="#000000" points="194.2085,565.9863,204.2085,569.9863,194.2085,573.9863,198.2085,569.9863" style="stroke:#000000;stroke-width:1;"/><line style="stroke:#000000;stroke-width:1;" x1="97.5601" x2="200.2085" y1="569.9863" y2="569.9863"/><text fill="#000000" font-family="Segoe UI" font-size="11" lengthAdjust="spacing" textLength="84.6484" x="104.5601" y="565.2256">HTTPS proxy :443</text></g><g class="message" data-participant-1="vip" data-participant-2="master"><polygon fill="#000000" points="337.3071,594.6172,347.3071,598.6172,337.3071,602.6172,341.3071,598.6172" style="stroke:#000000;stroke-width:1;"/><line style="stroke:#000000;stroke-width:1;" x1="206.2085" x2="343.3071" y1="598.6172" y2="598.6172"/><text fill="#000000" font-family="Segoe UI" font-size="11" lengthAdjust="spacing" textLength="119.0986" x="213.2085" y="593.8564">(VIP &#1086;&#1089;&#1090;&#1072;&#1105;&#1090;&#1089;&#1103; &#1085;&#1072; master)</text></g><rect fill="#FFFFFF" height="3" style="stroke:#FFFFFF;stroke-width:1;" width="644.0791" x="13.9697" y="626.9326"/><line style="stroke:#000000;stroke-width:0.5;" x1="13.9697" x2="658.0488" y1="626.9326" y2="626.9326"/><line style="stroke:#000000;stroke-width:0.5;" x1="13.9697" x2="658.0488" y1="629.9326" y2="629.9326"/><rect fill="#FFFFFF" height="22.6309" style="stroke:#000000;stroke-width:1;" width="177.2168" x="247.4009" y="616.6172"/><text fill="#000000" font-family="Segoe UI" font-size="11" font-weight="bold" lengthAdjust="spacing" textLength="160.1821" x="253.4009" y="632.4873">&#1042;&#1072;&#1088;&#1080;&#1072;&#1085;&#1090; B: Squid &#1085;&#1077; &#1087;&#1086;&#1076;&#1085;&#1103;&#1083;&#1089;&#1103;</text><g class="message" data-participant-1="master" data-participant-2="master"><line style="stroke:#000000;stroke-width:1;" x1="349.3071" x2="391.3071" y1="669.8789" y2="669.8789"/><line style="stroke:#000000;stroke-width:1;" x1="391.3071" x2="391.3071" y1="669.8789" y2="682.8789"/><line style="stroke:#000000;stroke-width:1;" x1="350.3071" x2="391.3071" y1="682.8789" y2="682.8789"/><polygon fill="#000000" points="360.3071,678.8789,350.3071,682.8789,360.3071,686.8789,356.3071,682.8789" style="stroke:#000000;stroke-width:1;"/><text fill="#000000" font-family="Segoe UI" font-size="11" lengthAdjust="spacing" textLength="137.9512" x="356.3071" y="665.1182">check_squid &#8594; FAIL (fall 2/3)</text></g><g class="message" data-participant-1="master" data-participant-2="backup"><polygon fill="#000000" points="499.646,707.5098,509.646,711.5098,499.646,715.5098,503.646,711.5098" style="stroke:#000000;stroke-width:1;"/><line style="stroke:#000000;stroke-width:1;" x1="349.3071" x2="505.646" y1="711.5098" y2="711.5098"/><text fill="#000000" font-family="Segoe UI" font-size="11" lengthAdjust="spacing" textLength="98.0762" x="356.3071" y="706.749">VRRP advertisement</text></g><g class="message" data-participant-1="master" data-participant-2="master"><line style="stroke:#000000;stroke-width:1;" x1="349.3071" x2="391.3071" y1="754.7715" y2="754.7715"/><line style="stroke:#000000;stroke-width:1;" x1="391.3071" x2="391.3071" y1="754.7715" y2="767.7715"/><line style="stroke:#000000;stroke-width:1;" x1="350.3071" x2="391.3071" y1="767.7715" y2="767.7715"/><polygon fill="#000000" points="360.3071,763.7715,350.3071,767.7715,360.3071,771.7715,356.3071,767.7715" style="stroke:#000000;stroke-width:1;"/><text fill="#000000" font-family="Segoe UI" font-size="11" lengthAdjust="spacing" textLength="137.9512" x="356.3071" y="735.3799">check_squid &#8594; FAIL (fall 3/3)</text><text fill="#000000" font-family="Segoe UI" font-size="11" font-weight="bold" lengthAdjust="spacing" textLength="88.9829" x="356.3071" y="750.0107">priority 100 &#8594; 80</text></g><path d="M505.9209,728.0098 L505.9209,767.0098 L646.9209,767.0098 L646.9209,738.0098 L636.9209,728.0098 L505.9209,728.0098" fill="#FFFFFF" style="stroke:#000000;stroke-width:1;"/><path d="M636.9209,728.0098 L636.9209,738.0098 L646.9209,738.0098 L636.9209,728.0098" fill="#FFFFFF" style="stroke:#000000;stroke-width:1;"/><text fill="#000000" font-family="Segoe UI" font-size="11" lengthAdjust="spacing" textLength="106.2134" x="511.9209" y="744.8799">weight -20 &#1087;&#1088;&#1080;&#1084;&#1077;&#1085;&#1105;&#1085;</text><text fill="#000000" font-family="Segoe UI" font-size="11" lengthAdjust="spacing" textLength="120.7905" x="511.9209" y="759.5107">priority(80) &lt; backup(90)</text><g class="message" data-participant-1="master" data-participant-2="backup"><polygon fill="#000000" points="499.646,792.4023,509.646,796.4023,499.646,800.4023,503.646,796.4023" style="stroke:#000000;stroke-width:1;"/><line style="stroke:#000000;stroke-width:1;" x1="349.3071" x2="505.646" y1="796.4023" y2="796.4023"/><text fill="#000000" font-family="Segoe UI" font-size="11" lengthAdjust="spacing" textLength="101.6104" x="356.3071" y="791.6416">VRRP advert prio=80</text></g><path d="M453.9697,809.4023 L453.9697,862.4023 L566.9697,862.4023 L566.9697,819.4023 L556.9697,809.4023 L453.9697,809.4023" fill="#FFFFFF" style="stroke:#000000;stroke-width:1;"/><path d="M556.9697,809.4023 L556.9697,819.4023 L566.9697,819.4023 L556.9697,809.4023" fill="#FFFFFF" style="stroke:#000000;stroke-width:1;"/><text fill="#000000" font-family="Segoe UI" font-size="11" lengthAdjust="spacing" textLength="92.4634" x="459.9697" y="826.2725">&#1057;&#1074;&#1086;&#1081; priority(90) &gt;</text><text fill="#000000" font-family="Segoe UI" font-size="11" lengthAdjust="spacing" textLength="87.0977" x="459.9697" y="840.9033">advert priority(80)</text><text fill="#000000" font-family="Segoe UI" font-size="11" lengthAdjust="spacing" textLength="53.6626" x="459.9697" y="855.5342">&#8594; Preempt</text><rect fill="#FFFFFF" height="3" style="stroke:#FFFFFF;stroke-width:1;" width="644.0791" x="13.9697" y="888.6104"/><line style="stroke:#000000;stroke-width:0.5;" x1="13.9697" x2="658.0488" y1="888.6104" y2="888.6104"/><line style="stroke:#000000;stroke-width:0.5;" x1="13.9697" x2="658.0488" y1="891.6104" y2="891.6104"/><rect fill="#FFFFFF" height="22.6309" style="stroke:#000000;stroke-width:1;" width="57.9409" x="307.0388" y="878.2949"/><text fill="#000000" font-family="Segoe UI" font-size="11" font-weight="bold" lengthAdjust="spacing" textLength="40.9063" x="313.0388" y="894.165">Failover</text><g class="message" data-participant-1="backup" data-participant-2="backup"><line style="stroke:#000000;stroke-width:1;" x1="511.646" x2="553.646" y1="946.1875" y2="946.1875"/><line style="stroke:#000000;stroke-width:1;" x1="553.646" x2="553.646" y1="946.1875" y2="959.1875"/><line style="stroke:#000000;stroke-width:1;" x1="512.646" x2="553.646" y1="959.1875" y2="959.1875"/><polygon fill="#000000" points="522.646,955.1875,512.646,959.1875,522.646,963.1875,518.646,959.1875" style="stroke:#000000;stroke-width:1;"/><text fill="#000000" font-family="Segoe UI" font-size="11" lengthAdjust="spacing" textLength="96.5508" x="518.646" y="926.7959">BACKUP &#8594; MASTER</text><text fill="#000000" font-family="Segoe UI" font-size="11" lengthAdjust="spacing" textLength="73.498" x="518.646" y="941.4268">Gratuitous ARP</text></g><g class="message" data-participant-1="backup" data-participant-2="vip"><polygon fill="#000000" points="217.2085,998.4492,207.2085,1002.4492,217.2085,1006.4492,213.2085,1002.4492" style="stroke:#000000;stroke-width:1;"/><line style="stroke:#000000;stroke-width:1;" x1="211.2085" x2="510.646" y1="1002.4492" y2="1002.4492"/><text fill="#000000" font-family="Segoe UI" font-size="11" lengthAdjust="spacing" textLength="72.5366" x="223.2085" y="983.0576">VIP &#1087;&#1077;&#1088;&#1077;&#1085;&#1077;&#1089;&#1105;&#1085;</text><text fill="#000000" font-family="Segoe UI" font-size="11" lengthAdjust="spacing" textLength="57.6318" x="223.2085" y="997.6885">&#1085;&#1072; Access-2</text></g><g class="message" data-participant-1="client" data-participant-2="vip"><polygon fill="#000000" points="194.2085,1027.0801,204.2085,1031.0801,194.2085,1035.0801,198.2085,1031.0801" style="stroke:#000000;stroke-width:1;"/><line style="stroke:#000000;stroke-width:1;" x1="97.5601" x2="200.2085" y1="1031.0801" y2="1031.0801"/><text fill="#000000" font-family="Segoe UI" font-size="11" lengthAdjust="spacing" textLength="84.6484" x="104.5601" y="1026.3193">HTTPS proxy :443</text></g><g class="message" data-participant-1="vip" data-participant-2="backup"><polygon fill="#000000" points="499.646,1055.7109,509.646,1059.7109,499.646,1063.7109,503.646,1059.7109" style="stroke:#000000;stroke-width:1;"/><line style="stroke:#000000;stroke-width:1;" x1="206.2085" x2="505.646" y1="1059.7109" y2="1059.7109"/><text fill="#000000" font-family="Segoe UI" font-size="11" lengthAdjust="spacing" textLength="75.8345" x="213.2085" y="1054.9502">(VIP &#1085;&#1072; backup)</text></g><path d="M18.9697,1072.7109 L18.9697,1111.7109 L176.9697,1111.7109 L176.9697,1082.7109 L166.9697,1072.7109 L18.9697,1072.7109" fill="#FFFFFF" style="stroke:#000000;stroke-width:1;"/><path d="M166.9697,1072.7109 L166.9697,1082.7109 L176.9697,1082.7109 L166.9697,1072.7109" fill="#FFFFFF" style="stroke:#000000;stroke-width:1;"/><text fill="#000000" font-family="Segoe UI" font-size="11" lengthAdjust="spacing" textLength="137.5054" x="24.9697" y="1089.5811">&#1050;&#1083;&#1080;&#1077;&#1085;&#1090; &#1087;&#1088;&#1086;&#1076;&#1086;&#1083;&#1078;&#1072;&#1077;&#1090; &#1088;&#1072;&#1073;&#1086;&#1090;&#1091;</text><text fill="#000000" font-family="Segoe UI" font-size="11" lengthAdjust="spacing" textLength="116.7891" x="24.9697" y="1104.2119">&#1095;&#1077;&#1088;&#1077;&#1079; &#1090;&#1086;&#1090; &#1078;&#1077; VIP-&#1072;&#1076;&#1088;&#1077;&#1089;</text><!--SRC=[dLNDJjj04BxxAQPmYH5fdOG3YHgaW98MKTg802TBo3WBMSLPf_O62YS2KdjeLGJggL8hzGrIH83o4rvX_GeyIMUzpbz1RQXoYMRdcvtlcs_7JtY5r0ZK7OiopQzILhSygmRhbbtTzDm6Ay-vZkl1U24lVmCPPR9XDHnUS1b_RM65iHBPT0cip8yzd5IYkmGI2KtZb3i4LfUMYb2mgEDk4G_kzhw0Q8cJO5zqnAre1tkYBSunSXiS14rn2QMt3Le6SG6zqqjn5NmEFk2_6t4Xsh0wNzGql9LJczOjnc5CV1LNyaZS1FjZOFbWEvGmFfo4iF1iYzQHPA6GdfiQJiZPDl7zUC9aiSLSQJc_D0brZxhPX67e8R9c-Pnu3uAI29hDpIsi52DGEi98UHjrJSjcGNmJ7IHqZMIlWaz8fXKS0WPQuYSUx8iMPBEQfYw1-4m4XOnIq2gZV9pwE4F6yJQKfINEn6dm4IL91Cr9gA7-r4QuhYd-ieXacu6Noyl54ZRcljk1pDHKIfDXF8qkoq0CrG7PKXJILSVViIrvptbtB39ZKO66c-rLiYl4hgvPhBpc4P-ZL6k-X3xrAoQhKiUn70VY1eH1k7j_38NS_2k8RSXuubbArvZB2NXqiyAnch-3PMisTo2gfe38ttPTf-nkCqWPlZwQQehJCUg-XsvfIRT0BjEbTi-CoFq29zN4AVsLQv_AcmM8UNWP4adgZm8a4M2oYGdf7O_o7H0dw8bcs0GsYc_b12sE1eSie1yd9WPb6ayR-NpQmFhY1sPVXzaFekKZCTawsOMDw46EgDn_6ggZMWYEWlrGn_iE6vx6RAPljBOSIKUSui7XuyOmuAYaTDHe51zNE8M5XmQ6KmbpflyOJWQsIVWddZIGKKZsEbnLH-B6P5ryRDhGuNdKO0otnxysWLepquQwAzojlJIq0Hf0_89UTIm8CoORW7OlDPdikkWHKgkh5zBRrLBkgEPW4shFXMJLdZJP2y_Y3ShTXW-vfU80IBabz4BtVU5aSPWX-T0EtGqwiiTwZVINbWhf0rf4nL2BWM-3qbzwgeF1CpHT6uFz5HmSc4n-QDGU0FcDag0pzT69OzgfF0gQscy0]--></g></svg>