<svg xmlns="http://www.w3.org/2000/svg" xmlns:xlink="http://www.w3.org/1999/xlink" contentStyleType="text/css" data-diagram-type="CLASS" height="876px" preserveAspectRatio="none" style="width:856px;height:876px;background:#FFFFFF;" version="1.1" viewBox="0 0 856 876" width="856px" zoomAndPan="magnify"><title>&#1050;&#1086;&#1085;&#1094;&#1077;&#1087;&#1090;&#1091;&#1072;&#1083;&#1100;&#1085;&#1072;&#1103; &#1084;&#1086;&#1076;&#1077;&#1083;&#1100; &#1076;&#1072;&#1085;&#1085;&#1099;&#1093; (CDM)</title><defs/><g><text fill="#000000" font-family="Segoe UI" font-size="22" font-weight="bold" lengthAdjust="spacing" textLength="427.4854" x="210.0928" y="42.7402">&#1050;&#1086;&#1085;&#1094;&#1077;&#1087;&#1090;&#1091;&#1072;&#1083;&#1100;&#1085;&#1072;&#1103; &#1084;&#1086;&#1076;&#1077;&#1083;&#1100; &#1076;&#1072;&#1085;&#1085;&#1099;&#1093; (CDM)</text><text fill="#000000" font-family="Segoe UI" font-size="22" font-weight="bold" lengthAdjust="spacing" textLength="196.9902" x="325.3403" y="72.002">AI Assistants Proxy</text><!--class User--><g class="entity" data-entity="User" data-source-line="8" data-uid="ent0002" id="entity_User"><rect fill="#FFFFFF" height="105.8633" rx="2.5" ry="2.5" style="stroke:#000000;stroke-width:1;" width="197.8848" x="52" y="99.5234"/><ellipse cx="98.646" cy="117.834" fill="#FFFFFF" rx="9" ry="9" style="stroke:#000000;stroke-width:1;"/><path d="M94.3804,123.834 L94.3804,111.6621 L103.4116,111.6621 L103.4116,113.7246 L96.8335,113.7246 L96.8335,116.4277 L102.9429,116.4277 L102.9429,118.4746 L96.8335,118.4746 L96.8335,121.7871 L103.646,121.7871 L103.646,123.834 L94.3804,123.834 Z " fill="#000000"/><text fill="#000000" font-family="Segoe UI" font-size="14" lengthAdjust="spacing" textLength="89.0928" x="120.146" y="123.6309">&#1055;&#1086;&#1083;&#1100;&#1079;&#1086;&#1074;&#1072;&#1090;&#1077;&#1083;&#1100;</text><line style="stroke:#000000;stroke-width:1;" x1="53" x2="248.8848" y1="136.1445" y2="136.1445"/><text fill="#000000" font-family="Segoe UI" font-size="14" lengthAdjust="spacing" textLength="177.8848" x="62" y="159.252">&#1059;&#1095;&#1105;&#1090;&#1085;&#1072;&#1103; &#1079;&#1072;&#1087;&#1080;&#1089;&#1100; &#1076;&#1083;&#1103; &#1076;&#1086;&#1089;&#1090;&#1091;&#1087;&#1072;</text><text fill="#000000" font-family="Segoe UI" font-size="14" lengthAdjust="spacing" textLength="113.2783" x="62" y="185.873">&#1082; &#1087;&#1088;&#1086;&#1082;&#1089;&#1080;-&#1089;&#1077;&#1088;&#1074;&#1080;&#1089;&#1091;</text><line style="stroke:#000000;stroke-width:1;" x1="53" x2="248.8848" y1="197.3867" y2="197.3867"/></g><!--class Credential--><g class="entity" data-entity="Credential" data-source-line="13" data-uid="ent0003" id="entity_Credential"><rect fill="#FFFFFF" height="105.8633" rx="2.5" ry="2.5" style="stroke:#000000;stroke-width:1;" width="149.835" x="12" y="265.5234"/><ellipse cx="28.4005" cy="283.834" fill="#FFFFFF" rx="9" ry="9" style="stroke:#000000;stroke-width:1;"/><path d="M24.1349,289.834 L24.1349,277.6621 L33.1661,277.6621 L33.1661,279.7246 L26.588,279.7246 L26.588,282.4277 L32.6974,282.4277 L32.6974,284.4746 L26.588,284.4746 L26.588,287.7871 L33.4005,287.7871 L33.4005,289.834 L24.1349,289.834 Z " fill="#000000"/><text fill="#000000" font-family="Segoe UI" font-size="14" lengthAdjust="spacing" textLength="106.2783" x="45.1562" y="289.6309">&#1059;&#1095;&#1105;&#1090;&#1085;&#1099;&#1077; &#1076;&#1072;&#1085;&#1085;&#1099;&#1077;</text><line style="stroke:#000000;stroke-width:1;" x1="13" x2="160.835" y1="302.1445" y2="302.1445"/><text fill="#000000" font-family="Segoe UI" font-size="14" lengthAdjust="spacing" textLength="129.835" x="22" y="325.252">&#1051;&#1086;&#1075;&#1080;&#1085; &#1080; &#1093;&#1077;&#1096; &#1087;&#1072;&#1088;&#1086;&#1083;&#1103;</text><text fill="#000000" font-family="Segoe UI" font-size="14" lengthAdjust="spacing" textLength="90.3096" x="22" y="351.873">&#1076;&#1083;&#1103; Basic Auth</text><line style="stroke:#000000;stroke-width:1;" x1="13" x2="160.835" y1="363.3867" y2="363.3867"/></g><!--class Config--><g class="entity" data-entity="Config" data-source-line="18" data-uid="ent0004" id="entity_Config"><rect fill="#FFFFFF" height="105.8633" rx="2.5" ry="2.5" style="stroke:#000000;stroke-width:1;" width="180.46" x="487" y="99.5234"/><ellipse cx="523.0634" cy="117.834" fill="#FFFFFF" rx="9" ry="9" style="stroke:#000000;stroke-width:1;"/><path d="M518.7978,123.834 L518.7978,111.6621 L527.829,111.6621 L527.829,113.7246 L521.2509,113.7246 L521.2509,116.4277 L527.3603,116.4277 L527.3603,118.4746 L521.2509,118.4746 L521.2509,121.7871 L528.0634,121.7871 L528.0634,123.834 L518.7978,123.834 Z " fill="#000000"/><text fill="#000000" font-family="Segoe UI" font-size="14" lengthAdjust="spacing" textLength="93.208" x="544.1886" y="123.6309">&#1050;&#1086;&#1085;&#1092;&#1080;&#1075;&#1091;&#1088;&#1072;&#1094;&#1080;&#1103;</text><line style="stroke:#000000;stroke-width:1;" x1="488" x2="666.46" y1="136.1445" y2="136.1445"/><text fill="#000000" font-family="Segoe UI" font-size="14" lengthAdjust="spacing" textLength="160.46" x="497" y="159.252">&#1055;&#1072;&#1088;&#1072;&#1084;&#1077;&#1090;&#1088;&#1099; inventory.yml</text><text fill="#000000" font-family="Segoe UI" font-size="14" lengthAdjust="spacing" textLength="123.9424" x="497" y="185.873">&#1076;&#1083;&#1103; &#1088;&#1072;&#1079;&#1074;&#1105;&#1088;&#1090;&#1099;&#1074;&#1072;&#1085;&#1080;&#1103;</text><line style="stroke:#000000;stroke-width:1;" x1="488" x2="666.46" y1="197.3867" y2="197.3867"/></g><!--class DomainList--><g class="entity" data-entity="DomainList" data-source-line="23" data-uid="ent0005" id="entity_DomainList"><rect fill="#FFFFFF" height="105.8633" rx="2.5" ry="2.5" style="stroke:#000000;stroke-width:1;" width="185.4609" x="268.5" y="265.5234"/><ellipse cx="281.5" cy="283.834" fill="#FFFFFF" rx="9" ry="9" style="stroke:#000000;stroke-width:1;"/><path d="M277.2344,289.834 L277.2344,277.6621 L286.2656,277.6621 L286.2656,279.7246 L279.6875,279.7246 L279.6875,282.4277 L285.7969,282.4277 L285.7969,284.4746 L279.6875,284.4746 L279.6875,287.7871 L286.5,287.7871 L286.5,289.834 L277.2344,289.834 Z " fill="#000000"/><text fill="#000000" font-family="Segoe UI" font-size="14" lengthAdjust="spacing" textLength="149.4609" x="297.5" y="289.6309">&#1041;&#1077;&#1083;&#1099;&#1081; &#1089;&#1087;&#1080;&#1089;&#1086;&#1082; &#1076;&#1086;&#1084;&#1077;&#1085;&#1086;&#1074;</text><line style="stroke:#000000;stroke-width:1;" x1="269.5" x2="452.9609" y1="302.1445" y2="302.1445"/><text fill="#000000" font-family="Segoe UI" font-size="14" lengthAdjust="spacing" textLength="143.5479" x="278.5" y="325.252">&#1056;&#1072;&#1079;&#1088;&#1077;&#1096;&#1105;&#1085;&#1085;&#1099;&#1077; &#1076;&#1086;&#1084;&#1077;&#1085;&#1099;</text><line style="stroke:#000000;stroke-width:1;" x1="269.5" x2="452.9609" y1="336.7656" y2="336.7656"/><text fill="#000000" font-family="Segoe UI" font-size="14" lengthAdjust="spacing" textLength="132.9795" x="278.5" y="359.873">AI API (exact + regex)</text></g><!--class ACL--><g class="entity" data-entity="ACL" data-source-line="28" data-uid="ent0006" id="entity_ACL"><rect fill="#FFFFFF" height="105.8633" rx="2.5" ry="2.5" style="stroke:#000000;stroke-width:1;" width="175.8525" x="489" y="265.5234"/><ellipse cx="557.0322" cy="283.834" fill="#FFFFFF" rx="9" ry="9" style="stroke:#000000;stroke-width:1;"/><path d="M552.7666,289.834 L552.7666,277.6621 L561.7979,277.6621 L561.7979,279.7246 L555.2197,279.7246 L555.2197,282.4277 L561.3291,282.4277 L561.3291,284.4746 L555.2197,284.4746 L555.2197,287.7871 L562.0322,287.7871 L562.0322,289.834 L552.7666,289.834 Z " fill="#000000"/><text fill="#000000" font-family="Segoe UI" font-size="14" lengthAdjust="spacing" textLength="24.2881" x="578.5322" y="289.6309">ACL</text><line style="stroke:#000000;stroke-width:1;" x1="490" x2="663.8525" y1="302.1445" y2="302.1445"/><text fill="#000000" font-family="Segoe UI" font-size="14" lengthAdjust="spacing" textLength="155.8525" x="499" y="325.252">IP-&#1072;&#1076;&#1088;&#1077;&#1089;&#1072; access-&#1087;&#1088;&#1086;&#1082;&#1089;&#1080;</text><text fill="#000000" font-family="Segoe UI" font-size="14" lengthAdjust="spacing" textLength="112.2393" x="499" y="351.873">&#1076;&#1083;&#1103; upstream ACL</text><line style="stroke:#000000;stroke-width:1;" x1="490" x2="663.8525" y1="363.3867" y2="363.3867"/></g><!--class Secret--><g class="entity" data-entity="Secret" data-source-line="33" data-uid="ent0007" id="entity_Secret"><rect fill="#FFFFFF" height="105.8633" rx="2.5" ry="2.5" style="stroke:#000000;stroke-width:1;" width="149.6709" x="700" y="265.5234"/><ellipse cx="739.998" cy="283.834" fill="#FFFFFF" rx="9" ry="9" style="stroke:#000000;stroke-width:1;"/><path d="M735.7324,289.834 L735.7324,277.6621 L744.7637,277.6621 L744.7637,279.7246 L738.1855,279.7246 L738.1855,282.4277 L744.2949,282.4277 L744.2949,284.4746 L738.1855,284.4746 L738.1855,287.7871 L744.998,287.7871 L744.998,289.834 L735.7324,289.834 Z " fill="#000000"/><text fill="#000000" font-family="Segoe UI" font-size="14" lengthAdjust="spacing" textLength="54.1748" x="761.498" y="289.6309">&#1057;&#1077;&#1082;&#1088;&#1077;&#1090;&#1099;</text><line style="stroke:#000000;stroke-width:1;" x1="701" x2="848.6709" y1="302.1445" y2="302.1445"/><text fill="#000000" font-family="Segoe UI" font-size="14" lengthAdjust="spacing" textLength="97.5488" x="710" y="325.252">MTProxy secret,</text><text fill="#000000" font-family="Segoe UI" font-size="14" lengthAdjust="spacing" textLength="129.6709" x="710" y="351.873">Keepalived password</text><line style="stroke:#000000;stroke-width:1;" x1="701" x2="848.6709" y1="363.3867" y2="363.3867"/></g><!--class AccessProxy--><g class="entity" data-entity="AccessProxy" data-source-line="38" data-uid="ent0008" id="entity_AccessProxy"><rect fill="#FFFFFF" height="105.8633" rx="2.5" ry="2.5" style="stroke:#000000;stroke-width:1;" width="141.5293" x="217" y="431.5234"/><ellipse cx="241.8876" cy="449.834" fill="#FFFFFF" rx="9" ry="9" style="stroke:#000000;stroke-width:1;"/><path d="M237.622,455.834 L237.622,443.6621 L246.6533,443.6621 L246.6533,445.7246 L240.0751,445.7246 L240.0751,448.4277 L246.1845,448.4277 L246.1845,450.4746 L240.0751,450.4746 L240.0751,453.7871 L246.8876,453.7871 L246.8876,455.834 L237.622,455.834 Z " fill="#000000"/><text fill="#000000" font-family="Segoe UI" font-size="14" lengthAdjust="spacing" textLength="79.1123" x="260.5293" y="455.6309">Access Proxy</text><line style="stroke:#000000;stroke-width:1;" x1="218" x2="357.5293" y1="468.1445" y2="468.1445"/><text fill="#000000" font-family="Segoe UI" font-size="14" lengthAdjust="spacing" textLength="121.5293" x="227" y="491.252">Squid &#1085;&#1072; access tier</text><line style="stroke:#000000;stroke-width:1;" x1="218" x2="357.5293" y1="502.7656" y2="502.7656"/><text fill="#000000" font-family="Segoe UI" font-size="14" lengthAdjust="spacing" textLength="85.0459" x="227" y="525.873">(&#1090;&#1086;&#1095;&#1082;&#1072; &#1074;&#1093;&#1086;&#1076;&#1072;)</text></g><!--class LogRecord--><g class="entity" data-entity="LogRecord" data-source-line="43" data-uid="ent0009" id="entity_LogRecord"><rect fill="#FFFFFF" height="105.8633" rx="2.5" ry="2.5" style="stroke:#000000;stroke-width:1;" width="197.6592" x="189" y="597.5234"/><ellipse cx="227.8359" cy="615.834" fill="#FFFFFF" rx="9" ry="9" style="stroke:#000000;stroke-width:1;"/><path d="M223.5703,621.834 L223.5703,609.6621 L232.6016,609.6621 L232.6016,611.7246 L226.0234,611.7246 L226.0234,614.4277 L232.1328,614.4277 L232.1328,616.4746 L226.0234,616.4746 L226.0234,619.7871 L232.8359,619.7871 L232.8359,621.834 L223.5703,621.834 Z " fill="#000000"/><text fill="#000000" font-family="Segoe UI" font-size="14" lengthAdjust="spacing" textLength="104.4873" x="249.3359" y="621.6309">&#1047;&#1072;&#1087;&#1080;&#1089;&#1080; &#1078;&#1091;&#1088;&#1085;&#1072;&#1083;&#1072;</text><line style="stroke:#000000;stroke-width:1;" x1="190" x2="385.6592" y1="634.1445" y2="634.1445"/><text fill="#000000" font-family="Segoe UI" font-size="14" lengthAdjust="spacing" textLength="177.6592" x="199" y="657.252">&#1057;&#1090;&#1088;&#1091;&#1082;&#1090;&#1091;&#1088;&#1080;&#1088;&#1086;&#1074;&#1072;&#1085;&#1085;&#1099;&#1077; &#1079;&#1072;&#1087;&#1080;&#1089;&#1080;</text><text fill="#000000" font-family="Segoe UI" font-size="14" lengthAdjust="spacing" textLength="62.1318" x="199" y="683.873">access.log</text><line style="stroke:#000000;stroke-width:1;" x1="190" x2="385.6592" y1="695.3867" y2="695.3867"/></g><!--class CrowdSec--><g class="entity" data-entity="CrowdSec" data-source-line="48" data-uid="ent0010" id="entity_CrowdSec"><rect fill="#FFFFFF" height="105.8633" rx="2.5" ry="2.5" style="stroke:#000000;stroke-width:1;" width="160.4717" x="208" y="763.5234"/><ellipse cx="249.8232" cy="781.834" fill="#FFFFFF" rx="9" ry="9" style="stroke:#000000;stroke-width:1;"/><path d="M245.5576,787.834 L245.5576,775.6621 L254.5889,775.6621 L254.5889,777.7246 L248.0107,777.7246 L248.0107,780.4277 L254.1201,780.4277 L254.1201,782.4746 L248.0107,782.4746 L248.0107,785.7871 L254.8232,785.7871 L254.8232,787.834 L245.5576,787.834 Z " fill="#000000"/><text fill="#000000" font-family="Segoe UI" font-size="14" lengthAdjust="spacing" textLength="61.3252" x="271.3232" y="787.6309">CrowdSec</text><line style="stroke:#000000;stroke-width:1;" x1="209" x2="367.4717" y1="800.1445" y2="800.1445"/><text fill="#000000" font-family="Segoe UI" font-size="14" lengthAdjust="spacing" textLength="140.4717" x="218" y="823.252">IPS: &#1072;&#1085;&#1072;&#1083;&#1080;&#1079; &#1078;&#1091;&#1088;&#1085;&#1072;&#1083;&#1086;&#1074;,</text><text fill="#000000" font-family="Segoe UI" font-size="14" lengthAdjust="spacing" textLength="115.3564" x="218" y="849.873">&#1073;&#1083;&#1086;&#1082;&#1080;&#1088;&#1086;&#1074;&#1082;&#1072; &#1091;&#1075;&#1088;&#1086;&#1079;</text><line style="stroke:#000000;stroke-width:1;" x1="209" x2="367.4717" y1="861.3867" y2="861.3867"/></g><!--link User to Credential--><g class="link" data-entity-1="User" data-entity-2="Credential" data-source-line="53" data-uid="lnk11" id="link_User_Credential"><path codeLine="53" d="M107,205.9634 C107,225.0134 107,246.4534 107,265.4734" fill="none" id="User-Credential" style="stroke:#000000;stroke-width:1;"/><polygon fill="#000000" points="112,227.3589,114.9389,218.3139,109.0611,218.3139,112,227.3589" style="stroke:#000000;stroke-width:1;"/><text fill="#000000" font-family="Segoe UI" font-size="13" lengthAdjust="spacing" textLength="35.6104" x="125" y="227.7418">&#1080;&#1084;&#1077;&#1077;&#1090;</text><text fill="#000000" font-family="Segoe UI" font-size="13" lengthAdjust="spacing" textLength="7.0078" x="90.3739" y="231.2273">1</text><text fill="#000000" font-family="Segoe UI" font-size="13" lengthAdjust="spacing" textLength="7.0078" x="97.6126" y="250.1306">1</text></g><!--link Config to DomainList--><g class="link" data-entity-1="Config" data-entity-2="DomainList" data-source-line="54" data-uid="lnk12" id="link_Config_DomainList"><path codeLine="54" d="M486.96,152.5234 C427.69,152.5234 361,152.5234 361,152.5234 C361,152.5234 361,216.5634 361,265.0834" fill="none" id="Config-DomainList" style="stroke:#000000;stroke-width:1;"/><polygon fill="#000000" points="277.9717,142.5006,286.6745,138.665,282.7579,134.2822,277.9717,142.5006" style="stroke:#000000;stroke-width:1;"/><text fill="#000000" font-family="Segoe UI" font-size="13" lengthAdjust="spacing" textLength="68.9863" x="294.7" y="144.5518">&#1086;&#1087;&#1088;&#1077;&#1076;&#1077;&#1083;&#1103;&#1077;&#1090;</text><text fill="#000000" font-family="Segoe UI" font-size="13" lengthAdjust="spacing" textLength="7.0078" x="467.8637" y="144.5343">1</text><text fill="#000000" font-family="Segoe UI" font-size="13" lengthAdjust="spacing" textLength="5.4209" x="351.2054" y="250.1014">*</text></g><!--link Config to ACL--><g class="link" data-entity-1="Config" data-entity-2="ACL" data-source-line="55" data-uid="lnk13" id="link_Config_ACL"><path codeLine="55" d="M577,205.9634 C577,225.0134 577,246.4534 577,265.4734" fill="none" id="Config-ACL" style="stroke:#000000;stroke-width:1;"/><polygon fill="#000000" points="582,227.3589,584.9389,218.3139,579.0611,218.3139,582,227.3589" style="stroke:#000000;stroke-width:1;"/><text fill="#000000" font-family="Segoe UI" font-size="13" lengthAdjust="spacing" textLength="68.9863" x="595" y="227.7418">&#1086;&#1087;&#1088;&#1077;&#1076;&#1077;&#1083;&#1103;&#1077;&#1090;</text><text fill="#000000" font-family="Segoe UI" font-size="13" lengthAdjust="spacing" textLength="7.0078" x="565.155" y="231.2273">1</text><text fill="#000000" font-family="Segoe UI" font-size="13" lengthAdjust="spacing" textLength="5.4209" x="567.2036" y="250.1306">*</text></g><!--link Config to Secret--><g class="link" data-entity-1="Config" data-entity-2="Secret" data-source-line="56" data-uid="lnk14" id="link_Config_Secret"><path codeLine="56" d="M667.02,152.5234 C719.32,152.5234 775,152.5234 775,152.5234 C775,152.5234 775,216.5634 775,265.0834" fill="none" id="Config-Secret" style="stroke:#000000;stroke-width:1;"/><polygon fill="#000000" points="703.4614,145.0671,699.3205,136.5053,695.0789,140.5744,703.4614,145.0671" style="stroke:#000000;stroke-width:1;"/><text fill="#000000" font-family="Segoe UI" font-size="13" lengthAdjust="spacing" textLength="57.7573" x="713" y="146.8418">&#1089;&#1086;&#1076;&#1077;&#1088;&#1078;&#1080;&#1090;</text><text fill="#000000" font-family="Segoe UI" font-size="13" lengthAdjust="spacing" textLength="7.0078" x="679.3812" y="144.4959">1</text><text fill="#000000" font-family="Segoe UI" font-size="13" lengthAdjust="spacing" textLength="5.4209" x="765.2535" y="250.1014">*</text></g><!--link AccessProxy to LogRecord--><g class="link" data-entity-1="AccessProxy" data-entity-2="LogRecord" data-source-line="57" data-uid="lnk15" id="link_AccessProxy_LogRecord"><path codeLine="57" d="M288,537.9634 C288,557.0134 288,578.4534 288,597.4734" fill="none" id="AccessProxy-LogRecord" style="stroke:#000000;stroke-width:1;"/><polygon fill="#000000" points="293,559.3589,295.9389,550.3139,290.0611,550.3139,293,559.3589" style="stroke:#000000;stroke-width:1;"/><text fill="#000000" font-family="Segoe UI" font-size="13" lengthAdjust="spacing" textLength="67.3359" x="306" y="559.7418">&#1075;&#1077;&#1085;&#1077;&#1088;&#1080;&#1088;&#1091;&#1077;&#1090;</text><text fill="#000000" font-family="Segoe UI" font-size="13" lengthAdjust="spacing" textLength="7.0078" x="276.2059" y="563.2273">1</text><text fill="#000000" font-family="Segoe UI" font-size="13" lengthAdjust="spacing" textLength="5.4209" x="278.216" y="582.1306">*</text></g><!--link LogRecord to CrowdSec--><g class="link" data-entity-1="LogRecord" data-entity-2="CrowdSec" data-source-line="58" data-uid="lnk16" id="link_LogRecord_CrowdSec"><path codeLine="58" d="M288,703.9634 C288,723.0134 288,744.4534 288,763.4734" fill="none" id="LogRecord-CrowdSec" style="stroke:#000000;stroke-width:1;"/><polygon fill="#000000" points="293,725.3589,295.9389,716.3139,290.0611,716.3139,293,725.3589" style="stroke:#000000;stroke-width:1;"/><text fill="#000000" font-family="Segoe UI" font-size="13" lengthAdjust="spacing" textLength="90.8604" x="306" y="725.7418">&#1072;&#1085;&#1072;&#1083;&#1080;&#1079;&#1080;&#1088;&#1091;&#1102;&#1090;&#1089;&#1103;</text><text fill="#000000" font-family="Segoe UI" font-size="13" lengthAdjust="spacing" textLength="5.4209" x="278.3307" y="729.2273">*</text><text fill="#000000" font-family="Segoe UI" font-size="13" lengthAdjust="spacing" textLength="7.0078" x="276.0093" y="748.1306">1</text></g><!--link User to AccessProxy--><g class="link" data-entity-1="User" data-entity-2="AccessProxy" data-source-line="59" data-uid="lnk17" id="link_User_AccessProxy"><path codeLine="59" d="M239,205.8634 C239,267.8234 239,369.4134 239,431.3134" fill="none" id="User-AccessProxy" style="stroke:#000000;stroke-width:1;"/><polygon fill="#000000" points="156.25,337.2389,159.1889,328.1939,153.3111,328.1939,156.25,337.2389" style="stroke:#000000;stroke-width:1;"/><text fill="#000000" font-family="Segoe UI" font-size="13" lengthAdjust="spacing" textLength="94.7642" x="169.25" y="337.6218">&#1087;&#1086;&#1076;&#1082;&#1083;&#1102;&#1095;&#1072;&#1077;&#1090;&#1089;&#1103; &#1082;</text><text fill="#000000" font-family="Segoe UI" font-size="13" lengthAdjust="spacing" textLength="5.4209" x="239.4544" y="231.5292">*</text><text fill="#000000" font-family="Segoe UI" font-size="13" lengthAdjust="spacing" textLength="7.0078" x="237.9713" y="416.3594">1</text></g><!--link Credential to AccessProxy--><g class="link" data-entity-1="Credential" data-entity-2="AccessProxy" data-source-line="60" data-uid="lnk18" id="link_Credential_AccessProxy"><path codeLine="60" d="M162.04,318.5234 C195.71,318.5234 228,318.5234 228,318.5234 C228,318.5234 228,382.5634 228,431.0834" fill="none" id="Credential-AccessProxy" style="stroke:#000000;stroke-width:1;"/><polygon fill="#000000" points="185.0279,359.7828,182.9905,350.4931,177.9192,353.4648,185.0279,359.7828" style="stroke:#000000;stroke-width:1;"/><text fill="#000000" font-family="Segoe UI" font-size="13" lengthAdjust="spacing" textLength="78.8379" x="195.5" y="360.8518">&#1080;&#1089;&#1087;&#1086;&#1083;&#1100;&#1079;&#1091;&#1077;&#1090;&#1089;&#1103;</text><text fill="#000000" font-family="Segoe UI" font-size="13" lengthAdjust="spacing" textLength="5.4209" x="173.8397" y="310.3807">*</text><text fill="#000000" font-family="Segoe UI" font-size="13" lengthAdjust="spacing" textLength="7.0078" x="208.8026" y="416.1014">1</text></g><!--link DomainList to AccessProxy--><g class="link" data-entity-1="DomainList" data-entity-2="AccessProxy" data-source-line="61" data-uid="lnk19" id="link_DomainList_AccessProxy"><path codeLine="61" d="M313.75,371.9634 C313.75,391.0134 313.75,412.4534 313.75,431.4734" fill="none" id="DomainList-AccessProxy" style="stroke:#000000;stroke-width:1;"/><polygon fill="#000000" points="318.75,393.3589,321.6889,384.3139,315.8111,384.3139,318.75,393.3589" style="stroke:#000000;stroke-width:1;"/><text fill="#000000" font-family="Segoe UI" font-size="13" lengthAdjust="spacing" textLength="87.3628" x="331.75" y="393.7418">&#1087;&#1088;&#1080;&#1084;&#1077;&#1085;&#1103;&#1077;&#1090;&#1089;&#1103; &#1082;</text><text fill="#000000" font-family="Segoe UI" font-size="13" lengthAdjust="spacing" textLength="5.4209" x="298.8689" y="397.2273">*</text><text fill="#000000" font-family="Segoe UI" font-size="13" lengthAdjust="spacing" textLength="7.0078" x="305.1189" y="416.1306">1</text></g><!--link ACL to AccessProxy--><g class="link" data-entity-1="ACL" data-entity-2="AccessProxy" data-source-line="62" data-uid="lnk20" id="link_ACL_AccessProxy"><path codeLine="62" d="M577,371.9634 C577,420.4834 577,484.5234 577,484.5234 C577,484.5234 444.64,484.5234 359.07,484.5234" fill="none" id="ACL-AccessProxy" style="stroke:#000000;stroke-width:1;"/><polygon fill="#000000" points="376.8776,473.4634,386.2627,471.9239,383.5653,466.7015,376.8776,473.4634" style="stroke:#000000;stroke-width:1;"/><text fill="#000000" font-family="Segoe UI" font-size="13" lengthAdjust="spacing" textLength="125.855" x="394.32" y="476.5518">&#1086;&#1075;&#1088;&#1072;&#1085;&#1080;&#1095;&#1080;&#1074;&#1072;&#1077;&#1090; &#1076;&#1086;&#1089;&#1090;&#1091;&#1087;</text><text fill="#000000" font-family="Segoe UI" font-size="13" lengthAdjust="spacing" textLength="5.4209" x="567.3201" y="397.2273">*</text><text fill="#000000" font-family="Segoe UI" font-size="13" lengthAdjust="spacing" textLength="7.0078" x="370.5815" y="476.3807">1</text></g><!--SRC=[bLHDRzD04BtdLmmvjK0g8N7geL98XHJHeehG6nShtgOMZXrifss4a9gMKgIWHZqXmQ5K_06JZyQa9FqBk_-8jxDkOn-An2NExiwyz-RDx3w8TaLJKCkr7AyGldMybXLOJN8TJqITbY0_Y7Rzp47Bict7Qz3Jp9ujTgos6pttlUYb1R1YJJHyGTlLOg4GEP4hI7wJSpbJd-HOtgWZTInZUQs-o9cCLP_a7noES8GjmfyO-pFLKoUqL5dVN7xZbQjK3aCdZ2ml2cahy0ywXOBm0DsXehn0jWQRu3i0u951Af8LqdOe0dfV898_rQawnrbAEG7BZKnKrr1UwxsHd6EjrTt8METC2MeF0JjLNPcKy3F6Si1fnuKF6GrtwAednvaQv9XbL09XwrZBDMA-0tCe4paZcP0w0UndqgHC1YqwneXwPeLEdShjQ3V7P-py28YXEaPM36iJrJTalhVZD0pH1MF6S7YCmWvLZnnl3oX-q5dfDDq53qTDv01L72Aofvr42S3CyPwpjptvcs06-wVTOUiq1pBG0rQnxZSnKHjecb7oG-E31QMgyrjpCecgXoZTwAqgBOa3gnxH8mf4GnmiPnMKAniCZo_ZLhTA01unS5V6PDNh8WnBsRujYcotmYWG65XavygwX88fOw1qng-9UY2CzCtNF74KyjPZxBmGecMvpfwmSHt2SDyFx9n6rc3cr8Zb3OEY4MllsevDUXHJlHGv8i314aPehaxb52VenGdVYpXdWFnwExaO7Nd5tP_fwoHZvjhm6wz47OgCxPVSzcDKTyIX2VioMCndvYgmLKRGYkitigoLmD-tuKawpMQHDg2sIWodDIHoaXS5BksO_CN_ftVykaB86l9oegdugXQV5AbKua_cpe0WuIb1VsYja0xuRUp3OdRO43ldxe_J9wL_RvQUeVy8JqTYbNZeH_mMNA4W7PtjS2PbqGpm3Fb-Z4qJKBlXMOJeXBlQKuVprff4TOPUTZ7EQwbdYxoiZ5NzecYTKrHrXg6AURnr8cui2bpuUpz2mjSyVL-DvfGwO_a_1EXYq_lTpzDhy-zFdFDac1Ve5103epxtHWFaBm00]--></g></svg>