<svg xmlns="http://www.w3.org/2000/svg" xmlns:xlink="http://www.w3.org/1999/xlink" contentStyleType="text/css" data-diagram-type="ACTIVITY" height="1395px" preserveAspectRatio="none" style="width:2437px;height:1395px;background:#FFFFFF;" version="1.1" viewBox="0 0 2437 1395" width="2437px" zoomAndPan="magnify"><title>&#1046;&#1080;&#1079;&#1085;&#1077;&#1085;&#1085;&#1099;&#1081; &#1094;&#1080;&#1082;&#1083; &#1089;&#1091;&#1097;&#1085;&#1086;&#1089;&#1090;&#1077;&#1081; &#1076;&#1072;&#1085;&#1085;&#1099;&#1093;</title><defs/><g><text fill="#000000" font-family="Segoe UI" font-size="22" font-weight="bold" lengthAdjust="spacing" textLength="400.0068" x="1017.2292" y="42.7402">&#1046;&#1080;&#1079;&#1085;&#1077;&#1085;&#1085;&#1099;&#1081; &#1094;&#1080;&#1082;&#1083; &#1089;&#1091;&#1097;&#1085;&#1086;&#1089;&#1090;&#1077;&#1081; &#1076;&#1072;&#1085;&#1085;&#1099;&#1093;</text><text fill="#000000" font-family="Segoe UI" font-size="22" font-weight="bold" lengthAdjust="spacing" textLength="196.9902" x="1118.7375" y="72.002">AI Assistants Proxy</text><rect fill="#FFFFFF" height="31.9414" style="stroke:#FFFFFF;stroke-width:1;" width="2414.4653" x="10" y="93.5234"/><ellipse cx="114.3428" cy="140.4648" fill="#FFFFFF" rx="10" ry="10" style="stroke:#000000;stroke-width:1;"/><rect fill="#FFFFFF" height="59.9219" rx="12.5" ry="12.5" style="stroke:#000000;stroke-width:1;" width="196.6855" x="16" y="170.4648"/><text fill="#000000" font-family="Segoe UI" font-size="12" lengthAdjust="spacing" textLength="164.7715" x="30" y="197.4141">&#1056;&#1077;&#1076;&#1072;&#1082;&#1090;&#1080;&#1088;&#1086;&#1074;&#1072;&#1085;&#1080;&#1077; inventory.yml</text><text fill="#000000" font-family="Segoe UI" font-size="12" lengthAdjust="spacing" textLength="168.6855" x="30" y="213.375">(&#1087;&#1072;&#1088;&#1072;&#1084;&#1077;&#1090;&#1088;&#1099;, &#1076;&#1086;&#1084;&#1077;&#1085;&#1099;, &#1089;&#1077;&#1082;&#1088;&#1077;&#1090;&#1099;)</text><line style="stroke:#000000;stroke-width:1;" x1="10" x2="10" y1="93.5234" y2="1388.4639"/><rect fill="#FFFFFF" height="43.9609" rx="12.5" ry="12.5" style="stroke:#000000;stroke-width:1;" width="138.7188" x="868.8701" y="250.3867"/><text fill="#000000" font-family="Segoe UI" font-size="12" lengthAdjust="spacing" textLength="110.7188" x="882.8701" y="277.3359">&#1047;&#1072;&#1087;&#1091;&#1089;&#1082; playbook.yml</text><rect fill="#000000" height="6" rx="2.5" ry="2.5" style="stroke:#000000;stroke-width:1;" width="1431.0879" x="222.6855" y="314.3477"/><path d="M398.9238,335.3721 L398.9238,366.3086 L378.9238,370.3086 L398.9238,374.3086 L398.9238,405.2451 A0,0 0 0 0 398.9238,405.2451 L569.1021,405.2451 A0,0 0 0 0 569.1021,405.2451 L569.1021,345.3721 L559.1021,335.3721 L398.9238,335.3721 A0,0 0 0 0 398.9238,335.3721" fill="#FFFFFF" style="stroke:#000000;stroke-width:1;"/><path d="M559.1021,335.3721 L559.1021,345.3721 L569.1021,345.3721 L559.1021,335.3721" fill="#FFFFFF" style="stroke:#000000;stroke-width:1;"/><text fill="#000000" font-family="Segoe UI" font-size="13" lengthAdjust="spacing" textLength="128.5908" x="408.9238" y="358.4004">&#1044;&#1086;&#1084;&#1077;&#1085;&#1099; (DE-DM-001)</text><text fill="#000000" font-family="Segoe UI" font-size="13" lengthAdjust="spacing" textLength="141.1782" x="408.9238" y="375.6914">&#1055;&#1072;&#1088;&#1072;&#1084;&#1077;&#1090;&#1088;&#1099; (DE-CF-001)</text><text fill="#000000" font-family="Segoe UI" font-size="13" lengthAdjust="spacing" textLength="138.8867" x="408.9238" y="392.9824">cache_peer (DE-AC-001)</text><rect fill="#FFFFFF" height="59.9219" rx="12.5" ry="12.5" style="stroke:#000000;stroke-width:1;" width="144.2383" x="234.6855" y="340.3477"/><text fill="#000000" font-family="Segoe UI" font-size="12" lengthAdjust="spacing" textLength="116.2383" x="248.6855" y="367.2969">&#1056;&#1077;&#1085;&#1076;&#1077;&#1088;&#1080;&#1085;&#1075; squid.conf</text><text fill="#000000" font-family="Segoe UI" font-size="12" lengthAdjust="spacing" textLength="61.5996" x="248.6855" y="383.2578">(access tier)</text><path d="M743.3403,344.0176 L743.3403,366.3086 L723.3403,370.3086 L743.3403,374.3086 L743.3403,396.5996 A0,0 0 0 0 743.3403,396.5996 L913.5186,396.5996 A0,0 0 0 0 913.5186,396.5996 L913.5186,354.0176 L903.5186,344.0176 L743.3403,344.0176 A0,0 0 0 0 743.3403,344.0176" fill="#FFFFFF" style="stroke:#000000;stroke-width:1;"/><path d="M903.5186,344.0176 L903.5186,354.0176 L913.5186,354.0176 L903.5186,344.0176" fill="#FFFFFF" style="stroke:#000000;stroke-width:1;"/><text fill="#000000" font-family="Segoe UI" font-size="13" lengthAdjust="spacing" textLength="111.8076" x="753.3403" y="367.0459">ACL IP (DE-AC-001)</text><text fill="#000000" font-family="Segoe UI" font-size="13" lengthAdjust="spacing" textLength="141.1782" x="753.3403" y="384.3369">&#1055;&#1072;&#1088;&#1072;&#1084;&#1077;&#1090;&#1088;&#1099; (DE-CF-001)</text><rect fill="#FFFFFF" height="59.9219" rx="12.5" ry="12.5" style="stroke:#000000;stroke-width:1;" width="144.2383" x="579.1021" y="340.3477"/><text fill="#000000" font-family="Segoe UI" font-size="12" lengthAdjust="spacing" textLength="116.2383" x="593.1021" y="367.2969">&#1056;&#1077;&#1085;&#1076;&#1077;&#1088;&#1080;&#1085;&#1075; squid.conf</text><text fill="#000000" font-family="Segoe UI" font-size="12" lengthAdjust="spacing" textLength="77.8418" x="593.1021" y="383.2578">(upstream tier)</text><path d="M1099.5225,344.0176 L1099.5225,366.3086 L1079.5225,370.3086 L1099.5225,374.3086 L1099.5225,396.5996 A0,0 0 0 0 1099.5225,396.5996 L1269.7007,396.5996 A0,0 0 0 0 1269.7007,396.5996 L1269.7007,354.0176 L1259.7007,344.0176 L1099.5225,344.0176 A0,0 0 0 0 1099.5225,344.0176" fill="#FFFFFF" style="stroke:#000000;stroke-width:1;"/><path d="M1259.7007,344.0176 L1259.7007,354.0176 L1269.7007,354.0176 L1259.7007,344.0176" fill="#FFFFFF" style="stroke:#000000;stroke-width:1;"/><text fill="#000000" font-family="Segoe UI" font-size="13" lengthAdjust="spacing" textLength="108.9067" x="1109.5225" y="367.0459">Secret (DE-SC-001)</text><text fill="#000000" font-family="Segoe UI" font-size="13" lengthAdjust="spacing" textLength="141.1782" x="1109.5225" y="384.3369">&#1055;&#1072;&#1088;&#1072;&#1084;&#1077;&#1090;&#1088;&#1099; (DE-CF-001)</text><rect fill="#FFFFFF" height="43.9609" rx="12.5" ry="12.5" style="stroke:#000000;stroke-width:1;" width="138.0039" x="941.5186" y="348.3281"/><text fill="#000000" font-family="Segoe UI" font-size="12" lengthAdjust="spacing" textLength="110.0039" x="955.5186" y="375.2773">&#1056;&#1077;&#1085;&#1076;&#1077;&#1088;&#1080;&#1085;&#1075; mtg.toml</text><path d="M1471.5952,344.0176 L1471.5952,366.3086 L1451.5952,370.3086 L1471.5952,374.3086 L1471.5952,396.5996 A0,0 0 0 0 1471.5952,396.5996 L1641.7734,396.5996 A0,0 0 0 0 1641.7734,396.5996 L1641.7734,354.0176 L1631.7734,344.0176 L1471.5952,344.0176 A0,0 0 0 0 1471.5952,344.0176" fill="#FFFFFF" style="stroke:#000000;stroke-width:1;"/><path d="M1631.7734,344.0176 L1631.7734,354.0176 L1641.7734,354.0176 L1631.7734,344.0176" fill="#FFFFFF" style="stroke:#000000;stroke-width:1;"/><text fill="#000000" font-family="Segoe UI" font-size="13" lengthAdjust="spacing" textLength="127.5879" x="1481.5952" y="367.0459">Password (DE-SC-001)</text><text fill="#000000" font-family="Segoe UI" font-size="13" lengthAdjust="spacing" textLength="141.1782" x="1481.5952" y="384.3369">&#1055;&#1072;&#1088;&#1072;&#1084;&#1077;&#1090;&#1088;&#1099; (DE-CF-001)</text><rect fill="#FFFFFF" height="43.9609" rx="12.5" ry="12.5" style="stroke:#000000;stroke-width:1;" width="171.8945" x="1279.7007" y="348.3281"/><text fill="#000000" font-family="Segoe UI" font-size="12" lengthAdjust="spacing" textLength="143.8945" x="1293.7007" y="375.2773">&#1056;&#1077;&#1085;&#1076;&#1077;&#1088;&#1080;&#1085;&#1075; keepalived.conf</text><rect fill="#000000" height="6" rx="2.5" ry="2.5" style="stroke:#000000;stroke-width:1;" width="1431.0879" x="222.6855" y="425.2451"/><rect fill="#FFFFFF" height="43.9609" rx="12.5" ry="12.5" style="stroke:#000000;stroke-width:1;" width="202.0059" x="837.2266" y="451.2451"/><text fill="#000000" font-family="Segoe UI" font-size="12" lengthAdjust="spacing" textLength="174.0059" x="851.2266" y="478.1943">&#1055;&#1077;&#1088;&#1077;&#1079;&#1072;&#1087;&#1091;&#1089;&#1082; &#1089;&#1077;&#1088;&#1074;&#1080;&#1089;&#1086;&#1074; (handlers)</text><line style="stroke:#000000;stroke-width:1;" x1="216.6855" x2="216.6855" y1="93.5234" y2="1388.4639"/><rect fill="#FFFFFF" height="43.9609" rx="12.5" ry="12.5" style="stroke:#000000;stroke-width:1;" width="201.8301" x="1663.7734" y="515.2061"/><text fill="#000000" font-family="Segoe UI" font-size="12" lengthAdjust="spacing" textLength="173.8301" x="1677.7734" y="542.1553">&#1054;&#1073;&#1088;&#1072;&#1073;&#1086;&#1090;&#1082;&#1072; CONNECT-&#1079;&#1072;&#1087;&#1088;&#1086;&#1089;&#1086;&#1074;</text><rect fill="#FFFFFF" height="59.9219" rx="12.5" ry="12.5" style="stroke:#000000;stroke-width:1;" width="174.2441" x="1677.5664" y="579.167"/><text fill="#000000" font-family="Segoe UI" font-size="12" lengthAdjust="spacing" textLength="146.2441" x="1691.5664" y="606.1162">&#1055;&#1088;&#1086;&#1074;&#1077;&#1088;&#1082;&#1072; &#1091;&#1095;&#1105;&#1090;&#1085;&#1099;&#1093; &#1076;&#1072;&#1085;&#1085;&#1099;&#1093;</text><text fill="#000000" font-family="Segoe UI" font-size="12" lengthAdjust="spacing" textLength="110.3086" x="1691.5664" y="622.0771">(DE-CR-001: passwd)</text><rect fill="#FFFFFF" height="59.9219" rx="12.5" ry="12.5" style="stroke:#000000;stroke-width:1;" width="164.6348" x="1682.3711" y="659.0889"/><text fill="#000000" font-family="Segoe UI" font-size="12" lengthAdjust="spacing" textLength="136.6348" x="1696.3711" y="686.0381">&#1060;&#1080;&#1083;&#1100;&#1090;&#1088;&#1072;&#1094;&#1080;&#1103; &#1087;&#1086; &#1076;&#1086;&#1084;&#1077;&#1085;&#1072;&#1084;</text><text fill="#000000" font-family="Segoe UI" font-size="12" lengthAdjust="spacing" textLength="96.627" x="1696.3711" y="701.999">(DE-DM-001: ACL)</text><rect fill="#FFFFFF" height="59.9219" rx="12.5" ry="12.5" style="stroke:#000000;stroke-width:1;" width="132.2617" x="1698.5576" y="739.0107"/><text fill="#000000" font-family="Segoe UI" font-size="12" lengthAdjust="spacing" textLength="104.2617" x="1712.5576" y="765.96">&#1047;&#1072;&#1087;&#1080;&#1089;&#1100; &#1074; access.log</text><text fill="#000000" font-family="Segoe UI" font-size="12" lengthAdjust="spacing" textLength="64.6113" x="1712.5576" y="781.9209">(DE-LG-001)</text><line style="stroke:#000000;stroke-width:1;" x1="1657.7734" x2="1657.7734" y1="93.5234" y2="1388.4639"/><rect fill="#FFFFFF" height="59.9219" rx="12.5" ry="12.5" style="stroke:#000000;stroke-width:1;" width="148.3164" x="2005.2407" y="818.9326"/><text fill="#000000" font-family="Segoe UI" font-size="12" lengthAdjust="spacing" textLength="95.8477" x="2019.2407" y="845.8818">&#1063;&#1090;&#1077;&#1085;&#1080;&#1077; access.log</text><text fill="#000000" font-family="Segoe UI" font-size="12" lengthAdjust="spacing" textLength="120.3164" x="2019.2407" y="861.8428">(acquisition, tail mode)</text><rect fill="#FFFFFF" height="59.9219" rx="12.5" ry="12.5" style="stroke:#000000;stroke-width:1;" width="136.9961" x="2010.9009" y="898.8545"/><text fill="#000000" font-family="Segoe UI" font-size="12" lengthAdjust="spacing" textLength="89.6074" x="2024.9009" y="925.8037">&#1040;&#1085;&#1072;&#1083;&#1080;&#1079; &#1089;&#1086;&#1073;&#1099;&#1090;&#1080;&#1081;</text><text fill="#000000" font-family="Segoe UI" font-size="12" lengthAdjust="spacing" textLength="108.9961" x="2024.9009" y="941.7646">(parsers + scenarios)</text><polygon fill="#FFFFFF" points="2023.2671,978.7764,2135.5308,978.7764,2147.5308,990.7764,2135.5308,1002.7764,2023.2671,1002.7764,2011.2671,990.7764,2023.2671,978.7764" style="stroke:#000000;stroke-width:1;"/><text fill="#000000" font-family="Segoe UI" font-size="11" lengthAdjust="spacing" textLength="104.2637" x="2027.2671" y="995.3311">&#1059;&#1075;&#1088;&#1086;&#1079;&#1072; &#1086;&#1073;&#1085;&#1072;&#1088;&#1091;&#1078;&#1077;&#1085;&#1072;?</text><text fill="#000000" font-family="Segoe UI" font-size="11" lengthAdjust="spacing" textLength="11.6123" x="1995.6548" y="984.0156">&#1076;&#1072;</text><text fill="#000000" font-family="Segoe UI" font-size="11" lengthAdjust="spacing" textLength="16.6128" x="2151.5308" y="984.0156">&#1085;&#1077;&#1090;</text><rect fill="#FFFFFF" height="59.9219" rx="12.5" ry="12.5" style="stroke:#000000;stroke-width:1;" width="156.5723" x="1896.1465" y="1012.7764"/><text fill="#000000" font-family="Segoe UI" font-size="12" lengthAdjust="spacing" textLength="128.5723" x="1910.1465" y="1039.7256">&#1056;&#1077;&#1096;&#1077;&#1085;&#1080;&#1077; &#1086; &#1073;&#1083;&#1086;&#1082;&#1080;&#1088;&#1086;&#1074;&#1082;&#1077;</text><text fill="#000000" font-family="Segoe UI" font-size="12" lengthAdjust="spacing" textLength="40.3945" x="1910.1465" y="1055.6865">(ban IP)</text><rect fill="#FFFFFF" height="59.9219" rx="12.5" ry="12.5" style="stroke:#000000;stroke-width:1;" width="197.6582" x="1875.6035" y="1092.6982"/><text fill="#000000" font-family="Segoe UI" font-size="12" lengthAdjust="spacing" textLength="114.416" x="1889.6035" y="1119.6475">&#1054;&#1073;&#1085;&#1086;&#1074;&#1083;&#1077;&#1085;&#1080;&#1077; nftables</text><text fill="#000000" font-family="Segoe UI" font-size="12" lengthAdjust="spacing" textLength="169.6582" x="1889.6035" y="1135.6084">(bouncer &#8594; crowdsec-blacklists)</text><rect fill="#FFFFFF" height="43.9609" rx="12.5" ry="12.5" style="stroke:#000000;stroke-width:1;" width="182.207" x="2093.2617" y="1012.7764"/><text fill="#000000" font-family="Segoe UI" font-size="12" lengthAdjust="spacing" textLength="154.207" x="2107.2617" y="1039.7256">&#1055;&#1088;&#1086;&#1076;&#1086;&#1083;&#1078;&#1077;&#1085;&#1080;&#1077; &#1084;&#1086;&#1085;&#1080;&#1090;&#1086;&#1088;&#1080;&#1085;&#1075;&#1072;</text><polygon fill="#FFFFFF" points="2079.3989,1162.6201,2091.3989,1174.6201,2079.3989,1186.6201,2067.3989,1174.6201,2079.3989,1162.6201" style="stroke:#000000;stroke-width:1;"/><line style="stroke:#000000;stroke-width:1;" x1="1869.6035" x2="1869.6035" y1="93.5234" y2="1388.4639"/><rect fill="#FFFFFF" height="59.9219" rx="12.5" ry="12.5" style="stroke:#000000;stroke-width:1;" width="129.5313" x="2285.4688" y="1206.6201"/><text fill="#000000" font-family="Segoe UI" font-size="12" lengthAdjust="spacing" textLength="101.5313" x="2299.4688" y="1233.5693">&#1056;&#1086;&#1090;&#1072;&#1094;&#1080;&#1103; access.log</text><text fill="#000000" font-family="Segoe UI" font-size="12" lengthAdjust="spacing" textLength="68.8242" x="2299.4688" y="1249.5303">(&#1077;&#1078;&#1077;&#1076;&#1085;&#1077;&#1074;&#1085;&#1086;)</text><rect fill="#FFFFFF" height="59.9219" rx="12.5" ry="12.5" style="stroke:#000000;stroke-width:1;" width="128.9219" x="2285.7734" y="1286.542"/><text fill="#000000" font-family="Segoe UI" font-size="12" lengthAdjust="spacing" textLength="100.9219" x="2299.7734" y="1313.4912">&#1059;&#1076;&#1072;&#1083;&#1077;&#1085;&#1080;&#1077; &#1072;&#1088;&#1093;&#1080;&#1074;&#1086;&#1074;</text><text fill="#000000" font-family="Segoe UI" font-size="12" lengthAdjust="spacing" textLength="35.4668" x="2299.7734" y="1329.4521">&#1087;&#1086; TTL</text><ellipse cx="2350.2344" cy="1377.4639" fill="none" rx="11" ry="11" style="stroke:#000000;stroke-width:1;"/><ellipse cx="2350.2344" cy="1377.4639" fill="#FFFFFF" rx="6" ry="6" style="stroke:#000000;stroke-width:1;"/><line style="stroke:#000000;stroke-width:1;" x1="2279.4688" x2="2279.4688" y1="93.5234" y2="1388.4639"/><line style="stroke:#000000;stroke-width:1;" x1="2419" x2="2419" y1="93.5234" y2="1388.4639"/><line style="stroke:#000000;stroke-width:1;" x1="114.3428" x2="114.3428" y1="150.4648" y2="170.4648"/><polygon fill="#000000" points="110.3428,160.4648,114.3428,170.4648,118.3428,160.4648,114.3428,164.4648" style="stroke:#000000;stroke-width:1;"/><line style="stroke:#000000;stroke-width:1;" x1="306.8047" x2="306.8047" y1="320.3477" y2="340.3477"/><polygon fill="#000000" points="302.8047,330.3477,306.8047,340.3477,310.8047,330.3477,306.8047,334.3477" style="stroke:#000000;stroke-width:1;"/><line style="stroke:#000000;stroke-width:1;" x1="651.2212" x2="651.2212" y1="320.3477" y2="340.3477"/><polygon fill="#000000" points="647.2212,330.3477,651.2212,340.3477,655.2212,330.3477,651.2212,334.3477" style="stroke:#000000;stroke-width:1;"/><line style="stroke:#000000;stroke-width:1;" x1="1010.5205" x2="1010.5205" y1="320.3477" y2="348.3281"/><polygon fill="#000000" points="1006.5205,338.3281,1010.5205,348.3281,1014.5205,338.3281,1010.5205,342.3281" style="stroke:#000000;stroke-width:1;"/><line style="stroke:#000000;stroke-width:1;" x1="1365.6479" x2="1365.6479" y1="320.3477" y2="348.3281"/><polygon fill="#000000" points="1361.6479,338.3281,1365.6479,348.3281,1369.6479,338.3281,1365.6479,342.3281" style="stroke:#000000;stroke-width:1;"/><line style="stroke:#000000;stroke-width:1;" x1="306.8047" x2="306.8047" y1="400.2695" y2="425.2451"/><polygon fill="#000000" points="302.8047,415.2451,306.8047,425.2451,310.8047,415.2451,306.8047,419.2451" style="stroke:#000000;stroke-width:1;"/><line style="stroke:#000000;stroke-width:1;" x1="651.2212" x2="651.2212" y1="400.2695" y2="425.2451"/><polygon fill="#000000" points="647.2212,415.2451,651.2212,425.2451,655.2212,415.2451,651.2212,419.2451" style="stroke:#000000;stroke-width:1;"/><line style="stroke:#000000;stroke-width:1;" x1="1010.5205" x2="1010.5205" y1="392.2891" y2="425.2451"/><polygon fill="#000000" points="1006.5205,415.2451,1010.5205,425.2451,1014.5205,415.2451,1010.5205,419.2451" style="stroke:#000000;stroke-width:1;"/><line style="stroke:#000000;stroke-width:1;" x1="1365.6479" x2="1365.6479" y1="392.2891" y2="425.2451"/><polygon fill="#000000" points="1361.6479,415.2451,1365.6479,425.2451,1369.6479,415.2451,1365.6479,419.2451" style="stroke:#000000;stroke-width:1;"/><line style="stroke:#000000;stroke-width:1;" x1="938.2295" x2="938.2295" y1="294.3477" y2="314.3477"/><polygon fill="#000000" points="934.2295,304.3477,938.2295,314.3477,942.2295,304.3477,938.2295,308.3477" style="stroke:#000000;stroke-width:1;"/><line style="stroke:#000000;stroke-width:1;" x1="938.2295" x2="938.2295" y1="431.2451" y2="451.2451"/><polygon fill="#000000" points="934.2295,441.2451,938.2295,451.2451,942.2295,441.2451,938.2295,445.2451" style="stroke:#000000;stroke-width:1;"/><line style="stroke:#000000;stroke-width:1;" x1="1764.6885" x2="1764.6885" y1="559.167" y2="579.167"/><polygon fill="#000000" points="1760.6885,569.167,1764.6885,579.167,1768.6885,569.167,1764.6885,573.167" style="stroke:#000000;stroke-width:1;"/><line style="stroke:#000000;stroke-width:1;" x1="1764.6885" x2="1764.6885" y1="639.0889" y2="659.0889"/><polygon fill="#000000" points="1760.6885,649.0889,1764.6885,659.0889,1768.6885,649.0889,1764.6885,653.0889" style="stroke:#000000;stroke-width:1;"/><line style="stroke:#000000;stroke-width:1;" x1="1764.6885" x2="1764.6885" y1="719.0107" y2="739.0107"/><polygon fill="#000000" points="1760.6885,729.0107,1764.6885,739.0107,1768.6885,729.0107,1764.6885,733.0107" style="stroke:#000000;stroke-width:1;"/><line style="stroke:#000000;stroke-width:1;" x1="2079.3989" x2="2079.3989" y1="878.8545" y2="898.8545"/><polygon fill="#000000" points="2075.3989,888.8545,2079.3989,898.8545,2083.3989,888.8545,2079.3989,892.8545" style="stroke:#000000;stroke-width:1;"/><line style="stroke:#000000;stroke-width:1;" x1="1974.4326" x2="1974.4326" y1="1072.6982" y2="1092.6982"/><polygon fill="#000000" points="1970.4326,1082.6982,1974.4326,1092.6982,1978.4326,1082.6982,1974.4326,1086.6982" style="stroke:#000000;stroke-width:1;"/><line style="stroke:#000000;stroke-width:1;" x1="2011.2671" x2="1974.4326" y1="990.7764" y2="990.7764"/><line style="stroke:#000000;stroke-width:1;" x1="1974.4326" x2="1974.4326" y1="990.7764" y2="1012.7764"/><polygon fill="#000000" points="1970.4326,1002.7764,1974.4326,1012.7764,1978.4326,1002.7764,1974.4326,1006.7764" style="stroke:#000000;stroke-width:1;"/><line style="stroke:#000000;stroke-width:1;" x1="2147.5308" x2="2184.3652" y1="990.7764" y2="990.7764"/><line style="stroke:#000000;stroke-width:1;" x1="2184.3652" x2="2184.3652" y1="990.7764" y2="1012.7764"/><polygon fill="#000000" points="2180.3652,1002.7764,2184.3652,1012.7764,2188.3652,1002.7764,2184.3652,1006.7764" style="stroke:#000000;stroke-width:1;"/><line style="stroke:#000000;stroke-width:1;" x1="1974.4326" x2="1974.4326" y1="1152.6201" y2="1174.6201"/><line style="stroke:#000000;stroke-width:1;" x1="1974.4326" x2="2067.3989" y1="1174.6201" y2="1174.6201"/><polygon fill="#000000" points="2057.3989,1170.6201,2067.3989,1174.6201,2057.3989,1178.6201,2061.3989,1174.6201" style="stroke:#000000;stroke-width:1;"/><line style="stroke:#000000;stroke-width:1;" x1="2184.3652" x2="2184.3652" y1="1056.7373" y2="1174.6201"/><line style="stroke:#000000;stroke-width:1;" x1="2184.3652" x2="2091.3989" y1="1174.6201" y2="1174.6201"/><polygon fill="#000000" points="2101.3989,1170.6201,2091.3989,1174.6201,2101.3989,1178.6201,2097.3989,1174.6201" style="stroke:#000000;stroke-width:1;"/><line style="stroke:#000000;stroke-width:1;" x1="2079.3989" x2="2079.3989" y1="958.7764" y2="978.7764"/><polygon fill="#000000" points="2075.3989,968.7764,2079.3989,978.7764,2083.3989,968.7764,2079.3989,972.7764" style="stroke:#000000;stroke-width:1;"/><line style="stroke:#000000;stroke-width:1;" x1="2350.2344" x2="2350.2344" y1="1266.542" y2="1286.542"/><polygon fill="#000000" points="2346.2344,1276.542,2350.2344,1286.542,2354.2344,1276.542,2350.2344,1280.542" style="stroke:#000000;stroke-width:1;"/><line style="stroke:#000000;stroke-width:1;" x1="2350.2344" x2="2350.2344" y1="1346.4639" y2="1366.4639"/><polygon fill="#000000" points="2346.2344,1356.4639,2350.2344,1366.4639,2354.2344,1356.4639,2350.2344,1360.4639" style="stroke:#000000;stroke-width:1;"/><line style="stroke:#000000;stroke-width:1;" x1="114.3428" x2="114.3428" y1="230.3867" y2="235.3867"/><line style="stroke:#000000;stroke-width:1;" x1="114.3428" x2="938.2295" y1="235.3867" y2="235.3867"/><line style="stroke:#000000;stroke-width:1;" x1="938.2295" x2="938.2295" y1="235.3867" y2="250.3867"/><polygon fill="#000000" points="934.2295,240.3867,938.2295,250.3867,942.2295,240.3867,938.2295,244.3867" style="stroke:#000000;stroke-width:1;"/><line style="stroke:#000000;stroke-width:1;" x1="938.2295" x2="938.2295" y1="495.2061" y2="500.2061"/><line style="stroke:#000000;stroke-width:1;" x1="938.2295" x2="1764.6885" y1="500.2061" y2="500.2061"/><line style="stroke:#000000;stroke-width:1;" x1="1764.6885" x2="1764.6885" y1="500.2061" y2="515.2061"/><polygon fill="#000000" points="1760.6885,505.2061,1764.6885,515.2061,1768.6885,505.2061,1764.6885,509.2061" style="stroke:#000000;stroke-width:1;"/><line style="stroke:#000000;stroke-width:1;" x1="1764.6885" x2="1764.6885" y1="798.9326" y2="803.9326"/><line style="stroke:#000000;stroke-width:1;" x1="1764.6885" x2="2079.3989" y1="803.9326" y2="803.9326"/><line style="stroke:#000000;stroke-width:1;" x1="2079.3989" x2="2079.3989" y1="803.9326" y2="818.9326"/><polygon fill="#000000" points="2075.3989,808.9326,2079.3989,818.9326,2083.3989,808.9326,2079.3989,812.9326" style="stroke:#000000;stroke-width:1;"/><line style="stroke:#000000;stroke-width:1;" x1="2079.3989" x2="2079.3989" y1="1186.6201" y2="1191.6201"/><line style="stroke:#000000;stroke-width:1;" x1="2079.3989" x2="2350.2344" y1="1191.6201" y2="1191.6201"/><line style="stroke:#000000;stroke-width:1;" x1="2350.2344" x2="2350.2344" y1="1191.6201" y2="1206.6201"/><polygon fill="#000000" points="2346.2344,1196.6201,2350.2344,1206.6201,2354.2344,1196.6201,2350.2344,1200.6201" style="stroke:#000000;stroke-width:1;"/><text fill="#000000" font-family="Segoe UI" font-size="18" lengthAdjust="spacing" textLength="143.7188" x="41.4834" y="116.9473">DevOps-&#1080;&#1085;&#1078;&#1077;&#1085;&#1077;&#1088;</text><text fill="#000000" font-family="Segoe UI" font-size="18" lengthAdjust="spacing" textLength="58.1484" x="908.1553" y="116.9473">Ansible</text><text fill="#000000" font-family="Segoe UI" font-size="18" lengthAdjust="spacing" textLength="45.3076" x="1741.0347" y="116.9473">Squid</text><text fill="#000000" font-family="Segoe UI" font-size="18" lengthAdjust="spacing" textLength="78.8467" x="2035.1128" y="116.9473">CrowdSec</text><text fill="#000000" font-family="Segoe UI" font-size="18" lengthAdjust="spacing" textLength="73.0811" x="2312.6938" y="116.9473">logrotate</text><!--SRC=[jLHDJoD74BtFhwZioLOm8b9ES8Wi0n4IOL5WRv5MpKpRj3pkTgORTf4u02isMR5IFXGbjsGb8kLg82PWBzw_qFCNyalogepNPBEHaA8SHkhfhezNh-hL1s5RTpHrSsLiujl6TbMXEjHLMMPiYpw-SvVffjh9mxApOKt1vy66RZbDZrOU94am8TSKVunNyOzu4_luRigJU4tbSrmDuf3Am_9P-GBt8voEO75DyVVO6nkMnr_O-WhLlJS-A1iyhHVkwLwIx2_gtOTTNqEGctWfSVlbmNu2go8ay_4LhZZA026loeCuYkSIyohsoTXTROChzcRtEdbIYMzY3nQz-1eXZig3ycI64Opudp7C029E0zZm-qbr0UdhrfkjNEyZrKzmVOCQ3kE0wThRSgxDaHUIfYlQ2T4OpGrY0g80lY3_vOx9PbDdcp2eg3JLtbCmka1q8kk2fiAqjWD-YE8FKpHKMLogBNvMcvlxg3f-_ELT-6BIM9wQf2hTre-xMXVoL6zCdhJD99SW9TNYNjy7xqxNXqAZzV-6kDvOfPNrTxBT0-lz0NL2QpOuPlaVoJTqMkWWaJV-d-HjhRigDxjwJCbxCAmhxv-u8liFAFWW4pGF7yxTXuIceyP3YSjpZFSXZpTLjfNDSbru6T0DRXYFvy_nJFATGM17K5oF6W_NrfOQcxNRS0UiF8wmm9bkjSAXsHR9lYg_WwE8yM_AJ0Jtvunx7di1zMPL3l4hI1gMBxaub0gPbzyGD3Qw8oekFvaEyZpFY_YAbhYYyYMXfB4kPdFN4klLJuKaBgzHk2SP6iqL_YPhOwpjknug1GVU1EFi30LbSkguJ4kURmN3aBSIIV5dg0YR8bud5Imr3nRfG_AfjgemZXarJQh4qtWX_80uOYUEWXO-kzr0lK-gXBLfOGcUgfFXARz-2uzPE4FU4SYThAL1xBEcjfI5P4HCqZJUY7WTllMrpQ2mShmOknsRGiv_Fl-UKgR2wxIsbQkqdMDHCbwTUmqSl1QFnaZ6hUKU36_n2gBNkC0HrOycynrx2pnzfWcYmMJXWWgowbx934sQUfThnBkKbSix_fon2y-dCZ3J6eIkOnpFkRX4nc9pSnKTzS5raxy0]--></g></svg>