<svg xmlns="http://www.w3.org/2000/svg" xmlns:xlink="http://www.w3.org/1999/xlink" contentStyleType="text/css" data-diagram-type="CLASS" height="618px" preserveAspectRatio="none" style="width:1477px;height:618px;background:#FFFFFF;" version="1.1" viewBox="0 0 1477 618" width="1477px" zoomAndPan="magnify"><title>&#1051;&#1086;&#1075;&#1080;&#1095;&#1077;&#1089;&#1082;&#1072;&#1103; &#1084;&#1086;&#1076;&#1077;&#1083;&#1100; &#1076;&#1072;&#1085;&#1085;&#1099;&#1093; (LDM)</title><defs/><g><text fill="#000000" font-family="Segoe UI" font-size="22" font-weight="bold" lengthAdjust="spacing" textLength="371.7334" x="548.2163" y="42.7402">&#1051;&#1086;&#1075;&#1080;&#1095;&#1077;&#1089;&#1082;&#1072;&#1103; &#1084;&#1086;&#1076;&#1077;&#1083;&#1100; &#1076;&#1072;&#1085;&#1085;&#1099;&#1093; (LDM)</text><text fill="#000000" font-family="Segoe UI" font-size="22" font-weight="bold" lengthAdjust="spacing" textLength="196.9902" x="635.5879" y="72.002">AI Assistants Proxy</text><!--class cred--><g class="entity" data-entity="cred" data-source-line="8" data-uid="ent0002" id="entity_cred"><rect fill="#FFFFFF" height="132.4844" rx="2.5" ry="2.5" style="stroke:#000000;stroke-width:1;" width="175.9512" x="25" y="126.5234"/><ellipse cx="73.729" cy="144.834" fill="#FFFFFF" rx="9" ry="9" style="stroke:#000000;stroke-width:1;"/><path d="M69.4634,150.834 L69.4634,138.6621 L78.4946,138.6621 L78.4946,140.7246 L71.9165,140.7246 L71.9165,143.4277 L78.0259,143.4277 L78.0259,145.4746 L71.9165,145.4746 L71.9165,148.7871 L78.729,148.7871 L78.729,150.834 L69.4634,150.834 Z " fill="#000000"/><text fill="#000000" font-family="Segoe UI" font-size="14" lengthAdjust="spacing" textLength="62.9932" x="95.229" y="150.6309">Credential</text><line style="stroke:#000000;stroke-width:1;" x1="26" x2="199.9512" y1="163.1445" y2="163.1445"/><ellipse cx="36" cy="181.9551" fill="#FFFFFF" rx="3" ry="3" style="stroke:#000000;stroke-width:1;"/><text fill="#000000" font-family="Segoe UI" font-size="14" font-weight="bold" lengthAdjust="spacing" textLength="64.1758" x="47" y="186.252">username</text><text fill="#000000" font-family="Segoe UI" font-size="14" lengthAdjust="spacing" textLength="75.9404" x="115.0107" y="186.252">: string &#171;PK&#187;</text><line style="stroke:#000000;stroke-width:1;" x1="26" x2="199.9512" y1="197.7656" y2="197.7656"/><ellipse cx="36" cy="216.5762" fill="#FFFFFF" rx="3" ry="3" style="stroke:#000000;stroke-width:1;"/><text fill="#000000" font-family="Segoe UI" font-size="14" lengthAdjust="spacing" textLength="139.2002" x="47" y="220.873">password_hash : string</text><ellipse cx="36" cy="243.1973" fill="#FFFFFF" rx="3" ry="3" style="stroke:#000000;stroke-width:1;"/><text fill="#000000" font-family="Segoe UI" font-size="14" lengthAdjust="spacing" textLength="80.5752" x="47" y="247.4941">realm : string</text></g><!--class acl--><g class="entity" data-entity="acl" data-source-line="15" data-uid="ent0003" id="entity_acl"><rect fill="#FFFFFF" height="132.4844" rx="2.5" ry="2.5" style="stroke:#000000;stroke-width:1;" width="228.834" x="929.5" y="412.5234"/><ellipse cx="1006.4102" cy="430.834" fill="#FFFFFF" rx="9" ry="9" style="stroke:#000000;stroke-width:1;"/><path d="M1002.1445,436.834 L1002.1445,424.6621 L1011.1758,424.6621 L1011.1758,426.7246 L1004.5977,426.7246 L1004.5977,429.4277 L1010.707,429.4277 L1010.707,431.4746 L1004.5977,431.4746 L1004.5977,434.7871 L1011.4102,434.7871 L1011.4102,436.834 L1002.1445,436.834 Z " fill="#000000"/><text fill="#000000" font-family="Segoe UI" font-size="14" lengthAdjust="spacing" textLength="59.5137" x="1027.9102" y="436.6309">ACL Entry</text><line style="stroke:#000000;stroke-width:1;" x1="930.5" x2="1157.334" y1="449.1445" y2="449.1445"/><ellipse cx="940.5" cy="467.9551" fill="#FFFFFF" rx="3" ry="3" style="stroke:#000000;stroke-width:1;"/><text fill="#000000" font-family="Segoe UI" font-size="14" font-weight="bold" lengthAdjust="spacing" textLength="61.5234" x="951.5" y="472.252">source_ip</text><text fill="#000000" font-family="Segoe UI" font-size="14" lengthAdjust="spacing" textLength="66.7051" x="1016.8584" y="472.252">: ipv4 &#171;PK&#187;</text><ellipse cx="940.5" cy="494.5762" fill="#FFFFFF" rx="3" ry="3" style="stroke:#000000;stroke-width:1;"/><text fill="#000000" font-family="Segoe UI" font-size="14" font-weight="bold" lengthAdjust="spacing" textLength="108.3564" x="951.5" y="498.873">destination_port</text><text fill="#000000" font-family="Segoe UI" font-size="14" lengthAdjust="spacing" textLength="84.6426" x="1063.6914" y="498.873">: integer &#171;PK&#187;</text><line style="stroke:#000000;stroke-width:1;" x1="930.5" x2="1157.334" y1="510.3867" y2="510.3867"/><ellipse cx="940.5" cy="529.1973" fill="#FFFFFF" rx="3" ry="3" style="stroke:#000000;stroke-width:1;"/><text fill="#000000" font-family="Segoe UI" font-size="14" lengthAdjust="spacing" textLength="165.4229" x="951.5" y="533.4941">action : enum {allow, deny}</text></g><!--class domain--><g class="entity" data-entity="domain" data-source-line="22" data-uid="ent0004" id="entity_domain"><rect fill="#FFFFFF" height="132.4844" rx="2.5" ry="2.5" style="stroke:#000000;stroke-width:1;" width="197.4229" x="487.5" y="412.5234"/><ellipse cx="538.7822" cy="430.834" fill="#FFFFFF" rx="9" ry="9" style="stroke:#000000;stroke-width:1;"/><path d="M534.5166,436.834 L534.5166,424.6621 L543.5479,424.6621 L543.5479,426.7246 L536.9697,426.7246 L536.9697,429.4277 L543.0791,429.4277 L543.0791,431.4746 L536.9697,431.4746 L536.9697,434.7871 L543.7822,434.7871 L543.7822,436.834 L534.5166,436.834 Z " fill="#000000"/><text fill="#000000" font-family="Segoe UI" font-size="14" lengthAdjust="spacing" textLength="79.3584" x="560.2822" y="436.6309">Domain Rule</text><line style="stroke:#000000;stroke-width:1;" x1="488.5" x2="683.9229" y1="449.1445" y2="449.1445"/><ellipse cx="498.5" cy="467.9551" fill="#FFFFFF" rx="3" ry="3" style="stroke:#000000;stroke-width:1;"/><text fill="#000000" font-family="Segoe UI" font-size="14" font-weight="bold" lengthAdjust="spacing" textLength="48.7266" x="509.5" y="472.252">pattern</text><text fill="#000000" font-family="Segoe UI" font-size="14" lengthAdjust="spacing" textLength="75.9404" x="562.0615" y="472.252">: string &#171;PK&#187;</text><line style="stroke:#000000;stroke-width:1;" x1="488.5" x2="683.9229" y1="483.7656" y2="483.7656"/><ellipse cx="498.5" cy="502.5762" fill="#FFFFFF" rx="3" ry="3" style="stroke:#000000;stroke-width:1;"/><text fill="#000000" font-family="Segoe UI" font-size="14" lengthAdjust="spacing" textLength="158.416" x="509.5" y="506.873">type : enum {exact, regex}</text><ellipse cx="498.5" cy="529.1973" fill="#FFFFFF" rx="3" ry="3" style="stroke:#000000;stroke-width:1;"/><text fill="#000000" font-family="Segoe UI" font-size="14" lengthAdjust="spacing" textLength="165.4229" x="509.5" y="533.4941">action : enum {allow, deny}</text></g><!--class config--><g class="entity" data-entity="config" data-source-line="29" data-uid="ent0005" id="entity_config"><rect fill="#FFFFFF" height="185.7266" rx="2.5" ry="2.5" style="stroke:#000000;stroke-width:1;" width="318.959" x="884.5" y="99.5234"/><ellipse cx="982.2734" cy="117.834" fill="#FFFFFF" rx="9" ry="9" style="stroke:#000000;stroke-width:1;"/><path d="M978.0078,123.834 L978.0078,111.6621 L987.0391,111.6621 L987.0391,113.7246 L980.4609,113.7246 L980.4609,116.4277 L986.5703,116.4277 L986.5703,118.4746 L980.4609,118.4746 L980.4609,121.7871 L987.2734,121.7871 L987.2734,123.834 L978.0078,123.834 Z " fill="#000000"/><text fill="#000000" font-family="Segoe UI" font-size="14" lengthAdjust="spacing" textLength="107.9121" x="1003.7734" y="123.6309">Config Parameter</text><line style="stroke:#000000;stroke-width:1;" x1="885.5" x2="1202.459" y1="136.1445" y2="136.1445"/><ellipse cx="895.5" cy="154.9551" fill="#FFFFFF" rx="3" ry="3" style="stroke:#000000;stroke-width:1;"/><text fill="#000000" font-family="Segoe UI" font-size="14" font-weight="bold" lengthAdjust="spacing" textLength="36.4014" x="906.5" y="159.252">name</text><text fill="#000000" font-family="Segoe UI" font-size="14" lengthAdjust="spacing" textLength="75.9404" x="946.7363" y="159.252">: string &#171;PK&#187;</text><ellipse cx="895.5" cy="181.5762" fill="#FFFFFF" rx="3" ry="3" style="stroke:#000000;stroke-width:1;"/><text fill="#000000" font-family="Segoe UI" font-size="14" font-weight="bold" lengthAdjust="spacing" textLength="37.6934" x="906.5" y="185.873">scope</text><text fill="#000000" font-family="Segoe UI" font-size="14" lengthAdjust="spacing" textLength="238.1299" x="948.0283" y="185.873">: enum {access, upstream, global} &#171;PK&#187;</text><line style="stroke:#000000;stroke-width:1;" x1="885.5" x2="1202.459" y1="197.3867" y2="197.3867"/><ellipse cx="895.5" cy="216.1973" fill="#FFFFFF" rx="3" ry="3" style="stroke:#000000;stroke-width:1;"/><text fill="#000000" font-family="Segoe UI" font-size="14" lengthAdjust="spacing" textLength="64.9893" x="906.5" y="220.4941">value : any</text><ellipse cx="895.5" cy="242.8184" fill="#FFFFFF" rx="3" ry="3" style="stroke:#000000;stroke-width:1;"/><text fill="#000000" font-family="Segoe UI" font-size="14" lengthAdjust="spacing" textLength="286.959" x="906.5" y="247.1152">type : enum {string, integer, boolean, list, map}</text><ellipse cx="895.5" cy="269.4395" fill="#FFFFFF" rx="3" ry="3" style="stroke:#000000;stroke-width:1;"/><text fill="#000000" font-family="Segoe UI" font-size="14" lengthAdjust="spacing" textLength="75.6533" x="906.5" y="273.7363">default : any</text></g><!--class log--><g class="entity" data-entity="log" data-source-line="38" data-uid="ent0006" id="entity_log"><rect fill="#FFFFFF" height="265.5898" rx="2.5" ry="2.5" style="stroke:#000000;stroke-width:1;" width="202.085" x="12" y="345.5234"/><ellipse cx="70.1182" cy="363.834" fill="#FFFFFF" rx="9" ry="9" style="stroke:#000000;stroke-width:1;"/><path d="M65.8525,369.834 L65.8525,357.6621 L74.8838,357.6621 L74.8838,359.7246 L68.3057,359.7246 L68.3057,362.4277 L74.415,362.4277 L74.415,364.4746 L68.3057,364.4746 L68.3057,367.7871 L75.1182,367.7871 L75.1182,369.834 L65.8525,369.834 Z " fill="#000000"/><text fill="#000000" font-family="Segoe UI" font-size="14" lengthAdjust="spacing" textLength="70.3486" x="91.6182" y="369.6309">Log Record</text><line style="stroke:#000000;stroke-width:1;" x1="13" x2="213.085" y1="382.1445" y2="382.1445"/><ellipse cx="23" cy="400.9551" fill="#FFFFFF" rx="3" ry="3" style="stroke:#000000;stroke-width:1;"/><text fill="#000000" font-family="Segoe UI" font-size="14" font-weight="bold" lengthAdjust="spacing" textLength="70.4717" x="34" y="405.252">timestamp</text><text fill="#000000" font-family="Segoe UI" font-size="14" lengthAdjust="spacing" textLength="95.7783" x="108.3066" y="405.252">: datetime &#171;PK&#187;</text><ellipse cx="23" cy="427.5762" fill="#FFFFFF" rx="3" ry="3" style="stroke:#000000;stroke-width:1;"/><text fill="#000000" font-family="Segoe UI" font-size="14" font-weight="bold" lengthAdjust="spacing" textLength="54.6396" x="34" y="431.873">client_ip</text><text fill="#000000" font-family="Segoe UI" font-size="14" lengthAdjust="spacing" textLength="66.7051" x="92.4746" y="431.873">: ipv4 &#171;PK&#187;</text><line style="stroke:#000000;stroke-width:1;" x1="13" x2="213.085" y1="443.3867" y2="443.3867"/><ellipse cx="23" cy="462.1973" fill="#FFFFFF" rx="3" ry="3" style="stroke:#000000;stroke-width:1;"/><text fill="#000000" font-family="Segoe UI" font-size="14" lengthAdjust="spacing" textLength="94.3086" x="34" y="466.4941">method : string</text><ellipse cx="23" cy="488.8184" fill="#FFFFFF" rx="3" ry="3" style="stroke:#000000;stroke-width:1;"/><text fill="#000000" font-family="Segoe UI" font-size="14" lengthAdjust="spacing" textLength="61.9951" x="34" y="493.1152">url : string</text><ellipse cx="23" cy="515.4395" fill="#FFFFFF" rx="3" ry="3" style="stroke:#000000;stroke-width:1;"/><text fill="#000000" font-family="Segoe UI" font-size="14" lengthAdjust="spacing" textLength="126.9775" x="34" y="519.7363">status_code : integer</text><ellipse cx="23" cy="542.0605" fill="#FFFFFF" rx="3" ry="3" style="stroke:#000000;stroke-width:1;"/><text fill="#000000" font-family="Segoe UI" font-size="14" lengthAdjust="spacing" textLength="106.292" x="34" y="546.3574">username : string</text><ellipse cx="23" cy="568.6816" fill="#FFFFFF" rx="3" ry="3" style="stroke:#000000;stroke-width:1;"/><text fill="#000000" font-family="Segoe UI" font-size="14" lengthAdjust="spacing" textLength="87.5273" x="34" y="572.9785">bytes : integer</text><ellipse cx="23" cy="595.3027" fill="#FFFFFF" rx="3" ry="3" style="stroke:#000000;stroke-width:1;"/><text fill="#000000" font-family="Segoe UI" font-size="14" lengthAdjust="spacing" textLength="106.9346" x="34" y="599.5996">duration : integer</text></g><!--class secret--><g class="entity" data-entity="secret" data-source-line="50" data-uid="ent0007" id="entity_secret"><rect fill="#FFFFFF" height="159.1055" rx="2.5" ry="2.5" style="stroke:#000000;stroke-width:1;" width="276.166" x="1194" y="399.0234"/><ellipse cx="1305.2539" cy="417.334" fill="#FFFFFF" rx="9" ry="9" style="stroke:#000000;stroke-width:1;"/><path d="M1300.9883,423.334 L1300.9883,411.1621 L1310.0195,411.1621 L1310.0195,413.2246 L1303.4414,413.2246 L1303.4414,415.9277 L1309.5508,415.9277 L1309.5508,417.9746 L1303.4414,417.9746 L1303.4414,421.2871 L1310.2539,421.2871 L1310.2539,423.334 L1300.9883,423.334 Z " fill="#000000"/><text fill="#000000" font-family="Segoe UI" font-size="14" lengthAdjust="spacing" textLength="38.1582" x="1326.7539" y="423.1309">Secret</text><line style="stroke:#000000;stroke-width:1;" x1="1195" x2="1469.166" y1="435.6445" y2="435.6445"/><ellipse cx="1205" cy="454.4551" fill="#FFFFFF" rx="3" ry="3" style="stroke:#000000;stroke-width:1;"/><text fill="#000000" font-family="Segoe UI" font-size="14" font-weight="bold" lengthAdjust="spacing" textLength="36.4014" x="1216" y="458.752">name</text><text fill="#000000" font-family="Segoe UI" font-size="14" lengthAdjust="spacing" textLength="75.9404" x="1256.2363" y="458.752">: string &#171;PK&#187;</text><line style="stroke:#000000;stroke-width:1;" x1="1195" x2="1469.166" y1="470.2656" y2="470.2656"/><ellipse cx="1205" cy="489.0762" fill="#FFFFFF" rx="3" ry="3" style="stroke:#000000;stroke-width:1;"/><text fill="#000000" font-family="Segoe UI" font-size="14" lengthAdjust="spacing" textLength="78.2783" x="1216" y="493.373">value : string</text><ellipse cx="1205" cy="515.6973" fill="#FFFFFF" rx="3" ry="3" style="stroke:#000000;stroke-width:1;"/><text fill="#000000" font-family="Segoe UI" font-size="14" lengthAdjust="spacing" textLength="148.9346" x="1216" y="519.9941">type : enum {hex, string}</text><ellipse cx="1205" cy="542.3184" fill="#FFFFFF" rx="3" ry="3" style="stroke:#000000;stroke-width:1;"/><text fill="#000000" font-family="Segoe UI" font-size="14" lengthAdjust="spacing" textLength="244.166" x="1216" y="546.6152">scope : enum {access, upstream, global}</text></g><g class="entity" data-entity="GMN8" data-source-line="59" data-uid="ent0009" id="entity_GMN8"><path d="M236,166.0234 L236,188.5234 L201.09,192.5234 L236,196.5234 L236,218.6055 A0,0 0 0 0 236,218.6055 L443.5786,218.6055 A0,0 0 0 0 443.5786,218.6055 L443.5786,176.0234 L433.5786,166.0234 L236,166.0234 A0,0 0 0 0 236,166.0234" fill="#FFFFFF" style="stroke:#000000;stroke-width:1;"/><path d="M433.5786,166.0234 L433.5786,176.0234 L443.5786,176.0234 L433.5786,166.0234" fill="#FFFFFF" style="stroke:#000000;stroke-width:1;"/><text fill="#000000" font-family="Segoe UI" font-size="13" lengthAdjust="spacing" textLength="178.5786" x="246" y="189.0518">&#1061;&#1088;&#1072;&#1085;&#1080;&#1090;&#1089;&#1103; &#1074; &#1092;&#1086;&#1088;&#1084;&#1072;&#1090;&#1077; htpasswd</text><text fill="#000000" font-family="Segoe UI" font-size="13" lengthAdjust="spacing" textLength="170.2378" x="246" y="206.3428">(NCSA auth: user:$apr1$hash)</text></g><g class="entity" data-entity="GMN11" data-source-line="64" data-uid="ent0012" id="entity_GMN11"><path d="M249.5,452.0234 L249.5,474.5234 L214.28,478.5234 L249.5,482.5234 L249.5,504.6055 A0,0 0 0 0 249.5,504.6055 L452.2734,504.6055 A0,0 0 0 0 452.2734,504.6055 L452.2734,462.0234 L442.2734,452.0234 L249.5,452.0234 A0,0 0 0 0 249.5,452.0234" fill="#FFFFFF" style="stroke:#000000;stroke-width:1;"/><path d="M442.2734,452.0234 L442.2734,462.0234 L452.2734,462.0234 L442.2734,452.0234" fill="#FFFFFF" style="stroke:#000000;stroke-width:1;"/><text fill="#000000" font-family="Segoe UI" font-size="13" lengthAdjust="spacing" textLength="173.7734" x="259.5" y="475.0518">&#1057;&#1090;&#1072;&#1085;&#1076;&#1072;&#1088;&#1090;&#1085;&#1099;&#1081; logformat squid</text><text fill="#000000" font-family="Segoe UI" font-size="13" lengthAdjust="spacing" textLength="156.0825" x="259.5" y="492.3428">(native format) &#1074; access.log</text></g><g class="entity" data-entity="GMN14" data-source-line="69" data-uid="ent0015" id="entity_GMN14"><path d="M720,452.0234 L720,474.5234 L684.54,478.5234 L720,482.5234 L720,504.6055 A0,0 0 0 0 720,504.6055 L894.4121,504.6055 A0,0 0 0 0 894.4121,504.6055 L894.4121,462.0234 L884.4121,452.0234 L720,452.0234 A0,0 0 0 0 720,452.0234" fill="#FFFFFF" style="stroke:#000000;stroke-width:1;"/><path d="M884.4121,452.0234 L884.4121,462.0234 L894.4121,462.0234 L884.4121,452.0234" fill="#FFFFFF" style="stroke:#000000;stroke-width:1;"/><text fill="#000000" font-family="Segoe UI" font-size="13" lengthAdjust="spacing" textLength="123.4492" x="730" y="475.0518">exact: dstdomain ACL</text><text fill="#000000" font-family="Segoe UI" font-size="13" lengthAdjust="spacing" textLength="145.4121" x="730" y="492.3428">regex: dstdom_regex ACL</text></g><!--link cred to log--><g class="link" data-entity-1="cred" data-entity-2="log" data-source-line="73" data-uid="lnk17" id="link_cred_log"><path codeLine="73" d="M113,258.8534 C113,284.7634 113,315.4334 113,345.5234" fill="none" id="cred-log" style="stroke:#000000;stroke-width:1;"/><polygon fill="#000000" points="118,293.8289,120.9389,284.7839,115.0611,284.7839,118,293.8289" style="stroke:#000000;stroke-width:1;"/><text fill="#000000" font-family="Segoe UI" font-size="13" lengthAdjust="spacing" textLength="56.1577" x="131" y="294.2118">username</text><text fill="#000000" font-family="Segoe UI" font-size="13" lengthAdjust="spacing" textLength="7.0078" x="101.2295" y="285.0011">1</text><text fill="#000000" font-family="Segoe UI" font-size="13" lengthAdjust="spacing" textLength="5.4209" x="103.6339" y="330.1603">*</text></g><!--link config to domain--><g class="link" data-entity-1="config" data-entity-2="domain" data-source-line="74" data-uid="lnk18" id="link_config_domain"><path codeLine="74" d="M889.25,285.6534 C889.25,353.1234 889.25,432.5234 889.25,432.5234 C889.25,432.5234 773.37,432.5234 684.88,432.5234" fill="none" id="config-domain" style="stroke:#000000;stroke-width:1;"/><polygon fill="#000000" points="770.4397,422.0869,779.4999,419.1949,776.0697,414.4217,770.4397,422.0869" style="stroke:#000000;stroke-width:1;"/><text fill="#000000" font-family="Segoe UI" font-size="13" lengthAdjust="spacing" textLength="68.9863" x="787.5" y="424.5518">&#1086;&#1087;&#1088;&#1077;&#1076;&#1077;&#1083;&#1103;&#1077;&#1090;</text><text fill="#000000" font-family="Segoe UI" font-size="13" lengthAdjust="spacing" textLength="7.0078" x="866.8435" y="311.1287">1</text><text fill="#000000" font-family="Segoe UI" font-size="13" lengthAdjust="spacing" textLength="5.4209" x="696.9481" y="421.0654">*</text></g><!--link config to acl--><g class="link" data-entity-1="config" data-entity-2="acl" data-source-line="75" data-uid="lnk19" id="link_config_acl"><path codeLine="75" d="M1044,285.7734 C1044,327.0134 1044,374.5634 1044,412.1134" fill="none" id="config-acl" style="stroke:#000000;stroke-width:1;"/><polygon fill="#000000" points="958,340.5889,960.9389,331.5439,955.0611,331.5439,958,340.5889" style="stroke:#000000;stroke-width:1;"/><text fill="#000000" font-family="Segoe UI" font-size="13" lengthAdjust="spacing" textLength="68.9863" x="971" y="340.9718">&#1086;&#1087;&#1088;&#1077;&#1076;&#1077;&#1083;&#1103;&#1077;&#1090;</text><text fill="#000000" font-family="Segoe UI" font-size="13" lengthAdjust="spacing" textLength="7.0078" x="1032.4744" y="311.2571">1</text><text fill="#000000" font-family="Segoe UI" font-size="13" lengthAdjust="spacing" textLength="5.4209" x="1034.389" y="397.3645">*</text></g><!--link config to secret--><g class="link" data-entity-1="config" data-entity-2="secret" data-source-line="76" data-uid="lnk20" id="link_config_secret"><path codeLine="76" d="M1198.75,285.7734 C1198.75,322.2934 1198.75,363.7434 1198.75,398.8334" fill="none" id="config-secret" style="stroke:#000000;stroke-width:1;"/><polygon fill="#000000" points="1123.75,333.9489,1126.6889,324.9039,1120.8111,324.9039,1123.75,333.9489" style="stroke:#000000;stroke-width:1;"/><text fill="#000000" font-family="Segoe UI" font-size="13" lengthAdjust="spacing" textLength="57.7573" x="1136.75" y="334.3318">&#1089;&#1086;&#1076;&#1077;&#1088;&#1078;&#1080;&#1090;</text><text fill="#000000" font-family="Segoe UI" font-size="13" lengthAdjust="spacing" textLength="7.0078" x="1198.1052" y="311.2571">1</text><text fill="#000000" font-family="Segoe UI" font-size="13" lengthAdjust="spacing" textLength="5.4209" x="1177.3149" y="383.6593">*</text></g><!--SRC=[bLJDIXn14BxlKrG63xgi0S7J8iAo9Y0n8afkWQMTgPqPqjCzwUxHNKHGISWX0HyWfnnoboGRJABc5NhUADKzi-wkFn5lFLKrzTLNNrKzCGbc23bdgMZeDwd8cM8Py5IW6UO8Kfb4JZbo5aMfY65voXPXdnNSF9V2R39A5knWB15UhGUDXaaDHx2VxPNzRi_B3tPK7jlVzgmy1Nj1nXzsPF-Kdu0UP_RINfOVo_Smlx7sSk6rwAn3H-jK6oQCXYqb1yD60mMb74BGLHYvD-C1C0qXVS910w09pMQXKGcgfDc4DcYZNC4hArilLbSfO77HH-LCwtsfebx2T78TvbqA6SycfiC9QAUx0S-4KKEFoK9-3QbbeKBifRd7JFEzvGcYyqUeJIgOIQNevTJKAamOZ57Tges5Beu2K1GP733EvNwBsYo6XzFLhCcCL8FjWgEl9wg-noNbp1Zgm_-Qu2KUm-20S5l4FiR1uMFgw4hHJsFOSiE015a9KXd7nTmhXszUAFFAMmE58MhTWYAdQ6HP2s8kTna_l4LWZ_72CM1YU9jG1TKQjxa5kr9oPA95uws9QSRoYcSzm7MUAMORCePj36bCF2Sk9uHCcf6aBAi4ZvX1Pvdb5VAKCjqz53K1QbWYezdvAnIVDH2EANGlb15EfgOAhITzDdvtQ53VY8mAnMern-OfeZj82sGyIUsV3mjtGu4f-1aH4XoqQcVLR2_smrAxweGq22gD4mEoxrUSCjYlvP6_5UVbINdixiWtAD_PAx9Uq5qviID8ZDzk5ps_sTtf02jCqlRDQi-nN2tDkQLV8FOHE8oRIAIp0_f2oHmGdQRoYDvqdEmlv-nBbJ43-csHUWotrti8bNd15LJHUkeItGTIRIlzxlUEHaYRUe7fof3Px-7OtFDVtZF9vszUi1IG510q0p-UxSb8h3Rg7PmAgH7QGAVtBtLiL1_WKxhB9tV-uOxS8yBhwMa3dNb_tUcldqugYlu7]--></g></svg>