<svg xmlns="http://www.w3.org/2000/svg" xmlns:xlink="http://www.w3.org/1999/xlink" contentStyleType="text/css" data-diagram-type="CLASS" height="745px" preserveAspectRatio="none" style="width:2487px;height:745px;background:#FFFFFF;" version="1.1" viewBox="0 0 2487 745" width="2487px" zoomAndPan="magnify"><title>&#1060;&#1080;&#1079;&#1080;&#1095;&#1077;&#1089;&#1082;&#1072;&#1103; &#1084;&#1086;&#1076;&#1077;&#1083;&#1100; &#1076;&#1072;&#1085;&#1085;&#1099;&#1093; (PDM)</title><defs/><g><text fill="#000000" font-family="Segoe UI" font-size="22" font-weight="bold" lengthAdjust="spacing" textLength="378.2969" x="1049.8516" y="42.7402">&#1060;&#1080;&#1079;&#1080;&#1095;&#1077;&#1089;&#1082;&#1072;&#1103; &#1084;&#1086;&#1076;&#1077;&#1083;&#1100; &#1076;&#1072;&#1085;&#1085;&#1099;&#1093; (PDM)</text><text fill="#000000" font-family="Segoe UI" font-size="22" font-weight="bold" lengthAdjust="spacing" textLength="196.9902" x="1140.5049" y="72.002">AI Assistants Proxy</text><!--cluster access_tier--><g class="cluster" data-entity="access_tier" data-source-line="8" data-uid="ent0002" id="cluster_access_tier"><path d="M13.5,403.5234 L142.0742,403.5234 A3.75,3.75 0 0 1 144.5742,406.0234 L151.5742,436.1445 L1408.5,436.1445 A2.5,2.5 0 0 1 1411,438.6445 L1411,736.0234 A2.5,2.5 0 0 1 1408.5,738.5234 L13.5,738.5234 A2.5,2.5 0 0 1 11,736.0234 L11,406.0234 A2.5,2.5 0 0 1 13.5,403.5234" fill="#FFFFFF" style="stroke:#000000;stroke-width:1;"/><line style="stroke:#000000;stroke-width:1;" x1="11" x2="151.5742" y1="436.1445" y2="436.1445"/><text fill="#000000" font-family="Segoe UI" font-size="14" font-weight="bold" lengthAdjust="spacing" textLength="119.5742" x="19" y="424.6309">Access Proxy (&#1056;&#1060;)</text></g><!--cluster upstream_tier--><g class="cluster" data-entity="upstream_tier" data-source-line="63" data-uid="ent0008" id="cluster_upstream_tier"><path d="M1437.5,430.5234 L1614.9307,430.5234 A3.75,3.75 0 0 1 1617.4307,433.0234 L1624.4307,463.1445 L2477.5,463.1445 A2.5,2.5 0 0 1 2480,465.6445 L2480,709.0234 A2.5,2.5 0 0 1 2477.5,711.5234 L1437.5,711.5234 A2.5,2.5 0 0 1 1435,709.0234 L1435,433.0234 A2.5,2.5 0 0 1 1437.5,430.5234" fill="#FFFFFF" style="stroke:#000000;stroke-width:1;"/><line style="stroke:#000000;stroke-width:1;" x1="1435" x2="1624.4307" y1="463.1445" y2="463.1445"/><text fill="#000000" font-family="Segoe UI" font-size="14" font-weight="bold" lengthAdjust="spacing" textLength="168.4307" x="1443" y="451.6309">Upstream Proxy (&#1074;&#1085;&#1077; &#1056;&#1060;)</text></g><!--cluster ansible_host--><g class="cluster" data-entity="ansible_host" data-source-line="107" data-uid="ent0013" id="cluster_ansible_host"><path d="M1289.5,98.5234 L1495.0811,98.5234 A3.75,3.75 0 0 1 1497.5811,101.0234 L1504.5811,131.1445 L1588.5,131.1445 A2.5,2.5 0 0 1 1591,133.6445 L1591,377.0234 A2.5,2.5 0 0 1 1588.5,379.5234 L1289.5,379.5234 A2.5,2.5 0 0 1 1287,377.0234 L1287,101.0234 A2.5,2.5 0 0 1 1289.5,98.5234" fill="#FFFFFF" style="stroke:#000000;stroke-width:1;"/><line style="stroke:#000000;stroke-width:1;" x1="1287" x2="1504.5811" y1="131.1445" y2="131.1445"/><text fill="#000000" font-family="Segoe UI" font-size="14" font-weight="bold" lengthAdjust="spacing" textLength="196.5811" x="1295" y="119.6309">&#1059;&#1087;&#1088;&#1072;&#1074;&#1083;&#1103;&#1102;&#1097;&#1080;&#1081; &#1093;&#1086;&#1089;&#1090; (Ansible)</text></g><!--class passwd--><g class="entity" data-entity="passwd" data-source-line="9" data-uid="ent0003" id="entity_passwd"><rect fill="#FFFFFF" height="167.1055" rx="2.5" ry="2.5" style="stroke:#000000;stroke-width:1;" width="193.7588" x="1201" y="502.0234"/><ellipse cx="1233.5855" cy="520.334" fill="#FFFFFF" rx="9" ry="9" style="stroke:#000000;stroke-width:1;"/><path d="M1229.3199,526.334 L1229.3199,514.1621 L1238.3512,514.1621 L1238.3512,516.2246 L1231.773,516.2246 L1231.773,518.9277 L1237.8824,518.9277 L1237.8824,520.9746 L1231.773,520.9746 L1231.773,524.2871 L1238.5855,524.2871 L1238.5855,526.334 L1229.3199,526.334 Z " fill="#000000"/><text fill="#000000" font-family="Segoe UI" font-size="14" lengthAdjust="spacing" textLength="114.2354" x="1253.9379" y="526.1309">/etc/squid/passwd</text><line style="stroke:#000000;stroke-width:1;" x1="1202" x2="1393.7588" y1="538.6445" y2="538.6445"/><ellipse cx="1212" cy="557.4551" fill="#FFFFFF" rx="3" ry="3" style="stroke:#000000;stroke-width:1;"/><text fill="#000000" font-family="Segoe UI" font-size="14" lengthAdjust="spacing" textLength="161.7588" x="1223" y="561.752">&#1092;&#1086;&#1088;&#1084;&#1072;&#1090;: htpasswd (NCSA)</text><line style="stroke:#000000;stroke-width:1;" x1="1202" x2="1393.7588" y1="573.2656" y2="573.2656"/><text fill="#000000" font-family="Segoe UI" font-size="14" lengthAdjust="spacing" textLength="129.6025" x="1211" y="596.373">user:$apr1$salt$hash</text><line style="stroke:#000000;stroke-width:1;stroke-dasharray:1.0,2.0;" x1="1202" x2="1393.7588" y1="607.8867" y2="607.8867"/><text fill="#000000" font-family="Segoe UI" font-size="14" lengthAdjust="spacing" textLength="143.3223" x="1211" y="630.9941">&#1087;&#1088;&#1072;&#1074;&#1072;: 640 (root:proxy)</text><text fill="#000000" font-family="Segoe UI" font-size="14" lengthAdjust="spacing" textLength="108.3428" x="1211" y="657.6152">&#1082;&#1086;&#1076;&#1080;&#1088;&#1086;&#1074;&#1082;&#1072;: ASCII</text></g><!--class squid_conf_access--><g class="entity" data-entity="squid_conf_access" data-source-line="18" data-uid="ent0004" id="entity_squid_conf_access"><rect fill="#FFFFFF" height="273.5898" rx="2.5" ry="2.5" style="stroke:#000000;stroke-width:1;" width="302.2627" x="864" y="448.5234"/><ellipse cx="941.1855" cy="466.834" fill="#FFFFFF" rx="9" ry="9" style="stroke:#000000;stroke-width:1;"/><path d="M936.9199,472.834 L936.9199,460.6621 L945.9512,460.6621 L945.9512,462.7246 L939.373,462.7246 L939.373,465.4277 L945.4824,465.4277 L945.4824,467.4746 L939.373,467.4746 L939.373,470.7871 L946.1855,470.7871 L946.1855,472.834 L936.9199,472.834 Z " fill="#000000"/><text fill="#000000" font-family="Segoe UI" font-size="14" lengthAdjust="spacing" textLength="132.3916" x="962.6855" y="472.6309">/etc/squid/squid.conf</text><line style="stroke:#000000;stroke-width:1;" x1="865" x2="1165.2627" y1="485.1445" y2="485.1445"/><ellipse cx="875" cy="503.9551" fill="#FFFFFF" rx="3" ry="3" style="stroke:#000000;stroke-width:1;"/><text fill="#000000" font-family="Segoe UI" font-size="14" lengthAdjust="spacing" textLength="186.7236" x="886" y="508.252">&#1092;&#1086;&#1088;&#1084;&#1072;&#1090;: Squid &#1082;&#1086;&#1085;&#1092;&#1080;&#1075;&#1091;&#1088;&#1072;&#1094;&#1080;&#1103;</text><line style="stroke:#000000;stroke-width:1;" x1="865" x2="1165.2627" y1="519.7656" y2="519.7656"/><text fill="#000000" font-family="Segoe UI" font-size="14" lengthAdjust="spacing" textLength="209.9453" x="874" y="542.873">acl allowed_domains dstdomain ...</text><text fill="#000000" font-family="Segoe UI" font-size="14" lengthAdjust="spacing" textLength="282.2627" x="874" y="569.4941">acl allowed_domain_patterns dstdom_regex ...</text><text fill="#000000" font-family="Segoe UI" font-size="14" lengthAdjust="spacing" textLength="230.1523" x="874" y="596.1152">auth_param basic program ncsa_auth</text><text fill="#000000" font-family="Segoe UI" font-size="14" lengthAdjust="spacing" textLength="213.0215" x="874" y="622.7363">cache_peer &lt;upstream&gt; parent 80</text><text fill="#000000" font-family="Segoe UI" font-size="14" lengthAdjust="spacing" textLength="197.1895" x="874" y="649.3574">access_log squid (native format)</text><line style="stroke:#000000;stroke-width:1;stroke-dasharray:1.0,2.0;" x1="865" x2="1165.2627" y1="660.8711" y2="660.8711"/><text fill="#000000" font-family="Segoe UI" font-size="14" lengthAdjust="spacing" textLength="143.3223" x="874" y="683.9785">&#1087;&#1088;&#1072;&#1074;&#1072;: 644 (root:proxy)</text><text fill="#000000" font-family="Segoe UI" font-size="14" lengthAdjust="spacing" textLength="181.1865" x="874" y="710.5996">&#1075;&#1077;&#1085;&#1077;&#1088;&#1080;&#1088;&#1091;&#1077;&#1090;&#1089;&#1103;: Jinja2 &#1096;&#1072;&#1073;&#1083;&#1086;&#1085;</text></g><!--class access_log--><g class="entity" data-entity="access_log" data-source-line="31" data-uid="ent0005" id="entity_access_log"><rect fill="#FFFFFF" height="193.7266" rx="2.5" ry="2.5" style="stroke:#000000;stroke-width:1;" width="266.5137" x="561.5" y="488.5234"/><ellipse cx="608.8926" cy="506.834" fill="#FFFFFF" rx="9" ry="9" style="stroke:#000000;stroke-width:1;"/><path d="M604.627,512.834 L604.627,500.6621 L613.6582,500.6621 L613.6582,502.7246 L607.0801,502.7246 L607.0801,505.4277 L613.1895,505.4277 L613.1895,507.4746 L607.0801,507.4746 L607.0801,510.7871 L613.8926,510.7871 L613.8926,512.834 L604.627,512.834 Z " fill="#000000"/><text fill="#000000" font-family="Segoe UI" font-size="14" lengthAdjust="spacing" textLength="156.2285" x="630.3926" y="512.6309">/var/log/squid/access.log</text><line style="stroke:#000000;stroke-width:1;" x1="562.5" x2="827.0137" y1="525.1445" y2="525.1445"/><ellipse cx="572.5" cy="543.9551" fill="#FFFFFF" rx="3" ry="3" style="stroke:#000000;stroke-width:1;"/><text fill="#000000" font-family="Segoe UI" font-size="14" lengthAdjust="spacing" textLength="234.5137" x="583.5" y="548.252">&#1092;&#1086;&#1088;&#1084;&#1072;&#1090;: Squid native logformat squid</text><line style="stroke:#000000;stroke-width:1;" x1="562.5" x2="827.0137" y1="559.7656" y2="559.7656"/><text fill="#000000" font-family="Segoe UI" font-size="14" lengthAdjust="spacing" textLength="216.6172" x="571.5" y="582.873">timestamp duration client_ip status</text><text fill="#000000" font-family="Segoe UI" font-size="14" lengthAdjust="spacing" textLength="230.1592" x="571.5" y="609.4941">bytes method url username hierarchy</text><line style="stroke:#000000;stroke-width:1;stroke-dasharray:1.0,2.0;" x1="562.5" x2="827.0137" y1="621.0078" y2="621.0078"/><text fill="#000000" font-family="Segoe UI" font-size="14" lengthAdjust="spacing" textLength="151.8057" x="571.5" y="644.1152">&#1087;&#1088;&#1072;&#1074;&#1072;: 640 (proxy:proxy)</text><text fill="#000000" font-family="Segoe UI" font-size="14" lengthAdjust="spacing" textLength="116.5869" x="571.5" y="670.7363">&#1088;&#1086;&#1090;&#1072;&#1094;&#1080;&#1103;: logrotate</text></g><!--class nginx_access--><g class="entity" data-entity="nginx_access" data-source-line="41" data-uid="ent0006" id="entity_nginx_access"><rect fill="#FFFFFF" height="220.3477" rx="2.5" ry="2.5" style="stroke:#000000;stroke-width:1;" width="212.8213" x="313.5" y="475.5234"/><ellipse cx="332.5214" cy="493.834" fill="#FFFFFF" rx="9" ry="9" style="stroke:#000000;stroke-width:1;"/><path d="M328.2558,499.834 L328.2558,487.6621 L337.287,487.6621 L337.287,489.7246 L330.7089,489.7246 L330.7089,492.4277 L336.8183,492.4277 L336.8183,494.4746 L330.7089,494.4746 L330.7089,497.7871 L337.5214,497.7871 L337.5214,499.834 L328.2558,499.834 Z " fill="#000000"/><text fill="#000000" font-family="Segoe UI" font-size="14" lengthAdjust="spacing" textLength="163.4404" x="349.8595" y="499.6309">/etc/nginx/stream.d/*.conf</text><line style="stroke:#000000;stroke-width:1;" x1="314.5" x2="525.3213" y1="512.1445" y2="512.1445"/><ellipse cx="324.5" cy="530.9551" fill="#FFFFFF" rx="3" ry="3" style="stroke:#000000;stroke-width:1;"/><text fill="#000000" font-family="Segoe UI" font-size="14" lengthAdjust="spacing" textLength="177.8438" x="335.5" y="535.252">&#1092;&#1086;&#1088;&#1084;&#1072;&#1090;: nginx stream config</text><line style="stroke:#000000;stroke-width:1;" x1="314.5" x2="525.3213" y1="546.7656" y2="546.7656"/><text fill="#000000" font-family="Segoe UI" font-size="14" lengthAdjust="spacing" textLength="192.8213" x="323.5" y="569.873">00-sni-router.conf (ssl_preread)</text><text fill="#000000" font-family="Segoe UI" font-size="14" lengthAdjust="spacing" textLength="165.4639" x="323.5" y="596.4941">10-aiproxy-upstreams.conf</text><text fill="#000000" font-family="Segoe UI" font-size="14" lengthAdjust="spacing" textLength="142.0234" x="323.5" y="623.1152">sni-map.d/aiproxy.conf</text><line style="stroke:#000000;stroke-width:1;stroke-dasharray:1.0,2.0;" x1="314.5" x2="525.3213" y1="634.6289" y2="634.6289"/><text fill="#000000" font-family="Segoe UI" font-size="14" lengthAdjust="spacing" textLength="134.8389" x="323.5" y="657.7363">&#1087;&#1088;&#1072;&#1074;&#1072;: 644 (root:root)</text><text fill="#000000" font-family="Segoe UI" font-size="14" lengthAdjust="spacing" textLength="191.1191" x="323.5" y="684.3574">&#1075;&#1077;&#1085;&#1077;&#1088;&#1080;&#1088;&#1091;&#1077;&#1090;&#1089;&#1103;: Jinja2 &#1096;&#1072;&#1073;&#1083;&#1086;&#1085;&#1099;</text></g><!--class keepalived_conf--><g class="entity" data-entity="keepalived_conf" data-source-line="52" data-uid="ent0007" id="entity_keepalived_conf"><rect fill="#FFFFFF" height="193.7266" rx="2.5" ry="2.5" style="stroke:#000000;stroke-width:1;" width="250.6543" x="27.5" y="488.5234"/><ellipse cx="48.4792" cy="506.834" fill="#FFFFFF" rx="9" ry="9" style="stroke:#000000;stroke-width:1;"/><path d="M44.2135,512.834 L44.2135,500.6621 L53.2448,500.6621 L53.2448,502.7246 L46.6667,502.7246 L46.6667,505.4277 L52.776,505.4277 L52.776,507.4746 L46.6667,507.4746 L46.6667,510.7871 L53.4792,510.7871 L53.4792,512.834 L44.2135,512.834 Z " fill="#000000"/><text fill="#000000" font-family="Segoe UI" font-size="14" lengthAdjust="spacing" textLength="196.9229" x="66.2523" y="512.6309">/etc/keepalived/keepalived.conf</text><line style="stroke:#000000;stroke-width:1;" x1="28.5" x2="277.1543" y1="525.1445" y2="525.1445"/><ellipse cx="38.5" cy="543.9551" fill="#FFFFFF" rx="3" ry="3" style="stroke:#000000;stroke-width:1;"/><text fill="#000000" font-family="Segoe UI" font-size="14" lengthAdjust="spacing" textLength="218.6543" x="49.5" y="548.252">&#1092;&#1086;&#1088;&#1084;&#1072;&#1090;: Keepalived &#1082;&#1086;&#1085;&#1092;&#1080;&#1075;&#1091;&#1088;&#1072;&#1094;&#1080;&#1103;</text><line style="stroke:#000000;stroke-width:1;" x1="28.5" x2="277.1543" y1="559.7656" y2="559.7656"/><text fill="#000000" font-family="Segoe UI" font-size="14" lengthAdjust="spacing" textLength="196.5264" x="37.5" y="582.873">vrrp_instance: state, priority, VIP</text><text fill="#000000" font-family="Segoe UI" font-size="14" lengthAdjust="spacing" textLength="147.9844" x="37.5" y="609.4941">auth: PASS &lt;password&gt;</text><line style="stroke:#000000;stroke-width:1;stroke-dasharray:1.0,2.0;" x1="28.5" x2="277.1543" y1="621.0078" y2="621.0078"/><text fill="#000000" font-family="Segoe UI" font-size="14" lengthAdjust="spacing" textLength="134.8389" x="37.5" y="644.1152">&#1087;&#1088;&#1072;&#1074;&#1072;: 640 (root:root)</text><text fill="#000000" font-family="Segoe UI" font-size="14" lengthAdjust="spacing" textLength="181.1865" x="37.5" y="670.7363">&#1075;&#1077;&#1085;&#1077;&#1088;&#1080;&#1088;&#1091;&#1077;&#1090;&#1089;&#1103;: Jinja2 &#1096;&#1072;&#1073;&#1083;&#1086;&#1085;</text></g><!--class squid_conf_upstream--><g class="entity" data-entity="squid_conf_upstream" data-source-line="64" data-uid="ent0009" id="entity_squid_conf_upstream"><rect fill="#FFFFFF" height="193.7266" rx="2.5" ry="2.5" style="stroke:#000000;stroke-width:1;" width="235.5781" x="2228" y="488.5234"/><ellipse cx="2271.8433" cy="506.834" fill="#FFFFFF" rx="9" ry="9" style="stroke:#000000;stroke-width:1;"/><path d="M2267.5776,512.834 L2267.5776,500.6621 L2276.6089,500.6621 L2276.6089,502.7246 L2270.0308,502.7246 L2270.0308,505.4277 L2276.1401,505.4277 L2276.1401,507.4746 L2270.0308,507.4746 L2270.0308,510.7871 L2276.8433,510.7871 L2276.8433,512.834 L2267.5776,512.834 Z " fill="#000000"/><text fill="#000000" font-family="Segoe UI" font-size="14" lengthAdjust="spacing" textLength="132.3916" x="2293.3433" y="512.6309">/etc/squid/squid.conf</text><line style="stroke:#000000;stroke-width:1;" x1="2229" x2="2462.5781" y1="525.1445" y2="525.1445"/><ellipse cx="2239" cy="543.9551" fill="#FFFFFF" rx="3" ry="3" style="stroke:#000000;stroke-width:1;"/><text fill="#000000" font-family="Segoe UI" font-size="14" lengthAdjust="spacing" textLength="186.7236" x="2250" y="548.252">&#1092;&#1086;&#1088;&#1084;&#1072;&#1090;: Squid &#1082;&#1086;&#1085;&#1092;&#1080;&#1075;&#1091;&#1088;&#1072;&#1094;&#1080;&#1103;</text><line style="stroke:#000000;stroke-width:1;" x1="2229" x2="2462.5781" y1="559.7656" y2="559.7656"/><text fill="#000000" font-family="Segoe UI" font-size="14" lengthAdjust="spacing" textLength="215.5781" x="2238" y="582.873">acl access_proxies src &lt;IP1&gt; &lt;IP2&gt;</text><text fill="#000000" font-family="Segoe UI" font-size="14" lengthAdjust="spacing" textLength="200.0537" x="2238" y="609.4941">http_access allow access_proxies</text><line style="stroke:#000000;stroke-width:1;stroke-dasharray:1.0,2.0;" x1="2229" x2="2462.5781" y1="621.0078" y2="621.0078"/><text fill="#000000" font-family="Segoe UI" font-size="14" lengthAdjust="spacing" textLength="143.3223" x="2238" y="644.1152">&#1087;&#1088;&#1072;&#1074;&#1072;: 644 (root:proxy)</text><text fill="#000000" font-family="Segoe UI" font-size="14" lengthAdjust="spacing" textLength="181.1865" x="2238" y="670.7363">&#1075;&#1077;&#1085;&#1077;&#1088;&#1080;&#1088;&#1091;&#1077;&#1090;&#1089;&#1103;: Jinja2 &#1096;&#1072;&#1073;&#1083;&#1086;&#1085;</text></g><!--class mtg_toml--><g class="entity" data-entity="mtg_toml" data-source-line="74" data-uid="ent0010" id="entity_mtg_toml"><rect fill="#FFFFFF" height="193.7266" rx="2.5" ry="2.5" style="stroke:#000000;stroke-width:1;" width="201.1865" x="1991.5" y="488.5234"/><ellipse cx="2014.6281" cy="506.834" fill="#FFFFFF" rx="9" ry="9" style="stroke:#000000;stroke-width:1;"/><path d="M2010.3625,512.834 L2010.3625,500.6621 L2019.3937,500.6621 L2019.3937,502.7246 L2012.8156,502.7246 L2012.8156,505.4277 L2018.925,505.4277 L2018.925,507.4746 L2012.8156,507.4746 L2012.8156,510.7871 L2019.6281,510.7871 L2019.6281,512.834 L2010.3625,512.834 Z " fill="#000000"/><text fill="#000000" font-family="Segoe UI" font-size="14" lengthAdjust="spacing" textLength="142.6797" x="2032.8788" y="512.6309">/etc/mtproxy/mtg.toml</text><line style="stroke:#000000;stroke-width:1;" x1="1992.5" x2="2191.6865" y1="525.1445" y2="525.1445"/><ellipse cx="2002.5" cy="543.9551" fill="#FFFFFF" rx="3" ry="3" style="stroke:#000000;stroke-width:1;"/><text fill="#000000" font-family="Segoe UI" font-size="14" lengthAdjust="spacing" textLength="92.6543" x="2013.5" y="548.252">&#1092;&#1086;&#1088;&#1084;&#1072;&#1090;: TOML</text><line style="stroke:#000000;stroke-width:1;" x1="1992.5" x2="2191.6865" y1="559.7656" y2="559.7656"/><text fill="#000000" font-family="Segoe UI" font-size="14" lengthAdjust="spacing" textLength="105.7109" x="2001.5" y="582.873">secret = "&lt;hex&gt;"</text><text fill="#000000" font-family="Segoe UI" font-size="14" lengthAdjust="spacing" textLength="162.1689" x="2001.5" y="609.4941">bind-to = "127.0.0.1:2083"</text><line style="stroke:#000000;stroke-width:1;stroke-dasharray:1.0,2.0;" x1="1992.5" x2="2191.6865" y1="621.0078" y2="621.0078"/><text fill="#000000" font-family="Segoe UI" font-size="14" lengthAdjust="spacing" textLength="160.125" x="2001.5" y="644.1152">&#1087;&#1088;&#1072;&#1074;&#1072;: 640 (root:mtproxy)</text><text fill="#000000" font-family="Segoe UI" font-size="14" lengthAdjust="spacing" textLength="181.1865" x="2001.5" y="670.7363">&#1075;&#1077;&#1085;&#1077;&#1088;&#1080;&#1088;&#1091;&#1077;&#1090;&#1089;&#1103;: Jinja2 &#1096;&#1072;&#1073;&#1083;&#1086;&#1085;</text></g><!--class nginx_upstream--><g class="entity" data-entity="nginx_upstream" data-source-line="84" data-uid="ent0011" id="entity_nginx_upstream"><rect fill="#FFFFFF" height="220.3477" rx="2.5" ry="2.5" style="stroke:#000000;stroke-width:1;" width="212.8213" x="1743.5" y="475.5234"/><ellipse cx="1762.5214" cy="493.834" fill="#FFFFFF" rx="9" ry="9" style="stroke:#000000;stroke-width:1;"/><path d="M1758.2558,499.834 L1758.2558,487.6621 L1767.287,487.6621 L1767.287,489.7246 L1760.7089,489.7246 L1760.7089,492.4277 L1766.8183,492.4277 L1766.8183,494.4746 L1760.7089,494.4746 L1760.7089,497.7871 L1767.5214,497.7871 L1767.5214,499.834 L1758.2558,499.834 Z " fill="#000000"/><text fill="#000000" font-family="Segoe UI" font-size="14" lengthAdjust="spacing" textLength="163.4404" x="1779.8595" y="499.6309">/etc/nginx/stream.d/*.conf</text><line style="stroke:#000000;stroke-width:1;" x1="1744.5" x2="1955.3213" y1="512.1445" y2="512.1445"/><ellipse cx="1754.5" cy="530.9551" fill="#FFFFFF" rx="3" ry="3" style="stroke:#000000;stroke-width:1;"/><text fill="#000000" font-family="Segoe UI" font-size="14" lengthAdjust="spacing" textLength="177.8438" x="1765.5" y="535.252">&#1092;&#1086;&#1088;&#1084;&#1072;&#1090;: nginx stream config</text><line style="stroke:#000000;stroke-width:1;" x1="1744.5" x2="1955.3213" y1="546.7656" y2="546.7656"/><text fill="#000000" font-family="Segoe UI" font-size="14" lengthAdjust="spacing" textLength="192.8213" x="1753.5" y="569.873">00-sni-router.conf (ssl_preread)</text><text fill="#000000" font-family="Segoe UI" font-size="14" lengthAdjust="spacing" textLength="168.4717" x="1753.5" y="596.4941">nginx-mtproxy-stream.conf</text><text fill="#000000" font-family="Segoe UI" font-size="14" lengthAdjust="spacing" textLength="148.3125" x="1753.5" y="623.1152">sni-map.d/mtproxy.conf</text><line style="stroke:#000000;stroke-width:1;stroke-dasharray:1.0,2.0;" x1="1744.5" x2="1955.3213" y1="634.6289" y2="634.6289"/><text fill="#000000" font-family="Segoe UI" font-size="14" lengthAdjust="spacing" textLength="134.8389" x="1753.5" y="657.7363">&#1087;&#1088;&#1072;&#1074;&#1072;: 644 (root:root)</text><text fill="#000000" font-family="Segoe UI" font-size="14" lengthAdjust="spacing" textLength="191.1191" x="1753.5" y="684.3574">&#1075;&#1077;&#1085;&#1077;&#1088;&#1080;&#1088;&#1091;&#1077;&#1090;&#1089;&#1103;: Jinja2 &#1096;&#1072;&#1073;&#1083;&#1086;&#1085;&#1099;</text></g><!--class ufw_upstream--><g class="entity" data-entity="ufw_upstream" data-source-line="95" data-uid="ent0012" id="entity_ufw_upstream"><rect fill="#FFFFFF" height="220.3477" rx="2.5" ry="2.5" style="stroke:#000000;stroke-width:1;" width="257.1182" x="1451.5" y="475.5234"/><ellipse cx="1532.4077" cy="493.834" fill="#FFFFFF" rx="9" ry="9" style="stroke:#000000;stroke-width:1;"/><path d="M1528.1421,499.834 L1528.1421,487.6621 L1537.1733,487.6621 L1537.1733,489.7246 L1530.5952,489.7246 L1530.5952,492.4277 L1536.7046,492.4277 L1536.7046,494.4746 L1530.5952,494.4746 L1530.5952,497.7871 L1537.4077,497.7871 L1537.4077,499.834 L1528.1421,499.834 Z " fill="#000000"/><text fill="#000000" font-family="Segoe UI" font-size="14" lengthAdjust="spacing" textLength="79.8027" x="1553.9077" y="499.6309">UFW Firewall</text><line style="stroke:#000000;stroke-width:1;" x1="1452.5" x2="1707.6182" y1="512.1445" y2="512.1445"/><ellipse cx="1462.5" cy="530.9551" fill="#FFFFFF" rx="3" ry="3" style="stroke:#000000;stroke-width:1;"/><text fill="#000000" font-family="Segoe UI" font-size="14" lengthAdjust="spacing" textLength="118.4121" x="1473.5" y="535.252">&#1092;&#1086;&#1088;&#1084;&#1072;&#1090;: UFW rules</text><line style="stroke:#000000;stroke-width:1;" x1="1452.5" x2="1707.6182" y1="546.7656" y2="546.7656"/><text fill="#000000" font-family="Segoe UI" font-size="14" lengthAdjust="spacing" textLength="181.8838" x="1461.5" y="569.873">table ip filter (UFW managed)</text><text fill="#000000" font-family="Segoe UI" font-size="14" lengthAdjust="spacing" textLength="138.6602" x="1461.5" y="596.4941">default deny incoming</text><text fill="#000000" font-family="Segoe UI" font-size="14" lengthAdjust="spacing" textLength="237.1182" x="1461.5" y="623.1152">whitelist: SSH, Squid :80, MTProxy :443</text><line style="stroke:#000000;stroke-width:1;stroke-dasharray:1.0,2.0;" x1="1452.5" x2="1707.6182" y1="634.6289" y2="634.6289"/><text fill="#000000" font-family="Segoe UI" font-size="14" lengthAdjust="spacing" textLength="156.8232" x="1461.5" y="657.7363">&#1087;&#1088;&#1072;&#1074;&#1072;: &#1091;&#1087;&#1088;&#1072;&#1074;&#1083;&#1103;&#1077;&#1090;&#1089;&#1103; UFW</text><text fill="#000000" font-family="Segoe UI" font-size="14" lengthAdjust="spacing" textLength="172.6621" x="1461.5" y="684.3574">&#1075;&#1077;&#1085;&#1077;&#1088;&#1080;&#1088;&#1091;&#1077;&#1090;&#1089;&#1103;: Ansible tasks</text></g><!--class inventory--><g class="entity" data-entity="inventory" data-source-line="108" data-uid="ent0014" id="entity_inventory"><rect fill="#FFFFFF" height="220.3477" rx="2.5" ry="2.5" style="stroke:#000000;stroke-width:1;" width="270.5166" x="1303.5" y="143.5234"/><ellipse cx="1389.4526" cy="161.834" fill="#FFFFFF" rx="9" ry="9" style="stroke:#000000;stroke-width:1;"/><path d="M1385.187,167.834 L1385.187,155.6621 L1394.2183,155.6621 L1394.2183,157.7246 L1387.6401,157.7246 L1387.6401,160.4277 L1393.7495,160.4277 L1393.7495,162.4746 L1387.6401,162.4746 L1387.6401,165.7871 L1394.4526,165.7871 L1394.4526,167.834 L1385.187,167.834 Z " fill="#000000"/><text fill="#000000" font-family="Segoe UI" font-size="14" lengthAdjust="spacing" textLength="83.1113" x="1410.9526" y="167.6309">inventory.yml</text><line style="stroke:#000000;stroke-width:1;" x1="1304.5" x2="1573.0166" y1="180.1445" y2="180.1445"/><ellipse cx="1314.5" cy="198.9551" fill="#FFFFFF" rx="3" ry="3" style="stroke:#000000;stroke-width:1;"/><text fill="#000000" font-family="Segoe UI" font-size="14" lengthAdjust="spacing" textLength="91.5332" x="1325.5" y="203.252">&#1092;&#1086;&#1088;&#1084;&#1072;&#1090;: YAML</text><line style="stroke:#000000;stroke-width:1;" x1="1304.5" x2="1573.0166" y1="214.7656" y2="214.7656"/><text fill="#000000" font-family="Segoe UI" font-size="14" lengthAdjust="spacing" textLength="194.7354" x="1313.5" y="237.873">all.children.access_proxies.hosts</text><text fill="#000000" font-family="Segoe UI" font-size="14" lengthAdjust="spacing" textLength="169.4355" x="1313.5" y="264.4941">all.children.upstreams.hosts</text><text fill="#000000" font-family="Segoe UI" font-size="14" lengthAdjust="spacing" textLength="250.5166" x="1313.5" y="291.1152">all.vars: &#1082;&#1086;&#1085;&#1092;&#1080;&#1075;&#1091;&#1088;&#1072;&#1094;&#1080;&#1086;&#1085;&#1085;&#1099;&#1077; &#1087;&#1072;&#1088;&#1072;&#1084;&#1077;&#1090;&#1088;&#1099;</text><line style="stroke:#000000;stroke-width:1;stroke-dasharray:1.0,2.0;" x1="1304.5" x2="1573.0166" y1="302.6289" y2="302.6289"/><text fill="#000000" font-family="Segoe UI" font-size="14" lengthAdjust="spacing" textLength="167.3301" x="1313.5" y="325.7363">&#1080;&#1089;&#1090;&#1086;&#1095;&#1085;&#1080;&#1082; &#1080;&#1089;&#1090;&#1080;&#1085;&#1099; &#1076;&#1083;&#1103; &#1074;&#1089;&#1077;&#1093;</text><text fill="#000000" font-family="Segoe UI" font-size="14" lengthAdjust="spacing" textLength="176.8594" x="1313.5" y="352.3574">&#1082;&#1086;&#1085;&#1092;&#1080;&#1075;&#1091;&#1088;&#1072;&#1094;&#1080;&#1086;&#1085;&#1085;&#1099;&#1093; &#1076;&#1072;&#1085;&#1085;&#1099;&#1093;</text></g><!--link inventory to squid_conf_access--><g class="link" data-entity-1="inventory" data-entity-2="squid_conf_access" data-source-line="120" data-uid="lnk15" id="link_inventory_squid_conf_access"><path codeLine="120" d="M1334,363.5334 C1334,413.8834 1334,462.5234 1334,462.5234 C1334,462.5234 1254.54,462.5234 1172.09,462.5234" fill="none" id="inventory-to-squid_conf_access" style="stroke:#000000;stroke-width:1;"/><polygon fill="#000000" points="1166.09,462.5234,1175.09,466.5234,1171.09,462.5234,1175.09,458.5234,1166.09,462.5234" style="stroke:#000000;stroke-width:1;"/><text fill="#000000" font-family="Segoe UI" font-size="13" lengthAdjust="spacing" textLength="73.125" x="1221.54" y="454.5518">Jinja2 render</text></g><!--link inventory to squid_conf_upstream--><g class="link" data-entity-1="inventory" data-entity-2="squid_conf_upstream" data-source-line="121" data-uid="lnk16" id="link_inventory_squid_conf_upstream"><path codeLine="121" d="M1574.79,198.5234 C1827.81,198.5234 2346,198.5234 2346,198.5234 C2346,198.5234 2346,367.7334 2346,482.3634" fill="none" id="inventory-to-squid_conf_upstream" style="stroke:#000000;stroke-width:1;"/><polygon fill="#000000" points="2346,488.3634,2350,479.3634,2346,483.3634,2342,479.3634,2346,488.3634" style="stroke:#000000;stroke-width:1;"/><text fill="#000000" font-family="Segoe UI" font-size="13" lengthAdjust="spacing" textLength="73.125" x="2027.32" y="190.5518">Jinja2 render</text></g><!--link inventory to keepalived_conf--><g class="link" data-entity-1="inventory" data-entity-2="keepalived_conf" data-source-line="122" data-uid="lnk17" id="link_inventory_keepalived_conf"><path codeLine="122" d="M1303.2,217.5234 C972.63,217.5234 153,217.5234 153,217.5234 C153,217.5234 153,373.3234 153,482.3534" fill="none" id="inventory-to-keepalived_conf" style="stroke:#000000;stroke-width:1;"/><polygon fill="#000000" points="153,488.3534,157,479.3534,153,483.3534,149,479.3534,153,488.3534" style="stroke:#000000;stroke-width:1;"/><text fill="#000000" font-family="Segoe UI" font-size="13" lengthAdjust="spacing" textLength="73.125" x="514.68" y="209.5518">Jinja2 render</text></g><!--link inventory to mtg_toml--><g class="link" data-entity-1="inventory" data-entity-2="mtg_toml" data-source-line="123" data-uid="lnk18" id="link_inventory_mtg_toml"><path codeLine="123" d="M1574.7,253.5234 C1766.02,253.5234 2092,253.5234 2092,253.5234 C2092,253.5234 2092,384.1934 2092,482.1534" fill="none" id="inventory-to-mtg_toml" style="stroke:#000000;stroke-width:1;"/><polygon fill="#000000" points="2092,488.1534,2096,479.1534,2092,483.1534,2088,479.1534,2092,488.1534" style="stroke:#000000;stroke-width:1;"/><text fill="#000000" font-family="Segoe UI" font-size="13" lengthAdjust="spacing" textLength="73.125" x="1872.67" y="245.5518">Jinja2 render</text></g><!--link inventory to nginx_access--><g class="link" data-entity-1="inventory" data-entity-2="nginx_access" data-source-line="124" data-uid="lnk19" id="link_inventory_nginx_access"><path codeLine="124" d="M1303.42,290.5234 C1026.11,290.5234 420,290.5234 420,290.5234 C420,290.5234 420,385.4634 420,469.2534" fill="none" id="inventory-to-nginx_access" style="stroke:#000000;stroke-width:1;"/><polygon fill="#000000" points="420,475.2534,424,466.2534,420,470.2534,416,466.2534,420,475.2534" style="stroke:#000000;stroke-width:1;"/><text fill="#000000" font-family="Segoe UI" font-size="13" lengthAdjust="spacing" textLength="73.125" x="691.34" y="282.5518">Jinja2 render</text></g><!--link inventory to nginx_upstream--><g class="link" data-entity-1="inventory" data-entity-2="nginx_upstream" data-source-line="125" data-uid="lnk20" id="link_inventory_nginx_upstream"><path codeLine="125" d="M1574.72,308.5234 C1694.43,308.5234 1850,308.5234 1850,308.5234 C1850,308.5234 1850,392.0034 1850,469.2534" fill="none" id="inventory-to-nginx_upstream" style="stroke:#000000;stroke-width:1;"/><polygon fill="#000000" points="1850,475.2534,1854,466.2534,1850,470.2534,1846,466.2534,1850,475.2534" style="stroke:#000000;stroke-width:1;"/><text fill="#000000" font-family="Segoe UI" font-size="13" lengthAdjust="spacing" textLength="73.125" x="1717.72" y="300.5518">Jinja2 render</text></g><!--link inventory to ufw_upstream--><g class="link" data-entity-1="inventory" data-entity-2="ufw_upstream" data-source-line="126" data-uid="lnk21" id="link_inventory_ufw_upstream"><path codeLine="126" d="M1513,363.6134 C1513,399.5734 1513,433.4934 1513,469.4434" fill="none" id="inventory-to-ufw_upstream" style="stroke:#000000;stroke-width:1;"/><polygon fill="#000000" points="1513,475.4434,1517,466.4434,1513,470.4434,1509,466.4434,1513,475.4434" style="stroke:#000000;stroke-width:1;"/><text fill="#000000" font-family="Segoe UI" font-size="13" lengthAdjust="spacing" textLength="105.0537" x="1403" y="411.5618">Ansible UFW tasks</text></g><!--link inventory to passwd--><g class="link" data-entity-1="inventory" data-entity-2="passwd" data-source-line="127" data-uid="lnk22" id="link_inventory_passwd"><path codeLine="127" d="M1364.5,363.6134 C1364.5,408.7234 1364.5,454.0734 1364.5,496.0134" fill="none" id="inventory-to-passwd" style="stroke:#000000;stroke-width:1;stroke-dasharray:7.0,7.0;"/><polygon fill="#000000" points="1364.5,502.0134,1368.5,493.0134,1364.5,497.0134,1360.5,493.0134,1364.5,502.0134" style="stroke:#000000;stroke-width:1;"/><text fill="#000000" font-family="Segoe UI" font-size="13" lengthAdjust="spacing" textLength="75.2896" x="1284.5" y="424.8418">htpasswd CLI</text></g><!--SRC=[lLVzJXj74F_VJp6r-CD4-6m8Qj69MhAeKDs45CcXLQLAf-LkyMsvh-wk0QkA1AGqhLALLwZKF00bHNKXa5VOUwFExftjSx0nYgB8acy_PdPdVlERkRbFf4z32ab0M5GIkonA22SX12oYifTGYBdquy96GZoFHHrOBgnvT8Tq0xaUH_89mSFARTg9AMorogMIP3AWe5wfllfNzTCNwY8zKfVgB3q5zKRTg7_KXRfAVmSSdAbhTPs-J4-Wild5nlptKRC5JI6Oa2II0ZPvVD0hbHBYxf8ENj9qNIhoPQYeFzMh-J8G0SIiEv9H3Z-L06Y4DlIWNAFIhOaVkyoh9KI8VSz8PqCZ2F00qf_LJNg8bfsbnpRuCj-kF5bhD-UDJBLg7br1kJr74huu9qWWvtmYVBDXMUQXtk8nP-fSdTdmwN8TAZoEfPreOxDp40JjVH_5Rb3iKWissskj5ku-Aqsss_nRRXpj6DlDrD5J9tDwYXjjBPTTU8qxVVKwVQwjIt_1wq-BNX4t0184yJxr72yEaHC2F26p8RfcJP5o4Y8bvKDfXzCEFHWfTANlP5pP9eAvW3Xqz2no1N7qhX5pYUjJ9w4OkDLk8YId96nWX3X20Ilr_6uJtI3kPEv39IAIxL7OYNb8vFpq62nFYC5hPDyrKl9Gno5zZgFZz2WzjU4h5lr0bY3z5VN_LbSQkLjnsIEyXdRaiSaCit2Xo49jvrr1oOr7iSp-pAbYI2GBAMP0c83NvIWTH-0638rmM0Au8Rl2o6tt91KGKanN3xeyC0oDT3hwc0c4ktxlJduQM8hWQ6AcnmEMsDf67kDzT291emwB3cfPp2olzc34KhDpDq6D26JAe1LPfmX1lLuL4Qlok8iSCmT3HOZ0IJX53IypTx5U9SoONnrmHnXPiwlrGvAWPRdGQEjEikY_z-1A-d8YIBkK9YJ0W7k5uGYfqPf9wYbWFHfAtIkbzpXF7CnZBA8kjGrZw08c88iv6hO0txGsXpbgmsQptOPLK_LYxZLcLxJt1CZ0ywnGpRVoc0th-Ra-2qPbVH3KEmlxz08vKFym9J9BRaqaXaadk0khhSt5XlvVoa3pfKm6f3UryXsbZrYdD3oXDCVXisF9E0mCF3Xnz6GA9a-_tdXSz5nGbrC9dqDvrQS7ZN9MTbZaLMMiLnUNFhFg-5kqb-eh3ykpkPCRzQ5yd5M2Pb3WGnGXSqOrzwkQcpAX2EKI7xi8RQr_2-kCqtraP9PKE_kpOD4wl1laZ1sybCWsTdNu0jfX0S815IqLaWXJEKSYxmdn6VM0HMuSOjTeTlPz9cc0NHrcNVlBXJprx9Nw0cmypRBVNbv-E0qMT7emkqfF1m1eCsSWr8m4qrPB8dR5hVgZ_YeUc_wH_eP5u3z8Jn2Be_GOAhbwtcDc4yUFXHohHIpQms7CUrOlJxBXoXHylskEPnc6nd9z5dZOzLZZDSFIrudRKgFttRW0DYZ2dbBKz9gcYAwnRt59k_x6W7LeU3F2lg_zHujVe49VNGuM-bfRj-rNkfK_nwx-8ZqPTRPJByJsljZh3m8nWgbQRKpeR6qevnH7ZptAozCrXeIUfVFk-tQM_B1UpX8SQtdk9tnleyTI5eK7jDOPQAXTLB2ink0B1qM7dpDhZ_7Jx7y0]--></g></svg>