<svg xmlns="http://www.w3.org/2000/svg" xmlns:xlink="http://www.w3.org/1999/xlink" contentStyleType="text/css" data-diagram-type="DESCRIPTION" height="1143px" preserveAspectRatio="none" style="width:1586px;height:1143px;background:#FEFEFE;" version="1.1" viewBox="0 0 1586 1143" width="1586px" zoomAndPan="magnify"><title>&#1043;&#1088;&#1072;&#1092; &#1079;&#1072;&#1074;&#1080;&#1089;&#1080;&#1084;&#1086;&#1089;&#1090;&#1077;&#1081; &#1076;&#1072;&#1085;&#1085;&#1099;&#1093;</title><defs/><g><rect fill="#FEFEFE" height="1143" style="stroke:none;stroke-width:1;" width="1586" x="0" y="0"/><text fill="#000000" font-family="Segoe UI" font-size="22" font-weight="bold" lengthAdjust="spacing" textLength="298.7295" x="639.1353" y="38.7402">&#1043;&#1088;&#1072;&#1092; &#1079;&#1072;&#1074;&#1080;&#1089;&#1080;&#1084;&#1086;&#1089;&#1090;&#1077;&#1081; &#1076;&#1072;&#1085;&#1085;&#1099;&#1093;</text><text fill="#000000" font-family="Segoe UI" font-size="22" font-weight="bold" lengthAdjust="spacing" textLength="518.5898" x="529.2051" y="68.002">Inventory &#8594; Configs &#8594; Services &#8594; Logs &#8594; Analysis</text><!--cluster j2--><g class="cluster" data-entity="j2" data-source-line="12" data-uid="ent0003" id="cluster_j2"><rect fill="#E8F5E9" height="87" rx="2.5" ry="2.5" style="stroke:#000000;stroke-width:1;" width="1560" x="20" y="190.5234"/><text fill="#000000" font-family="Segoe UI" font-size="11" font-weight="bold" lengthAdjust="spacing" textLength="86.4961" x="756.752" y="204.3936">Jinja2 Templates</text></g><!--cluster configs--><g class="cluster" data-entity="configs" data-source-line="25" data-uid="ent0013" id="cluster_configs"><rect fill="#E3F2FD" height="254.5" rx="2.5" ry="2.5" style="stroke:#000000;stroke-width:1;" width="1131" x="149" y="340.5234"/><text fill="#000000" font-family="Segoe UI" font-size="11" font-weight="bold" lengthAdjust="spacing" textLength="131.1675" x="648.9163" y="354.3936">&#1062;&#1077;&#1083;&#1077;&#1074;&#1099;&#1077; &#1082;&#1086;&#1085;&#1092;&#1080;&#1075;&#1091;&#1088;&#1072;&#1094;&#1080;&#1080;</text></g><!--cluster runtime--><g class="cluster" data-entity="runtime" data-source-line="39" data-uid="ent0024" id="cluster_runtime"><rect fill="#FCE4EC" height="93" rx="2.5" ry="2.5" style="stroke:#000000;stroke-width:1;" width="104" x="21" y="499.5234"/><text fill="#000000" font-family="Segoe UI" font-size="11" font-weight="bold" lengthAdjust="spacing" textLength="88.0698" x="28.9651" y="513.3936">Runtime &#1076;&#1072;&#1085;&#1085;&#1099;&#1077;</text></g><!--cluster analysis--><g class="cluster" data-entity="analysis" data-source-line="44" data-uid="ent0026" id="cluster_analysis"><rect fill="#F3E5F5" height="408" rx="2.5" ry="2.5" style="stroke:#000000;stroke-width:1;" width="162" x="12" y="643.0234"/><text fill="#000000" font-family="Segoe UI" font-size="11" font-weight="bold" lengthAdjust="spacing" textLength="118.293" x="33.8535" y="656.8936">&#1040;&#1085;&#1072;&#1083;&#1080;&#1079; &#1080; enforcement</text></g><!--entity squid_a_j2--><g class="entity" data-entity="squid_a_j2" data-source-line="13" data-uid="ent0004" id="entity_squid_a_j2"><rect fill="#FFFFFF" height="37.6309" rx="2.5" ry="2.5" style="stroke:#000000;stroke-width:1;" width="126.3145" x="36" y="223.5234"/><polygon fill="#FFFFFF" points="145.3145,228.5234,145.3145,242.5234,157.3145,242.5234,157.3145,234.5234,151.3145,228.5234,145.3145,228.5234" style="stroke:#000000;stroke-width:1;"/><line style="stroke:#000000;stroke-width:1;" x1="151.3145" x2="151.3145" y1="228.5234" y2="234.5234"/><line style="stroke:#000000;stroke-width:1;" x1="157.3145" x2="151.3145" y1="234.5234" y2="234.5234"/><text fill="#000000" font-family="Segoe UI" font-size="11" lengthAdjust="spacing" textLength="96.3145" x="46" y="248.3936">squid-access.conf.j2</text></g><!--entity squid_u_j2--><g class="entity" data-entity="squid_u_j2" data-source-line="14" data-uid="ent0005" id="entity_squid_u_j2"><rect fill="#FFFFFF" height="37.6309" rx="2.5" ry="2.5" style="stroke:#000000;stroke-width:1;" width="141.2031" x="1422.5" y="223.5234"/><polygon fill="#FFFFFF" points="1546.7031,228.5234,1546.7031,242.5234,1558.7031,242.5234,1558.7031,234.5234,1552.7031,228.5234,1546.7031,228.5234" style="stroke:#000000;stroke-width:1;"/><line style="stroke:#000000;stroke-width:1;" x1="1552.7031" x2="1552.7031" y1="228.5234" y2="234.5234"/><line style="stroke:#000000;stroke-width:1;" x1="1558.7031" x2="1552.7031" y1="234.5234" y2="234.5234"/><text fill="#000000" font-family="Segoe UI" font-size="11" lengthAdjust="spacing" textLength="111.2031" x="1432.5" y="248.3936">squid-upstream.conf.j2</text></g><!--entity ka_j2--><g class="entity" data-entity="ka_j2" data-source-line="15" data-uid="ent0006" id="entity_ka_j2"><rect fill="#FFFFFF" height="37.6309" rx="2.5" ry="2.5" style="stroke:#000000;stroke-width:1;" width="116.4209" x="197" y="223.5234"/><polygon fill="#FFFFFF" points="296.4209,228.5234,296.4209,242.5234,308.4209,242.5234,308.4209,234.5234,302.4209,228.5234,296.4209,228.5234" style="stroke:#000000;stroke-width:1;"/><line style="stroke:#000000;stroke-width:1;" x1="302.4209" x2="302.4209" y1="228.5234" y2="234.5234"/><line style="stroke:#000000;stroke-width:1;" x1="308.4209" x2="302.4209" y1="234.5234" y2="234.5234"/><text fill="#000000" font-family="Segoe UI" font-size="11" lengthAdjust="spacing" textLength="86.4209" x="207" y="248.3936">keepalived.conf.j2</text></g><!--entity mtg_j2--><g class="entity" data-entity="mtg_j2" data-source-line="16" data-uid="ent0007" id="entity_mtg_j2"><rect fill="#FFFFFF" height="37.6309" rx="2.5" ry="2.5" style="stroke:#000000;stroke-width:1;" width="85.3545" x="348.5" y="223.5234"/><polygon fill="#FFFFFF" points="416.8545,228.5234,416.8545,242.5234,428.8545,242.5234,428.8545,234.5234,422.8545,228.5234,416.8545,228.5234" style="stroke:#000000;stroke-width:1;"/><line style="stroke:#000000;stroke-width:1;" x1="422.8545" x2="422.8545" y1="228.5234" y2="234.5234"/><line style="stroke:#000000;stroke-width:1;" x1="428.8545" x2="422.8545" y1="234.5234" y2="234.5234"/><text fill="#000000" font-family="Segoe UI" font-size="11" lengthAdjust="spacing" textLength="55.3545" x="358.5" y="248.3936">mtg.toml.j2</text></g><!--entity nx_sni_j2--><g class="entity" data-entity="nx_sni_j2" data-source-line="17" data-uid="ent0008" id="entity_nx_sni_j2"><rect fill="#FFFFFF" height="37.6309" rx="2.5" ry="2.5" style="stroke:#000000;stroke-width:1;" width="128.5703" x="468.5" y="223.5234"/><polygon fill="#FFFFFF" points="580.0703,228.5234,580.0703,242.5234,592.0703,242.5234,592.0703,234.5234,586.0703,228.5234,580.0703,228.5234" style="stroke:#000000;stroke-width:1;"/><line style="stroke:#000000;stroke-width:1;" x1="586.0703" x2="586.0703" y1="228.5234" y2="234.5234"/><line style="stroke:#000000;stroke-width:1;" x1="592.0703" x2="586.0703" y1="234.5234" y2="234.5234"/><text fill="#000000" font-family="Segoe UI" font-size="11" lengthAdjust="spacing" textLength="98.5703" x="478.5" y="248.3936">00-sni-router.conf.j2</text></g><!--entity nx_ups_j2--><g class="entity" data-entity="nx_ups_j2" data-source-line="18" data-uid="ent0009" id="entity_nx_ups_j2"><rect fill="#FFFFFF" height="37.6309" rx="2.5" ry="2.5" style="stroke:#000000;stroke-width:1;" width="170.9858" x="632.5" y="223.5234"/><polygon fill="#FFFFFF" points="786.4858,228.5234,786.4858,242.5234,798.4858,242.5234,798.4858,234.5234,792.4858,228.5234,786.4858,228.5234" style="stroke:#000000;stroke-width:1;"/><line style="stroke:#000000;stroke-width:1;" x1="792.4858" x2="792.4858" y1="228.5234" y2="234.5234"/><line style="stroke:#000000;stroke-width:1;" x1="798.4858" x2="792.4858" y1="234.5234" y2="234.5234"/><text fill="#000000" font-family="Segoe UI" font-size="11" lengthAdjust="spacing" textLength="140.9858" x="642.5" y="248.3936">10-aiproxy-upstreams.conf.j2</text></g><!--entity nx_map_j2--><g class="entity" data-entity="nx_map_j2" data-source-line="19" data-uid="ent0010" id="entity_nx_map_j2"><rect fill="#FFFFFF" height="37.6309" rx="2.5" ry="2.5" style="stroke:#000000;stroke-width:1;" width="152.5684" x="838.5" y="223.5234"/><polygon fill="#FFFFFF" points="974.0684,228.5234,974.0684,242.5234,986.0684,242.5234,986.0684,234.5234,980.0684,228.5234,974.0684,228.5234" style="stroke:#000000;stroke-width:1;"/><line style="stroke:#000000;stroke-width:1;" x1="980.0684" x2="980.0684" y1="228.5234" y2="234.5234"/><line style="stroke:#000000;stroke-width:1;" x1="986.0684" x2="980.0684" y1="234.5234" y2="234.5234"/><text fill="#000000" font-family="Segoe UI" font-size="11" lengthAdjust="spacing" textLength="122.5684" x="848.5" y="248.3936">sni-map.d/aiproxy.conf.j2</text></g><!--entity nx_mtp_j2--><g class="entity" data-entity="nx_mtp_j2" data-source-line="20" data-uid="ent0011" id="entity_nx_mtp_j2"><rect fill="#FFFFFF" height="37.6309" rx="2.5" ry="2.5" style="stroke:#000000;stroke-width:1;" width="173.3491" x="1026.5" y="223.5234"/><polygon fill="#FFFFFF" points="1182.8491,228.5234,1182.8491,242.5234,1194.8491,242.5234,1194.8491,234.5234,1188.8491,228.5234,1182.8491,228.5234" style="stroke:#000000;stroke-width:1;"/><line style="stroke:#000000;stroke-width:1;" x1="1188.8491" x2="1188.8491" y1="228.5234" y2="234.5234"/><line style="stroke:#000000;stroke-width:1;" x1="1194.8491" x2="1188.8491" y1="234.5234" y2="234.5234"/><text fill="#000000" font-family="Segoe UI" font-size="11" lengthAdjust="spacing" textLength="143.3491" x="1036.5" y="248.3936">nginx-mtproxy-stream.conf.j2</text></g><!--entity nft_j2--><g class="entity" data-entity="nft_j2" data-source-line="21" data-uid="ent0012" id="entity_nft_j2"><rect fill="#FFFFFF" height="37.6309" rx="2.5" ry="2.5" style="stroke:#000000;stroke-width:1;" width="153.2344" x="1234.5" y="223.5234"/><polygon fill="#FFFFFF" points="1370.7344,228.5234,1370.7344,242.5234,1382.7344,242.5234,1382.7344,234.5234,1376.7344,228.5234,1370.7344,228.5234" style="stroke:#000000;stroke-width:1;"/><line style="stroke:#000000;stroke-width:1;" x1="1376.7344" x2="1376.7344" y1="228.5234" y2="234.5234"/><line style="stroke:#000000;stroke-width:1;" x1="1382.7344" x2="1376.7344" y1="234.5234" y2="234.5234"/><text fill="#000000" font-family="Segoe UI" font-size="11" lengthAdjust="spacing" textLength="123.2344" x="1244.5" y="248.3936">nftables-upstream.conf.j2</text></g><!--entity squid_access--><g class="entity" data-entity="squid_access" data-source-line="26" data-uid="ent0014" id="entity_squid_access"><path d="M165,376.0234 L165,420.2852 A2.5,2.5 0 0 0 167.5,422.7852 L232.5908,422.7852 A2.5,2.5 0 0 0 235.0908,420.2852 L235.0908,383.5234 L225.0908,373.5234 L167.5,373.5234 A2.5,2.5 0 0 0 165,376.0234" fill="#FFFFFF" style="stroke:#000000;stroke-width:1;"/><path d="M225.0908,373.5234 L225.0908,381.0234 A2.5,2.5 0 0 0 227.5908,383.5234 L235.0908,383.5234" fill="#FFFFFF" style="stroke:#000000;stroke-width:1;"/><text fill="#000000" font-family="Segoe UI" font-size="11" lengthAdjust="spacing" textLength="50.0908" x="175" y="395.3936">squid.conf</text><text fill="#000000" font-family="Segoe UI" font-size="11" lengthAdjust="spacing" textLength="37.4849" x="175" y="410.0244">(access)</text></g><!--entity squid_upstream--><g class="entity" data-entity="squid_upstream" data-source-line="27" data-uid="ent0015" id="entity_squid_upstream"><path d="M959,532.5234 L959,576.7852 A2.5,2.5 0 0 0 961.5,579.2852 L1028.8735,579.2852 A2.5,2.5 0 0 0 1031.3735,576.7852 L1031.3735,540.0234 L1021.3735,530.0234 L961.5,530.0234 A2.5,2.5 0 0 0 959,532.5234" fill="#FFFFFF" style="stroke:#000000;stroke-width:1;"/><path d="M1021.3735,530.0234 L1021.3735,537.5234 A2.5,2.5 0 0 0 1023.8735,540.0234 L1031.3735,540.0234" fill="#FFFFFF" style="stroke:#000000;stroke-width:1;"/><text fill="#000000" font-family="Segoe UI" font-size="11" lengthAdjust="spacing" textLength="50.0908" x="969" y="551.8936">squid.conf</text><text fill="#000000" font-family="Segoe UI" font-size="11" lengthAdjust="spacing" textLength="52.3735" x="969" y="566.5244">(upstream)</text></g><!--entity passwd--><g class="entity" data-entity="passwd" data-source-line="28" data-uid="ent0016" id="entity_passwd"><path d="M172,539.5234 L172,569.1543 A2.5,2.5 0 0 0 174.5,571.6543 L225.3252,571.6543 A2.5,2.5 0 0 0 227.8252,569.1543 L227.8252,547.0234 L217.8252,537.0234 L174.5,537.0234 A2.5,2.5 0 0 0 172,539.5234" fill="#FFFFFF" style="stroke:#000000;stroke-width:1;"/><path d="M217.8252,537.0234 L217.8252,544.5234 A2.5,2.5 0 0 0 220.3252,547.0234 L227.8252,547.0234" fill="#FFFFFF" style="stroke:#000000;stroke-width:1;"/><text fill="#000000" font-family="Segoe UI" font-size="11" lengthAdjust="spacing" textLength="35.8252" x="182" y="558.8936">passwd</text></g><!--entity ka_conf--><g class="entity" data-entity="ka_conf" data-source-line="29" data-uid="ent0017" id="entity_ka_conf"><path d="M270.5,383.0234 L270.5,412.6543 A2.5,2.5 0 0 0 273,415.1543 L363.4424,415.1543 A2.5,2.5 0 0 0 365.9424,412.6543 L365.9424,390.5234 L355.9424,380.5234 L273,380.5234 A2.5,2.5 0 0 0 270.5,383.0234" fill="#FFFFFF" style="stroke:#000000;stroke-width:1;"/><path d="M355.9424,380.5234 L355.9424,388.0234 A2.5,2.5 0 0 0 358.4424,390.5234 L365.9424,390.5234" fill="#FFFFFF" style="stroke:#000000;stroke-width:1;"/><text fill="#000000" font-family="Segoe UI" font-size="11" lengthAdjust="spacing" textLength="75.4424" x="280.5" y="402.3936">keepalived.conf</text></g><!--entity mtg_conf--><g class="entity" data-entity="mtg_conf" data-source-line="30" data-uid="ent0018" id="entity_mtg_conf"><path d="M401,383.0234 L401,412.6543 A2.5,2.5 0 0 0 403.5,415.1543 L462.876,415.1543 A2.5,2.5 0 0 0 465.376,412.6543 L465.376,390.5234 L455.376,380.5234 L403.5,380.5234 A2.5,2.5 0 0 0 401,383.0234" fill="#FFFFFF" style="stroke:#000000;stroke-width:1;"/><path d="M455.376,380.5234 L455.376,388.0234 A2.5,2.5 0 0 0 457.876,390.5234 L465.376,390.5234" fill="#FFFFFF" style="stroke:#000000;stroke-width:1;"/><text fill="#000000" font-family="Segoe UI" font-size="11" lengthAdjust="spacing" textLength="44.376" x="411" y="402.3936">mtg.toml</text></g><!--entity nx_sni--><g class="entity" data-entity="nx_sni" data-source-line="31" data-uid="ent0019" id="entity_nx_sni"><path d="M500,383.0234 L500,412.6543 A2.5,2.5 0 0 0 502.5,415.1543 L605.0918,415.1543 A2.5,2.5 0 0 0 607.5918,412.6543 L607.5918,390.5234 L597.5918,380.5234 L502.5,380.5234 A2.5,2.5 0 0 0 500,383.0234" fill="#FFFFFF" style="stroke:#000000;stroke-width:1;"/><path d="M597.5918,380.5234 L597.5918,388.0234 A2.5,2.5 0 0 0 600.0918,390.5234 L607.5918,390.5234" fill="#FFFFFF" style="stroke:#000000;stroke-width:1;"/><text fill="#000000" font-family="Segoe UI" font-size="11" lengthAdjust="spacing" textLength="87.5918" x="510" y="402.3936">00-sni-router.conf</text></g><!--entity nx_ups--><g class="entity" data-entity="nx_ups" data-source-line="32" data-uid="ent0020" id="entity_nx_ups"><path d="M643,383.0234 L643,412.6543 A2.5,2.5 0 0 0 645.5,415.1543 L790.5073,415.1543 A2.5,2.5 0 0 0 793.0073,412.6543 L793.0073,390.5234 L783.0073,380.5234 L645.5,380.5234 A2.5,2.5 0 0 0 643,383.0234" fill="#FFFFFF" style="stroke:#000000;stroke-width:1;"/><path d="M783.0073,380.5234 L783.0073,388.0234 A2.5,2.5 0 0 0 785.5073,390.5234 L793.0073,390.5234" fill="#FFFFFF" style="stroke:#000000;stroke-width:1;"/><text fill="#000000" font-family="Segoe UI" font-size="11" lengthAdjust="spacing" textLength="130.0073" x="653" y="402.3936">10-aiproxy-upstreams.conf</text></g><!--entity nx_map--><g class="entity" data-entity="nx_map" data-source-line="33" data-uid="ent0021" id="entity_nx_map"><path d="M828,383.0234 L828,412.6543 A2.5,2.5 0 0 0 830.5,415.1543 L957.0898,415.1543 A2.5,2.5 0 0 0 959.5898,412.6543 L959.5898,390.5234 L949.5898,380.5234 L830.5,380.5234 A2.5,2.5 0 0 0 828,383.0234" fill="#FFFFFF" style="stroke:#000000;stroke-width:1;"/><path d="M949.5898,380.5234 L949.5898,388.0234 A2.5,2.5 0 0 0 952.0898,390.5234 L959.5898,390.5234" fill="#FFFFFF" style="stroke:#000000;stroke-width:1;"/><text fill="#000000" font-family="Segoe UI" font-size="11" lengthAdjust="spacing" textLength="111.5898" x="838" y="402.3936">sni-map.d/aiproxy.conf</text></g><!--entity nx_mtp--><g class="entity" data-entity="nx_mtp" data-source-line="34" data-uid="ent0022" id="entity_nx_mtp"><path d="M995,383.0234 L995,412.6543 A2.5,2.5 0 0 0 997.5,415.1543 L1144.8706,415.1543 A2.5,2.5 0 0 0 1147.3706,412.6543 L1147.3706,390.5234 L1137.3706,380.5234 L997.5,380.5234 A2.5,2.5 0 0 0 995,383.0234" fill="#FFFFFF" style="stroke:#000000;stroke-width:1;"/><path d="M1137.3706,380.5234 L1137.3706,388.0234 A2.5,2.5 0 0 0 1139.8706,390.5234 L1147.3706,390.5234" fill="#FFFFFF" style="stroke:#000000;stroke-width:1;"/><text fill="#000000" font-family="Segoe UI" font-size="11" lengthAdjust="spacing" textLength="132.3706" x="1005" y="402.3936">nginx-mtproxy-stream.conf</text></g><!--entity nft_conf--><g class="entity" data-entity="nft_conf" data-source-line="35" data-uid="ent0023" id="entity_nft_conf"><path d="M1182,376.0234 L1182,420.2852 A2.5,2.5 0 0 0 1184.5,422.7852 L1261.6221,422.7852 A2.5,2.5 0 0 0 1264.1221,420.2852 L1264.1221,383.5234 L1254.1221,373.5234 L1184.5,373.5234 A2.5,2.5 0 0 0 1182,376.0234" fill="#FFFFFF" style="stroke:#000000;stroke-width:1;"/><path d="M1254.1221,373.5234 L1254.1221,381.0234 A2.5,2.5 0 0 0 1256.6221,383.5234 L1264.1221,383.5234" fill="#FFFFFF" style="stroke:#000000;stroke-width:1;"/><text fill="#000000" font-family="Segoe UI" font-size="11" lengthAdjust="spacing" textLength="62.1221" x="1192" y="395.3936">nftables.conf</text><text fill="#000000" font-family="Segoe UI" font-size="11" lengthAdjust="spacing" textLength="52.3735" x="1192" y="410.0244">(upstream)</text></g><!--entity accesslog--><g class="entity" data-entity="accesslog" data-source-line="40" data-uid="ent0025" id="entity_accesslog"><path d="M39.5,542.5234 C39.5,532.5234 73.9089,532.5234 73.9089,532.5234 C73.9089,532.5234 108.3179,532.5234 108.3179,542.5234 L108.3179,566.1543 C108.3179,576.1543 73.9089,576.1543 73.9089,576.1543 C73.9089,576.1543 39.5,576.1543 39.5,566.1543 L39.5,542.5234" fill="#FFFFFF" style="stroke:#000000;stroke-width:1;"/><path d="M39.5,542.5234 C39.5,552.5234 73.9089,552.5234 73.9089,552.5234 C73.9089,552.5234 108.3179,552.5234 108.3179,542.5234" fill="none" style="stroke:#000000;stroke-width:1;"/><text fill="#000000" font-family="Segoe UI" font-size="11" lengthAdjust="spacing" textLength="48.8179" x="49.5" y="568.3936">access.log</text></g><!--entity cs_acq--><g class="entity" data-entity="cs_acq" data-source-line="45" data-uid="ent0027" id="entity_cs_acq"><rect fill="#FFFFFF" height="59.2617" rx="2.5" ry="2.5" style="stroke:#000000;stroke-width:1;" width="92.438" x="28" y="676.0234"/><rect fill="#FFFFFF" height="10" style="stroke:#000000;stroke-width:1;" width="15" x="100.438" y="681.0234"/><rect fill="#FFFFFF" height="2" style="stroke:#000000;stroke-width:1;" width="4" x="98.438" y="683.0234"/><rect fill="#FFFFFF" height="2" style="stroke:#000000;stroke-width:1;" width="4" x="98.438" y="687.0234"/><text fill="#000000" font-family="Segoe UI" font-size="11" lengthAdjust="spacing" textLength="48.1841" x="43" y="707.8936">CrowdSec</text><text fill="#000000" font-family="Segoe UI" font-size="11" lengthAdjust="spacing" textLength="52.438" x="43" y="722.5244">acquisition</text></g><!--entity cs_dec--><g class="entity" data-entity="cs_dec" data-source-line="46" data-uid="ent0028" id="entity_cs_dec"><rect fill="#FFFFFF" height="59.2617" rx="2.5" ry="2.5" style="stroke:#000000;stroke-width:1;" width="88.1841" x="29" y="826.0234"/><rect fill="#FFFFFF" height="10" style="stroke:#000000;stroke-width:1;" width="15" x="97.1841" y="831.0234"/><rect fill="#FFFFFF" height="2" style="stroke:#000000;stroke-width:1;" width="4" x="95.1841" y="833.0234"/><rect fill="#FFFFFF" height="2" style="stroke:#000000;stroke-width:1;" width="4" x="95.1841" y="837.0234"/><text fill="#000000" font-family="Segoe UI" font-size="11" lengthAdjust="spacing" textLength="48.1841" x="44" y="857.8936">CrowdSec</text><text fill="#000000" font-family="Segoe UI" font-size="11" lengthAdjust="spacing" textLength="44.6445" x="44" y="872.5244">decisions</text></g><!--entity nft--><g class="entity" data-entity="nft" data-source-line="47" data-uid="ent0029" id="entity_nft"><rect fill="#FFFFFF" height="59.2617" rx="2.5" ry="2.5" style="stroke:#000000;stroke-width:1;" width="80.02" x="28" y="976.0234"/><rect fill="#FFFFFF" height="10" style="stroke:#000000;stroke-width:1;" width="15" x="88.02" y="981.0234"/><rect fill="#FFFFFF" height="2" style="stroke:#000000;stroke-width:1;" width="4" x="86.02" y="983.0234"/><rect fill="#FFFFFF" height="2" style="stroke:#000000;stroke-width:1;" width="4" x="86.02" y="987.0234"/><text fill="#000000" font-family="Segoe UI" font-size="11" lengthAdjust="spacing" textLength="38.543" x="43" y="1007.8936">nftables</text><text fill="#000000" font-family="Segoe UI" font-size="11" lengthAdjust="spacing" textLength="40.02" x="43" y="1022.5244">bouncer</text></g><!--entity inv--><g class="entity" data-entity="inv" data-source-line="9" data-uid="ent0002" id="entity_inv"><rect fill="#FFF9C4" height="52.2617" rx="2.5" ry="2.5" style="stroke:#000000;stroke-width:1;" width="95.3018" x="670.5" y="91.5234"/><polygon fill="#FFF9C4" points="748.8018,96.5234,748.8018,110.5234,760.8018,110.5234,760.8018,102.5234,754.8018,96.5234,748.8018,96.5234" style="stroke:#000000;stroke-width:1;"/><line style="stroke:#000000;stroke-width:1;" x1="754.8018" x2="754.8018" y1="96.5234" y2="102.5234"/><line style="stroke:#000000;stroke-width:1;" x1="760.8018" x2="754.8018" y1="102.5234" y2="102.5234"/><text fill="#000000" font-family="Segoe UI" font-size="11" lengthAdjust="spacing" textLength="65.3018" x="680.5" y="116.3936">inventory.yml</text><text fill="#000000" font-family="Segoe UI" font-size="11" lengthAdjust="spacing" textLength="32.3823" x="680.5" y="131.0244">(SSOT)</text></g><!--link inv to squid_a_j2--><g class="link" data-entity-1="inv" data-entity-2="squid_a_j2" data-source-line="53" data-uid="lnk30" id="link_inv_squid_a_j2"><path d="M670.12,121.0634 C555.45,127.6634 268.05,147.2834 179,182.5234 C155.57,191.7934 137.314,205.6744 122.104,219.3344" fill="none" id="inv-to-squid_a_j2" style="stroke:#000000;stroke-width:1;"/><polygon fill="#000000" points="117.64,223.3434,127.0087,220.3058,121.36,220.0025,121.6633,214.3538,117.64,223.3434" style="stroke:#000000;stroke-width:1;"/></g><!--link inv to squid_u_j2--><g class="link" data-entity-1="inv" data-entity-2="squid_u_j2" data-source-line="54" data-uid="lnk31" id="link_inv_squid_u_j2"><path d="M765.58,119.9134 C901.04,124.3434 1286.64,140.4234 1405,182.5234 C1430.48,191.5834 1451.0632,205.8978 1467.9332,219.6778" fill="none" id="inv-to-squid_u_j2" style="stroke:#000000;stroke-width:1;"/><polygon fill="#000000" points="1472.58,223.4734,1468.1402,214.6821,1468.7077,220.3104,1463.0793,220.8778,1472.58,223.4734" style="stroke:#000000;stroke-width:1;"/></g><!--link inv to ka_j2--><g class="link" data-entity-1="inv" data-entity-2="ka_j2" data-source-line="55" data-uid="lnk32" id="link_inv_ka_j2"><path d="M670.32,118.9634 C595.1,121.2634 445.66,132.4134 331,182.5234 C308.81,192.2234 291.7532,205.7662 277.3432,219.2362" fill="none" id="inv-to-ka_j2" style="stroke:#000000;stroke-width:1;"/><polygon fill="#000000" points="272.96,223.3334,282.2663,220.1097,276.6127,219.919,276.8033,214.2654,272.96,223.3334" style="stroke:#000000;stroke-width:1;"/></g><!--link inv to mtg_j2--><g class="link" data-entity-1="inv" data-entity-2="mtg_j2" data-source-line="56" data-uid="lnk33" id="link_inv_mtg_j2"><path d="M670.37,122.1934 C614.69,128.1834 521.25,143.5834 451,182.5234 C432.6,192.7234 419.7655,205.5078 408.6855,218.7778" fill="none" id="inv-to-mtg_j2" style="stroke:#000000;stroke-width:1;"/><polygon fill="#000000" points="404.84,223.3834,413.6787,219.0387,408.0446,219.5454,407.5379,213.9113,404.84,223.3834" style="stroke:#000000;stroke-width:1;"/></g><!--link inv to nx_sni_j2--><g class="link" data-entity-1="inv" data-entity-2="nx_sni_j2" data-source-line="57" data-uid="lnk34" id="link_inv_nx_sni_j2"><path d="M675.99,143.7334 C657.16,155.2734 634.77,169.2934 615,182.5234 C595.32,195.6934 578.4332,207.8281 562.2832,219.7081" fill="none" id="inv-to-nx_sni_j2" style="stroke:#000000;stroke-width:1;"/><polygon fill="#000000" points="557.45,223.2634,567.07,221.1526,561.4777,220.3007,562.3296,214.7083,557.45,223.2634" style="stroke:#000000;stroke-width:1;"/></g><!--link inv to nx_ups_j2--><g class="link" data-entity-1="inv" data-entity-2="nx_ups_j2" data-source-line="58" data-uid="lnk35" id="link_inv_nx_ups_j2"><path d="M718,143.7134 C718,167.3234 718,196.0734 718,217.1634" fill="none" id="inv-to-nx_ups_j2" style="stroke:#000000;stroke-width:1;"/><polygon fill="#000000" points="718,223.1634,722,214.1634,718,218.1634,714,214.1634,718,223.1634" style="stroke:#000000;stroke-width:1;"/></g><!--link inv to nx_map_j2--><g class="link" data-entity-1="inv" data-entity-2="nx_map_j2" data-source-line="59" data-uid="lnk36" id="link_inv_nx_map_j2"><path d="M758.63,143.7134 C777.59,155.4834 800.46,169.7034 821,182.5234 C842.9,196.2034 862.5508,208.5295 881.1408,220.2195" fill="none" id="inv-to-nx_map_j2" style="stroke:#000000;stroke-width:1;"/><polygon fill="#000000" points="886.22,223.4134,880.7305,215.2363,881.9873,220.7518,876.4718,222.0086,886.22,223.4134" style="stroke:#000000;stroke-width:1;"/></g><!--link inv to nx_mtp_j2--><g class="link" data-entity-1="inv" data-entity-2="nx_mtp_j2" data-source-line="60" data-uid="lnk37" id="link_inv_nx_mtp_j2"><path d="M765.62,124.5234 C824.32,132.9334 926.41,150.8434 1009,182.5234 C1036.72,193.1534 1060.8716,207.0709 1081.2516,220.1609" fill="none" id="inv-to-nx_mtp_j2" style="stroke:#000000;stroke-width:1;"/><polygon fill="#000000" points="1086.3,223.4034,1080.8892,215.1741,1082.093,220.7013,1076.5658,221.9052,1086.3,223.4034" style="stroke:#000000;stroke-width:1;"/></g><!--link inv to nft_j2--><g class="link" data-entity-1="inv" data-entity-2="nft_j2" data-source-line="61" data-uid="lnk38" id="link_inv_nft_j2"><path d="M765.66,117.9134 C856.33,118.2034 1058.72,125.8134 1217,182.5234 C1243.48,192.0134 1265.5246,206.2706 1283.7146,219.8706" fill="none" id="inv-to-nft_j2" style="stroke:#000000;stroke-width:1;"/><polygon fill="#000000" points="1288.52,223.4634,1283.7071,214.8706,1284.5155,220.4694,1278.9167,221.2778,1288.52,223.4634" style="stroke:#000000;stroke-width:1;"/></g><!--link squid_a_j2 to squid_access--><g class="link" data-entity-1="squid_a_j2" data-entity-2="squid_access" data-source-line="64" data-uid="lnk39" id="link_squid_a_j2_squid_access"><path d="M110.98,261.7334 C129.27,289.5334 160.8516,337.5314 181.1016,368.3014" fill="none" id="squid_a_j2-to-squid_access" style="stroke:#000000;stroke-width:1;"/><polygon fill="#000000" points="184.4,373.3134,182.7937,363.5965,181.6513,369.1368,176.111,367.9944,184.4,373.3134" style="stroke:#000000;stroke-width:1;"/><text fill="#000000" font-family="Segoe UI" font-size="11" lengthAdjust="spacing" textLength="84.165" x="151" y="306.3936">ACL, auth_param,</text><text fill="#000000" font-family="Segoe UI" font-size="11" lengthAdjust="spacing" textLength="54.0977" x="166.0337" y="321.0244">cache_peer</text></g><!--link squid_u_j2 to squid_upstream--><g class="link" data-entity-1="squid_u_j2" data-entity-2="squid_upstream" data-source-line="65" data-uid="lnk40" id="link_squid_u_j2_squid_upstream"><path d="M1475.17,261.6834 C1440.45,296.3234 1360.26,372.8134 1282,422.5234 C1197.39,476.2634 1092.7201,518.0394 1036.6901,538.6794" fill="none" id="squid_u_j2-to-squid_upstream" style="stroke:#000000;stroke-width:1;"/><polygon fill="#000000" points="1031.06,540.7534,1040.8879,541.3959,1035.7518,539.0251,1038.1226,533.889,1031.06,540.7534" style="stroke:#000000;stroke-width:1;"/><text fill="#000000" font-family="Segoe UI" font-size="11" lengthAdjust="spacing" textLength="35.6694" x="1399" y="402.8936">ACL src</text></g><!--link ka_j2 to ka_conf--><g class="link" data-entity-1="ka_j2" data-entity-2="ka_conf" data-source-line="67" data-uid="lnk41" id="link_ka_j2_ka_conf"><path d="M262.47,261.7334 C274.79,291.7534 296.913,345.6323 308.833,374.6923" fill="none" id="ka_j2-to-ka_conf" style="stroke:#000000;stroke-width:1;"/><polygon fill="#000000" points="311.11,380.2434,311.3953,370.3987,309.2125,375.6175,303.9937,373.4347,311.11,380.2434" style="stroke:#000000;stroke-width:1;"/></g><!--link mtg_j2 to mtg_conf--><g class="link" data-entity-1="mtg_j2" data-entity-2="mtg_conf" data-source-line="68" data-uid="lnk42" id="link_mtg_j2_mtg_conf"><path d="M395.98,261.7334 C404.2,291.7534 418.8767,345.3961 426.8267,374.4561" fill="none" id="mtg_j2-to-mtg_conf" style="stroke:#000000;stroke-width:1;"/><polygon fill="#000000" points="428.41,380.2434,429.8933,370.5069,427.0906,375.4207,422.1769,372.6179,428.41,380.2434" style="stroke:#000000;stroke-width:1;"/></g><!--link nx_sni_j2 to nx_sni--><g class="link" data-entity-1="nx_sni_j2" data-entity-2="nx_sni" data-source-line="69" data-uid="lnk43" id="link_nx_sni_j2_nx_sni"><path d="M535.49,261.7334 C539.6,291.7534 546.9179,345.2387 550.8879,374.2987" fill="none" id="nx_sni_j2-to-nx_sni" style="stroke:#000000;stroke-width:1;"/><polygon fill="#000000" points="551.7,380.2434,554.445,370.7848,551.0232,375.2895,546.5186,371.8677,551.7,380.2434" style="stroke:#000000;stroke-width:1;"/></g><!--link nx_ups_j2 to nx_ups--><g class="link" data-entity-1="nx_ups_j2" data-entity-2="nx_ups" data-source-line="70" data-uid="lnk44" id="link_nx_ups_j2_nx_ups"><path d="M718,261.7334 C718,291.7534 718,345.1834 718,374.2434" fill="none" id="nx_ups_j2-to-nx_ups" style="stroke:#000000;stroke-width:1;"/><polygon fill="#000000" points="718,380.2434,722,371.2434,718,375.2434,714,371.2434,718,380.2434" style="stroke:#000000;stroke-width:1;"/></g><!--link nx_map_j2 to nx_map--><g class="link" data-entity-1="nx_map_j2" data-entity-2="nx_map" data-source-line="71" data-uid="lnk45" id="link_nx_map_j2_nx_map"><path d="M912.51,261.7334 C908.4,291.7534 901.0821,345.2387 897.1121,374.2987" fill="none" id="nx_map_j2-to-nx_map" style="stroke:#000000;stroke-width:1;"/><polygon fill="#000000" points="896.3,380.2434,901.4814,371.8677,896.9768,375.2895,893.555,370.7848,896.3,380.2434" style="stroke:#000000;stroke-width:1;"/></g><!--link nx_mtp_j2 to nx_mtp--><g class="link" data-entity-1="nx_mtp_j2" data-entity-2="nx_mtp" data-source-line="72" data-uid="lnk46" id="link_nx_mtp_j2_nx_mtp"><path d="M1108.02,261.7334 C1099.8,291.7534 1085.1233,345.3961 1077.1733,374.4561" fill="none" id="nx_mtp_j2-to-nx_mtp" style="stroke:#000000;stroke-width:1;"/><polygon fill="#000000" points="1075.59,380.2434,1081.8231,372.6179,1076.9094,375.4207,1074.1067,370.5069,1075.59,380.2434" style="stroke:#000000;stroke-width:1;"/></g><!--link nft_j2 to nft_conf--><g class="link" data-entity-1="nft_j2" data-entity-2="nft_conf" data-source-line="73" data-uid="lnk47" id="link_nft_j2_nft_conf"><path d="M1300.56,261.7334 C1284.62,289.5334 1257.2141,337.3381 1239.5741,368.1081" fill="none" id="nft_j2-to-nft_conf" style="stroke:#000000;stroke-width:1;"/><polygon fill="#000000" points="1236.59,373.3134,1244.5364,367.4949,1239.0768,368.9757,1237.596,363.5161,1236.59,373.3134" style="stroke:#000000;stroke-width:1;"/></g><!--link squid_access to passwd--><g class="link" data-entity-1="squid_access" data-entity-2="passwd" data-source-line="76" data-uid="lnk48" id="link_squid_access_passwd"><path d="M200,422.8234 C200,454.3134 200,503.0434 200,530.6134" fill="none" id="squid_access-to-passwd" style="stroke:#000000;stroke-width:1;stroke-dasharray:7.0,7.0;"/><polygon fill="#000000" points="200,536.6134,204,527.6134,200,531.6134,196,527.6134,200,536.6134" style="stroke:#000000;stroke-width:1;"/><text fill="#000000" font-family="Segoe UI" font-size="11" lengthAdjust="spacing" textLength="69.8027" x="204.5745" y="465.3936">auth_param &#8594;</text><text fill="#000000" font-family="Segoe UI" font-size="11" lengthAdjust="spacing" textLength="76.9517" x="201" y="480.0244">basic_ncsa_auth</text></g><!--link squid_access to squid_upstream--><g class="link" data-entity-1="squid_access" data-entity-2="squid_upstream" data-source-line="79" data-uid="lnk49" id="link_squid_access_squid_upstream"><path d="M235.18,416.0434 C241.04,418.4634 247.13,420.7334 253,422.5234 C517.01,503.0434 843.9074,539.2507 952.7774,549.6907" fill="none" id="squid_access-to-squid_upstream" style="stroke:#000000;stroke-width:1;"/><polygon fill="#000000" points="958.75,550.2634,950.1729,545.4226,953.7728,549.7862,949.4093,553.3861,958.75,550.2634" style="stroke:#000000;stroke-width:1;"/><text fill="#000000" font-family="Segoe UI" font-size="11" lengthAdjust="spacing" textLength="54.0977" x="494" y="472.8936">cache_peer</text></g><!--link squid_access to accesslog--><g class="link" data-entity-1="squid_access" data-entity-2="accesslog" data-source-line="82" data-uid="lnk50" id="link_squid_access_accesslog"><path d="M164.83,421.5134 C152.86,430.2534 140,440.9434 130,452.5234 C108.9,476.9534 94.6025,505.1098 85.1125,526.7198" fill="none" id="squid_access-to-accesslog" style="stroke:#000000;stroke-width:1;"/><polygon fill="#000000" points="82.7,532.2134,89.9812,525.5814,84.7104,527.6354,82.6564,522.3647,82.7,532.2134" style="stroke:#000000;stroke-width:1;"/><text fill="#000000" font-family="Segoe UI" font-size="11" lengthAdjust="spacing" textLength="60.6021" x="131" y="465.3936">logformat &#8594;</text><text fill="#000000" font-family="Segoe UI" font-size="11" lengthAdjust="spacing" textLength="50.9985" x="135.8018" y="480.0244">access_log</text></g><!--link accesslog to cs_acq--><g class="link" data-entity-1="accesslog" data-entity-2="cs_acq" data-source-line="85" data-uid="lnk51" id="link_accesslog_cs_acq"><path d="M74,576.5534 C74,602.5434 74,640.8834 74,669.9434" fill="none" id="accesslog-to-cs_acq" style="stroke:#000000;stroke-width:1;"/><polygon fill="#000000" points="74,675.9434,78,666.9434,74,670.9434,70,666.9434,74,675.9434" style="stroke:#000000;stroke-width:1;"/><text fill="#000000" font-family="Segoe UI" font-size="11" lengthAdjust="spacing" textLength="45.8154" x="75" y="623.8936">tail mode</text></g><!--link cs_acq to cs_dec--><g class="link" data-entity-1="cs_acq" data-entity-2="cs_dec" data-source-line="86" data-uid="lnk52" id="link_cs_acq_cs_dec"><path d="M73.81,735.0634 C73.63,761.1834 73.4113,793.6436 73.2313,819.8236" fill="none" id="cs_acq-to-cs_dec" style="stroke:#000000;stroke-width:1;"/><polygon fill="#000000" points="73.19,825.8234,77.2518,816.8512,73.2244,820.8236,69.252,816.7961,73.19,825.8234" style="stroke:#000000;stroke-width:1;"/><text fill="#000000" font-family="Segoe UI" font-size="11" lengthAdjust="spacing" textLength="45.3374" x="75" y="777.8936">parsers +</text><text fill="#000000" font-family="Segoe UI" font-size="11" lengthAdjust="spacing" textLength="44.9238" x="75.2068" y="792.5244">scenarios</text></g><!--link cs_dec to nft--><g class="link" data-entity-1="cs_dec" data-entity-2="nft" data-source-line="87" data-uid="lnk53" id="link_cs_dec_nft"><path d="M72.04,885.0634 C71.15,911.1834 70.0516,943.6468 69.1716,969.8268" fill="none" id="cs_dec-to-nft" style="stroke:#000000;stroke-width:1;"/><polygon fill="#000000" points="68.97,975.8234,73.2701,966.9629,69.138,970.8263,65.2746,966.6941,68.97,975.8234" style="stroke:#000000;stroke-width:1;"/><text fill="#000000" font-family="Segoe UI" font-size="11" lengthAdjust="spacing" textLength="42.8936" x="97.2253" y="927.8936">ban IP &#8594;</text><text fill="#000000" font-family="Segoe UI" font-size="11" lengthAdjust="spacing" textLength="93.3442" x="72" y="942.5244">crowdsec-blacklists</text></g><rect fill="none" height="69.8633" rx="7.5" ry="7.5" style="stroke:#000000;stroke-width:1;" width="335.0146" x="1231.9854" y="1061.0234"/><text fill="#000000" font-family="Segoe UI" font-size="14" font-weight="bold" lengthAdjust="spacing" textLength="44.3105" x="1240.8477" y="1083.1309">&#1051;&#1080;&#1085;&#1080;&#1103;</text><text fill="#000000" font-family="Segoe UI" font-size="14" font-weight="bold" lengthAdjust="spacing" textLength="64.8252" x="1324.6631" y="1083.1309">&#1047;&#1085;&#1072;&#1095;&#1077;&#1085;&#1080;&#1077;</text><text fill="#000000" font-family="Segoe UI" font-size="14" lengthAdjust="spacing" textLength="65.7686" x="1240.8203" y="1101.752">&#1057;&#1087;&#1083;&#1086;&#1096;&#1085;&#1072;&#1103;</text><text fill="#000000" font-family="Segoe UI" font-size="14" lengthAdjust="spacing" textLength="233.5293" x="1324.6357" y="1101.752">&#1055;&#1086;&#1090;&#1086;&#1082; &#1076;&#1072;&#1085;&#1085;&#1099;&#1093; (transform / reference)</text><text fill="#000000" font-family="Segoe UI" font-size="14" lengthAdjust="spacing" textLength="76.1455" x="1240.8203" y="1120.373">&#1055;&#1091;&#1085;&#1082;&#1090;&#1080;&#1088;&#1085;&#1072;&#1103;</text><text fill="#000000" font-family="Segoe UI" font-size="14" lengthAdjust="spacing" textLength="138.9199" x="1324.6357" y="1120.373">&#1057;&#1089;&#1099;&#1083;&#1082;&#1072; (file reference)</text><line style="stroke:#000000;stroke-width:1;" x1="1236.9854" x2="1562" y1="1068.0234" y2="1068.0234"/><line style="stroke:#000000;stroke-width:1;" x1="1236.9854" x2="1562" y1="1086.6445" y2="1086.6445"/><line style="stroke:#000000;stroke-width:1;" x1="1236.9854" x2="1562" y1="1105.2656" y2="1105.2656"/><line style="stroke:#000000;stroke-width:1;" x1="1236.9854" x2="1562" y1="1123.8867" y2="1123.8867"/><line style="stroke:#000000;stroke-width:1;" x1="1236.9854" x2="1236.9854" y1="1068.0234" y2="1123.8867"/><line style="stroke:#000000;stroke-width:1;" x1="1320.8008" x2="1320.8008" y1="1068.0234" y2="1123.8867"/><line style="stroke:#000000;stroke-width:1;" x1="1562" x2="1562" y1="1068.0234" y2="1123.8867"/><!--SRC=[TLPFRzis5B_pKt3sOGvMkKdQ06k152Wy6yXGRCEStGmOZ4GxZ2NA9UaqsJfW_RDkG0uTjiCEEnIzx1nq2-fbI_OLgA-mJx97IfHeMK7WG7hlz_xoznxrWJga2SNpc32Ev8pnEH4amGSad4r5kk1HBurJWTk3lldp416Ta4Mi1YbNdn7mq1hIQKhnLtkjPj2GVKtnrXP2YgcOOlrBzfq-prvY_LwVwtTwcJtJI_sFliwUPS_rXVuBwpz1SQMlihFi-n7VuyUKgrISulzU_OnxAP-mgRJFGogEMKZpbqTf8Nt8INmgcKJeGnm40HuEFzyt3uW8nIOaLBZ5dClkQHAFUCT0DbgOI0mQg7WmkDUxw-m_PVo8REDzca2h54GplWGD5U5JAATLrri_HzkutVzuiDE_Xxz165UXvUC5Ym8IGjgo6q8ntQDjQs4LOp8-scx0B-PI2KgI1ej5tM96wPp4x9X6A-ZPckj4JRigJMA7WFSwP7Cpa9m5G0T5nOexVZ86JHs_jHaGDXVfoMcPigoRWMAjI8YHa7atkbrOrsr0MRVXKyPFWaJbqHhQOypKkjb4aOEOokQMWjOOVElEVf-8ALKuB4XNEtdzEz3rR_Yzoyxq1TQN-Xf8-nBO_4VsmfBy5JmlhMVdejs_CzWUV69PCM76Ypr6cmKmCIV6Xiy8Asb6knfyl9EL5dCYvPF88lB7KbDZYgE9UIunZYGbGrQqw_pmo56YRcI5Hucgm4OkU4GeaJSom3l-2boSUtFhpBdRmigJ_tB15OFbLZjo9wvMbBwm7aIXQ0zw_RlzdZtVY41C8i6icFSudLfm_WflLJotjTOuzXE4EGUMBVLxh9UOyaagGbZSNEMkd5rxSAU_CzYnWSCqcQSS8BZL4-cJQ4Z34ISXy4ConLAUCr82jnxVX8ve2E2KIuS5mIhMTNJ43-2s2AbmdSoBsjtTnVeDRFNdC1MNa3a8ZBpSlJXuW9LRciWitW0atXfS5IryqMm5K2mkzrgj9azIR1rFKkmKNw9M9VaoW9nLjViVk4b6LQP-ulPayNtyiFVe5YOBTJYsz-6j4Gz9U4Z7Sqe5gYho2omOcHjZAKA4PgLxDvTvhMNPLbOMx9MFofgz3g2oRAy9gApSwmFAYo_xOED09uhwRCQc6Vb6mPsgKYpeX0eAXDX0AptfTaluVQypviu62X79mZ4F9HaRLLEeiZ-TgfEr48tDzFhUu1M6KAuxAGSKxE4_Z5n2L9vfhXgRuGLtnjouSME8AalZ9vynSA88Yt6IHXGLea8BKmLQQ8IaGkAFHbo6b1F1KeaARN42W3eW7EzzaMSHca6LD0mEOlXUYvbKyBqJqodb4HPiUgXWLf_20Fu6U-CAFh5UsxTVpIx9Ve0R2sHmOpqrAApVwdzXmLndFrhrQoCg1tVbOmntb21ScdRWszv1EqTliXS0lGJB9Ln_fREty6Lt1X4kzJdks7MyOcfopbD7_mC0]--></g></svg>