<svg xmlns="http://www.w3.org/2000/svg" xmlns:xlink="http://www.w3.org/1999/xlink" contentStyleType="text/css" data-diagram-type="DESCRIPTION" height="1591px" preserveAspectRatio="none" style="width:1385px;height:1591px;background:#FEFEFE;" version="1.1" viewBox="0 0 1385 1591" width="1385px" zoomAndPan="magnify"><title>&#1044;&#1080;&#1072;&#1075;&#1088;&#1072;&#1084;&#1084;&#1072; &#1088;&#1072;&#1079;&#1074;&#1105;&#1088;&#1090;&#1099;&#1074;&#1072;&#1085;&#1080;&#1103; AI Assistants Proxy</title><defs/><g><rect fill="#FEFEFE" height="1591" style="stroke:none;stroke-width:1;" width="1385" x="0" y="0"/><text fill="#000000" font-family="Segoe UI" font-size="22" font-weight="bold" lengthAdjust="spacing" textLength="498.9746" x="438.5127" y="38.7402">&#1044;&#1080;&#1072;&#1075;&#1088;&#1072;&#1084;&#1084;&#1072; &#1088;&#1072;&#1079;&#1074;&#1105;&#1088;&#1090;&#1099;&#1074;&#1072;&#1085;&#1080;&#1103; AI Assistants Proxy</text><!--cluster access_tier--><g class="cluster" data-entity="access_tier" data-source-line="19" data-uid="ent0005" id="cluster_access_tier"><rect fill="#E8F5E9" height="562" rx="2.5" ry="2.5" style="stroke:#777777;stroke-width:1;" width="1367" x="12" y="352.2617"/><text fill="#000000" font-family="Segoe UI" font-size="11" font-weight="bold" lengthAdjust="spacing" textLength="83.9985" x="653.5007" y="366.1318">Access Tier (&#1056;&#1060;)</text></g><!--cluster an1--><g class="cluster" data-entity="an1" data-source-line="21" data-uid="ent0006" id="cluster_an1"><polygon fill="#FFFFFF" points="780,403.2617,790,393.2617,1355,393.2617,1355,714.2617,1345,724.2617,780,724.2617,780,403.2617" style="stroke:#333333;stroke-width:1;"/><line style="stroke:#333333;stroke-width:1;" x1="1345" x2="1355" y1="403.2617" y2="393.2617"/><line style="stroke:#333333;stroke-width:1;" x1="780" x2="1345" y1="403.2617" y2="403.2617"/><line style="stroke:#333333;stroke-width:1;" x1="1345" x2="1345" y1="403.2617" y2="724.2617"/><text fill="#000000" font-family="Segoe UI" font-size="11" font-weight="bold" lengthAdjust="spacing" textLength="74.4971" x="1026.2515" y="418.1318">Access Node 1</text><text fill="#000000" font-family="Segoe UI" font-size="11" font-weight="bold" lengthAdjust="spacing" textLength="52.0298" x="1037.4851" y="432.7627">(MASTER)</text></g><!--cluster an2--><g class="cluster" data-entity="an2" data-source-line="30" data-uid="ent0013" id="cluster_an2"><polygon fill="#FFFFFF" points="36,606.2617,46,596.2617,756,596.2617,756,880.2617,746,890.2617,36,890.2617,36,606.2617" style="stroke:#333333;stroke-width:1;"/><line style="stroke:#333333;stroke-width:1;" x1="746" x2="756" y1="606.2617" y2="596.2617"/><line style="stroke:#333333;stroke-width:1;" x1="36" x2="746" y1="606.2617" y2="606.2617"/><line style="stroke:#333333;stroke-width:1;" x1="746" x2="746" y1="606.2617" y2="890.2617"/><text fill="#000000" font-family="Segoe UI" font-size="11" font-weight="bold" lengthAdjust="spacing" textLength="74.4971" x="354.7515" y="621.1318">Access Node 2</text><text fill="#000000" font-family="Segoe UI" font-size="11" font-weight="bold" lengthAdjust="spacing" textLength="51.6216" x="366.1892" y="635.7627">(BACKUP)</text></g><!--cluster upstream_tier--><g class="cluster" data-entity="upstream_tier" data-source-line="41" data-uid="ent0020" id="cluster_upstream_tier"><rect fill="#E3F2FD" height="335.5" rx="2.5" ry="2.5" style="stroke:#777777;stroke-width:1;" width="772" x="101" y="977.2617"/><text fill="#000000" font-family="Segoe UI" font-size="11" font-weight="bold" lengthAdjust="spacing" textLength="122.3857" x="425.8071" y="991.1318">Upstream Tier (&#1074;&#1085;&#1077; &#1056;&#1060;)</text></g><!--cluster un1--><g class="cluster" data-entity="un1" data-source-line="43" data-uid="ent0021" id="cluster_un1"><polygon fill="#FFFFFF" points="125,1028.2617,135,1018.2617,849,1018.2617,849,1278.7617,839,1288.7617,125,1288.7617,125,1028.2617" style="stroke:#333333;stroke-width:1;"/><line style="stroke:#333333;stroke-width:1;" x1="839" x2="849" y1="1028.2617" y2="1018.2617"/><line style="stroke:#333333;stroke-width:1;" x1="125" x2="839" y1="1028.2617" y2="1028.2617"/><line style="stroke:#333333;stroke-width:1;" x1="839" x2="839" y1="1028.2617" y2="1288.7617"/><text fill="#000000" font-family="Segoe UI" font-size="11" font-weight="bold" lengthAdjust="spacing" textLength="90.793" x="437.6035" y="1043.1318">Upstream Node 1</text></g><!--entity nginx1--><g class="entity" data-entity="nginx1" data-source-line="22" data-uid="ent0007" id="entity_nginx1"><rect fill="#A5D6A7" height="59.2617" rx="2.5" ry="2.5" style="stroke:#555555;stroke-width:1;" width="122.2207" x="1058" y="446.2617"/><rect fill="#A5D6A7" height="10" style="stroke:#555555;stroke-width:1;" width="15" x="1160.2207" y="451.2617"/><rect fill="#A5D6A7" height="2" style="stroke:#555555;stroke-width:1;" width="4" x="1158.2207" y="453.2617"/><rect fill="#A5D6A7" height="2" style="stroke:#555555;stroke-width:1;" width="4" x="1158.2207" y="457.2617"/><text fill="#000000" font-family="Segoe UI" font-size="11" lengthAdjust="spacing" textLength="82.2207" x="1073" y="478.1318">nginx SNI Router</text><text fill="#000000" font-family="Segoe UI" font-size="11" lengthAdjust="spacing" textLength="20.1738" x="1073" y="492.7627">:443</text></g><!--entity squid_a1--><g class="entity" data-entity="squid_a1" data-source-line="23" data-uid="ent0008" id="entity_squid_a1"><rect fill="#C8E6C9" height="59.2617" rx="2.5" ry="2.5" style="stroke:#555555;stroke-width:1;" width="109.6201" x="938" y="649.2617"/><rect fill="#C8E6C9" height="10" style="stroke:#555555;stroke-width:1;" width="15" x="1027.6201" y="654.2617"/><rect fill="#C8E6C9" height="2" style="stroke:#555555;stroke-width:1;" width="4" x="1025.6201" y="656.2617"/><rect fill="#C8E6C9" height="2" style="stroke:#555555;stroke-width:1;" width="4" x="1025.6201" y="660.2617"/><text fill="#000000" font-family="Segoe UI" font-size="11" lengthAdjust="spacing" textLength="63.0459" x="953" y="681.1318">Squid Access</text><text fill="#000000" font-family="Segoe UI" font-size="11" lengthAdjust="spacing" textLength="69.6201" x="953" y="695.7627">localhost:3128</text></g><!--entity relay1--><g class="entity" data-entity="relay1" data-source-line="24" data-uid="ent0009" id="entity_relay1"><rect fill="#A5D6A7" height="59.2617" rx="2.5" ry="2.5" style="stroke:#555555;stroke-width:1;" width="109.6201" x="1083" y="649.2617"/><rect fill="#A5D6A7" height="10" style="stroke:#555555;stroke-width:1;" width="15" x="1172.6201" y="654.2617"/><rect fill="#A5D6A7" height="2" style="stroke:#555555;stroke-width:1;" width="4" x="1170.6201" y="656.2617"/><rect fill="#A5D6A7" height="2" style="stroke:#555555;stroke-width:1;" width="4" x="1170.6201" y="660.2617"/><text fill="#000000" font-family="Segoe UI" font-size="11" lengthAdjust="spacing" textLength="45.7134" x="1098" y="681.1318">TLS Relay</text><text fill="#000000" font-family="Segoe UI" font-size="11" lengthAdjust="spacing" textLength="69.6201" x="1098" y="695.7627">localhost:9443</text></g><!--entity ka1--><g class="entity" data-entity="ka1" data-source-line="25" data-uid="ent0010" id="entity_ka1"><rect fill="#E8F5E9" height="59.2617" rx="2.5" ry="2.5" style="stroke:#555555;stroke-width:1;" width="92.7764" x="929.5" y="446.2617"/><rect fill="#E8F5E9" height="10" style="stroke:#555555;stroke-width:1;" width="15" x="1002.2764" y="451.2617"/><rect fill="#E8F5E9" height="2" style="stroke:#555555;stroke-width:1;" width="4" x="1000.2764" y="453.2617"/><rect fill="#E8F5E9" height="2" style="stroke:#555555;stroke-width:1;" width="4" x="1000.2764" y="457.2617"/><text fill="#000000" font-family="Segoe UI" font-size="11" lengthAdjust="spacing" textLength="52.7764" x="944.5" y="478.1318">Keepalived</text><text fill="#000000" font-family="Segoe UI" font-size="11" lengthAdjust="spacing" textLength="47.3623" x="944.5" y="492.7627">(MASTER)</text></g><!--entity cs1--><g class="entity" data-entity="cs1" data-source-line="26" data-uid="ent0011" id="entity_cs1"><rect fill="#81C784" height="59.2617" rx="2.5" ry="2.5" style="stroke:#555555;stroke-width:1;" width="122.688" x="1215.5" y="446.2617"/><rect fill="#81C784" height="10" style="stroke:#555555;stroke-width:1;" width="15" x="1318.188" y="451.2617"/><rect fill="#81C784" height="2" style="stroke:#555555;stroke-width:1;" width="4" x="1316.188" y="453.2617"/><rect fill="#81C784" height="2" style="stroke:#555555;stroke-width:1;" width="4" x="1316.188" y="457.2617"/><text fill="#000000" font-family="Segoe UI" font-size="11" lengthAdjust="spacing" textLength="48.1841" x="1230.5" y="478.1318">CrowdSec</text><text fill="#000000" font-family="Segoe UI" font-size="11" lengthAdjust="spacing" textLength="82.688" x="1230.5" y="492.7627">Agent + Bouncer</text></g><!--entity dns1--><g class="entity" data-entity="dns1" data-source-line="27" data-uid="ent0012" id="entity_dns1"><rect fill="#A5D6A7" height="59.2617" rx="2.5" ry="2.5" style="stroke:#555555;stroke-width:1;" width="97.7607" x="796" y="446.2617"/><rect fill="#A5D6A7" height="10" style="stroke:#555555;stroke-width:1;" width="15" x="873.7607" y="451.2617"/><rect fill="#A5D6A7" height="2" style="stroke:#555555;stroke-width:1;" width="4" x="871.7607" y="453.2617"/><rect fill="#A5D6A7" height="2" style="stroke:#555555;stroke-width:1;" width="4" x="871.7607" y="457.2617"/><text fill="#000000" font-family="Segoe UI" font-size="11" lengthAdjust="spacing" textLength="44.29" x="811" y="478.1318">unbound</text><text fill="#000000" font-family="Segoe UI" font-size="11" lengthAdjust="spacing" textLength="57.7607" x="811" y="492.7627">localhost:53</text></g><!--entity nginx2--><g class="entity" data-entity="nginx2" data-source-line="31" data-uid="ent0014" id="entity_nginx2"><rect fill="#A5D6A7" height="59.2617" rx="2.5" ry="2.5" style="stroke:#555555;stroke-width:1;" width="122.2207" x="185" y="649.2617"/><rect fill="#A5D6A7" height="10" style="stroke:#555555;stroke-width:1;" width="15" x="287.2207" y="654.2617"/><rect fill="#A5D6A7" height="2" style="stroke:#555555;stroke-width:1;" width="4" x="285.2207" y="656.2617"/><rect fill="#A5D6A7" height="2" style="stroke:#555555;stroke-width:1;" width="4" x="285.2207" y="660.2617"/><text fill="#000000" font-family="Segoe UI" font-size="11" lengthAdjust="spacing" textLength="82.2207" x="200" y="681.1318">nginx SNI Router</text><text fill="#000000" font-family="Segoe UI" font-size="11" lengthAdjust="spacing" textLength="20.1738" x="200" y="695.7627">:443</text></g><!--entity squid_a2--><g class="entity" data-entity="squid_a2" data-source-line="32" data-uid="ent0015" id="entity_squid_a2"><rect fill="#C8E6C9" height="59.2617" rx="2.5" ry="2.5" style="stroke:#555555;stroke-width:1;" width="109.6201" x="278" y="815.2617"/><rect fill="#C8E6C9" height="10" style="stroke:#555555;stroke-width:1;" width="15" x="367.6201" y="820.2617"/><rect fill="#C8E6C9" height="2" style="stroke:#555555;stroke-width:1;" width="4" x="365.6201" y="822.2617"/><rect fill="#C8E6C9" height="2" style="stroke:#555555;stroke-width:1;" width="4" x="365.6201" y="826.2617"/><text fill="#000000" font-family="Segoe UI" font-size="11" lengthAdjust="spacing" textLength="63.0459" x="293" y="847.1318">Squid Access</text><text fill="#000000" font-family="Segoe UI" font-size="11" lengthAdjust="spacing" textLength="69.6201" x="293" y="861.7627">localhost:3128</text></g><!--entity relay2--><g class="entity" data-entity="relay2" data-source-line="33" data-uid="ent0016" id="entity_relay2"><rect fill="#A5D6A7" height="59.2617" rx="2.5" ry="2.5" style="stroke:#555555;stroke-width:1;" width="109.6201" x="471" y="649.2617"/><rect fill="#A5D6A7" height="10" style="stroke:#555555;stroke-width:1;" width="15" x="560.6201" y="654.2617"/><rect fill="#A5D6A7" height="2" style="stroke:#555555;stroke-width:1;" width="4" x="558.6201" y="656.2617"/><rect fill="#A5D6A7" height="2" style="stroke:#555555;stroke-width:1;" width="4" x="558.6201" y="660.2617"/><text fill="#000000" font-family="Segoe UI" font-size="11" lengthAdjust="spacing" textLength="45.7134" x="486" y="681.1318">TLS Relay</text><text fill="#000000" font-family="Segoe UI" font-size="11" lengthAdjust="spacing" textLength="69.6201" x="486" y="695.7627">localhost:9443</text></g><!--entity ka2--><g class="entity" data-entity="ka2" data-source-line="34" data-uid="ent0017" id="entity_ka2"><rect fill="#E8F5E9" height="59.2617" rx="2.5" ry="2.5" style="stroke:#555555;stroke-width:1;" width="92.7764" x="342.5" y="649.2617"/><rect fill="#E8F5E9" height="10" style="stroke:#555555;stroke-width:1;" width="15" x="415.2764" y="654.2617"/><rect fill="#E8F5E9" height="2" style="stroke:#555555;stroke-width:1;" width="4" x="413.2764" y="656.2617"/><rect fill="#E8F5E9" height="2" style="stroke:#555555;stroke-width:1;" width="4" x="413.2764" y="660.2617"/><text fill="#000000" font-family="Segoe UI" font-size="11" lengthAdjust="spacing" textLength="52.7764" x="357.5" y="681.1318">Keepalived</text><text fill="#000000" font-family="Segoe UI" font-size="11" lengthAdjust="spacing" textLength="46.9487" x="357.5" y="695.7627">(BACKUP)</text></g><!--entity cs2--><g class="entity" data-entity="cs2" data-source-line="35" data-uid="ent0018" id="entity_cs2"><rect fill="#81C784" height="59.2617" rx="2.5" ry="2.5" style="stroke:#555555;stroke-width:1;" width="122.688" x="616.5" y="649.2617"/><rect fill="#81C784" height="10" style="stroke:#555555;stroke-width:1;" width="15" x="719.188" y="654.2617"/><rect fill="#81C784" height="2" style="stroke:#555555;stroke-width:1;" width="4" x="717.188" y="656.2617"/><rect fill="#81C784" height="2" style="stroke:#555555;stroke-width:1;" width="4" x="717.188" y="660.2617"/><text fill="#000000" font-family="Segoe UI" font-size="11" lengthAdjust="spacing" textLength="48.1841" x="631.5" y="681.1318">CrowdSec</text><text fill="#000000" font-family="Segoe UI" font-size="11" lengthAdjust="spacing" textLength="82.688" x="631.5" y="695.7627">Agent + Bouncer</text></g><!--entity dns2--><g class="entity" data-entity="dns2" data-source-line="36" data-uid="ent0019" id="entity_dns2"><rect fill="#A5D6A7" height="59.2617" rx="2.5" ry="2.5" style="stroke:#555555;stroke-width:1;" width="97.7607" x="52" y="649.2617"/><rect fill="#A5D6A7" height="10" style="stroke:#555555;stroke-width:1;" width="15" x="129.7607" y="654.2617"/><rect fill="#A5D6A7" height="2" style="stroke:#555555;stroke-width:1;" width="4" x="127.7607" y="656.2617"/><rect fill="#A5D6A7" height="2" style="stroke:#555555;stroke-width:1;" width="4" x="127.7607" y="660.2617"/><text fill="#000000" font-family="Segoe UI" font-size="11" lengthAdjust="spacing" textLength="44.29" x="67" y="681.1318">unbound</text><text fill="#000000" font-family="Segoe UI" font-size="11" lengthAdjust="spacing" textLength="57.7607" x="67" y="695.7627">localhost:53</text></g><!--entity nginx_u1--><g class="entity" data-entity="nginx_u1" data-source-line="44" data-uid="ent0022" id="entity_nginx_u1"><rect fill="#64B5F6" height="59.2617" rx="2.5" ry="2.5" style="stroke:#555555;stroke-width:1;" width="135.9385" x="538" y="1056.2617"/><rect fill="#64B5F6" height="10" style="stroke:#555555;stroke-width:1;" width="15" x="653.9385" y="1061.2617"/><rect fill="#64B5F6" height="2" style="stroke:#555555;stroke-width:1;" width="4" x="651.9385" y="1063.2617"/><rect fill="#64B5F6" height="2" style="stroke:#555555;stroke-width:1;" width="4" x="651.9385" y="1067.2617"/><text fill="#000000" font-family="Segoe UI" font-size="11" lengthAdjust="spacing" textLength="82.2207" x="553" y="1088.1318">nginx SNI Router</text><text fill="#000000" font-family="Segoe UI" font-size="11" lengthAdjust="spacing" textLength="95.9385" x="553" y="1102.7627">:443 (MTProxy only)</text></g><!--entity squid_u1--><g class="entity" data-entity="squid_u1" data-source-line="45" data-uid="ent0023" id="entity_squid_u1"><rect fill="#90CAF9" height="59.2617" rx="2.5" ry="2.5" style="stroke:#555555;stroke-width:1;" width="117.7681" x="274" y="1056.2617"/><rect fill="#90CAF9" height="10" style="stroke:#555555;stroke-width:1;" width="15" x="371.7681" y="1061.2617"/><rect fill="#90CAF9" height="2" style="stroke:#555555;stroke-width:1;" width="4" x="369.7681" y="1063.2617"/><rect fill="#90CAF9" height="2" style="stroke:#555555;stroke-width:1;" width="4" x="369.7681" y="1067.2617"/><text fill="#000000" font-family="Segoe UI" font-size="11" lengthAdjust="spacing" textLength="77.7681" x="289" y="1088.1318">Squid Upstream</text><text fill="#000000" font-family="Segoe UI" font-size="11" lengthAdjust="spacing" textLength="51.4229" x="289" y="1102.7627">:80 (direct)</text></g><!--entity mtp1--><g class="entity" data-entity="mtp1" data-source-line="46" data-uid="ent0024" id="entity_mtp1"><rect fill="#42A5F5" height="59.2617" rx="2.5" ry="2.5" style="stroke:#555555;stroke-width:1;" width="111.7739" x="550" y="1213.7617"/><rect fill="#42A5F5" height="10" style="stroke:#555555;stroke-width:1;" width="15" x="641.7739" y="1218.7617"/><rect fill="#42A5F5" height="2" style="stroke:#555555;stroke-width:1;" width="4" x="639.7739" y="1220.7617"/><rect fill="#42A5F5" height="2" style="stroke:#555555;stroke-width:1;" width="4" x="639.7739" y="1224.7617"/><text fill="#000000" font-family="Segoe UI" font-size="11" lengthAdjust="spacing" textLength="71.7739" x="565" y="1245.6318">MTProxy (mtg)</text><text fill="#000000" font-family="Segoe UI" font-size="11" lengthAdjust="spacing" textLength="69.6201" x="565" y="1260.2627">localhost:2083</text></g><!--entity fw1--><g class="entity" data-entity="fw1" data-source-line="47" data-uid="ent0025" id="entity_fw1"><rect fill="#BBDEFB" height="59.2617" rx="2.5" ry="2.5" style="stroke:#555555;stroke-width:1;" width="76.4858" x="427" y="1056.2617"/><rect fill="#BBDEFB" height="10" style="stroke:#555555;stroke-width:1;" width="15" x="483.4858" y="1061.2617"/><rect fill="#BBDEFB" height="2" style="stroke:#555555;stroke-width:1;" width="4" x="481.4858" y="1063.2617"/><rect fill="#BBDEFB" height="2" style="stroke:#555555;stroke-width:1;" width="4" x="481.4858" y="1067.2617"/><text fill="#000000" font-family="Segoe UI" font-size="11" lengthAdjust="spacing" textLength="36.4858" x="442" y="1088.1318">Firewall</text><text fill="#000000" font-family="Segoe UI" font-size="11" lengthAdjust="spacing" textLength="29.8418" x="442" y="1102.7627">(UFW)</text></g><!--entity cs_u1--><g class="entity" data-entity="cs_u1" data-source-line="48" data-uid="ent0026" id="entity_cs_u1"><rect fill="#90CAF9" height="59.2617" rx="2.5" ry="2.5" style="stroke:#555555;stroke-width:1;" width="122.688" x="709.5" y="1056.2617"/><rect fill="#90CAF9" height="10" style="stroke:#555555;stroke-width:1;" width="15" x="812.188" y="1061.2617"/><rect fill="#90CAF9" height="2" style="stroke:#555555;stroke-width:1;" width="4" x="810.188" y="1063.2617"/><rect fill="#90CAF9" height="2" style="stroke:#555555;stroke-width:1;" width="4" x="810.188" y="1067.2617"/><text fill="#000000" font-family="Segoe UI" font-size="11" lengthAdjust="spacing" textLength="48.1841" x="724.5" y="1088.1318">CrowdSec</text><text fill="#000000" font-family="Segoe UI" font-size="11" lengthAdjust="spacing" textLength="82.688" x="724.5" y="1102.7627">Agent + Bouncer</text></g><!--entity dns_u1--><g class="entity" data-entity="dns_u1" data-source-line="49" data-uid="ent0027" id="entity_dns_u1"><rect fill="#64B5F6" height="59.2617" rx="2.5" ry="2.5" style="stroke:#555555;stroke-width:1;" width="97.7607" x="141" y="1056.2617"/><rect fill="#64B5F6" height="10" style="stroke:#555555;stroke-width:1;" width="15" x="218.7607" y="1061.2617"/><rect fill="#64B5F6" height="2" style="stroke:#555555;stroke-width:1;" width="4" x="216.7607" y="1063.2617"/><rect fill="#64B5F6" height="2" style="stroke:#555555;stroke-width:1;" width="4" x="216.7607" y="1067.2617"/><text fill="#000000" font-family="Segoe UI" font-size="11" lengthAdjust="spacing" textLength="44.29" x="156" y="1088.1318">unbound</text><text fill="#000000" font-family="Segoe UI" font-size="11" lengthAdjust="spacing" textLength="57.7607" x="156" y="1102.7627">localhost:53</text></g><!--entity client--><g class="entity" data-entity="client" data-source-line="12" data-uid="ent0002" id="entity_client"><ellipse cx="1001.0044" cy="69.2617" fill="#FFFFFF" rx="8" ry="8" style="stroke:#000000;stroke-width:1;"/><path d="M1001.0044,77.2617 L1001.0044,104.2617 M988.0044,85.2617 L1014.0044,85.2617 M1001.0044,104.2617 L988.0044,119.2617 M1001.0044,104.2617 L1014.0044,119.2617" fill="none" style="stroke:#000000;stroke-width:1;"/><text fill="#000000" font-family="Segoe UI" font-size="11" lengthAdjust="spacing" textLength="35.1807" x="967" y="133.1318">&#1050;&#1083;&#1080;&#1077;&#1085;&#1090;</text><text fill="#000000" font-family="Segoe UI" font-size="11" lengthAdjust="spacing" textLength="68.0088" x="967" y="147.7627">(IDE/&#1073;&#1088;&#1072;&#1091;&#1079;&#1077;&#1088;)</text></g><!--entity tg_client--><g class="entity" data-entity="tg_client" data-source-line="13" data-uid="ent0003" id="entity_tg_client"><ellipse cx="1093.1526" cy="69.2617" fill="#FFFFFF" rx="8" ry="8" style="stroke:#000000;stroke-width:1;"/><path d="M1093.1526,77.2617 L1093.1526,104.2617 M1080.1526,85.2617 L1106.1526,85.2617 M1093.1526,104.2617 L1080.1526,119.2617 M1093.1526,104.2617 L1106.1526,119.2617" fill="none" style="stroke:#000000;stroke-width:1;"/><text fill="#000000" font-family="Segoe UI" font-size="11" lengthAdjust="spacing" textLength="45.3052" x="1070.5" y="133.1318">Telegram</text><text fill="#000000" font-family="Segoe UI" font-size="11" lengthAdjust="spacing" textLength="34.2676" x="1070.5" y="147.7627">&#1082;&#1083;&#1080;&#1077;&#1085;&#1090;</text></g><!--entity vip--><g class="entity" data-entity="vip" data-source-line="16" data-uid="ent0004" id="entity_vip"><rect fill="#FFF9C4" height="49.2617" rx="2.5" ry="2.5" style="stroke:#777777;stroke-width:1;" width="81.2305" x="1006.5" y="241.2617"/><text fill="#000000" font-family="Segoe UI" font-size="11" lengthAdjust="spacing" textLength="15.9199" x="1016.5" y="263.1318">VIP</text><text fill="#000000" font-family="Segoe UI" font-size="11" lengthAdjust="spacing" textLength="61.2305" x="1016.5" y="277.7627">(192.168.0.2)</text></g><!--entity ai_api--><g class="entity" data-entity="ai_api" data-source-line="54" data-uid="ent0028" id="entity_ai_api"><path d="M898.7818,1214.6913 C901.3939,1207.8913 907.2396,1207.7353 911.6603,1212.7138 C915.1118,1206.1088 919.0971,1206.2077 924.2511,1210.7993 C927.3597,1204.816 932.3298,1203.8775 936.8982,1209.1606 C940.9163,1201.4116 945.8462,1199.6868 951.8552,1207.2109 C956.8734,1202.778 962.2809,1204.3943 964.0645,1210.8409 C968.4685,1205.3791 972.7528,1205.2833 976.3246,1211.6998 C981.8344,1206.1635 986.5559,1206.647 990.6141,1213.3891 C996.2686,1207.1209 1000.9078,1209.625 1004.0039,1216.0814 C1010.6146,1218.782 1012.7513,1224.9384 1006.3699,1229.8687 C1015.0002,1231.7483 1015.829,1237.492 1010.9614,1243.8153 C1017.3036,1249.1753 1015.6339,1256.0725 1007.8165,1258.3738 C1014.476,1264.5162 1012.987,1272.5005 1003.3352,1273.9501 C999.6953,1280.5998 994.1733,1279.7178 990.2911,1274.21 C986.3907,1282.1042 981.2687,1280.7238 976.4273,1275.1809 C974.0371,1282.6731 968.37,1283.7613 963.6238,1277.3507 C960.0426,1284.1103 954.4912,1285.1782 950.1203,1278.1226 C946.1325,1282.6738 940.1022,1282.1828 937.8868,1276.0862 C933.2894,1281.6175 929.4125,1281.8332 925.032,1275.8441 C920.7842,1280.7159 915.304,1281.7965 912.2339,1274.5955 C906.5298,1281.5779 902.3413,1280.651 898.4567,1272.8947 C890.9045,1268.5979 890.0275,1263.9355 897.4904,1258.6221 C890.5919,1256.0446 888.3708,1249.3376 894.5465,1244.1082 C888.6977,1237.7241 888.4455,1231.9338 897.7896,1228.7598 C891.5369,1223.6174 891.4867,1218.8783 898.7818,1214.6913" fill="#FFF3E0" style="stroke:#000000;stroke-width:1;"/><text fill="#000000" font-family="Segoe UI" font-size="11" lengthAdjust="spacing" textLength="29.2188" x="904.5" y="1233.1318">AI API</text><text fill="#000000" font-family="Segoe UI" font-size="11" lengthAdjust="spacing" textLength="86.4585" x="904.5" y="1247.7627">(Claude, ChatGPT,</text><text fill="#000000" font-family="Segoe UI" font-size="11" lengthAdjust="spacing" textLength="90.8198" x="904.5" y="1262.3936">Gemini, Copilot, ...)</text></g><!--entity tg_dc--><g class="entity" data-entity="tg_dc" data-source-line="55" data-uid="ent0029" id="entity_tg_dc"><path d="M568.7032,1383.0152 C572.9816,1377.88 577.5233,1378.0276 580.3951,1384.4394 C584.3373,1377.5999 588.8531,1375.8045 594.8031,1382.2641 C598.4991,1376.6307 603.5934,1376.8288 607.1619,1382.4047 C610.1796,1376.1629 615.8915,1376.989 619.1617,1382.1387 C623.0259,1374.9004 629.4158,1376.7741 633.0332,1382.4047 C636.9672,1377.4476 643.3218,1376.6534 645.8291,1383.9005 C653.5616,1387.3384 652.3354,1393.2492 646.8929,1397.7026 C652.6311,1403.9523 653.1132,1409.0997 644.657,1413.3167 C640.5115,1418.1473 636.2285,1419.557 632.3928,1412.9836 C628.7082,1419.1558 623.5392,1420.7391 618.7416,1414.1767 C616.7033,1420.7277 611.0628,1420.9969 607.2948,1415.8726 C602.4792,1422.719 597.8905,1421.6031 593.5028,1415.4197 C589.347,1420.1423 584.766,1419.6345 582.19,1413.7369 C576.6159,1420.0003 572.0389,1419.6912 568.5829,1411.7132 C560.6339,1409.3424 559.4802,1404.6091 564.0121,1398.06 C559.2073,1391.2884 560.3689,1385.69 568.7032,1383.0152" fill="#FFF3E0" style="stroke:#000000;stroke-width:1;"/><text fill="#000000" font-family="Segoe UI" font-size="11" lengthAdjust="spacing" textLength="62.8418" x="574.5" y="1401.6318">Telegram DC</text></g><!--entity cs_api--><g class="entity" data-entity="cs_api" data-source-line="56" data-uid="ent0030" id="entity_cs_api"><path d="M1055.4059,1223.6108 C1058.0794,1217.744 1062.0003,1217.254 1066.5899,1221.4895 C1070.1097,1216.5338 1073.6925,1216.3088 1077.7744,1220.8258 C1081.7587,1216.0027 1086.413,1216.2932 1089.7026,1221.6406 C1093.3823,1216.7681 1096.5717,1217.1315 1099.962,1221.9471 C1103.6302,1216.7125 1107.4544,1215.9705 1111.3323,1221.7303 C1115.2385,1217.1199 1119.8137,1217.5047 1121.8345,1223.5828 C1134.1078,1227.0118 1133.5378,1237.4144 1126.1812,1244.8545 C1134.2649,1252.415 1131.8099,1261.5038 1121.8029,1265.1644 C1118.9316,1270.8553 1115.0453,1271.6492 1111.119,1266.1739 C1109.2223,1272.8441 1105.0325,1273.0986 1100.3636,1268.9229 C1097.4116,1275.3528 1092.0804,1275.4812 1088.1299,1269.9435 C1084.1023,1273.6438 1079.6509,1273.1434 1077.9005,1267.4608 C1073.5394,1271.9954 1069.4282,1271.6015 1066.1873,1266.1471 C1063.2538,1270.7679 1058.442,1270.6552 1055.5607,1266.0867 C1049.2006,1264.9111 1046.9995,1259.5068 1051.8979,1254.7072 C1045.7468,1253.814 1044.5516,1248.6641 1048.5646,1244.4635 C1044.4237,1240.2913 1045.3809,1234.3679 1051.5709,1232.8759 C1047.6657,1227.996 1049.8908,1224.5915 1055.4059,1223.6108" fill="#FFF3E0" style="stroke:#000000;stroke-width:1;"/><text fill="#000000" font-family="Segoe UI" font-size="11" lengthAdjust="spacing" textLength="48.1841" x="1061" y="1240.6318">CrowdSec</text><text fill="#000000" font-family="Segoe UI" font-size="11" lengthAdjust="spacing" textLength="53.7969" x="1061" y="1255.2627">Central API</text></g><!--link client to vip--><g class="link" data-entity-1="client" data-entity-2="vip" data-source-line="61" data-uid="lnk31" id="link_client_vip"><path d="M992.2,150.4817 C990.25,169.7517 990.6,192.2217 998,211.2617 C1002.34,222.4117 1006.0319,228.3458 1014.2119,236.8158" fill="none" id="client-to-vip" style="stroke:#2E7D32;stroke-width:1;"/><polygon fill="#2E7D32" points="1018.38,241.1317,1015.0051,231.8792,1014.9066,237.5352,1009.2506,237.4366,1018.38,241.1317" style="stroke:#2E7D32;stroke-width:1;"/><text fill="#000000" font-family="Segoe UI" font-size="11" lengthAdjust="spacing" textLength="31.3403" x="1008.4773" y="193.1318">HTTPS</text><text fill="#000000" font-family="Segoe UI" font-size="11" lengthAdjust="spacing" textLength="50.2949" x="999" y="207.7627">proxy :443</text></g><!--link vip to nginx1--><g class="link" data-entity-1="vip" data-entity-2="nginx1" data-source-line="62" data-uid="lnk32" id="link_vip_nginx1"><path d="M1060.06,290.3017 C1064.83,299.4817 1070.03,310.1917 1074,320.2617 C1090.85,363.0217 1103.2036,408.7937 1110.8936,440.2137" fill="none" id="vip-to-nginx1" style="stroke:#2E7D32;stroke-width:1;"/><polygon fill="#2E7D32" points="1112.32,446.0417,1114.0657,436.3488,1111.1313,441.1851,1106.2951,438.2507,1112.32,446.0417" style="stroke:#2E7D32;stroke-width:1;"/><text fill="#000000" font-family="Segoe UI" font-size="11" lengthAdjust="spacing" textLength="84.1436" x="1079" y="333.1318">TLS (SNI preread)</text></g><!--link nginx1 to squid_a1--><g class="link" data-entity-1="nginx1" data-entity-2="squid_a1" data-source-line="64" data-uid="lnk33" id="link_nginx1_squid_a1"><path d="M1057.77,502.0717 C1043.44,510.6517 1029.58,521.6217 1020,535.2617 C996.2,569.1617 991.8556,612.3317 991.7756,643.1517" fill="none" id="nginx1-to-squid_a1" style="stroke:#2E7D32;stroke-width:1;"/><polygon fill="#2E7D32" points="991.76,649.1517,995.7833,640.1621,991.773,644.1517,987.7834,640.1414,991.76,649.1517" style="stroke:#2E7D32;stroke-width:1;"/><text fill="#000000" font-family="Segoe UI" font-size="11" lengthAdjust="spacing" textLength="33.8862" x="1046.2334" y="548.1318">default</text><text fill="#000000" font-family="Segoe UI" font-size="11" lengthAdjust="spacing" textLength="69.6201" x="1028.3665" y="562.7627">localhost:3128</text><text fill="#000000" font-family="Segoe UI" font-size="11" lengthAdjust="spacing" textLength="84.353" x="1021" y="577.3936">(PROXY protocol)</text></g><!--link nginx2 to squid_a2--><g class="link" data-entity-1="nginx2" data-entity-2="squid_a2" data-source-line="65" data-uid="lnk34" id="link_nginx2_squid_a2"><path d="M261.15,708.3317 C277.07,738.3417 299.1481,779.9614 315.0581,809.9514" fill="none" id="nginx2-to-squid_a2" style="stroke:#2E7D32;stroke-width:1;"/><polygon fill="#2E7D32" points="317.87,815.2517,317.1857,805.4267,315.5268,810.8348,310.1186,809.1758,317.87,815.2517" style="stroke:#2E7D32;stroke-width:1;"/><text fill="#000000" font-family="Segoe UI" font-size="11" lengthAdjust="spacing" textLength="33.8862" x="326.2334" y="753.1318">default</text><text fill="#000000" font-family="Segoe UI" font-size="11" lengthAdjust="spacing" textLength="69.6201" x="308.3665" y="767.7627">localhost:3128</text><text fill="#000000" font-family="Segoe UI" font-size="11" lengthAdjust="spacing" textLength="84.353" x="301" y="782.3936">(PROXY protocol)</text></g><!--link squid_a1 to squid_u1--><g class="link" data-entity-1="squid_a1" data-entity-2="squid_u1" data-source-line="67" data-uid="lnk35" id="link_squid_a1_squid_u1"><path d="M994.39,708.5517 C996.82,773.4417 998.56,928.0217 962,961.2617 C950.63,971.5917 422.47,961.8717 409,969.2617 C375.33,987.7317 356.307,1022.6683 345.087,1050.4483" fill="none" id="squid_a1-to-squid_u1" style="stroke:#1565C0;stroke-width:1;"/><polygon fill="#1565C0" points="342.84,1056.0117,349.9194,1049.1646,344.7125,1051.3756,342.5016,1046.1687,342.84,1056.0117" style="stroke:#1565C0;stroke-width:1;"/><text fill="#000000" font-family="Segoe UI" font-size="11" lengthAdjust="spacing" textLength="54.0977" x="1002.491" y="842.1318">cache_peer</text><text fill="#000000" font-family="Segoe UI" font-size="11" lengthAdjust="spacing" textLength="67.0796" x="996" y="856.7627">:80 (userhash)</text></g><!--link squid_a2 to squid_u1--><g class="link" data-entity-1="squid_a2" data-entity-2="squid_u1" data-source-line="68" data-uid="lnk36" id="link_squid_a2_squid_u1"><path d="M333,874.5917 C333,920.6517 333,1004.3117 333,1050.2017" fill="none" id="squid_a2-to-squid_u1" style="stroke:#1565C0;stroke-width:1;"/><polygon fill="#1565C0" points="333,1056.2017,337,1047.2017,333,1051.2017,329,1047.2017,333,1056.2017" style="stroke:#1565C0;stroke-width:1;"/><text fill="#000000" font-family="Segoe UI" font-size="11" lengthAdjust="spacing" textLength="54.0977" x="340.491" y="943.1318">cache_peer</text><text fill="#000000" font-family="Segoe UI" font-size="11" lengthAdjust="spacing" textLength="67.0796" x="334" y="957.7627">:80 (userhash)</text></g><!--link squid_u1 to ai_api--><g class="link" data-entity-1="squid_u1" data-entity-2="ai_api" data-source-line="70" data-uid="lnk37" id="link_squid_u1_ai_api"><path d="M392.32,1110.5417 C397.9,1112.3217 403.52,1113.9317 409,1115.2617 C518.59,1141.9217 551.67,1117.5317 661,1145.2617 C697.16,1154.4317 703.62,1164.4417 739,1176.2617 C787.07,1192.3117 800.65,1191.0817 849,1206.2617 C862.14,1210.3917 870.4703,1213.1497 883.7103,1217.8097" fill="none" id="squid_u1-to-ai_api" style="stroke:#E65100;stroke-width:1;"/><polygon fill="#E65100" points="889.37,1219.8017,882.2085,1213.0406,884.6536,1218.1417,879.5525,1220.5868,889.37,1219.8017" style="stroke:#E65100;stroke-width:1;"/><text fill="#000000" font-family="Segoe UI" font-size="11" lengthAdjust="spacing" textLength="54.5273" x="740" y="1165.6318">HTTPS :443</text></g><!--link tg_client to vip--><g class="link" data-entity-1="tg_client" data-entity-2="vip" data-source-line="73" data-uid="lnk38" id="link_tg_client_vip"><path d="M1080.19,150.4117 C1071.68,179.7217 1062.5116,211.2993 1055.5816,235.1893" fill="none" id="tg_client-to-vip" style="stroke:#0D47A1;stroke-width:1;"/><polygon fill="#0D47A1" points="1053.91,240.9517,1060.259,233.4224,1055.303,236.1497,1052.5757,231.1937,1053.91,240.9517" style="stroke:#0D47A1;stroke-width:1;"/><text fill="#000000" font-family="Segoe UI" font-size="11" lengthAdjust="spacing" textLength="64.6304" x="1072" y="200.6318">fake-TLS :443</text></g><!--link nginx1 to relay1--><g class="link" data-entity-1="nginx1" data-entity-2="relay1" data-source-line="74" data-uid="lnk39" id="link_nginx1_relay1"><path d="M1117.24,505.3117 C1116.73,514.8317 1116.25,525.5017 1116,535.2617 C1115.49,555.2517 1113.79,560.3817 1116,580.2617 C1118.61,603.7117 1123.1277,623.9707 1128.2177,643.2407" fill="none" id="nginx1-to-relay1" style="stroke:#0D47A1;stroke-width:1;"/><polygon fill="#0D47A1" points="1129.75,649.0417,1131.3189,639.3186,1128.4731,644.2075,1123.5842,641.3617,1129.75,649.0417" style="stroke:#0D47A1;stroke-width:1;"/><text fill="#000000" font-family="Segoe UI" font-size="11" lengthAdjust="spacing" textLength="45.9873" x="1117" y="555.1318">SNI route</text><text fill="#000000" font-family="Segoe UI" font-size="11" lengthAdjust="spacing" textLength="38.6074" x="1120.6899" y="569.7627">&#8594; :9443</text></g><!--link relay1 to nginx_u1--><g class="link" data-entity-1="relay1" data-entity-2="nginx_u1" data-source-line="75" data-uid="lnk40" id="link_relay1_nginx_u1"><path d="M1136.12,708.3617 C1131.75,756.3617 1117.52,854.5517 1072,922.2617 C1056.08,945.9417 1047.91,951.7817 1021,961.2617 C986.51,973.4117 724.48,952.4517 692,969.2617 C656.36,987.7017 634.2318,1023.0248 620.7218,1050.8348" fill="none" id="relay1-to-nginx_u1" style="stroke:#0D47A1;stroke-width:1;"/><polygon fill="#0D47A1" points="618.1,1056.2317,625.6306,1049.8843,620.2848,1051.7343,618.4348,1046.3886,618.1,1056.2317" style="stroke:#0D47A1;stroke-width:1;"/><text fill="#000000" font-family="Segoe UI" font-size="11" lengthAdjust="spacing" textLength="34.042" x="1134.4399" y="842.1318">TLS 1.3</text><text fill="#000000" font-family="Segoe UI" font-size="11" lengthAdjust="spacing" textLength="68.9219" x="1117" y="856.7627">upstream :443</text></g><!--link nginx_u1 to mtp1--><g class="link" data-entity-1="nginx_u1" data-entity-2="mtp1" data-source-line="76" data-uid="lnk41" id="link_nginx_u1_mtp1"><path d="M606,1115.2817 C606,1143.2517 606,1179.6617 606,1207.6617" fill="none" id="nginx_u1-to-mtp1" style="stroke:#0D47A1;stroke-width:1;"/><polygon fill="#0D47A1" points="606,1213.6617,610,1204.6617,606,1208.6617,602,1204.6617,606,1213.6617" style="stroke:#0D47A1;stroke-width:1;"/><text fill="#000000" font-family="Segoe UI" font-size="11" lengthAdjust="spacing" textLength="45.9873" x="607" y="1158.1318">SNI route</text><text fill="#000000" font-family="Segoe UI" font-size="11" lengthAdjust="spacing" textLength="38.6074" x="610.6899" y="1172.7627">&#8594; :2083</text></g><!--link mtp1 to tg_dc--><g class="link" data-entity-1="mtp1" data-entity-2="tg_dc" data-source-line="77" data-uid="lnk42" id="link_mtp1_tg_dc"><path d="M606,1272.8517 C606,1302.4317 606,1341.9717 606,1368.6717" fill="none" id="mtp1-to-tg_dc" style="stroke:#E65100;stroke-width:1;"/><polygon fill="#E65100" points="606,1374.6717,610,1365.6717,606,1369.6717,602,1365.6717,606,1374.6717" style="stroke:#E65100;stroke-width:1;"/><text fill="#000000" font-family="Segoe UI" font-size="11" lengthAdjust="spacing" textLength="42.2437" x="607" y="1341.6318">MTProto</text></g><!--link ka1 to ka2--><g class="link" data-entity-1="ka1" data-entity-2="ka2" data-source-line="82" data-uid="lnk43" id="link_ka1_ka2"><path d="M929.27,498.7917 C923.21,501.1917 917.01,503.4317 911,505.2617 C713.14,565.6517 627.76,477.5617 453,588.2617 C430.09,602.7817 415.7165,623.4238 404.9565,643.6638" fill="none" id="ka1-to-ka2" style="stroke:#388E3C;stroke-width:1;stroke-dasharray:7.0,7.0;"/><polygon fill="#388E3C" points="402.14,648.9617,409.8966,642.8925,404.4871,644.5468,402.8328,639.1373,402.14,648.9617" style="stroke:#388E3C;stroke-width:1;"/><text fill="#000000" font-family="Segoe UI" font-size="11" lengthAdjust="spacing" textLength="75.8345" x="589.1538" y="555.1318">VRRP heartbeat</text><text fill="#000000" font-family="Segoe UI" font-size="11" lengthAdjust="spacing" textLength="102.1421" x="576" y="569.7627">(multicast 224.0.0.18)</text></g><!--link ka1 to vip--><g class="link" data-entity-1="ka1" data-entity-2="vip" data-source-line="83" data-uid="lnk44" id="link_ka1_vip"><path d="M972.73,446.0917 C970.33,413.8017 970.34,360.5717 990,320.2617 C995.53,308.9217 1000.1117,302.7671 1009.3717,294.4271" fill="none" id="ka1-to-vip" style="stroke:#388E3C;stroke-width:1;stroke-dasharray:7.0,7.0;"/><polygon fill="#388E3C" points="1013.83,290.4117,1004.4656,293.4626,1010.1147,293.7579,1009.8194,299.407,1013.83,290.4117" style="stroke:#388E3C;stroke-width:1;"/><text fill="#000000" font-family="Segoe UI" font-size="11" lengthAdjust="spacing" textLength="78.5361" x="991" y="333.1318">&#1091;&#1087;&#1088;&#1072;&#1074;&#1083;&#1077;&#1085;&#1080;&#1077; VIP</text></g><!--link cs1 to squid_a1--><g class="link" data-entity-1="cs1" data-entity-2="squid_a1" data-source-line="86" data-uid="lnk45" id="link_cs1_squid_a1"><path d="M1237.19,505.5417 C1225.7,514.5517 1213.45,524.8717 1203,535.2617 C1184.84,553.3217 1189.63,568.2717 1167,580.2617 C1126.82,601.5517 1105.21,567.0317 1065,588.2617 C1039.61,601.6717 1023.0595,623.1504 1010.7595,643.9004" fill="none" id="cs1-to-squid_a1" style="stroke:#666666;stroke-width:1;stroke-dasharray:7.0,7.0;"/><polygon fill="#666666" points="1007.7,649.0617,1015.7301,643.3594,1010.2496,644.7606,1008.8483,639.28,1007.7,649.0617" style="stroke:#666666;stroke-width:1;"/><text fill="#000000" font-family="Segoe UI" font-size="11" lengthAdjust="spacing" textLength="40.4443" x="1208.1868" y="555.1318">&#1087;&#1072;&#1088;&#1089;&#1080;&#1085;&#1075;</text><text fill="#000000" font-family="Segoe UI" font-size="11" lengthAdjust="spacing" textLength="48.8179" x="1204" y="569.7627">access.log</text></g><!--link cs2 to squid_a2--><g class="link" data-entity-1="cs2" data-entity-2="squid_a2" data-source-line="87" data-uid="lnk46" id="link_cs2_squid_a2"><path d="M637.36,708.4917 C625,716.6517 611.2,725.2317 598,732.2617 C527.96,769.5817 448.3203,801.4513 393.7603,821.8413" fill="none" id="cs2-to-squid_a2" style="stroke:#666666;stroke-width:1;stroke-dasharray:7.0,7.0;"/><polygon fill="#666666" points="388.14,823.9417,397.9708,824.538,392.8236,822.1914,395.1702,817.0442,388.14,823.9417" style="stroke:#666666;stroke-width:1;"/><text fill="#000000" font-family="Segoe UI" font-size="11" lengthAdjust="spacing" textLength="40.4443" x="583.1868" y="760.1318">&#1087;&#1072;&#1088;&#1089;&#1080;&#1085;&#1075;</text><text fill="#000000" font-family="Segoe UI" font-size="11" lengthAdjust="spacing" textLength="48.8179" x="579" y="774.7627">access.log</text></g><!--link cs1 to cs_api--><g class="link" data-entity-1="cs1" data-entity-2="cs_api" data-source-line="88" data-uid="lnk47" id="link_cs1_cs_api"><path d="M1277.46,505.3817 C1278.05,544.3717 1279,616.3417 1279,677.7617 C1279,677.7617 1279,677.7617 1279,1086.7617 C1279,1162.8717 1192.2933,1206.2564 1136.0233,1226.8864" fill="none" id="cs1-to-cs_api" style="stroke:#666666;stroke-width:1;stroke-dasharray:7.0,7.0;"/><polygon fill="#666666" points="1130.39,1228.9517,1140.2169,1229.6093,1135.0844,1227.2306,1137.4631,1222.0982,1130.39,1228.9517" style="stroke:#666666;stroke-width:1;"/><text fill="#000000" font-family="Segoe UI" font-size="11" lengthAdjust="spacing" textLength="45.8906" x="1280" y="849.6318">pull/push</text></g><!--link cs2 to cs_api--><g class="link" data-entity-1="cs2" data-entity-2="cs_api" data-source-line="89" data-uid="lnk48" id="link_cs2_cs_api"><path d="M698.9,708.4317 C769.23,804.9217 993.3459,1112.393 1063.6159,1208.803" fill="none" id="cs2-to-cs_api" style="stroke:#666666;stroke-width:1;stroke-dasharray:7.0,7.0;"/><polygon fill="#666666" points="1067.15,1213.6517,1065.0814,1204.0226,1064.2049,1209.6111,1058.6164,1208.7347,1067.15,1213.6517" style="stroke:#666666;stroke-width:1;"/><text fill="#000000" font-family="Segoe UI" font-size="11" lengthAdjust="spacing" textLength="45.8906" x="884" y="950.6318">pull/push</text></g><!--link cs_u1 to cs_api--><g class="link" data-entity-1="cs_u1" data-entity-2="cs_api" data-source-line="90" data-uid="lnk49" id="link_cs_u1_cs_api"><path d="M783.49,1115.3017 C793.96,1135.6817 810.91,1161.9317 834,1176.2617 C908.13,1222.2717 945.95,1176.6017 1028,1206.2617 C1033.94,1208.4117 1034.622,1208.3935 1040.422,1211.4235" fill="none" id="cs_u1-to-cs_api" style="stroke:#666666;stroke-width:1;stroke-dasharray:7.0,7.0;"/><polygon fill="#666666" points="1045.74,1214.2017,1039.6151,1206.489,1041.3083,1211.8865,1035.9108,1213.5798,1045.74,1214.2017" style="stroke:#666666;stroke-width:1;"/><text fill="#000000" font-family="Segoe UI" font-size="11" lengthAdjust="spacing" textLength="45.8906" x="835" y="1165.6318">pull/push</text></g><rect fill="none" height="144.3477" rx="7.5" ry="7.5" style="stroke:#000000;stroke-width:1;" width="385.5527" x="980.4473" y="1433.719"/><text fill="#000000" font-family="Segoe UI" font-size="14" font-weight="bold" lengthAdjust="spacing" textLength="80.7734" x="989.3096" y="1455.8264">&#1062;&#1074;&#1077;&#1090; &#1083;&#1080;&#1085;&#1080;&#1080;</text><text fill="#000000" font-family="Segoe UI" font-size="14" font-weight="bold" lengthAdjust="spacing" textLength="81.9902" x="1077.8076" y="1455.8264">&#1053;&#1072;&#1079;&#1085;&#1072;&#1095;&#1077;&#1085;&#1080;&#1077;</text><rect fill="#2E7D32" height="18.6211" style="stroke:none;stroke-width:1;" width="88.498" x="985.4473" y="1459.3401"/><text fill="#000000" font-family="Segoe UI" font-size="14" lengthAdjust="spacing" textLength="63.5674" x="989.2822" y="1474.4475">&#1089;&#1087;&#1083;&#1086;&#1096;&#1085;&#1072;&#1103;</text><text fill="#000000" font-family="Segoe UI" font-size="14" lengthAdjust="spacing" textLength="225.709" x="1077.7803" y="1474.4475">&#1050;&#1083;&#1080;&#1077;&#1085;&#1090; &#8594; Access (HTTPS proxy :443)</text><rect fill="#0D47A1" height="18.6211" style="stroke:none;stroke-width:1;" width="88.498" x="985.4473" y="1477.9612"/><text fill="#000000" font-family="Segoe UI" font-size="14" lengthAdjust="spacing" textLength="63.5674" x="989.2822" y="1493.0686">&#1089;&#1087;&#1083;&#1086;&#1096;&#1085;&#1072;&#1103;</text><text fill="#000000" font-family="Segoe UI" font-size="14" lengthAdjust="spacing" textLength="279.3848" x="1077.7803" y="1493.0686">Telegram (fake-TLS :443 &#8594; relay &#8594; upstream)</text><rect fill="#1565C0" height="18.6211" style="stroke:none;stroke-width:1;" width="88.498" x="985.4473" y="1496.5823"/><text fill="#000000" font-family="Segoe UI" font-size="14" lengthAdjust="spacing" textLength="63.5674" x="989.2822" y="1511.6897">&#1089;&#1087;&#1083;&#1086;&#1096;&#1085;&#1072;&#1103;</text><text fill="#000000" font-family="Segoe UI" font-size="14" lengthAdjust="spacing" textLength="223.918" x="1077.7803" y="1511.6897">Access &#8594; Upstream (cache_peer :80)</text><rect fill="#E65100" height="18.6211" style="stroke:none;stroke-width:1;" width="88.498" x="985.4473" y="1515.2034"/><text fill="#000000" font-family="Segoe UI" font-size="14" lengthAdjust="spacing" textLength="63.5674" x="989.2822" y="1530.3108">&#1089;&#1087;&#1083;&#1086;&#1096;&#1085;&#1072;&#1103;</text><text fill="#000000" font-family="Segoe UI" font-size="14" lengthAdjust="spacing" textLength="255.5547" x="1077.7803" y="1530.3108">Upstream &#8594; &#1074;&#1085;&#1077;&#1096;&#1085;&#1080;&#1081; API / Telegram DC</text><rect fill="#388E3C" height="18.6211" style="stroke:none;stroke-width:1;" width="88.498" x="985.4473" y="1533.8244"/><text fill="#000000" font-family="Segoe UI" font-size="14" lengthAdjust="spacing" textLength="52.001" x="989.2822" y="1548.9319">&#1087;&#1091;&#1085;&#1082;&#1090;&#1080;&#1088;</text><text fill="#000000" font-family="Segoe UI" font-size="14" lengthAdjust="spacing" textLength="207.4844" x="1077.7803" y="1548.9319">VRRP / Keepalived (control plane)</text><rect fill="#666666" height="18.6211" style="stroke:none;stroke-width:1;" width="88.498" x="985.4473" y="1552.4455"/><text fill="#000000" font-family="Segoe UI" font-size="14" lengthAdjust="spacing" textLength="52.001" x="989.2822" y="1567.553">&#1087;&#1091;&#1085;&#1082;&#1090;&#1080;&#1088;</text><text fill="#000000" font-family="Segoe UI" font-size="14" lengthAdjust="spacing" textLength="237.0635" x="1077.7803" y="1567.553">CrowdSec &#1084;&#1086;&#1085;&#1080;&#1090;&#1086;&#1088;&#1080;&#1085;&#1075; (control plane)</text><line style="stroke:#000000;stroke-width:1;" x1="985.4473" x2="1361" y1="1440.719" y2="1440.719"/><line style="stroke:#000000;stroke-width:1;" x1="985.4473" x2="1361" y1="1459.3401" y2="1459.3401"/><line style="stroke:#000000;stroke-width:1;" x1="985.4473" x2="1361" y1="1477.9612" y2="1477.9612"/><line style="stroke:#000000;stroke-width:1;" x1="985.4473" x2="1361" y1="1496.5823" y2="1496.5823"/><line style="stroke:#000000;stroke-width:1;" x1="985.4473" x2="1361" y1="1515.2034" y2="1515.2034"/><line style="stroke:#000000;stroke-width:1;" x1="985.4473" x2="1361" y1="1533.8244" y2="1533.8244"/><line style="stroke:#000000;stroke-width:1;" x1="985.4473" x2="1361" y1="1552.4455" y2="1552.4455"/><line style="stroke:#000000;stroke-width:1;" x1="985.4473" x2="1361" y1="1571.0666" y2="1571.0666"/><line style="stroke:#000000;stroke-width:1;" x1="985.4473" x2="985.4473" y1="1440.719" y2="1571.0666"/><line style="stroke:#000000;stroke-width:1;" x1="1073.9453" x2="1073.9453" y1="1440.719" y2="1571.0666"/><line style="stroke:#000000;stroke-width:1;" x1="1361" x2="1361" y1="1440.719" y2="1571.0666"/><!--SRC=[fLTjRzjK5FxkNt5eF-28DOsTbwOHhPGuyQZ6HjIa0xHCbMVV9LQTUutjh1jiKYaI8F5X0l49XCG7nEVHKL46tVw2ynVu9Pnx_PhKUtUbrhttdEUSUvxpSlrEC25J0gvZs5Jo3spg6funXLk6UJ3ss8nQ6dEO1wjwZ__a92nosvWvWSveSCr0X9K16JC2UpihnK83-tC2YfBRlCOiqc6UHRpOHbKyEGcDJLr62GqMnEhYoOdj4ZCmwDXPHDiGZoG5Tk0G27yCpy97uUFv4Vx-5tyUWNZzApoPVpy_cX_FlmjFyF_py6p-4DexqFPzsqVOm8U-n-xUawHtOMrj3Tfcm3oVlqe6VuMLyAVm7mG_3S_dnoCgxtHxw-4V77p-5SAVpezAAs3uO3esdYHH6XA7ZD7v4GsVPEf2C1ZlnxAnoUixVP0f2GwPTm2eDyMzal30IquEAoY4nfLDjQmqckLAMOsith5T94_NDxLQTWAJ-3uCRUA17FuQ_dO1wwA4m3B4ydx0brTxJRtUsuGl90c08fEf5gSL5FJbQdimxEt6gbH1KS37J3Y55JgswLqONDk1NJOBY3UYhLgjAkJ5bWAhxNgtqTvOLXnyDhEj-1mZwZ3JS2RC3rfLHMqATPyBx1i8e3Lx3Mrp6M3uuG2pnZ7kvRKt4-CUttckyIk4k8PZto7MqXaFkBqeBCiwciSEhG4nHxGzvWllGGThooHUb1a-AZOLRQDPMrQSqLky2FDkrYCdBUhdNNnGp8EAFdRQsfMzViA3-leyg6_BW_eMFAYln4F-Z0VStflneBuH3-e23m-IEjjp_S0Zs9_YEZh1vd8AXGNt0b5XP1Rl9xLNrLMzcw-z522glaZfrMiEvAj3qUM0KUTUAQD-VuP9rgXrwdgZcFp4CE8qAo1RDZzLAKS-1zYiQ6tz0Xc9INaQZ4lvoAgLPXJRQU2YTarjr_NwihQEbWuDnq7oz_IF8ukt3r6yq-dszCxhCly2Fr_8_MA0Skptxc9qgU48gas7pIoiJ1mh_HtqM7ECcKKkWJOnWilzuQKHlKocDhLnXRcsmu9BK2wNuvArzmtN5asysgiaKCdyWAwM30tBN1RA3gtXIJnq1iqd1yw3eizRMrlGDGA3NmKemVDJYapQZFeW-yonhH8NuPAQ64wmjYq64_w9SWfVylqW-p_DJLo98Y2PCSIDLRMtqQsgDt6BJweMV30SzWSZwehCuAafyVK5mNWsj81t3vcdikiHD62L92dUMv1FXq4hkOyizofafB_xqIUV8X0BcCcSaXGtlY8WzRM0fDGyOYdrHbshP5WpxfHfc1Eoxn9HZBo8PZxn9eO_AKcfnJVGbL8nLEurwaf5ACVf54Sw2Z6IckHJ2ynYUkLe-fVu2W-yQCwvxQH52G6iQ26N9QcKtcguEvLkRQEjPApVDWx86aSLxcGaPdBnJ6w9rkNnrZMY_ttz0uXf8SMx2nff_ueIHIbNHpHnCcSd3b2c9vhEHJkyAKbYRo6SKTsrG3IpW2MLfE6DrsDEKJ5Po0x9gYaROt1zTxSlyLj4-SPgjTdiLRMRvMqnpbfY3oR4y89RnC2yawUOVhPf-06eQWtlUvMoqYnTr8xYYpVHP-AwUu9tpLD-oSNnWlIASewRXCIl8QZR40_NpHLE-0oliqVpBr7nF7myeb4ob1qsblZKB59JNwQsP2rkIIrmPuwpxixyoKNeGXdEuCkaugOS_eodVomYy2T-0V3MZ1bAg0MUFPu4sC7lRq7uEuRfT7uCubxEOtKcbdyHdmldUA9lqXZUvohlnprY6_2apr3hwVnR8VSGxaF-wm1u9iNjKOxgBsjqfGGiIiL2iBIWv8MA4RXHGVAth1HZnAXr52B6td2rj4_BMLS1R2efJ9JrXJ2fBWUAhYzYzopycpTyMC_tWWGloj9jp1BCp_FmoVmOFxwE44qa-tg-D6GpNr2fHn7d1GX9KWD-wJqL7tN7wEzHb8S5Q3m5eaoG_WS0]--></g></svg>